<?xml version="1.0" encoding="UTF-8" standalone="no"?><!DOCTYPE svg PUBLIC "-//W3C//DTD SVG 1.1//EN" "http://www.w3.org/Graphics/SVG/1.1/DTD/svg11.dtd"><svg width="100%" height="100%" viewBox="0 0 217 112" version="1.1" xmlns="http://www.w3.org/2000/svg" xmlns:xlink="http://www.w3.org/1999/xlink" xml:space="preserve" xmlns:serif="http://www.serif.com/" style="fill-rule:evenodd;clip-rule:evenodd;stroke-linejoin:round;stroke-miterlimit:1.41421;"><g><path d="M95.781,51.05c-0.581,0 -0.624,0 -1.239,0.032l-0.065,-0.073c0.032,-1.157 0.065,-2.406 0.054,-3.471c-0.252,0 -0.527,-0.01 -1.031,-0.01c-0.855,0 -1.799,0.01 -2.555,0.021c-0.011,1.962 0.022,2.655 0.076,3.43l-0.054,0.071c-0.604,0 -0.636,0 -1.239,0.032l-0.066,-0.073c0.043,-1.012 0.054,-1.539 0.054,-4.669c0,-1.394 -0.032,-1.891 -0.065,-2.511l0.065,-0.072c0.56,-0.01 0.691,-0.01 1.218,-0.03l0.055,0.071c-0.011,0.61 -0.033,1.457 -0.033,2.873c0.57,0.01 0.877,0.021 1.59,0.021c1.009,0 1.47,-0.011 1.985,-0.032c-0.022,-1.963 -0.022,-2.19 -0.077,-2.831l0.055,-0.072c0.592,-0.01 0.68,-0.01 1.217,-0.03l0.055,0.071c-0.033,1.003 -0.044,1.654 -0.044,3.461c0,2.005 0.044,2.769 0.11,3.72l-0.066,0.071Z" style="fill:#aca39b;fill-rule:nonzero;"/><path d="M102.065,47.9c0,-0.434 0,-1.002 -0.076,-1.292c-0.23,-0.805 -1.02,-1.063 -1.831,-1.063c-0.648,0 -1.284,0.134 -1.899,0.34l-0.065,0.062c-0.01,0.217 -0.01,0.279 -0.033,0.754l0.088,0.052c0.461,-0.186 0.954,-0.392 1.667,-0.392c0.548,0 0.801,0.196 0.911,0.382c0.099,0.166 0.099,0.361 0.099,0.64l-0.188,0.021c-1.974,0.217 -3.202,0.662 -3.202,2.046c0,1.022 0.768,1.724 1.864,1.724c0.834,0 1.328,-0.371 1.537,-0.526l-0.011,0.372l0.043,0.062c0.505,-0.021 0.593,-0.032 1.107,-0.041l0.056,-0.053c-0.056,-0.671 -0.067,-0.784 -0.067,-2.065l0,-1.023Zm-1.128,0.248l0,1.725c-0.121,0.103 -0.516,0.454 -1.197,0.454c-1.041,0 -1.041,-0.887 -1.041,-0.939c0,-0.92 1.031,-1.064 2.138,-1.219l0.1,-0.021Z" style="fill:#aca39b;fill-rule:nonzero;"/><path d="M108.931,45.711c-0.022,0.784 -0.033,1.517 -0.033,2.355c0,1.27 0.033,2.034 0.056,2.478c0,0.146 0.01,0.29 0.021,0.435l-0.044,0.062c-0.526,0.009 -0.614,0.02 -1.118,0.041l-0.066,-0.062l0.011,-0.434c-0.241,0.165 -0.823,0.588 -1.722,0.588c-0.428,0 -0.899,-0.092 -1.25,-0.351c-0.702,-0.537 -0.702,-1.415 -0.713,-2.22l0,-0.641c-0.022,-1.478 -0.022,-1.643 -0.055,-2.2l0.055,-0.073c0.515,-0.01 0.614,-0.01 1.129,-0.051l0.067,0.073l-0.045,2.261c0,0.279 -0.011,0.486 0,0.981c0.011,0.435 0.034,1.364 1.141,1.364c0.647,0 1.108,-0.341 1.371,-0.537c0.011,-0.558 0.011,-1.033 0.011,-1.632c0,-1.436 -0.011,-1.726 -0.077,-2.397l0.066,-0.072c0.505,-0.01 0.624,-0.01 1.129,-0.041l0.066,0.073Z" style="fill:#aca39b;fill-rule:nonzero;"/><path d="M113.482,50.234c-0.032,0.341 -0.032,0.414 -0.043,0.713l-0.055,0.062c-0.23,0.052 -0.417,0.093 -0.823,0.093c-0.263,0 -0.954,0 -1.293,-0.536c-0.198,-0.301 -0.198,-0.548 -0.198,-1.767l0.022,-2.273c-0.384,0 -0.395,0.01 -0.79,0.02l-0.043,-0.062c0.021,-0.33 0.021,-0.413 0.021,-0.743l0.065,-0.062c0.242,0 0.384,0.01 0.747,0c-0.011,-0.217 -0.011,-0.444 -0.011,-0.661c-0.011,-0.197 -0.022,-0.393 -0.033,-0.59l0.055,-0.071c0.493,-0.114 0.614,-0.145 1.119,-0.289l0.076,0.051c-0.033,0.682 -0.044,0.816 -0.044,1.57c0.461,-0.01 0.592,-0.01 1.217,-0.031l0.056,0.062c-0.023,0.268 -0.034,0.382 -0.034,0.734l-0.054,0.062c-0.548,-0.011 -0.615,-0.021 -1.195,-0.021l-0.022,1.922c0.011,0.124 0.011,0.712 0.011,0.858c0,0.753 0.098,0.99 0.647,0.99c0.23,0 0.406,-0.051 0.526,-0.093l0.076,0.062Z" style="fill:#aca39b;fill-rule:nonzero;"/><path d="M119.361,49.739c-0.143,0.113 -0.384,0.3 -0.79,0.454c-0.306,0.103 -0.636,0.155 -0.953,0.155c-0.341,0 -0.967,-0.052 -1.415,-0.558c-0.374,-0.422 -0.406,-0.93 -0.417,-1.291c1.797,-0.01 2.095,-0.01 3.806,0l0.075,-0.062c0.011,-0.454 0.035,-1.477 -0.591,-2.18c-0.33,-0.372 -0.932,-0.712 -1.799,-0.712c-1.437,0 -2.665,0.939 -2.665,2.861c0,1.798 1.129,2.768 2.928,2.768c0.976,0 1.568,-0.298 1.756,-0.391l0.065,-0.073c0.022,-0.403 0.033,-0.506 0.087,-0.92l-0.087,-0.051Zm-0.822,-2.036c-1.01,0.011 -1.426,0.022 -2.753,0.011c0.11,-1.033 0.833,-1.426 1.447,-1.426c0.493,0 0.976,0.238 1.196,0.806c0.087,0.238 0.099,0.465 0.11,0.609Z" style="fill:#aca39b;fill-rule:nonzero;"/><path d="M129.824,50.204c-0.035,0.351 -0.035,0.423 -0.056,0.775l-0.078,0.071c-2.136,0 -2.476,0.011 -4.56,0.032l-0.056,-0.073c0.034,-0.816 0.067,-1.374 0.067,-3.264c0,-1.736 0,-2.727 -0.078,-3.916l0.067,-0.072c2.16,-0.01 2.588,-0.01 4.605,-0.03l0.067,0.071c-0.034,0.311 -0.056,0.435 -0.077,0.806l-0.065,0.072c-1.416,-0.04 -1.888,-0.04 -3.279,-0.051c-0.034,0.951 -0.034,1.251 -0.034,2.2c1.35,0.011 1.766,0 3.104,-0.02l0.054,0.072c-0.043,0.362 -0.043,0.465 -0.054,0.796l-0.067,0.072c-1.271,-0.031 -1.547,-0.031 -3.037,-0.031c-0.022,1.198 -0.011,1.488 0,2.469c1.656,0 1.994,0 3.41,-0.052l0.067,0.073Z" style="fill:#aca39b;fill-rule:nonzero;"/><path d="M135.593,49.821c-0.045,0.444 -0.056,0.496 -0.089,0.92l-0.077,0.073c-0.317,0.144 -0.744,0.351 -1.512,0.351c-1.657,0 -2.731,-1.126 -2.731,-2.739c0,-1.641 1.052,-2.881 2.752,-2.881c0.712,0 1.217,0.217 1.502,0.331l0.043,0.071c-0.043,0.372 -0.054,0.507 -0.076,0.816l-0.088,0.042c-0.36,-0.248 -0.777,-0.403 -1.217,-0.403c-0.91,0 -1.71,0.661 -1.71,1.983c0,1.405 0.845,1.911 1.699,1.911c0.747,0 1.206,-0.361 1.415,-0.516l0.089,0.041Z" style="fill:#aca39b;fill-rule:nonzero;"/><path d="M142.128,48.282c-0.022,-0.723 -0.166,-1.446 -0.669,-1.994c-0.481,-0.516 -1.218,-0.743 -1.963,-0.743c-1.096,0 -1.732,0.422 -2.039,0.723c-0.735,0.692 -0.757,1.704 -0.757,2.097c0,0.341 0.01,1.394 0.757,2.107c0.35,0.342 0.975,0.693 1.963,0.693c0.767,0 1.415,-0.177 1.897,-0.631c0.362,-0.341 0.593,-0.744 0.712,-1.25c0.077,-0.31 0.099,-0.651 0.099,-1.002Zm-1.195,0.042c0.01,0.217 0,0.909 -0.253,1.373c-0.317,0.568 -0.845,0.692 -1.251,0.692c-0.218,0 -0.449,-0.041 -0.645,-0.134c-0.867,-0.414 -0.878,-1.456 -0.878,-1.87c0,-0.434 0.034,-1.033 0.328,-1.456c0.384,-0.579 0.999,-0.599 1.208,-0.599c0.613,0 0.964,0.268 1.173,0.588c0.274,0.456 0.318,1.148 0.318,1.406Z" style="fill:#aca39b;fill-rule:nonzero;"/><path d="M145.056,51.041c-0.527,0.009 -0.635,0.02 -1.152,0.041l-0.054,-0.073c0.023,-0.733 0.054,-1.663 0.054,-3.647c0,-1.425 0,-2.954 -0.109,-4.276l0.055,-0.062c0.537,-0.082 0.649,-0.103 1.196,-0.217l0.065,0.072c-0.077,1.354 -0.077,2.717 -0.077,4.07c0,2.263 0.032,3.048 0.088,4.03l-0.066,0.062Z" style="fill:#aca39b;fill-rule:nonzero;"/><path d="M151.571,49.739c-0.143,0.113 -0.384,0.3 -0.79,0.454c-0.306,0.103 -0.636,0.155 -0.953,0.155c-0.341,0 -0.965,-0.052 -1.416,-0.558c-0.373,-0.422 -0.405,-0.93 -0.416,-1.291c1.797,-0.01 2.095,-0.01 3.805,0l0.076,-0.062c0.013,-0.454 0.033,-1.477 -0.591,-2.18c-0.33,-0.372 -0.932,-0.712 -1.799,-0.712c-1.437,0 -2.665,0.939 -2.665,2.861c0,1.798 1.129,2.768 2.928,2.768c0.977,0 1.568,-0.298 1.754,-0.391l0.067,-0.073c0.021,-0.403 0.034,-0.506 0.086,-0.92l-0.086,-0.051Zm-0.824,-2.036c-1.008,0.011 -1.424,0.022 -2.751,0.011c0.108,-1.033 0.833,-1.426 1.447,-1.426c0.493,0 0.976,0.238 1.196,0.806c0.088,0.238 0.099,0.465 0.108,0.609Z" style="fill:#aca39b;fill-rule:nonzero;"/><path d="M160.114,46.918c0.8,0.332 1.865,0.765 1.865,2.087c0,1.158 -0.912,2.2 -2.82,2.2c-1.163,0 -1.908,-0.329 -2.171,-0.454l-0.044,-0.072c0.044,-0.362 0.055,-0.558 0.087,-0.951l0.111,-0.041c0.275,0.176 0.91,0.609 1.93,0.609c1.13,0 1.603,-0.547 1.603,-1.167c0,-0.723 -0.639,-1.001 -1.351,-1.26l-0.548,-0.228c-0.78,-0.341 -1.82,-0.785 -1.82,-2.045c0,-0.383 0.109,-0.775 0.339,-1.085c0.505,-0.682 1.415,-0.909 2.304,-0.909c0.867,0 1.391,0.155 1.973,0.331l0.056,0.082c-0.045,0.393 -0.056,0.537 -0.088,0.91l-0.088,0.041c-0.471,-0.228 -0.986,-0.476 -1.808,-0.476c-0.911,0 -1.482,0.403 -1.482,1.013c0,0.464 0.329,0.681 0.559,0.816c0.142,0.083 0.185,0.103 0.845,0.373l0.548,0.226Z" style="fill:#aca39b;fill-rule:nonzero;"/><path d="M164.873,45.669l-0.077,-0.062c-0.492,0.093 -0.613,0.124 -1.15,0.206l-0.056,0.063c0.133,1.177 0.133,1.9 0.142,3.501c0,0.61 0.011,1.219 0.011,1.828c0,1.055 -0.02,1.705 -0.043,2.335l0.056,0.062c0.382,-0.01 0.767,-0.02 1.15,-0.031l0.067,-0.062c-0.056,-0.971 -0.077,-1.239 -0.087,-2.479c0.153,0.011 0.285,0.02 0.492,0.02c2.313,0 3.443,-1.373 3.443,-2.974c0,-1.457 -0.975,-2.531 -2.369,-2.531c-0.854,0 -1.381,0.392 -1.6,0.557l0.021,-0.433Zm0,4.586c-0.011,-0.599 -0.021,-1.208 -0.021,-1.818c0,-0.526 0.01,-1.054 0.021,-1.591c0.253,-0.165 0.669,-0.434 1.262,-0.434c0.878,0 1.48,0.662 1.48,1.736c0,1.271 -0.834,2.138 -2.28,2.138c-0.188,0 -0.319,-0.021 -0.462,-0.031Z" style="fill:#aca39b;fill-rule:nonzero;"/><path d="M175.03,49.739c-0.144,0.113 -0.384,0.3 -0.791,0.454c-0.306,0.103 -0.635,0.155 -0.954,0.155c-0.339,0 -0.965,-0.052 -1.414,-0.558c-0.374,-0.422 -0.405,-0.93 -0.418,-1.291c1.8,-0.01 2.095,-0.01 3.806,0l0.078,-0.062c0.009,-0.454 0.032,-1.477 -0.594,-2.18c-0.328,-0.372 -0.93,-0.712 -1.797,-0.712c-1.437,0 -2.666,0.939 -2.666,2.861c0,1.798 1.13,2.768 2.929,2.768c0.976,0 1.568,-0.298 1.754,-0.391l0.067,-0.073c0.022,-0.403 0.033,-0.506 0.086,-0.92l-0.086,-0.051Zm-0.878,-6.354c-0.209,0.011 -0.417,0.011 -0.626,0.011c-0.209,0 -0.405,0 -0.646,-0.011l-0.067,0.053c-0.24,0.671 -0.559,1.331 -0.669,1.58l0.044,0.071c0.385,0 0.505,0 0.801,0.012l0.076,-0.042c0.495,-0.754 0.593,-0.898 1.13,-1.59l-0.043,-0.084Zm0.054,4.318c-1.008,0.011 -1.424,0.022 -2.753,0.011c0.11,-1.033 0.835,-1.426 1.449,-1.426c0.493,0 0.976,0.238 1.195,0.806c0.088,0.238 0.098,0.465 0.109,0.609Z" style="fill:#aca39b;fill-rule:nonzero;"/><path d="M181.127,49.821c-0.045,0.444 -0.054,0.496 -0.088,0.92l-0.076,0.073c-0.319,0.144 -0.746,0.351 -1.515,0.351c-1.656,0 -2.73,-1.126 -2.73,-2.739c0,-1.641 1.053,-2.881 2.753,-2.881c0.714,0 1.217,0.217 1.501,0.331l0.045,0.071c-0.045,0.372 -0.054,0.507 -0.076,0.816l-0.088,0.042c-0.363,-0.248 -0.779,-0.403 -1.217,-0.403c-0.91,0 -1.711,0.661 -1.711,1.983c0,1.405 0.844,1.911 1.7,1.911c0.745,0 1.205,-0.361 1.414,-0.516l0.088,0.041Z" style="fill:#aca39b;fill-rule:nonzero;"/><path d="M183.737,44.17c-0.56,0.022 -0.681,0.031 -1.216,0.084l-0.067,-0.062c0.011,-0.135 0.011,-0.28 0.011,-0.414c0,-0.186 -0.011,-0.351 -0.022,-0.559l0.078,-0.061c0.569,-0.041 0.668,-0.051 1.216,-0.103l0.066,0.062c-0.011,0.424 -0.011,0.527 0,0.981l-0.066,0.072Zm-0.012,6.871c-0.57,0.009 -0.657,0.009 -1.194,0.041l-0.055,-0.073c0.032,-0.547 0.066,-1.022 0.066,-2.169c0,-1.973 -0.034,-2.345 -0.109,-2.955l0.053,-0.072c0.471,-0.072 0.637,-0.093 1.185,-0.206l0.109,0.062c-0.032,0.537 -0.066,1.094 -0.066,2.427c0,1.922 0.023,2.18 0.066,2.883l-0.055,0.062Z" style="fill:#aca39b;fill-rule:nonzero;"/><path d="M189.944,47.9c0,-0.434 0,-1.002 -0.077,-1.292c-0.229,-0.805 -1.02,-1.063 -1.832,-1.063c-0.647,0 -1.282,0.134 -1.896,0.34l-0.067,0.062c-0.01,0.217 -0.01,0.279 -0.031,0.754l0.087,0.052c0.461,-0.186 0.953,-0.392 1.667,-0.392c0.549,0 0.801,0.196 0.909,0.382c0.099,0.166 0.099,0.361 0.099,0.64l-0.186,0.021c-1.973,0.217 -3.201,0.662 -3.201,2.046c0,1.022 0.768,1.724 1.863,1.724c0.833,0 1.327,-0.371 1.536,-0.526l-0.012,0.372l0.044,0.062c0.505,-0.021 0.594,-0.032 1.108,-0.041l0.054,-0.053c-0.054,-0.671 -0.065,-0.784 -0.065,-2.065l0,-1.023Zm-1.129,0.248l0,1.725c-0.122,0.103 -0.516,0.454 -1.196,0.454c-1.042,0 -1.042,-0.887 -1.042,-0.939c0,-0.92 1.031,-1.064 2.14,-1.219l0.098,-0.021Z" style="fill:#aca39b;fill-rule:nonzero;"/><path d="M193.147,51.041c-0.526,0.009 -0.637,0.02 -1.151,0.041l-0.056,-0.073c0.022,-0.733 0.056,-1.663 0.056,-3.647c0,-1.425 0,-2.954 -0.112,-4.276l0.056,-0.062c0.539,-0.082 0.647,-0.103 1.195,-0.217l0.065,0.072c-0.076,1.354 -0.076,2.717 -0.076,4.07c0,2.263 0.033,3.048 0.089,4.03l-0.066,0.062Z" style="fill:#aca39b;fill-rule:nonzero;"/><path d="M196.414,44.17c-0.559,0.022 -0.678,0.031 -1.217,0.084l-0.066,-0.062c0.011,-0.135 0.011,-0.28 0.011,-0.414c0,-0.186 -0.011,-0.351 -0.02,-0.559l0.075,-0.061c0.571,-0.041 0.669,-0.051 1.217,-0.103l0.067,0.062c-0.011,0.424 -0.011,0.527 0,0.981l-0.067,0.072Zm-0.011,6.871c-0.569,0.009 -0.658,0.009 -1.195,0.041l-0.054,-0.073c0.033,-0.547 0.065,-1.022 0.065,-2.169c0,-1.973 -0.032,-2.345 -0.109,-2.955l0.055,-0.072c0.471,-0.072 0.637,-0.093 1.185,-0.206l0.108,0.062c-0.031,0.537 -0.065,1.094 -0.065,2.427c0,1.922 0.021,2.18 0.065,2.883l-0.055,0.062Z" style="fill:#aca39b;fill-rule:nonzero;"/><path d="M200.746,47.911c0.441,0.134 1.438,0.454 1.438,1.549c0,0.413 -0.164,0.878 -0.614,1.219c-0.582,0.464 -1.361,0.495 -1.756,0.495c-0.591,0 -1.085,-0.103 -1.501,-0.258c-0.056,-0.02 -0.111,-0.04 -0.165,-0.061l-0.055,-0.093c0.043,-0.404 0.043,-0.455 0.066,-0.868l0.111,-0.031c0.196,0.144 0.677,0.495 1.523,0.495c0.867,0 1.185,-0.454 1.185,-0.774c0,-0.475 -0.471,-0.631 -1.142,-0.837l-0.35,-0.114c-0.451,-0.134 -1.436,-0.433 -1.436,-1.498c0,-1.064 0.985,-1.59 2.214,-1.59c0.81,0 1.382,0.217 1.579,0.29l0.055,0.071c-0.044,0.382 -0.055,0.424 -0.086,0.816l-0.099,0.041c-0.276,-0.165 -0.703,-0.413 -1.415,-0.413c-0.153,0 -0.307,0.011 -0.473,0.052c-0.33,0.082 -0.602,0.299 -0.602,0.62c0,0.444 0.449,0.579 1.131,0.775l0.392,0.114Z" style="fill:#aca39b;fill-rule:nonzero;"/><path d="M208.183,49.739c-0.143,0.113 -0.384,0.3 -0.789,0.454c-0.307,0.103 -0.637,0.155 -0.955,0.155c-0.34,0 -0.964,-0.052 -1.417,-0.558c-0.371,-0.422 -0.405,-0.93 -0.415,-1.291c1.798,-0.01 2.094,-0.01 3.806,0l0.076,-0.062c0.011,-0.454 0.034,-1.477 -0.592,-2.18c-0.329,-0.372 -0.933,-0.712 -1.798,-0.712c-1.436,0 -2.664,0.939 -2.664,2.861c0,1.798 1.129,2.768 2.927,2.768c0.977,0 1.569,-0.298 1.756,-0.391l0.065,-0.073c0.021,-0.403 0.032,-0.506 0.088,-0.92l-0.088,-0.051Zm-0.878,-6.354c-0.207,0.011 -0.416,0.011 -0.625,0.011c-0.208,0 -0.407,0 -0.646,-0.011l-0.067,0.053c-0.241,0.671 -0.559,1.331 -0.669,1.58l0.044,0.071c0.384,0 0.505,0 0.8,0.012l0.078,-0.042c0.494,-0.754 0.591,-0.898 1.13,-1.59l-0.045,-0.084Zm0.054,4.318c-1.008,0.011 -1.424,0.022 -2.752,0.011c0.111,-1.033 0.833,-1.426 1.447,-1.426c0.494,0 0.976,0.238 1.197,0.806c0.088,0.238 0.099,0.465 0.108,0.609Z" style="fill:#aca39b;fill-rule:nonzero;"/><path d="M214.62,49.739c-0.142,0.113 -0.384,0.3 -0.789,0.454c-0.309,0.103 -0.637,0.155 -0.954,0.155c-0.341,0 -0.965,-0.052 -1.415,-0.558c-0.373,-0.422 -0.405,-0.93 -0.416,-1.291c1.797,-0.01 2.095,-0.01 3.805,0l0.076,-0.062c0.011,-0.454 0.034,-1.477 -0.592,-2.18c-0.329,-0.372 -0.934,-0.712 -1.799,-0.712c-1.436,0 -2.664,0.939 -2.664,2.861c0,1.798 1.13,2.768 2.928,2.768c0.976,0 1.568,-0.298 1.756,-0.391l0.064,-0.073c0.022,-0.403 0.033,-0.506 0.089,-0.92l-0.089,-0.051Zm-0.822,-2.036c-1.009,0.011 -1.426,0.022 -2.752,0.011c0.109,-1.033 0.832,-1.426 1.445,-1.426c0.496,0 0.978,0.238 1.197,0.806c0.088,0.238 0.099,0.465 0.11,0.609Z" style="fill:#aca39b;fill-rule:nonzero;"/><path d="M104.753,55.425c0.054,0.599 0.11,1.219 0.099,2.5c-0.297,-0.021 -0.406,-0.021 -0.636,-0.021c-0.57,0 -1.612,0.032 -2.414,0.713c-0.46,0.382 -0.965,1.095 -0.965,2.221c0,1.57 1.009,2.656 2.469,2.656c0.8,0 1.249,-0.331 1.512,-0.517l-0.022,0.382l0.078,0.062c0.504,-0.021 0.635,-0.031 1.118,-0.031l0.055,-0.073c-0.045,-0.712 -0.088,-1.477 -0.088,-3.078c0,-1.032 0.011,-3.595 0.088,-5.031l-0.077,-0.062c-0.494,0.103 -0.603,0.124 -1.163,0.217l-0.054,0.062Zm0.054,6.694c-0.153,0.124 -0.558,0.455 -1.227,0.455c-0.571,0 -0.933,-0.248 -1.131,-0.465c-0.23,-0.258 -0.406,-0.682 -0.406,-1.271c0,-0.919 0.395,-1.405 0.637,-1.622c0.527,-0.464 1.25,-0.484 1.59,-0.484c0.231,0 0.362,0.02 0.548,0.029c0.011,1.695 0.011,2.005 -0.011,3.358Z" style="fill:#aca39b;fill-rule:nonzero;"/><path d="M112.485,62.078c-0.143,0.114 -0.384,0.3 -0.79,0.454c-0.308,0.104 -0.636,0.156 -0.955,0.156c-0.339,0 -0.964,-0.052 -1.413,-0.558c-0.373,-0.424 -0.407,-0.931 -0.418,-1.292c1.799,-0.01 2.095,-0.01 3.806,0l0.077,-0.062c0.011,-0.454 0.032,-1.477 -0.593,-2.179c-0.328,-0.372 -0.931,-0.713 -1.798,-0.713c-1.437,0 -2.665,0.94 -2.665,2.862c0,1.797 1.129,2.768 2.929,2.768c0.975,0 1.568,-0.299 1.753,-0.392l0.067,-0.073c0.022,-0.403 0.033,-0.506 0.087,-0.919l-0.087,-0.052Zm-0.823,-2.035c-1.009,0.01 -1.426,0.021 -2.753,0.01c0.11,-1.033 0.834,-1.425 1.448,-1.425c0.493,0 0.976,0.237 1.195,0.805c0.088,0.238 0.099,0.466 0.11,0.61Z" style="fill:#aca39b;fill-rule:nonzero;"/><path d="M121.028,59.258c0.801,0.33 1.865,0.765 1.865,2.087c0,1.157 -0.911,2.2 -2.82,2.2c-1.161,0 -1.907,-0.33 -2.171,-0.456l-0.043,-0.071c0.043,-0.362 0.054,-0.557 0.087,-0.95l0.11,-0.042c0.274,0.176 0.91,0.61 1.93,0.61c1.129,0 1.601,-0.548 1.601,-1.167c0,-0.723 -0.636,-1.002 -1.35,-1.26l-0.548,-0.228c-0.777,-0.341 -1.821,-0.785 -1.821,-2.045c0,-0.383 0.112,-0.776 0.341,-1.086c0.505,-0.681 1.415,-0.908 2.304,-0.908c0.865,0 1.392,0.154 1.974,0.33l0.054,0.083c-0.043,0.392 -0.054,0.537 -0.087,0.909l-0.088,0.041c-0.472,-0.227 -0.988,-0.475 -1.81,-0.475c-0.91,0 -1.48,0.403 -1.48,1.012c0,0.465 0.328,0.682 0.559,0.817c0.142,0.082 0.187,0.102 0.844,0.371l0.549,0.228Z" style="fill:#aca39b;fill-rule:nonzero;"/><path d="M129.44,58.049c-0.022,0.785 -0.034,1.518 -0.034,2.355c0,1.27 0.034,2.036 0.056,2.48c0,0.144 0.011,0.289 0.021,0.433l-0.043,0.063c-0.526,0.01 -0.615,0.02 -1.119,0.041l-0.065,-0.062l0.011,-0.434c-0.243,0.164 -0.824,0.589 -1.722,0.589c-0.427,0 -0.899,-0.093 -1.251,-0.351c-0.702,-0.538 -0.702,-1.416 -0.712,-2.221l0,-0.641c-0.022,-1.477 -0.022,-1.642 -0.056,-2.2l0.056,-0.073c0.514,-0.01 0.613,-0.01 1.128,-0.051l0.067,0.072l-0.044,2.262c0,0.28 -0.012,0.485 0,0.981c0.01,0.435 0.033,1.364 1.14,1.364c0.647,0 1.108,-0.34 1.371,-0.537c0.012,-0.557 0.012,-1.033 0.012,-1.632c0,-1.437 -0.012,-1.726 -0.079,-2.397l0.067,-0.072c0.506,-0.01 0.625,-0.01 1.129,-0.041l0.067,0.072Z" style="fill:#aca39b;fill-rule:nonzero;"/><path d="M132.698,56.509c-0.561,0.021 -0.682,0.032 -1.219,0.084l-0.066,-0.063c0.012,-0.134 0.012,-0.279 0.012,-0.412c0,-0.187 -0.012,-0.352 -0.022,-0.559l0.076,-0.062c0.571,-0.041 0.67,-0.051 1.219,-0.102l0.065,0.061c-0.011,0.423 -0.011,0.527 0,0.981l-0.065,0.072Zm-0.013,6.871c-0.57,0.01 -0.658,0.01 -1.195,0.041l-0.054,-0.073c0.032,-0.547 0.065,-1.022 0.065,-2.169c0,-1.972 -0.033,-2.345 -0.11,-2.954l0.056,-0.073c0.472,-0.072 0.636,-0.093 1.184,-0.207l0.11,0.063c-0.034,0.537 -0.065,1.095 -0.065,2.427c0,1.923 0.022,2.181 0.065,2.882l-0.056,0.063Z" style="fill:#aca39b;fill-rule:nonzero;"/><path d="M137.03,60.25c0.438,0.133 1.436,0.454 1.436,1.548c0,0.414 -0.165,0.879 -0.614,1.22c-0.582,0.465 -1.361,0.496 -1.756,0.496c-0.592,0 -1.085,-0.104 -1.502,-0.259c-0.054,-0.02 -0.11,-0.04 -0.164,-0.062l-0.055,-0.092c0.044,-0.403 0.044,-0.455 0.066,-0.868l0.11,-0.031c0.197,0.144 0.679,0.496 1.525,0.496c0.865,0 1.183,-0.455 1.183,-0.775c0,-0.475 -0.471,-0.631 -1.14,-0.837l-0.351,-0.113c-0.449,-0.135 -1.437,-0.434 -1.437,-1.498c0,-1.064 0.988,-1.591 2.215,-1.591c0.812,0 1.382,0.217 1.58,0.289l0.054,0.072c-0.043,0.383 -0.054,0.425 -0.087,0.816l-0.099,0.042c-0.274,-0.166 -0.701,-0.413 -1.415,-0.413c-0.153,0 -0.307,0.01 -0.472,0.051c-0.328,0.083 -0.603,0.3 -0.603,0.62c0,0.444 0.45,0.579 1.131,0.774l0.395,0.115Z" style="fill:#aca39b;fill-rule:nonzero;"/><path d="M142.315,60.25c0.438,0.133 1.435,0.454 1.435,1.548c0,0.414 -0.162,0.879 -0.614,1.22c-0.579,0.465 -1.36,0.496 -1.753,0.496c-0.593,0 -1.087,-0.104 -1.502,-0.259c-0.055,-0.02 -0.111,-0.04 -0.165,-0.062l-0.054,-0.092c0.043,-0.403 0.043,-0.455 0.065,-0.868l0.109,-0.031c0.199,0.144 0.68,0.496 1.524,0.496c0.866,0 1.184,-0.455 1.184,-0.775c0,-0.475 -0.47,-0.631 -1.139,-0.837l-0.35,-0.113c-0.452,-0.135 -1.438,-0.434 -1.438,-1.498c0,-1.064 0.986,-1.591 2.215,-1.591c0.812,0 1.381,0.217 1.58,0.289l0.054,0.072c-0.044,0.383 -0.054,0.425 -0.087,0.816l-0.099,0.042c-0.274,-0.166 -0.703,-0.413 -1.414,-0.413c-0.155,0 -0.308,0.01 -0.472,0.051c-0.33,0.083 -0.604,0.3 -0.604,0.62c0,0.444 0.451,0.579 1.129,0.774l0.396,0.115Z" style="fill:#aca39b;fill-rule:nonzero;"/><path d="M149.75,62.078c-0.143,0.114 -0.384,0.3 -0.79,0.454c-0.306,0.104 -0.636,0.156 -0.953,0.156c-0.341,0 -0.965,-0.052 -1.415,-0.558c-0.372,-0.424 -0.406,-0.931 -0.417,-1.292c1.798,-0.01 2.095,-0.01 3.805,0l0.077,-0.062c0.012,-0.454 0.034,-1.477 -0.592,-2.179c-0.33,-0.372 -0.932,-0.713 -1.799,-0.713c-1.435,0 -2.665,0.94 -2.665,2.862c0,1.797 1.129,2.768 2.928,2.768c0.977,0 1.569,-0.299 1.755,-0.392l0.066,-0.073c0.021,-0.403 0.034,-0.506 0.087,-0.919l-0.087,-0.052Zm-0.822,-2.035c-1.01,0.01 -1.426,0.021 -2.753,0.01c0.11,-1.033 0.833,-1.425 1.448,-1.425c0.492,0 0.975,0.237 1.195,0.805c0.088,0.238 0.099,0.466 0.11,0.61Z" style="fill:#aca39b;fill-rule:nonzero;"/><path d="M160.563,60.622c-0.022,-0.723 -0.164,-1.446 -0.668,-1.994c-0.482,-0.518 -1.218,-0.744 -1.964,-0.744c-1.096,0 -1.733,0.423 -2.039,0.724c-0.736,0.691 -0.757,1.703 -0.757,2.096c0,0.341 0.012,1.395 0.757,2.108c0.351,0.34 0.977,0.691 1.962,0.691c0.767,0 1.415,-0.175 1.898,-0.63c0.362,-0.341 0.591,-0.743 0.714,-1.249c0.075,-0.31 0.097,-0.651 0.097,-1.002Zm-1.194,0.041c0.01,0.216 0,0.909 -0.254,1.374c-0.317,0.568 -0.844,0.692 -1.249,0.692c-0.22,0 -0.449,-0.041 -0.647,-0.135c-0.867,-0.413 -0.878,-1.456 -0.878,-1.87c0,-0.433 0.034,-1.033 0.33,-1.455c0.384,-0.579 0.997,-0.599 1.206,-0.599c0.614,0 0.965,0.267 1.174,0.588c0.273,0.454 0.318,1.146 0.318,1.405Z" style="fill:#aca39b;fill-rule:nonzero;"/><path d="M166.431,62.161c-0.043,0.444 -0.056,0.495 -0.086,0.92l-0.078,0.071c-0.319,0.145 -0.746,0.351 -1.514,0.351c-1.655,0 -2.732,-1.125 -2.732,-2.737c0,-1.642 1.053,-2.882 2.753,-2.882c0.714,0 1.219,0.217 1.503,0.33l0.044,0.073c-0.044,0.372 -0.054,0.507 -0.076,0.816l-0.088,0.041c-0.361,-0.248 -0.779,-0.403 -1.217,-0.403c-0.911,0 -1.711,0.661 -1.711,1.983c0,1.406 0.844,1.912 1.7,1.912c0.745,0 1.206,-0.362 1.416,-0.517l0.086,0.042Z" style="fill:#aca39b;fill-rule:nonzero;"/><path d="M171.949,62.161c-0.047,0.444 -0.055,0.495 -0.09,0.92l-0.076,0.071c-0.317,0.145 -0.746,0.351 -1.512,0.351c-1.657,0 -2.733,-1.125 -2.733,-2.737c0,-1.642 1.055,-2.882 2.754,-2.882c0.713,0 1.217,0.217 1.502,0.33l0.043,0.073c-0.043,0.372 -0.054,0.507 -0.077,0.816l-0.087,0.041c-0.361,-0.248 -0.778,-0.403 -1.217,-0.403c-0.91,0 -1.711,0.661 -1.711,1.983c0,1.406 0.844,1.912 1.699,1.912c0.746,0 1.207,-0.362 1.415,-0.517l0.09,0.042Z" style="fill:#aca39b;fill-rule:nonzero;"/><path d="M174.558,56.509c-0.559,0.021 -0.68,0.032 -1.217,0.084l-0.067,-0.063c0.011,-0.134 0.011,-0.279 0.011,-0.412c0,-0.187 -0.011,-0.352 -0.02,-0.559l0.076,-0.062c0.569,-0.041 0.669,-0.051 1.217,-0.102l0.066,0.061c-0.012,0.423 -0.012,0.527 0,0.981l-0.066,0.072Zm-0.011,6.871c-0.569,0.01 -0.658,0.01 -1.195,0.041l-0.056,-0.073c0.034,-0.547 0.066,-1.022 0.066,-2.169c0,-1.972 -0.032,-2.345 -0.109,-2.954l0.056,-0.073c0.47,-0.072 0.634,-0.093 1.182,-0.207l0.11,0.063c-0.033,0.537 -0.067,1.095 -0.067,2.427c0,1.923 0.024,2.181 0.067,2.882l-0.054,0.063Z" style="fill:#aca39b;fill-rule:nonzero;"/><path d="M180.195,55.425c0.056,0.599 0.11,1.219 0.099,2.5c-0.297,-0.021 -0.405,-0.021 -0.637,-0.021c-0.571,0 -1.613,0.032 -2.413,0.713c-0.46,0.382 -0.965,1.095 -0.965,2.221c0,1.57 1.008,2.656 2.468,2.656c0.801,0 1.25,-0.331 1.515,-0.517l-0.024,0.382l0.077,0.062c0.505,-0.021 0.635,-0.031 1.12,-0.031l0.054,-0.073c-0.045,-0.712 -0.088,-1.477 -0.088,-3.078c0,-1.032 0.011,-3.595 0.088,-5.031l-0.077,-0.062c-0.492,0.103 -0.602,0.124 -1.161,0.217l-0.056,0.062Zm0.056,6.694c-0.155,0.124 -0.561,0.455 -1.23,0.455c-0.57,0 -0.932,-0.248 -1.129,-0.465c-0.23,-0.258 -0.407,-0.682 -0.407,-1.271c0,-0.919 0.397,-1.405 0.637,-1.622c0.526,-0.464 1.249,-0.484 1.59,-0.484c0.23,0 0.362,0.02 0.55,0.029c0.009,1.695 0.009,2.005 -0.011,3.358Z" style="fill:#aca39b;fill-rule:nonzero;"/><path d="M187.927,62.078c-0.143,0.114 -0.384,0.3 -0.789,0.454c-0.309,0.104 -0.637,0.156 -0.954,0.156c-0.341,0 -0.966,-0.052 -1.415,-0.558c-0.373,-0.424 -0.407,-0.931 -0.418,-1.292c1.798,-0.01 2.095,-0.01 3.805,0l0.077,-0.062c0.011,-0.454 0.035,-1.477 -0.591,-2.179c-0.329,-0.372 -0.932,-0.713 -1.799,-0.713c-1.437,0 -2.666,0.94 -2.666,2.862c0,1.797 1.13,2.768 2.929,2.768c0.975,0 1.569,-0.299 1.754,-0.392l0.067,-0.073c0.021,-0.403 0.032,-0.506 0.087,-0.919l-0.087,-0.052Zm-0.823,-2.035c-1.008,0.01 -1.425,0.021 -2.753,0.01c0.111,-1.033 0.834,-1.425 1.449,-1.425c0.492,0 0.975,0.237 1.195,0.805c0.086,0.238 0.099,0.466 0.109,0.61Z" style="fill:#aca39b;fill-rule:nonzero;"/><path d="M194.76,63.38c-0.529,0.01 -0.594,0.01 -1.099,0.041l-0.075,-0.073c0,-0.113 0.011,-0.226 0.011,-0.341c0.01,-0.505 0.01,-1.012 0.01,-1.518c0,-1.59 -0.01,-1.694 -0.066,-1.911c-0.208,-0.784 -0.833,-0.784 -0.986,-0.784c-0.659,0 -1.163,0.36 -1.459,0.578c-0.011,1.797 0.011,2.737 0.087,3.945l-0.065,0.063c-0.537,0.01 -0.626,0.01 -1.152,0.041l-0.054,-0.073c0.011,-0.578 0.032,-1.136 0.032,-1.9c0,-1.653 -0.077,-2.531 -0.131,-3.223l0.065,-0.073c0.548,-0.093 0.646,-0.113 1.162,-0.207l0.078,0.073l-0.011,0.537c0.285,-0.186 0.966,-0.64 1.931,-0.64c0.274,0 0.614,0.042 0.91,0.195c0.283,0.156 0.516,0.394 0.635,0.672c0.144,0.31 0.153,0.62 0.165,1.261l0,1.209c0.031,1.209 0.044,1.673 0.078,2.065l-0.066,0.063Z" style="fill:#aca39b;fill-rule:nonzero;"/><path d="M199.299,62.574c-0.032,0.341 -0.032,0.413 -0.043,0.712l-0.056,0.062c-0.229,0.052 -0.415,0.094 -0.821,0.094c-0.265,0 -0.955,0 -1.296,-0.537c-0.196,-0.3 -0.196,-0.547 -0.196,-1.767l0.021,-2.273c-0.384,0 -0.394,0.011 -0.789,0.021l-0.044,-0.062c0.021,-0.331 0.021,-0.413 0.021,-0.744l0.066,-0.062c0.241,0 0.386,0.01 0.746,0c-0.011,-0.217 -0.011,-0.444 -0.011,-0.661c-0.01,-0.197 -0.021,-0.392 -0.034,-0.589l0.056,-0.073c0.494,-0.112 0.615,-0.144 1.118,-0.288l0.077,0.052c-0.032,0.681 -0.043,0.816 -0.043,1.569c0.46,-0.01 0.591,-0.01 1.217,-0.03l0.056,0.061c-0.022,0.269 -0.034,0.383 -0.034,0.735l-0.054,0.061c-0.549,-0.011 -0.615,-0.021 -1.195,-0.021l-0.024,1.921c0.013,0.124 0.013,0.714 0.013,0.858c0,0.754 0.098,0.992 0.646,0.992c0.231,0 0.407,-0.052 0.527,-0.093l0.076,0.062Z" style="fill:#aca39b;fill-rule:nonzero;"/><path d="M204.903,60.239c0,-0.434 0,-1.002 -0.077,-1.291c-0.229,-0.807 -1.02,-1.064 -1.832,-1.064c-0.646,0 -1.281,0.134 -1.896,0.341l-0.067,0.062c-0.01,0.217 -0.01,0.279 -0.032,0.754l0.088,0.051c0.462,-0.186 0.954,-0.392 1.666,-0.392c0.548,0 0.801,0.196 0.91,0.383c0.1,0.165 0.1,0.36 0.1,0.64l-0.187,0.02c-1.973,0.218 -3.203,0.661 -3.203,2.046c0,1.023 0.769,1.725 1.866,1.725c0.833,0 1.325,-0.372 1.534,-0.527l-0.01,0.372l0.043,0.062c0.507,-0.021 0.592,-0.031 1.108,-0.041l0.056,-0.052c-0.056,-0.672 -0.067,-0.785 -0.067,-2.066l0,-1.023Zm-1.13,0.248l0,1.725c-0.121,0.104 -0.515,0.455 -1.194,0.455c-1.043,0 -1.043,-0.889 -1.043,-0.94c0,-0.919 1.031,-1.064 2.14,-1.22l0.097,-0.02Z" style="fill:#aca39b;fill-rule:nonzero;"/><path d="M208.106,63.38c-0.527,0.01 -0.637,0.02 -1.153,0.041l-0.054,-0.073c0.022,-0.732 0.054,-1.663 0.054,-3.646c0,-1.426 0,-2.955 -0.108,-4.277l0.054,-0.062c0.538,-0.083 0.647,-0.103 1.196,-0.217l0.066,0.072c-0.077,1.353 -0.077,2.718 -0.077,4.071c0,2.262 0.032,3.048 0.088,4.028l-0.066,0.063Z" style="fill:#aca39b;fill-rule:nonzero;"/><path d="M214.62,62.078c-0.142,0.114 -0.384,0.3 -0.789,0.454c-0.309,0.104 -0.637,0.156 -0.954,0.156c-0.341,0 -0.965,-0.052 -1.415,-0.558c-0.373,-0.424 -0.405,-0.931 -0.416,-1.292c1.797,-0.01 2.095,-0.01 3.805,0l0.076,-0.062c0.011,-0.454 0.034,-1.477 -0.592,-2.179c-0.329,-0.372 -0.934,-0.713 -1.799,-0.713c-1.436,0 -2.664,0.94 -2.664,2.862c0,1.797 1.13,2.768 2.928,2.768c0.976,0 1.568,-0.299 1.756,-0.392l0.064,-0.073c0.022,-0.403 0.033,-0.506 0.089,-0.919l-0.089,-0.052Zm-0.822,-2.035c-1.009,0.01 -1.426,0.021 -2.752,0.01c0.109,-1.033 0.832,-1.425 1.445,-1.425c0.496,0 0.978,0.237 1.197,0.805c0.088,0.238 0.099,0.466 0.11,0.61Z" style="fill:#aca39b;fill-rule:nonzero;"/><path d="M64.937,78.287c-1.086,-0.031 -1.305,-0.031 -2.61,-0.042c-0.022,0.445 -0.022,2.026 0.066,3.151l-0.055,0.073c-0.604,0 -0.691,0.009 -1.273,0.03l-0.054,-0.072c0.044,-0.786 0.065,-1.384 0.065,-4.432c0,-1.467 -0.032,-2.117 -0.065,-2.747l0.054,-0.073c0.758,0.01 3.663,-0.011 4.421,-0.031l0.054,0.072c-0.043,0.372 -0.043,0.424 -0.066,0.826l-0.066,0.064c-1.359,-0.032 -1.732,-0.042 -3.07,-0.042c-0.011,0.423 -0.033,1.466 -0.033,2.076l0,0.237c1.25,-0.009 1.623,-0.02 2.719,-0.051l0.056,0.062c-0.045,0.475 -0.045,0.526 -0.077,0.826l-0.066,0.073Z" style="fill:#aca39b;fill-rule:nonzero;"/><path d="M70.697,78.318c0,-0.434 0,-1.002 -0.077,-1.292c-0.23,-0.806 -1.02,-1.064 -1.832,-1.064c-0.647,0 -1.283,0.135 -1.896,0.342l-0.067,0.061c-0.011,0.218 -0.011,0.28 -0.032,0.755l0.088,0.051c0.46,-0.186 0.954,-0.393 1.666,-0.393c0.549,0 0.801,0.196 0.911,0.383c0.098,0.165 0.098,0.361 0.098,0.64l-0.185,0.02c-1.974,0.218 -3.203,0.662 -3.203,2.046c0,1.023 0.767,1.725 1.864,1.725c0.834,0 1.327,-0.371 1.535,-0.527l-0.011,0.372l0.044,0.062c0.505,-0.021 0.592,-0.03 1.108,-0.041l0.055,-0.053c-0.055,-0.671 -0.066,-0.784 -0.066,-2.065l0,-1.022Zm-1.13,0.248l0,1.725c-0.12,0.103 -0.515,0.455 -1.195,0.455c-1.042,0 -1.042,-0.889 -1.042,-0.941c0,-0.919 1.031,-1.064 2.139,-1.219l0.098,-0.02Z" style="fill:#aca39b;fill-rule:nonzero;"/><path d="M76.839,80.239c-0.045,0.443 -0.056,0.495 -0.088,0.919l-0.077,0.073c-0.318,0.145 -0.745,0.351 -1.513,0.351c-1.657,0 -2.731,-1.125 -2.731,-2.737c0,-1.643 1.052,-2.883 2.753,-2.883c0.713,0 1.216,0.217 1.502,0.331l0.044,0.072c-0.044,0.372 -0.055,0.507 -0.077,0.816l-0.088,0.041c-0.361,-0.248 -0.778,-0.402 -1.217,-0.402c-0.911,0 -1.711,0.661 -1.711,1.983c0,1.404 0.845,1.911 1.7,1.911c0.746,0 1.206,-0.361 1.415,-0.516l0.088,0.041Z" style="fill:#aca39b;fill-rule:nonzero;"/><path d="M83.089,81.458c-0.526,0.011 -0.591,0.011 -1.096,0.041l-0.077,-0.072l0.011,-0.34c0.012,-0.538 0.012,-1.086 0.012,-1.623l-0.012,-1.105c0,-0.237 0,-0.475 -0.054,-0.703c-0.121,-0.475 -0.428,-0.784 -0.987,-0.784c-0.625,0 -1.108,0.33 -1.47,0.578c-0.011,1.797 0.011,2.737 0.077,3.946l-0.055,0.062c-0.504,0.011 -0.636,0.011 -1.174,0.041l-0.054,-0.072c0.021,-0.733 0.054,-1.663 0.054,-3.646c0,-0.868 -0.011,-1.736 -0.022,-2.604c-0.022,-0.909 -0.054,-1.209 -0.087,-1.673l0.055,-0.062c0.526,-0.083 0.701,-0.114 1.195,-0.217l0.066,0.072c-0.066,1.106 -0.066,2.221 -0.066,3.337c0.351,-0.217 1.042,-0.641 1.963,-0.641c0.252,0 0.505,0.031 0.735,0.124c0.493,0.187 0.79,0.557 0.899,0.981c0.055,0.208 0.055,0.331 0.077,1.024l0,1.208l0.01,0.486c0.022,0.866 0.022,1.012 0.067,1.58l-0.067,0.062Z" style="fill:#aca39b;fill-rule:nonzero;"/><path d="M89.978,81.458c-0.527,0.011 -0.593,0.011 -1.098,0.041l-0.076,-0.072l0.011,-0.34c0.011,-0.538 0.011,-1.086 0.011,-1.623l-0.011,-1.105c0,-0.237 0,-0.475 -0.055,-0.703c-0.121,-0.475 -0.428,-0.784 -0.987,-0.784c-0.626,0 -1.108,0.33 -1.47,0.578c-0.011,1.797 0.011,2.737 0.076,3.946l-0.054,0.062c-0.504,0.011 -0.636,0.011 -1.173,0.041l-0.055,-0.072c0.022,-0.733 0.055,-1.663 0.055,-3.646c0,-0.868 -0.011,-1.736 -0.022,-2.604c-0.022,-0.909 -0.056,-1.209 -0.088,-1.673l0.055,-0.062c0.526,-0.083 0.702,-0.114 1.195,-0.217l0.066,0.072c-0.066,1.106 -0.066,2.221 -0.066,3.337c0.351,-0.217 1.042,-0.641 1.963,-0.641c0.252,0 0.505,0.031 0.735,0.124c0.494,0.187 0.789,0.557 0.899,0.981c0.055,0.208 0.055,0.331 0.077,1.024l0,1.208l0.012,0.486c0.022,0.866 0.022,1.012 0.065,1.58l-0.065,0.062Z" style="fill:#aca39b;fill-rule:nonzero;"/><path d="M97.149,78.7c-0.022,-0.723 -0.164,-1.446 -0.668,-1.994c-0.483,-0.516 -1.218,-0.744 -1.964,-0.744c-1.096,0 -1.732,0.423 -2.039,0.724c-0.735,0.691 -0.757,1.704 -0.757,2.097c0,0.341 0.011,1.395 0.757,2.107c0.35,0.341 0.976,0.692 1.963,0.692c0.768,0 1.414,-0.177 1.897,-0.63c0.362,-0.341 0.593,-0.745 0.713,-1.25c0.076,-0.311 0.098,-0.652 0.098,-1.002Zm-1.195,0.041c0.011,0.217 0,0.909 -0.252,1.373c-0.318,0.568 -0.844,0.694 -1.25,0.694c-0.22,0 -0.45,-0.042 -0.647,-0.135c-0.867,-0.413 -0.878,-1.457 -0.878,-1.87c0,-0.434 0.033,-1.033 0.329,-1.455c0.384,-0.581 0.998,-0.601 1.207,-0.601c0.614,0 0.964,0.269 1.174,0.589c0.274,0.455 0.317,1.147 0.317,1.405Z" style="fill:#aca39b;fill-rule:nonzero;"/><path d="M103.018,80.239c-0.044,0.443 -0.056,0.495 -0.089,0.919l-0.075,0.073c-0.319,0.145 -0.747,0.351 -1.515,0.351c-1.656,0 -2.732,-1.125 -2.732,-2.737c0,-1.643 1.054,-2.883 2.754,-2.883c0.714,0 1.218,0.217 1.503,0.331l0.044,0.072c-0.044,0.372 -0.054,0.507 -0.077,0.816l-0.087,0.041c-0.363,-0.248 -0.779,-0.402 -1.218,-0.402c-0.911,0 -1.712,0.661 -1.712,1.983c0,1.404 0.846,1.911 1.701,1.911c0.745,0 1.207,-0.361 1.414,-0.516l0.089,0.041Z" style="fill:#aca39b;fill-rule:nonzero;"/><path d="M109.269,81.458c-0.527,0.011 -0.593,0.011 -1.097,0.041l-0.077,-0.072l0.011,-0.34c0.012,-0.538 0.012,-1.086 0.012,-1.623l-0.012,-1.105c0,-0.237 0,-0.475 -0.055,-0.703c-0.121,-0.475 -0.427,-0.784 -0.987,-0.784c-0.625,0 -1.108,0.33 -1.469,0.578c-0.011,1.797 0.01,2.737 0.076,3.946l-0.054,0.062c-0.505,0.011 -0.637,0.011 -1.174,0.041l-0.055,-0.072c0.022,-0.733 0.055,-1.663 0.055,-3.646c0,-0.868 -0.01,-1.736 -0.022,-2.604c-0.022,-0.909 -0.055,-1.209 -0.088,-1.673l0.055,-0.062c0.526,-0.083 0.703,-0.114 1.196,-0.217l0.065,0.072c-0.065,1.106 -0.065,2.221 -0.065,3.337c0.351,-0.217 1.041,-0.641 1.963,-0.641c0.252,0 0.504,0.031 0.735,0.124c0.493,0.187 0.789,0.557 0.899,0.981c0.054,0.208 0.054,0.331 0.077,1.024l0,1.208l0.011,0.486c0.022,0.866 0.022,1.012 0.065,1.58l-0.065,0.062Z" style="fill:#aca39b;fill-rule:nonzero;"/><path d="M113.611,78.328c0.439,0.134 1.437,0.455 1.437,1.55c0,0.413 -0.165,0.877 -0.613,1.219c-0.583,0.465 -1.361,0.495 -1.756,0.495c-0.592,0 -1.086,-0.103 -1.502,-0.257c-0.054,-0.021 -0.11,-0.042 -0.164,-0.062l-0.056,-0.094c0.045,-0.403 0.045,-0.455 0.066,-0.866l0.11,-0.032c0.197,0.144 0.68,0.495 1.524,0.495c0.867,0 1.184,-0.454 1.184,-0.775c0,-0.475 -0.47,-0.63 -1.14,-0.836l-0.35,-0.115c-0.451,-0.134 -1.437,-0.433 -1.437,-1.497c0,-1.063 0.986,-1.591 2.215,-1.591c0.811,0 1.381,0.217 1.579,0.29l0.055,0.072c-0.044,0.382 -0.055,0.423 -0.088,0.816l-0.098,0.041c-0.274,-0.165 -0.702,-0.414 -1.415,-0.414c-0.154,0 -0.307,0.011 -0.472,0.053c-0.329,0.081 -0.603,0.3 -0.603,0.619c0,0.445 0.449,0.579 1.13,0.775l0.394,0.114Z" style="fill:#aca39b;fill-rule:nonzero;"/><path d="M120.708,80.239c-0.045,0.443 -0.056,0.495 -0.088,0.919l-0.078,0.073c-0.317,0.145 -0.745,0.351 -1.512,0.351c-1.657,0 -2.732,-1.125 -2.732,-2.737c0,-1.643 1.053,-2.883 2.753,-2.883c0.713,0 1.217,0.217 1.502,0.331l0.045,0.072c-0.045,0.372 -0.056,0.507 -0.077,0.816l-0.089,0.041c-0.361,-0.248 -0.777,-0.402 -1.217,-0.402c-0.91,0 -1.711,0.661 -1.711,1.983c0,1.404 0.846,1.911 1.701,1.911c0.746,0 1.206,-0.361 1.415,-0.516l0.088,0.041Z" style="fill:#aca39b;fill-rule:nonzero;"/><path d="M126.958,81.458c-0.526,0.011 -0.591,0.011 -1.096,0.041l-0.077,-0.072l0.01,-0.34c0.013,-0.538 0.013,-1.086 0.013,-1.623l-0.013,-1.105c0,-0.237 0,-0.475 -0.054,-0.703c-0.12,-0.475 -0.427,-0.784 -0.986,-0.784c-0.626,0 -1.109,0.33 -1.471,0.578c-0.011,1.797 0.011,2.737 0.077,3.946l-0.055,0.062c-0.505,0.011 -0.635,0.011 -1.174,0.041l-0.054,-0.072c0.022,-0.733 0.054,-1.663 0.054,-3.646c0,-0.868 -0.01,-1.736 -0.022,-2.604c-0.021,-0.909 -0.053,-1.209 -0.086,-1.673l0.054,-0.062c0.526,-0.083 0.701,-0.114 1.195,-0.217l0.067,0.072c-0.067,1.106 -0.067,2.221 -0.067,3.337c0.352,-0.217 1.042,-0.641 1.963,-0.641c0.253,0 0.505,0.031 0.736,0.124c0.492,0.187 0.79,0.557 0.898,0.981c0.056,0.208 0.056,0.331 0.077,1.024l0,1.208l0.011,0.486c0.023,0.866 0.023,1.012 0.067,1.58l-0.067,0.062Z" style="fill:#aca39b;fill-rule:nonzero;"/><path d="M133.834,76.128c-0.021,0.785 -0.033,1.519 -0.033,2.355c0,1.271 0.033,2.035 0.056,2.479c0,0.145 0.011,0.289 0.022,0.434l-0.045,0.062c-0.526,0.011 -0.613,0.02 -1.118,0.041l-0.065,-0.062l0.011,-0.434c-0.242,0.166 -0.824,0.589 -1.722,0.589c-0.429,0 -0.899,-0.093 -1.252,-0.351c-0.7,-0.537 -0.7,-1.415 -0.712,-2.22l0,-0.642c-0.023,-1.478 -0.023,-1.642 -0.055,-2.2l0.055,-0.071c0.517,-0.011 0.614,-0.011 1.13,-0.052l0.066,0.072l-0.045,2.262c0,0.278 -0.01,0.486 0,0.981c0.011,0.434 0.035,1.363 1.142,1.363c0.647,0 1.106,-0.34 1.37,-0.536c0.012,-0.557 0.012,-1.033 0.012,-1.632c0,-1.437 -0.012,-1.726 -0.077,-2.396l0.065,-0.073c0.505,-0.011 0.625,-0.011 1.13,-0.041l0.065,0.072Z" style="fill:#aca39b;fill-rule:nonzero;"/><path d="M137.059,81.458c-0.526,0.011 -0.636,0.02 -1.15,0.041l-0.056,-0.072c0.022,-0.733 0.056,-1.663 0.056,-3.646c0,-1.426 0,-2.955 -0.11,-4.277l0.054,-0.062c0.537,-0.083 0.647,-0.103 1.195,-0.217l0.065,0.072c-0.076,1.353 -0.076,2.717 -0.076,4.071c0,2.261 0.033,3.047 0.088,4.028l-0.066,0.062Z" style="fill:#aca39b;fill-rule:nonzero;"/><path d="M143.574,80.156c-0.144,0.115 -0.386,0.301 -0.791,0.455c-0.306,0.103 -0.635,0.155 -0.954,0.155c-0.339,0 -0.964,-0.052 -1.413,-0.559c-0.374,-0.422 -0.406,-0.929 -0.417,-1.291c1.798,-0.009 2.093,-0.009 3.804,0l0.076,-0.061c0.013,-0.455 0.034,-1.478 -0.591,-2.181c-0.329,-0.37 -0.933,-0.712 -1.798,-0.712c-1.437,0 -2.664,0.939 -2.664,2.861c0,1.798 1.128,2.769 2.926,2.769c0.977,0 1.568,-0.299 1.755,-0.392l0.067,-0.071c0.02,-0.405 0.032,-0.508 0.087,-0.922l-0.087,-0.051Zm-0.822,-2.034c-1.009,0.01 -1.426,0.02 -2.753,0.01c0.108,-1.034 0.833,-1.426 1.446,-1.426c0.494,0 0.975,0.237 1.196,0.806c0.088,0.237 0.099,0.465 0.111,0.61Z" style="fill:#aca39b;fill-rule:nonzero;"/><path d="M156.229,81.469c-0.746,0 -0.856,0 -1.579,0.03l-0.076,-0.072c-0.177,-1.033 -0.243,-1.333 -0.396,-2.087l-0.9,-4.453l-0.91,4.216c-0.054,0.279 -0.11,0.568 -0.175,0.847c-0.088,0.444 -0.251,1.199 -0.297,1.446l-0.065,0.073c-0.79,0 -0.833,0.009 -1.59,0.03l-0.076,-0.072c-0.198,-0.93 -1.108,-4.844 -1.7,-7.179l0.054,-0.073c0.615,0 0.714,-0.011 1.25,-0.031l0.066,0.072c0.067,0.363 0.132,0.693 0.231,1.208c0.088,0.466 0.175,0.921 0.263,1.375l0.799,3.947l0.923,-4.576c0.153,-0.755 0.176,-0.878 0.373,-1.922l0.066,-0.073c0.833,-0.011 0.976,-0.011 1.742,-0.031l0.067,0.072c0.011,0.083 0.021,0.166 0.032,0.258c0.045,0.269 0.298,1.592 0.362,1.943l0.867,4.359l0.855,-4.08c0.406,-1.994 0.417,-2.036 0.473,-2.448l0.064,-0.073c0.505,0 0.615,-0.011 1.076,-0.031l0.055,0.072c-0.253,0.806 -0.317,1.085 -0.922,3.595c-0.273,1.127 -0.569,2.242 -0.81,3.368c-0.011,0.072 -0.035,0.145 -0.044,0.217l-0.078,0.073Z" style="fill:#aca39b;fill-rule:nonzero;"/><path d="M163.579,80.156c-0.142,0.115 -0.384,0.301 -0.79,0.455c-0.307,0.103 -0.635,0.155 -0.953,0.155c-0.339,0 -0.965,-0.052 -1.415,-0.559c-0.372,-0.422 -0.406,-0.929 -0.417,-1.291c1.798,-0.009 2.095,-0.009 3.806,0l0.076,-0.061c0.011,-0.455 0.034,-1.478 -0.592,-2.181c-0.328,-0.37 -0.932,-0.712 -1.797,-0.712c-1.437,0 -2.666,0.939 -2.666,2.861c0,1.798 1.13,2.769 2.928,2.769c0.976,0 1.568,-0.299 1.755,-0.392l0.065,-0.071c0.022,-0.405 0.034,-0.508 0.088,-0.922l-0.088,-0.051Zm-0.822,-2.034c-1.008,0.01 -1.426,0.02 -2.753,0.01c0.11,-1.034 0.833,-1.426 1.448,-1.426c0.493,0 0.975,0.237 1.195,0.806c0.088,0.237 0.099,0.465 0.11,0.61Z" style="fill:#aca39b;fill-rule:nonzero;"/><path d="M167.868,78.328c0.438,0.134 1.437,0.455 1.437,1.55c0,0.413 -0.164,0.877 -0.614,1.219c-0.582,0.465 -1.362,0.495 -1.755,0.495c-0.591,0 -1.085,-0.103 -1.502,-0.257c-0.056,-0.021 -0.112,-0.042 -0.165,-0.062l-0.055,-0.094c0.043,-0.403 0.043,-0.455 0.065,-0.866l0.11,-0.032c0.198,0.144 0.679,0.495 1.525,0.495c0.867,0 1.183,-0.454 1.183,-0.775c0,-0.475 -0.471,-0.63 -1.14,-0.836l-0.35,-0.115c-0.45,-0.134 -1.436,-0.433 -1.436,-1.497c0,-1.063 0.986,-1.591 2.214,-1.591c0.811,0 1.383,0.217 1.579,0.29l0.056,0.072c-0.043,0.382 -0.056,0.423 -0.088,0.816l-0.098,0.041c-0.275,-0.165 -0.703,-0.414 -1.415,-0.414c-0.155,0 -0.307,0.011 -0.473,0.053c-0.328,0.081 -0.601,0.3 -0.601,0.619c0,0.445 0.448,0.579 1.128,0.775l0.395,0.114Z" style="fill:#aca39b;fill-rule:nonzero;"/><path d="M173.352,80.653c-0.035,0.341 -0.035,0.412 -0.043,0.712l-0.056,0.062c-0.232,0.051 -0.417,0.093 -0.822,0.093c-0.264,0 -0.954,0 -1.296,-0.537c-0.197,-0.301 -0.197,-0.548 -0.197,-1.767l0.023,-2.273c-0.386,0 -0.395,0.011 -0.791,0.022l-0.043,-0.064c0.022,-0.329 0.022,-0.411 0.022,-0.743l0.066,-0.061c0.241,0 0.384,0.011 0.746,0c-0.013,-0.217 -0.013,-0.445 -0.013,-0.661c-0.01,-0.197 -0.021,-0.394 -0.032,-0.59l0.056,-0.071c0.494,-0.115 0.615,-0.145 1.119,-0.29l0.076,0.052c-0.032,0.682 -0.045,0.817 -0.045,1.571c0.462,-0.011 0.593,-0.011 1.219,-0.032l0.054,0.062c-0.022,0.268 -0.033,0.381 -0.033,0.734l-0.053,0.061c-0.55,-0.01 -0.616,-0.02 -1.198,-0.02l-0.02,1.922c0.01,0.123 0.01,0.712 0.01,0.857c0,0.753 0.099,0.99 0.647,0.99c0.231,0 0.405,-0.051 0.526,-0.093l0.078,0.064Z" style="fill:#aca39b;fill-rule:nonzero;"/><path d="M177.08,78.328c0.44,0.134 1.437,0.455 1.437,1.55c0,0.413 -0.164,0.877 -0.615,1.219c-0.581,0.465 -1.359,0.495 -1.755,0.495c-0.592,0 -1.084,-0.103 -1.501,-0.257c-0.056,-0.021 -0.112,-0.042 -0.166,-0.062l-0.054,-0.094c0.044,-0.403 0.044,-0.455 0.065,-0.866l0.11,-0.032c0.197,0.144 0.681,0.495 1.525,0.495c0.867,0 1.185,-0.454 1.185,-0.775c0,-0.475 -0.473,-0.63 -1.142,-0.836l-0.35,-0.115c-0.45,-0.134 -1.438,-0.433 -1.438,-1.497c0,-1.063 0.988,-1.591 2.216,-1.591c0.812,0 1.382,0.217 1.581,0.29l0.053,0.072c-0.044,0.382 -0.053,0.423 -0.087,0.816l-0.1,0.041c-0.273,-0.165 -0.701,-0.414 -1.413,-0.414c-0.155,0 -0.309,0.011 -0.473,0.053c-0.328,0.081 -0.603,0.3 -0.603,0.619c0,0.445 0.45,0.579 1.13,0.775l0.395,0.114Z" style="fill:#aca39b;fill-rule:nonzero;"/><path d="M184.176,80.239c-0.045,0.443 -0.056,0.495 -0.089,0.919l-0.075,0.073c-0.318,0.145 -0.747,0.351 -1.515,0.351c-1.655,0 -2.731,-1.125 -2.731,-2.737c0,-1.643 1.054,-2.883 2.755,-2.883c0.711,0 1.216,0.217 1.501,0.331l0.043,0.072c-0.043,0.372 -0.053,0.507 -0.076,0.816l-0.088,0.041c-0.362,-0.248 -0.778,-0.402 -1.216,-0.402c-0.911,0 -1.711,0.661 -1.711,1.983c0,1.404 0.843,1.911 1.7,1.911c0.744,0 1.206,-0.361 1.413,-0.516l0.089,0.041Z" style="fill:#aca39b;fill-rule:nonzero;"/><path d="M190.426,81.458c-0.525,0.011 -0.592,0.011 -1.097,0.041l-0.077,-0.072l0.013,-0.34c0.01,-0.538 0.01,-1.086 0.01,-1.623l-0.01,-1.105c0,-0.237 0,-0.475 -0.056,-0.703c-0.119,-0.475 -0.428,-0.784 -0.986,-0.784c-0.626,0 -1.109,0.33 -1.47,0.578c-0.011,1.797 0.01,2.737 0.076,3.946l-0.054,0.062c-0.504,0.011 -0.636,0.011 -1.173,0.041l-0.056,-0.072c0.023,-0.733 0.056,-1.663 0.056,-3.646c0,-0.868 -0.013,-1.736 -0.022,-2.604c-0.022,-0.909 -0.056,-1.209 -0.089,-1.673l0.055,-0.062c0.526,-0.083 0.703,-0.114 1.196,-0.217l0.066,0.072c-0.066,1.106 -0.066,2.221 -0.066,3.337c0.352,-0.217 1.042,-0.641 1.962,-0.641c0.254,0 0.505,0.031 0.737,0.124c0.493,0.187 0.788,0.557 0.898,0.981c0.056,0.208 0.056,0.331 0.076,1.024l0,1.208l0.011,0.486c0.023,0.866 0.023,1.012 0.066,1.58l-0.066,0.062Z" style="fill:#aca39b;fill-rule:nonzero;"/><path d="M198.729,81.458c-0.736,0.011 -0.822,0.011 -1.491,0.041l-0.077,-0.072c-0.132,-0.63 -0.341,-1.467 -0.527,-2.2l-0.636,-2.48l-0.647,2.542c-0.329,1.25 -0.438,1.653 -0.538,2.107l-0.065,0.062c-0.768,0.011 -0.823,0.011 -1.514,0.041l-0.065,-0.072c-0.482,-1.849 -1.305,-4.555 -1.535,-5.237l0.043,-0.073c0.526,-0.031 0.669,-0.031 1.195,-0.082l0.066,0.062c0.066,0.341 0.143,0.66 0.616,2.571l0.526,2.129l0.712,-2.779c0.33,-1.373 0.35,-1.508 0.416,-1.839l0.076,-0.071c0.649,0 0.835,0 1.559,-0.032l0.065,0.072c0.154,0.712 0.417,1.704 0.614,2.491l0.582,2.189l0.614,-2.407c0.087,-0.362 0.176,-0.724 0.263,-1.085c0.186,-0.702 0.207,-0.784 0.275,-1.178l0.077,-0.061c0.175,0 0.36,0.011 0.537,0.011c0.164,0 0.328,-0.011 0.492,-0.011l0.067,0.061c-0.209,0.589 -1.173,3.471 -1.624,5.238l-0.076,0.062Z" style="fill:#aca39b;fill-rule:nonzero;"/><path d="M206.099,80.156c-0.143,0.115 -0.384,0.301 -0.789,0.455c-0.307,0.103 -0.637,0.155 -0.955,0.155c-0.34,0 -0.964,-0.052 -1.417,-0.559c-0.371,-0.422 -0.405,-0.929 -0.415,-1.291c1.798,-0.009 2.094,-0.009 3.806,0l0.076,-0.061c0.011,-0.455 0.034,-1.478 -0.592,-2.181c-0.329,-0.37 -0.933,-0.712 -1.798,-0.712c-1.436,0 -2.664,0.939 -2.664,2.861c0,1.798 1.129,2.769 2.927,2.769c0.977,0 1.569,-0.299 1.756,-0.392l0.065,-0.071c0.021,-0.405 0.032,-0.508 0.088,-0.922l-0.088,-0.051Zm-0.823,-2.034c-1.008,0.01 -1.425,0.02 -2.753,0.01c0.111,-1.034 0.833,-1.426 1.449,-1.426c0.492,0 0.975,0.237 1.195,0.806c0.088,0.237 0.099,0.465 0.109,0.61Z" style="fill:#aca39b;fill-rule:nonzero;"/><path d="M209.29,74.588c-0.56,0.02 -0.68,0.031 -1.217,0.083l-0.065,-0.063c0.009,-0.134 0.009,-0.278 0.009,-0.412c0,-0.187 -0.009,-0.352 -0.022,-0.558l0.078,-0.062c0.57,-0.042 0.668,-0.051 1.217,-0.103l0.066,0.061c-0.01,0.425 -0.01,0.528 0,0.982l-0.066,0.072Zm-0.01,6.87c-0.571,0.011 -0.659,0.011 -1.196,0.041l-0.055,-0.072c0.033,-0.548 0.066,-1.023 0.066,-2.169c0,-1.974 -0.033,-2.345 -0.111,-2.954l0.056,-0.073c0.473,-0.073 0.635,-0.093 1.185,-0.207l0.108,0.062c-0.032,0.537 -0.065,1.095 -0.065,2.427c0,1.922 0.022,2.181 0.065,2.883l-0.053,0.062Z" style="fill:#aca39b;fill-rule:nonzero;"/><path d="M214.97,81.469c-0.306,0 -1.808,0.009 -2.147,0.009c-1.285,0 -1.427,0 -2.096,0.021l-0.044,-0.094c0.833,-1.3 2.16,-3.511 2.718,-4.504c-1.445,0.012 -1.709,0.012 -2.412,0.042l-0.053,-0.062c0.043,-0.34 0.053,-0.423 0.076,-0.711l0.066,-0.062c1.842,0 2.051,0 3.959,-0.032l0.056,0.082c-0.978,1.509 -2.369,3.968 -2.666,4.495c0.944,-0.012 1.886,-0.032 2.632,-0.064l0.055,0.064c-0.045,0.319 -0.055,0.454 -0.077,0.764l-0.067,0.052Z" style="fill:#aca39b;fill-rule:nonzero;"/><path d="M182.836,18.96c1.904,0.582 6.236,1.972 6.236,6.726c0,1.794 -0.714,3.811 -2.666,5.292c-2.523,2.018 -5.903,2.152 -7.617,2.152c-2.57,0 -4.713,-0.448 -6.521,-1.121c-0.239,-0.088 -0.477,-0.178 -0.715,-0.268l-0.238,-0.404c0.191,-1.75 0.191,-1.975 0.286,-3.768l0.476,-0.134c0.857,0.628 2.951,2.152 6.617,2.152c3.761,0 5.142,-1.973 5.142,-3.363c0,-2.062 -2.046,-2.735 -4.951,-3.633l-1.524,-0.493c-1.952,-0.583 -6.236,-1.883 -6.236,-6.501c0,-4.62 4.284,-6.907 9.616,-6.907c3.525,0 5.998,0.942 6.856,1.256l0.239,0.314c-0.19,1.659 -0.239,1.838 -0.383,3.542l-0.428,0.18c-1.19,-0.718 -3.046,-1.794 -6.141,-1.794c-0.666,0 -1.333,0.045 -2.047,0.224c-1.428,0.359 -2.618,1.3 -2.618,2.69c0,1.929 1.951,2.512 4.905,3.364l1.712,0.494Z" style="fill:#aca39b;fill-rule:nonzero;"/><path d="M216.638,20.573c-0.096,-3.138 -0.714,-6.278 -2.905,-8.654c-2.094,-2.243 -5.284,-3.229 -8.521,-3.229c-4.762,0 -7.522,1.839 -8.857,3.139c-3.187,3.005 -3.284,7.4 -3.284,9.103c0,1.48 0.049,6.054 3.284,9.148c1.524,1.481 4.238,3.006 8.522,3.006c3.334,0 6.143,-0.763 8.237,-2.737c1.572,-1.479 2.57,-3.228 3.093,-5.426c0.335,-1.344 0.431,-2.825 0.431,-4.35Zm-5.19,0.18c0.048,0.941 0,3.947 -1.096,5.964c-1.379,2.467 -3.664,3.005 -5.425,3.005c-0.954,0 -1.954,-0.18 -2.811,-0.583c-3.761,-1.794 -3.808,-6.324 -3.808,-8.117c0,-1.883 0.144,-4.484 1.429,-6.323c1.666,-2.511 4.332,-2.601 5.237,-2.601c2.666,0 4.189,1.166 5.093,2.556c1.191,1.974 1.381,4.978 1.381,6.099Z" style="fill:#aca39b;fill-rule:nonzero;"/><path d="M165.694,20.942c0,1.565 -1.268,2.834 -2.834,2.834c-1.565,0 -2.833,-1.269 -2.833,-2.834c0,-1.564 1.268,-2.834 2.833,-2.834c1.566,0 2.834,1.27 2.834,2.834Z" style="fill:#aca39b;fill-rule:nonzero;"/><path d="M100.469,1.233c-0.047,3.454 -0.095,5.561 -0.095,8.7c0,7.533 0.143,15.023 0.524,22.556l-0.238,0.269c-4.047,-0.045 -4.999,0 -8.571,0.135l-0.237,-0.27c0.237,-6.322 0.237,-7.802 0.143,-13.855c-1.904,-0.045 -3.808,-0.09 -5.713,-0.09c-1.856,0 -3.618,0.045 -5.712,0.135c0.047,6.501 0.094,8.116 0.38,13.676l-0.238,0.269c-4.189,-0.045 -5.046,0 -8.522,0.135l-0.238,-0.27c0.095,-3.765 0.191,-5.962 0.191,-9.999c0,-11.12 -0.286,-16.637 -0.524,-21.257l0.286,-0.269c4.141,0 4.855,0 8.521,-0.134l0.238,0.269l-0.094,11.839c1.666,0 3.379,0.045 5.045,0.045c2.143,0 4.237,-0.045 6.332,-0.09c-0.047,-5.292 -0.047,-6.592 -0.381,-11.66l0.239,-0.269c3.999,0 4.616,0 8.426,-0.134l0.238,0.269Z" style="fill:#007cb7;fill-rule:nonzero;"/><path d="M128.073,26.122c-1.81,0.897 -3.953,1.928 -7.427,1.928c-2.856,0 -4.809,-0.852 -5.952,-2.467c-0.714,-0.941 -0.856,-1.838 -1.046,-2.736l15.376,-0.268l0.286,-0.314c-0.046,-2.197 -0.095,-4.44 -0.76,-6.682c-1.668,-5.292 -5.334,-6.368 -6.952,-6.727c-1.19,-0.313 -2.285,-0.403 -3.38,-0.403c-7.475,0 -12.426,4.619 -12.426,12.377c0,2.107 0.382,4.304 1.143,5.875c2.762,6.053 9.236,6.591 12.664,6.591c3.951,0 5.666,-0.673 8.188,-1.614l0.286,-0.359l0.333,-5.066l-0.333,-0.135Zm-14.425,-8.028c0.142,-1.39 0.475,-3.273 2.285,-4.349c0.571,-0.359 1.239,-0.493 1.904,-0.493c1.572,0 2.522,0.762 3.047,1.569c0.666,0.987 0.714,2.062 0.714,3.094l-7.95,0.179Z" style="fill:#007cb7;fill-rule:nonzero;"/><path d="M148.162,18.094c2.619,0.943 6.285,2.243 6.285,7.175c0,0.314 0,0.628 -0.05,0.988c-0.855,6.411 -7.996,7.039 -11.614,7.039c-3.474,0 -5.475,-0.717 -7.808,-1.524l-0.237,-0.404c0.191,-2.241 0.237,-2.735 0.333,-5.067l0.428,-0.179c0.713,0.539 1.096,0.852 1.905,1.256c1.761,0.851 3.713,1.255 5.046,1.255c2.665,0 3.761,-1.211 3.761,-2.332c0,-1.614 -2.097,-2.288 -3.38,-2.69l-1.81,-0.629c-2.237,-0.807 -6.188,-2.242 -6.188,-7.04c0,-1.794 0.666,-3.139 1.285,-3.946c2.475,-3.364 7.142,-3.543 9.473,-3.543c3.096,0 5.048,0.538 7.283,1.121l0.239,0.269l-0.475,4.889l-0.43,0.134c-1.188,-0.718 -3.046,-1.883 -5.949,-1.883c-2.953,0 -3.334,1.479 -3.334,2.017c0,1.256 1.285,1.749 2.905,2.287l2.332,0.807Z" style="fill:#007cb7;fill-rule:nonzero;"/><path d="M175.53,96.672c-1.104,0.155 -2.132,0.299 -2.132,1.216c0,0.052 0,0.938 1.039,0.938c0.678,0 1.072,-0.35 1.192,-0.454l0,-1.721l-0.099,0.021Zm1.225,0.752c0,1.278 0.011,1.392 0.066,2.061l-0.055,0.052c-0.515,0.01 -0.601,0.02 -1.105,0.041l-0.043,-0.062l0.011,-0.37c-0.207,0.153 -0.699,0.525 -1.531,0.525c-1.093,0 -1.86,-0.701 -1.86,-1.721c0,-1.381 1.225,-1.824 3.195,-2.04l0.185,-0.021c0,-0.278 0,-0.474 -0.098,-0.639c-0.109,-0.186 -0.362,-0.382 -0.908,-0.382c-0.711,0 -1.203,0.206 -1.662,0.392l-0.088,-0.052c0.022,-0.474 0.022,-0.536 0.033,-0.751l0.067,-0.062c0.611,-0.206 1.246,-0.341 1.89,-0.341c0.809,0 1.597,0.258 1.827,1.062c0.076,0.288 0.076,0.855 0.076,1.288l0,1.02Z" style="fill:#aca39b;fill-rule:nonzero;"/><path d="M183.44,99.537c-0.523,0.01 -0.588,0.01 -1.093,0.041l-0.077,-0.072c0,-0.114 0.012,-0.227 0.012,-0.34c0.012,-0.505 0.012,-1.01 0.012,-1.516c0,-1.586 -0.012,-1.689 -0.067,-1.905c-0.208,-0.783 -0.831,-0.783 -0.982,-0.783c-0.657,0 -1.162,0.36 -1.456,0.576c-0.013,1.794 0.01,2.731 0.087,3.937l-0.065,0.062c-0.536,0.01 -0.623,0.01 -1.149,0.041l-0.056,-0.072c0.013,-0.577 0.035,-1.134 0.035,-1.897c0,-1.648 -0.078,-2.524 -0.13,-3.214l0.064,-0.072c0.545,-0.093 0.645,-0.114 1.158,-0.207l0.078,0.073l-0.012,0.535c0.284,-0.185 0.963,-0.639 1.926,-0.639c0.272,0 0.613,0.042 0.907,0.196c0.285,0.155 0.514,0.391 0.635,0.67c0.142,0.309 0.151,0.618 0.164,1.258l0,1.205c0.031,1.206 0.043,1.67 0.074,2.061l-0.065,0.062Z" style="fill:#aca39b;fill-rule:nonzero;"/><path d="M188.837,94.93c-0.186,-0.009 -0.316,-0.03 -0.546,-0.03c-0.339,0 -1.061,0.021 -1.586,0.484c-0.239,0.216 -0.633,0.701 -0.633,1.618c0,0.587 0.175,1.009 0.405,1.267c0.196,0.217 0.556,0.464 1.125,0.464c0.667,0 1.071,-0.33 1.224,-0.453c0.022,-1.35 0.022,-1.66 0.011,-3.35Zm-0.011,-3.39c0.56,-0.093 0.668,-0.114 1.16,-0.216l0.076,0.061c-0.076,1.433 -0.086,3.988 -0.086,5.019c0,1.597 0.043,2.36 0.086,3.071l-0.054,0.072c-0.482,0 -0.612,0.01 -1.115,0.031l-0.078,-0.062l0.022,-0.381c-0.262,0.185 -0.71,0.515 -1.508,0.515c-1.455,0 -2.46,-1.082 -2.46,-2.648c0,-1.123 0.503,-1.835 0.962,-2.216c0.799,-0.68 1.837,-0.711 2.405,-0.711c0.23,0 0.339,0 0.635,0.021c0.011,-1.278 -0.045,-1.897 -0.099,-2.494l0.054,-0.062Z" style="fill:#aca39b;fill-rule:nonzero;"/><path d="M196.656,96.497c0.35,0 0.699,0.01 1.05,0.01c0.371,0 0.765,-0.01 1.148,-0.01l-1.049,-3.483l-1.149,3.483Zm2.164,-4.009c0.363,1.133 0.778,2.412 1.106,3.391c0.338,0.989 0.886,2.576 1.214,3.565l-0.043,0.082c-0.571,0.011 -0.812,0.021 -1.27,0.042l-0.078,-0.073c-0.272,-0.968 -0.359,-1.246 -0.644,-2.174c-0.436,0 -0.864,-0.01 -1.3,-0.01c-0.484,0 -0.985,0.01 -1.421,0.01c-0.32,0.969 -0.385,1.216 -0.648,2.133l-0.074,0.072c-0.471,0 -0.582,0 -1.127,0.031l-0.044,-0.072c0.031,-0.113 0.074,-0.216 0.121,-0.319c0.415,-1.113 0.818,-2.226 1.214,-3.339c0.653,-1.824 0.895,-2.494 1.211,-3.483l0.09,-0.073c0.765,-0.01 0.863,-0.01 1.563,-0.041l0.075,0.072l0.055,0.186Z" style="fill:#aca39b;fill-rule:nonzero;"/><path d="M204.905,95.26c-0.111,-0.041 -0.254,-0.093 -0.439,-0.093c-0.208,0 -0.36,0.072 -0.459,0.134c-0.449,0.299 -0.449,0.752 -0.449,1.825c0,1.164 0.034,1.772 0.078,2.349l-0.056,0.072c-0.515,0 -0.632,0.01 -1.158,0.031l-0.056,-0.062c0.012,-0.783 0.025,-1.494 0.025,-2.452c0,-1.649 -0.035,-2.072 -0.099,-2.669l0.064,-0.072c0.415,-0.073 0.679,-0.124 1.137,-0.207l0.065,0.062l-0.052,0.876c0.13,-0.33 0.402,-0.989 1.334,-0.989c0.139,0 0.217,0.01 0.304,0.031l0.045,0.062c-0.111,0.494 -0.132,0.597 -0.21,1.05l-0.074,0.052Z" style="fill:#aca39b;fill-rule:nonzero;"/><path d="M209.383,98.733c-0.034,0.34 -0.034,0.413 -0.047,0.711l-0.053,0.062c-0.228,0.051 -0.415,0.093 -0.82,0.093c-0.263,0 -0.95,0 -1.291,-0.536c-0.195,-0.299 -0.195,-0.546 -0.195,-1.762l0.021,-2.268c-0.384,0 -0.393,0.011 -0.786,0.021l-0.047,-0.062c0.022,-0.329 0.022,-0.412 0.022,-0.742l0.068,-0.061c0.238,0 0.381,0.01 0.743,0c-0.012,-0.217 -0.012,-0.444 -0.012,-0.66c-0.009,-0.196 -0.022,-0.392 -0.031,-0.587l0.053,-0.072c0.492,-0.114 0.613,-0.145 1.114,-0.289l0.078,0.051c-0.031,0.68 -0.044,0.814 -0.044,1.567c0.458,-0.01 0.592,-0.01 1.214,-0.031l0.056,0.062c-0.022,0.268 -0.034,0.38 -0.034,0.732l-0.056,0.061c-0.545,-0.011 -0.609,-0.02 -1.189,-0.02l-0.025,1.916c0.013,0.124 0.013,0.711 0.013,0.856c0,0.752 0.098,0.989 0.643,0.989c0.233,0 0.407,-0.052 0.528,-0.093l0.077,0.062Z" style="fill:#aca39b;fill-rule:nonzero;"/><path d="M213.26,96.414c0.436,0.134 1.43,0.454 1.43,1.546c0,0.412 -0.164,0.876 -0.613,1.216c-0.579,0.464 -1.356,0.495 -1.75,0.495c-0.588,0 -1.08,-0.103 -1.495,-0.258c-0.056,-0.021 -0.111,-0.041 -0.164,-0.062l-0.056,-0.093c0.043,-0.401 0.043,-0.452 0.065,-0.865l0.108,-0.031c0.198,0.144 0.679,0.495 1.521,0.495c0.864,0 1.182,-0.454 1.182,-0.773c0,-0.475 -0.47,-0.628 -1.139,-0.835l-0.35,-0.113c-0.445,-0.134 -1.431,-0.433 -1.431,-1.494c0,-1.062 0.986,-1.588 2.208,-1.588c0.809,0 1.378,0.217 1.577,0.289l0.052,0.072c-0.044,0.381 -0.052,0.422 -0.087,0.814l-0.098,0.041c-0.273,-0.165 -0.7,-0.412 -1.409,-0.412c-0.156,0 -0.307,0.01 -0.471,0.051c-0.328,0.083 -0.601,0.299 -0.601,0.619c0,0.443 0.446,0.578 1.124,0.773l0.397,0.113Z" style="fill:#aca39b;fill-rule:nonzero;"/><path d="M13.95,92.313c-0.023,0.938 -0.033,1.185 -0.033,1.999c0,0.443 0,0.773 0.01,1.546l0.012,0.927c0,0.619 0,1.505 -0.635,2.155c-0.525,0.535 -1.366,0.762 -2.252,0.762c-1.41,0 -2.11,-0.536 -2.395,-0.835c-0.59,-0.639 -0.59,-1.258 -0.59,-2.463l0,-1.051c0,-1.494 0,-1.67 -0.033,-3.009l0.077,-0.073c0.601,-0.01 0.678,-0.01 1.224,-0.031l0.055,0.073c-0.044,1.071 -0.044,2.937 -0.044,3.937c0,1.03 0.022,1.658 0.405,2.081c0.186,0.217 0.612,0.505 1.366,0.505c0.274,0 1.137,-0.02 1.553,-0.783c0.241,-0.433 0.241,-1.02 0.241,-1.824c0,-1.196 -0.011,-2.711 -0.087,-3.885l0.053,-0.073c0.504,-0.01 0.57,-0.01 1.007,-0.031l0.066,0.073Z" style="fill:#aca39b;fill-rule:nonzero;"/><path d="M20.883,99.537c-0.525,0.01 -0.59,0.01 -1.093,0.041l-0.077,-0.072c0,-0.114 0.011,-0.227 0.011,-0.34c0.011,-0.505 0.011,-1.01 0.011,-1.516c0,-1.586 -0.011,-1.689 -0.066,-1.905c-0.208,-0.783 -0.831,-0.783 -0.984,-0.783c-0.656,0 -1.159,0.36 -1.454,0.576c-0.011,1.794 0.011,2.731 0.087,3.937l-0.065,0.062c-0.536,0.01 -0.624,0.01 -1.149,0.041l-0.054,-0.072c0.011,-0.577 0.033,-1.134 0.033,-1.897c0,-1.648 -0.077,-2.524 -0.131,-3.214l0.066,-0.072c0.546,-0.093 0.645,-0.114 1.158,-0.207l0.077,0.073l-0.011,0.535c0.284,-0.185 0.962,-0.639 1.925,-0.639c0.273,0 0.611,0.042 0.907,0.196c0.284,0.155 0.514,0.391 0.634,0.67c0.143,0.309 0.153,0.618 0.164,1.258l0,1.205c0.033,1.206 0.044,1.67 0.077,2.061l-0.066,0.062Z" style="fill:#aca39b;fill-rule:nonzero;"/><path d="M24.135,92.684c-0.558,0.02 -0.678,0.031 -1.214,0.082l-0.065,-0.062c0.01,-0.134 0.01,-0.278 0.01,-0.412c0,-0.186 -0.01,-0.35 -0.021,-0.557l0.076,-0.062c0.568,-0.041 0.667,-0.05 1.214,-0.103l0.065,0.062c-0.011,0.423 -0.011,0.526 0,0.98l-0.065,0.072Zm-0.011,6.853c-0.569,0.01 -0.656,0.01 -1.192,0.041l-0.055,-0.072c0.033,-0.546 0.066,-1.02 0.066,-2.164c0,-1.969 -0.033,-2.339 -0.109,-2.947l0.054,-0.072c0.47,-0.073 0.635,-0.093 1.181,-0.207l0.109,0.062c-0.032,0.535 -0.065,1.092 -0.065,2.422c0,1.917 0.022,2.175 0.065,2.875l-0.054,0.062Z" style="fill:#aca39b;fill-rule:nonzero;"/><path d="M28.564,99.537c-0.612,0.01 -0.764,0.01 -1.399,0.041l-0.065,-0.072c-0.536,-1.752 -1.105,-3.494 -1.749,-5.214l0.043,-0.083c0.536,-0.031 0.656,-0.041 1.192,-0.093l0.087,0.052c0.405,1.525 0.853,3.05 1.302,4.565c0.109,-0.371 0.655,-2.164 0.776,-2.565c0.36,-1.186 0.459,-1.608 0.547,-1.959l0.077,-0.051c0.513,0.02 0.6,0.01 1.027,0l0.055,0.072c-0.668,1.731 -1.258,3.482 -1.827,5.245l-0.066,0.062Z" style="fill:#aca39b;fill-rule:nonzero;"/><path d="M35.199,95.6c-0.219,-0.567 -0.7,-0.804 -1.192,-0.804c-0.612,0 -1.334,0.392 -1.443,1.422c1.323,0.011 1.738,0 2.744,-0.009c-0.011,-0.145 -0.022,-0.372 -0.109,-0.609Zm1.017,2.69c-0.055,0.412 -0.066,0.516 -0.088,0.918l-0.065,0.071c-0.186,0.093 -0.777,0.392 -1.749,0.392c-1.794,0 -2.92,-0.969 -2.92,-2.762c0,-1.917 1.225,-2.855 2.657,-2.855c0.864,0 1.465,0.341 1.793,0.711c0.624,0.701 0.601,1.721 0.591,2.175l-0.077,0.062c-1.706,-0.011 -2.002,-0.011 -3.794,0c0.011,0.36 0.043,0.865 0.416,1.288c0.448,0.505 1.071,0.557 1.41,0.557c0.317,0 0.645,-0.052 0.951,-0.155c0.405,-0.155 0.645,-0.34 0.787,-0.454l0.088,0.052Z" style="fill:#aca39b;fill-rule:nonzero;"/><path d="M40.66,95.26c-0.109,-0.041 -0.251,-0.093 -0.437,-0.093c-0.208,0 -0.361,0.072 -0.459,0.134c-0.449,0.299 -0.449,0.752 -0.449,1.825c0,1.164 0.033,1.772 0.077,2.349l-0.055,0.072c-0.514,0 -0.634,0.01 -1.159,0.031l-0.054,-0.062c0.01,-0.783 0.021,-1.494 0.021,-2.452c0,-1.649 -0.032,-2.072 -0.098,-2.669l0.066,-0.072c0.415,-0.073 0.677,-0.124 1.137,-0.207l0.065,0.062l-0.054,0.876c0.131,-0.33 0.404,-0.989 1.334,-0.989c0.142,0 0.219,0.01 0.306,0.031l0.043,0.062c-0.109,0.494 -0.13,0.597 -0.207,1.05l-0.077,0.052Z" style="fill:#aca39b;fill-rule:nonzero;"/><path d="M44.566,96.414c0.438,0.134 1.434,0.454 1.434,1.546c0,0.412 -0.165,0.876 -0.614,1.216c-0.579,0.464 -1.355,0.495 -1.749,0.495c-0.59,0 -1.082,-0.103 -1.498,-0.258c-0.054,-0.021 -0.109,-0.041 -0.163,-0.062l-0.056,-0.093c0.044,-0.401 0.044,-0.452 0.066,-0.865l0.11,-0.031c0.196,0.144 0.678,0.495 1.519,0.495c0.864,0 1.181,-0.454 1.181,-0.773c0,-0.475 -0.47,-0.628 -1.137,-0.835l-0.349,-0.113c-0.449,-0.134 -1.433,-0.433 -1.433,-1.494c0,-1.062 0.984,-1.588 2.209,-1.588c0.809,0 1.377,0.217 1.575,0.289l0.053,0.072c-0.043,0.381 -0.053,0.422 -0.087,0.814l-0.098,0.041c-0.274,-0.165 -0.7,-0.412 -1.411,-0.412c-0.153,0 -0.306,0.01 -0.47,0.051c-0.328,0.083 -0.601,0.299 -0.601,0.619c0,0.443 0.448,0.578 1.126,0.773l0.393,0.113Z" style="fill:#aca39b;fill-rule:nonzero;"/><path d="M48.755,92.684c-0.558,0.02 -0.678,0.031 -1.213,0.082l-0.066,-0.062c0.011,-0.134 0.011,-0.278 0.011,-0.412c0,-0.186 -0.011,-0.35 -0.022,-0.557l0.077,-0.062c0.568,-0.041 0.666,-0.05 1.213,-0.103l0.065,0.062c-0.01,0.423 -0.01,0.526 0,0.98l-0.065,0.072Zm-0.01,6.853c-0.569,0.01 -0.657,0.01 -1.193,0.041l-0.054,-0.072c0.033,-0.546 0.065,-1.02 0.065,-2.164c0,-1.969 -0.032,-2.339 -0.109,-2.947l0.054,-0.072c0.471,-0.073 0.635,-0.093 1.181,-0.207l0.11,0.062c-0.033,0.535 -0.066,1.092 -0.066,2.422c0,1.917 0.022,2.175 0.066,2.875l-0.054,0.062Z" style="fill:#aca39b;fill-rule:nonzero;"/><path d="M53.283,98.733c-0.033,0.34 -0.033,0.413 -0.044,0.711l-0.055,0.062c-0.229,0.051 -0.415,0.093 -0.82,0.093c-0.262,0 -0.951,0 -1.29,-0.536c-0.197,-0.299 -0.197,-0.546 -0.197,-1.762l0.022,-2.268c-0.382,0 -0.393,0.011 -0.787,0.021l-0.044,-0.062c0.022,-0.329 0.022,-0.412 0.022,-0.742l0.066,-0.061c0.24,0 0.382,0.01 0.743,0c-0.011,-0.217 -0.011,-0.444 -0.011,-0.66c-0.011,-0.196 -0.022,-0.392 -0.032,-0.587l0.054,-0.072c0.492,-0.114 0.612,-0.145 1.115,-0.289l0.077,0.051c-0.033,0.68 -0.044,0.814 -0.044,1.567c0.46,-0.01 0.59,-0.01 1.214,-0.031l0.055,0.062c-0.022,0.268 -0.034,0.38 -0.034,0.732l-0.054,0.061c-0.547,-0.011 -0.612,-0.02 -1.192,-0.02l-0.022,1.916c0.011,0.124 0.011,0.711 0.011,0.856c0,0.752 0.098,0.989 0.646,0.989c0.229,0 0.404,-0.052 0.525,-0.093l0.076,0.062Z" style="fill:#aca39b;fill-rule:nonzero;"/><path d="M58.999,94.25c-0.623,1.453 -1.673,4.174 -1.947,4.896c-0.339,0.937 -0.667,1.875 -0.896,2.833l-0.099,0.082c-0.547,0.011 -0.645,0.011 -1.159,0.031l-0.043,-0.072l0.043,-0.072c0.198,-0.381 0.361,-0.783 0.547,-1.185c0.153,-0.34 0.339,-0.669 0.459,-1.03c0.012,-0.021 0.022,-0.052 0.033,-0.083c0,-0.124 -1.629,-4.277 -2.1,-5.327l0.045,-0.093c0.546,-0.041 0.655,-0.041 1.214,-0.103l0.065,0.062c0.295,0.927 0.437,1.36 0.678,2.029l0.689,1.969l0.623,-1.814c0.23,-0.711 0.503,-1.556 0.678,-2.143l0.077,-0.062c0.273,0 0.568,0 1.06,-0.01l0.033,0.092Z" style="fill:#aca39b;fill-rule:nonzero;"/><path d="M67.541,95.425c-0.207,-0.32 -0.557,-0.588 -1.169,-0.588c-0.209,0 -0.821,0.021 -1.204,0.598c-0.294,0.423 -0.328,1.02 -0.328,1.453c0,0.413 0.011,1.453 0.875,1.866c0.198,0.093 0.427,0.134 0.645,0.134c0.405,0 0.93,-0.124 1.247,-0.691c0.251,-0.464 0.262,-1.154 0.251,-1.37c0,-0.258 -0.044,-0.948 -0.317,-1.402Zm1.411,2.36c-0.12,0.505 -0.35,0.907 -0.711,1.247c-0.481,0.453 -1.126,0.628 -1.892,0.628c-0.984,0 -1.607,-0.35 -1.957,-0.69c-0.743,-0.711 -0.754,-1.762 -0.754,-2.102c0,-0.392 0.022,-1.402 0.754,-2.093c0.307,-0.298 0.941,-0.721 2.034,-0.721c0.743,0 1.476,0.227 1.957,0.742c0.504,0.546 0.645,1.268 0.667,1.989c0,0.351 -0.022,0.691 -0.098,1Z" style="fill:#aca39b;fill-rule:nonzero;"/><path d="M72.106,99.547c-0.503,0 -0.602,0 -1.181,0.031l-0.055,-0.072c0.055,-1.082 0.055,-2.195 0.055,-3.288c0,-0.546 0,-0.731 -0.011,-1.185c-0.273,0.011 -0.546,0.011 -0.766,0.011l-0.064,-0.062c0.021,-0.289 0.032,-0.392 0.043,-0.742l0.065,-0.062c0.328,0.011 0.547,0.021 0.7,0.021l-0.011,-0.681c0,-0.514 0,-0.639 0.033,-0.824c0.252,-1.195 1.607,-1.195 1.914,-1.195c0.164,0 0.273,0.009 0.415,0.021l0.054,0.071c-0.043,0.289 -0.054,0.423 -0.076,0.742l-0.077,0.052c-0.098,-0.021 -0.175,-0.041 -0.295,-0.041c-0.229,0 -0.48,0.041 -0.655,0.309c-0.175,0.258 -0.175,0.546 -0.165,1.236l0,0.31c0.022,0 0.973,-0.021 1.083,-0.021l0.055,0.062c-0.023,0.329 -0.034,0.412 -0.044,0.731l-0.065,0.062c-0.471,-0.01 -0.569,-0.01 -1.007,-0.01c0,1.37 0.011,2.752 0.088,4.123c0,0.103 0.01,0.215 0.021,0.329l-0.054,0.072Z" style="fill:#aca39b;fill-rule:nonzero;"/><path d="M79.59,96.497c0.35,0 0.7,0.01 1.05,0.01c0.372,0 0.765,-0.01 1.148,-0.01l-1.05,-3.483l-1.148,3.483Zm2.165,-4.009c0.361,1.133 0.776,2.412 1.104,3.391c0.34,0.989 0.886,2.576 1.214,3.565l-0.044,0.082c-0.568,0.011 -0.809,0.021 -1.268,0.042l-0.076,-0.073c-0.274,-0.968 -0.361,-1.246 -0.645,-2.174c-0.437,0 -0.864,-0.01 -1.302,-0.01c-0.481,0 -0.984,0.01 -1.421,0.01c-0.317,0.969 -0.383,1.216 -0.646,2.133l-0.076,0.072c-0.47,0 -0.579,0 -1.126,0.031l-0.044,-0.072c0.033,-0.113 0.077,-0.216 0.12,-0.319c0.416,-1.113 0.821,-2.226 1.214,-3.339c0.657,-1.824 0.896,-2.494 1.214,-3.483l0.087,-0.073c0.766,-0.01 0.864,-0.01 1.564,-0.041l0.077,0.072l0.054,0.186Z" style="fill:#aca39b;fill-rule:nonzero;"/><path d="M86.972,98.785c1.443,0 2.274,-0.866 2.274,-2.134c0,-1.071 -0.601,-1.73 -1.476,-1.73c-0.591,0 -1.006,0.267 -1.258,0.432c-0.011,0.536 -0.022,1.061 -0.022,1.587c0,0.607 0.011,1.216 0.022,1.814c0.142,0.01 0.274,0.031 0.46,0.031Zm-0.482,-4.175c0.22,-0.164 0.744,-0.556 1.596,-0.556c1.389,0 2.362,1.072 2.362,2.525c0,1.597 -1.126,2.968 -3.433,2.968c-0.207,0 -0.339,-0.01 -0.492,-0.021c0.011,1.237 0.033,1.505 0.088,2.473l-0.066,0.062c-0.383,0.011 -0.765,0.021 -1.148,0.031l-0.055,-0.062c0.022,-0.628 0.044,-1.276 0.044,-2.328c0,-0.609 -0.011,-1.216 -0.011,-1.824c-0.011,-1.598 -0.011,-2.319 -0.142,-3.494l0.054,-0.061c0.536,-0.083 0.657,-0.114 1.149,-0.207l0.076,0.062l-0.022,0.432Z" style="fill:#aca39b;fill-rule:nonzero;"/><path d="M93.863,98.785c1.443,0 2.274,-0.866 2.274,-2.134c0,-1.071 -0.601,-1.73 -1.476,-1.73c-0.591,0 -1.006,0.267 -1.258,0.432c-0.011,0.536 -0.022,1.061 -0.022,1.587c0,0.607 0.011,1.216 0.022,1.814c0.142,0.01 0.274,0.031 0.46,0.031Zm-0.482,-4.175c0.22,-0.164 0.745,-0.556 1.597,-0.556c1.389,0 2.361,1.072 2.361,2.525c0,1.597 -1.126,2.968 -3.433,2.968c-0.207,0 -0.339,-0.01 -0.492,-0.021c0.012,1.237 0.033,1.505 0.088,2.473l-0.065,0.062c-0.384,0.011 -0.766,0.021 -1.148,0.031l-0.056,-0.062c0.022,-0.628 0.045,-1.276 0.045,-2.328c0,-0.609 -0.012,-1.216 -0.012,-1.824c-0.011,-1.598 -0.011,-2.319 -0.141,-3.494l0.054,-0.061c0.535,-0.083 0.656,-0.114 1.148,-0.207l0.076,0.062l-0.022,0.432Z" style="fill:#aca39b;fill-rule:nonzero;"/><path d="M100.27,99.537c-0.526,0.01 -0.635,0.02 -1.149,0.041l-0.054,-0.072c0.021,-0.731 0.054,-1.66 0.054,-3.638c0,-1.422 0,-2.947 -0.109,-4.266l0.055,-0.062c0.536,-0.082 0.644,-0.103 1.192,-0.216l0.065,0.072c-0.076,1.35 -0.076,2.71 -0.076,4.06c0,2.256 0.032,3.04 0.087,4.019l-0.065,0.062Z" style="fill:#aca39b;fill-rule:nonzero;"/><path d="M103.538,92.684c-0.559,0.02 -0.679,0.031 -1.214,0.082l-0.066,-0.062c0.011,-0.134 0.011,-0.278 0.011,-0.412c0,-0.186 -0.011,-0.35 -0.022,-0.557l0.077,-0.062c0.568,-0.041 0.666,-0.05 1.214,-0.103l0.065,0.062c-0.011,0.423 -0.011,0.526 0,0.98l-0.065,0.072Zm-0.012,6.853c-0.568,0.01 -0.655,0.01 -1.191,0.041l-0.055,-0.072c0.033,-0.546 0.066,-1.02 0.066,-2.164c0,-1.969 -0.033,-2.339 -0.11,-2.947l0.055,-0.072c0.47,-0.073 0.634,-0.093 1.181,-0.207l0.109,0.062c-0.032,0.535 -0.066,1.092 -0.066,2.422c0,1.917 0.023,2.175 0.066,2.875l-0.055,0.062Z" style="fill:#aca39b;fill-rule:nonzero;"/><path d="M109.083,95.6c-0.218,-0.567 -0.699,-0.804 -1.191,-0.804c-0.612,0 -1.333,0.392 -1.443,1.422c1.323,0.011 1.738,0 2.744,-0.009c-0.01,-0.145 -0.021,-0.372 -0.11,-0.609Zm1.018,2.69c-0.055,0.412 -0.065,0.516 -0.087,0.918l-0.067,0.071c-0.185,0.093 -0.775,0.392 -1.749,0.392c-1.793,0 -2.919,-0.969 -2.919,-2.762c0,-1.917 1.225,-2.855 2.658,-2.855c0.863,0 1.464,0.341 1.792,0.711c0.624,0.701 0.603,1.721 0.592,2.175l-0.078,0.062c-1.706,-0.011 -2,-0.011 -3.794,0c0.011,0.36 0.044,0.865 0.416,1.288c0.448,0.505 1.072,0.557 1.41,0.557c0.318,0 0.646,-0.052 0.951,-0.155c0.406,-0.155 0.646,-0.34 0.788,-0.454l0.087,0.052Z" style="fill:#aca39b;fill-rule:nonzero;"/><path d="M115.676,94.93c-0.186,-0.009 -0.316,-0.03 -0.547,-0.03c-0.338,0 -1.06,0.021 -1.585,0.484c-0.24,0.216 -0.633,0.701 -0.633,1.618c0,0.587 0.175,1.009 0.404,1.267c0.197,0.217 0.558,0.464 1.125,0.464c0.668,0 1.072,-0.33 1.225,-0.453c0.022,-1.35 0.022,-1.66 0.011,-3.35Zm-0.011,-3.39c0.559,-0.093 0.668,-0.114 1.16,-0.216l0.076,0.061c-0.076,1.433 -0.087,3.988 -0.087,5.019c0,1.597 0.043,2.36 0.087,3.071l-0.054,0.072c-0.482,0 -0.612,0.01 -1.115,0.031l-0.078,-0.062l0.022,-0.381c-0.261,0.185 -0.711,0.515 -1.508,0.515c-1.455,0 -2.46,-1.082 -2.46,-2.648c0,-1.123 0.503,-1.835 0.961,-2.216c0.799,-0.68 1.838,-0.711 2.406,-0.711c0.23,0 0.34,0 0.635,0.021c0.011,-1.278 -0.045,-1.897 -0.099,-2.494l0.054,-0.062Z" style="fill:#aca39b;fill-rule:nonzero;"/><path d="M125.452,95.425c0.796,0.329 1.858,0.763 1.858,2.081c0,1.155 -0.908,2.196 -2.812,2.196c-1.158,0 -1.901,-0.33 -2.165,-0.453l-0.043,-0.073c0.043,-0.36 0.056,-0.556 0.087,-0.948l0.111,-0.041c0.273,0.175 0.908,0.608 1.923,0.608c1.128,0 1.598,-0.546 1.598,-1.165c0,-0.721 -0.634,-0.999 -1.347,-1.257l-0.545,-0.226c-0.777,-0.34 -1.814,-0.784 -1.814,-2.041c0,-0.382 0.108,-0.773 0.337,-1.082c0.505,-0.68 1.412,-0.907 2.298,-0.907c0.864,0 1.387,0.154 1.966,0.33l0.056,0.082c-0.043,0.392 -0.056,0.536 -0.087,0.907l-0.09,0.041c-0.468,-0.226 -0.981,-0.473 -1.802,-0.473c-0.907,0 -1.477,0.401 -1.477,1.009c0,0.464 0.328,0.68 0.558,0.814c0.142,0.082 0.185,0.103 0.842,0.371l0.548,0.227Z" style="fill:#aca39b;fill-rule:nonzero;"/><path d="M133.134,98.321c-0.043,0.443 -0.054,0.495 -0.088,0.917l-0.076,0.072c-0.317,0.144 -0.743,0.35 -1.51,0.35c-1.65,0 -2.721,-1.123 -2.721,-2.73c0,-1.639 1.05,-2.876 2.743,-2.876c0.711,0 1.214,0.217 1.499,0.33l0.043,0.073c-0.043,0.37 -0.054,0.505 -0.076,0.813l-0.088,0.042c-0.36,-0.248 -0.776,-0.403 -1.214,-0.403c-0.907,0 -1.706,0.66 -1.706,1.979c0,1.402 0.842,1.907 1.695,1.907c0.745,0 1.203,-0.361 1.411,-0.515l0.088,0.041Z" style="fill:#aca39b;fill-rule:nonzero;"/><path d="M135.748,92.684c-0.558,0.02 -0.679,0.031 -1.214,0.082l-0.065,-0.062c0.009,-0.134 0.009,-0.278 0.009,-0.412c0,-0.186 -0.009,-0.35 -0.021,-0.557l0.077,-0.062c0.57,-0.041 0.666,-0.05 1.214,-0.103l0.065,0.062c-0.01,0.423 -0.01,0.526 0,0.98l-0.065,0.072Zm-0.013,6.853c-0.567,0.01 -0.656,0.01 -1.192,0.041l-0.053,-0.072c0.031,-0.546 0.066,-1.02 0.066,-2.164c0,-1.969 -0.035,-2.339 -0.109,-2.947l0.053,-0.072c0.47,-0.073 0.635,-0.093 1.183,-0.207l0.108,0.062c-0.034,0.535 -0.065,1.092 -0.065,2.422c0,1.917 0.022,2.175 0.065,2.875l-0.056,0.062Z" style="fill:#aca39b;fill-rule:nonzero;"/><path d="M141.296,95.6c-0.219,-0.567 -0.699,-0.804 -1.192,-0.804c-0.613,0 -1.334,0.392 -1.442,1.422c1.321,0.011 1.736,0 2.743,-0.009c-0.009,-0.145 -0.022,-0.372 -0.109,-0.609Zm1.016,2.69c-0.052,0.412 -0.065,0.516 -0.086,0.918l-0.065,0.071c-0.186,0.093 -0.778,0.392 -1.75,0.392c-1.793,0 -2.92,-0.969 -2.92,-2.762c0,-1.917 1.226,-2.855 2.657,-2.855c0.864,0 1.464,0.341 1.792,0.711c0.626,0.701 0.604,1.721 0.592,2.175l-0.077,0.062c-1.706,-0.011 -2.001,-0.011 -3.793,0c0.012,0.36 0.043,0.865 0.414,1.288c0.449,0.505 1.072,0.557 1.412,0.557c0.316,0 0.644,-0.052 0.951,-0.155c0.406,-0.155 0.644,-0.34 0.787,-0.454l0.086,0.052Z" style="fill:#aca39b;fill-rule:nonzero;"/><path d="M149.058,99.537c-0.525,0.01 -0.59,0.01 -1.093,0.041l-0.077,-0.072c0,-0.114 0.01,-0.227 0.01,-0.34c0.011,-0.505 0.011,-1.01 0.011,-1.516c0,-1.586 -0.011,-1.689 -0.065,-1.905c-0.207,-0.783 -0.831,-0.783 -0.985,-0.783c-0.654,0 -1.158,0.36 -1.453,0.576c-0.011,1.794 0.011,2.731 0.088,3.937l-0.067,0.062c-0.535,0.01 -0.622,0.01 -1.147,0.041l-0.056,-0.072c0.013,-0.577 0.034,-1.134 0.034,-1.897c0,-1.648 -0.077,-2.524 -0.131,-3.214l0.065,-0.072c0.546,-0.093 0.645,-0.114 1.16,-0.207l0.075,0.073l-0.01,0.535c0.284,-0.185 0.962,-0.639 1.924,-0.639c0.274,0 0.613,0.042 0.907,0.196c0.285,0.155 0.514,0.391 0.635,0.67c0.142,0.309 0.153,0.618 0.164,1.258l0,1.205c0.033,1.206 0.043,1.67 0.076,2.061l-0.065,0.062Z" style="fill:#aca39b;fill-rule:nonzero;"/><path d="M155.209,98.321c-0.043,0.443 -0.053,0.495 -0.087,0.917l-0.077,0.072c-0.316,0.144 -0.743,0.35 -1.508,0.35c-1.65,0 -2.722,-1.123 -2.722,-2.73c0,-1.639 1.05,-2.876 2.744,-2.876c0.709,0 1.213,0.217 1.499,0.33l0.043,0.073c-0.043,0.37 -0.056,0.505 -0.078,0.813l-0.086,0.042c-0.363,-0.248 -0.778,-0.403 -1.214,-0.403c-0.908,0 -1.706,0.66 -1.706,1.979c0,1.402 0.842,1.907 1.693,1.907c0.747,0 1.205,-0.361 1.412,-0.515l0.087,0.041Z" style="fill:#aca39b;fill-rule:nonzero;"/><path d="M160.136,95.6c-0.217,-0.567 -0.7,-0.804 -1.19,-0.804c-0.612,0 -1.334,0.392 -1.445,1.422c1.325,0.011 1.74,0 2.746,-0.009c-0.013,-0.145 -0.021,-0.372 -0.111,-0.609Zm1.018,2.69c-0.055,0.412 -0.064,0.516 -0.087,0.918l-0.067,0.071c-0.187,0.093 -0.774,0.392 -1.75,0.392c-1.793,0 -2.917,-0.969 -2.917,-2.762c0,-1.917 1.224,-2.855 2.657,-2.855c0.864,0 1.465,0.341 1.793,0.711c0.622,0.701 0.601,1.721 0.591,2.175l-0.077,0.062c-1.706,-0.011 -2,-0.011 -3.796,0c0.012,0.36 0.046,0.865 0.418,1.288c0.445,0.505 1.071,0.557 1.408,0.557c0.319,0 0.648,-0.052 0.951,-0.155c0.406,-0.155 0.648,-0.34 0.789,-0.454l0.087,0.052Z" style="fill:#aca39b;fill-rule:nonzero;"/><path d="M165.361,96.414c0.437,0.134 1.432,0.454 1.432,1.546c0,0.412 -0.164,0.876 -0.613,1.216c-0.579,0.464 -1.355,0.495 -1.749,0.495c-0.59,0 -1.082,-0.103 -1.497,-0.258c-0.056,-0.021 -0.111,-0.041 -0.164,-0.062l-0.056,-0.093c0.045,-0.401 0.045,-0.452 0.066,-0.865l0.109,-0.031c0.198,0.144 0.677,0.495 1.52,0.495c0.863,0 1.181,-0.454 1.181,-0.773c0,-0.475 -0.471,-0.628 -1.138,-0.835l-0.349,-0.113c-0.448,-0.134 -1.433,-0.433 -1.433,-1.494c0,-1.062 0.985,-1.588 2.21,-1.588c0.808,0 1.378,0.217 1.574,0.289l0.055,0.072c-0.044,0.381 -0.055,0.422 -0.087,0.814l-0.1,0.041c-0.273,-0.165 -0.699,-0.412 -1.41,-0.412c-0.153,0 -0.307,0.01 -0.471,0.051c-0.328,0.083 -0.6,0.299 -0.6,0.619c0,0.443 0.447,0.578 1.125,0.773l0.395,0.113Z" style="fill:#aca39b;fill-rule:nonzero;"/><path d="M115.08,111.845c-0.743,0 -0.853,0 -1.575,0.031l-0.075,-0.072c-0.176,-1.03 -0.242,-1.329 -0.395,-2.081l-0.897,-4.442l-0.907,4.204c-0.054,0.279 -0.108,0.568 -0.175,0.845c-0.087,0.444 -0.251,1.196 -0.294,1.444l-0.067,0.071c-0.786,0 -0.831,0.011 -1.585,0.031l-0.076,-0.072c-0.198,-0.927 -1.105,-4.833 -1.695,-7.162l0.054,-0.073c0.613,0 0.711,-0.01 1.246,-0.031l0.067,0.073c0.065,0.361 0.13,0.69 0.229,1.206c0.088,0.463 0.175,0.917 0.263,1.371l0.798,3.936l0.918,-4.565c0.153,-0.753 0.174,-0.876 0.371,-1.917l0.067,-0.073c0.831,-0.01 0.972,-0.01 1.738,-0.031l0.065,0.073c0.012,0.082 0.022,0.165 0.033,0.257c0.045,0.269 0.296,1.588 0.361,1.938l0.864,4.348l0.853,-4.069c0.405,-1.99 0.416,-2.031 0.47,-2.443l0.065,-0.073c0.504,0 0.614,-0.01 1.072,-0.031l0.056,0.073c-0.253,0.804 -0.318,1.082 -0.919,3.586c-0.274,1.123 -0.569,2.237 -0.809,3.36c-0.011,0.072 -0.033,0.144 -0.044,0.217l-0.077,0.071Z" style="fill:#aca39b;fill-rule:nonzero;"/><path d="M121.516,107.898c-0.217,-0.567 -0.7,-0.804 -1.189,-0.804c-0.613,0 -1.335,0.392 -1.446,1.423c1.325,0.01 1.74,0 2.746,-0.011c-0.012,-0.145 -0.021,-0.37 -0.111,-0.608Zm1.019,2.69c-0.056,0.412 -0.065,0.516 -0.087,0.917l-0.068,0.072c-0.186,0.093 -0.774,0.392 -1.75,0.392c-1.793,0 -2.917,-0.969 -2.917,-2.762c0,-1.917 1.224,-2.855 2.657,-2.855c0.864,0 1.465,0.341 1.793,0.712c0.623,0.7 0.601,1.72 0.592,2.174l-0.078,0.062c-1.706,-0.011 -2,-0.011 -3.796,0c0.013,0.36 0.046,0.865 0.418,1.288c0.446,0.505 1.071,0.557 1.409,0.557c0.319,0 0.647,-0.052 0.951,-0.155c0.405,-0.155 0.647,-0.339 0.789,-0.454l0.087,0.052Z" style="fill:#aca39b;fill-rule:nonzero;"/><path d="M126.74,108.713c0.436,0.133 1.433,0.453 1.433,1.545c0,0.412 -0.164,0.876 -0.612,1.217c-0.58,0.464 -1.357,0.494 -1.75,0.494c-0.591,0 -1.084,-0.103 -1.499,-0.258c-0.056,-0.02 -0.108,-0.041 -0.164,-0.061l-0.056,-0.093c0.047,-0.403 0.047,-0.453 0.069,-0.865l0.108,-0.032c0.198,0.144 0.678,0.494 1.52,0.494c0.864,0 1.18,-0.453 1.18,-0.772c0,-0.475 -0.47,-0.628 -1.136,-0.835l-0.35,-0.113c-0.449,-0.134 -1.434,-0.433 -1.434,-1.494c0,-1.062 0.985,-1.588 2.211,-1.588c0.808,0 1.378,0.217 1.573,0.289l0.056,0.072c-0.044,0.381 -0.056,0.422 -0.087,0.814l-0.099,0.041c-0.273,-0.165 -0.7,-0.412 -1.412,-0.412c-0.152,0 -0.307,0.011 -0.471,0.052c-0.328,0.082 -0.6,0.298 -0.6,0.618c0,0.444 0.448,0.577 1.127,0.773l0.393,0.114Z" style="fill:#aca39b;fill-rule:nonzero;"/><path d="M132.222,111.031c-0.034,0.34 -0.034,0.412 -0.045,0.711l-0.054,0.062c-0.229,0.052 -0.415,0.094 -0.82,0.094c-0.262,0 -0.951,0 -1.29,-0.538c-0.198,-0.298 -0.198,-0.545 -0.198,-1.761l0.023,-2.268c-0.383,0 -0.393,0.01 -0.788,0.021l-0.044,-0.062c0.022,-0.329 0.022,-0.412 0.022,-0.742l0.067,-0.061c0.24,0 0.382,0.01 0.743,0c-0.012,-0.217 -0.012,-0.444 -0.012,-0.66c-0.011,-0.196 -0.02,-0.391 -0.032,-0.587l0.055,-0.072c0.492,-0.114 0.613,-0.145 1.116,-0.289l0.076,0.051c-0.034,0.68 -0.043,0.814 -0.043,1.567c0.458,-0.01 0.589,-0.01 1.213,-0.031l0.055,0.062c-0.022,0.268 -0.033,0.381 -0.033,0.731l-0.056,0.062c-0.546,-0.01 -0.611,-0.021 -1.19,-0.021l-0.022,1.917c0.011,0.124 0.011,0.712 0.011,0.855c0,0.753 0.097,0.99 0.644,0.99c0.231,0 0.405,-0.051 0.525,-0.093l0.077,0.062Z" style="fill:#aca39b;fill-rule:nonzero;"/><path d="M137.169,107.898c-0.22,-0.567 -0.7,-0.804 -1.192,-0.804c-0.613,0 -1.335,0.392 -1.446,1.423c1.325,0.01 1.74,0 2.746,-0.011c-0.012,-0.145 -0.021,-0.37 -0.108,-0.608Zm1.016,2.69c-0.056,0.412 -0.065,0.516 -0.087,0.917l-0.068,0.072c-0.186,0.093 -0.774,0.392 -1.75,0.392c-1.793,0 -2.917,-0.969 -2.917,-2.762c0,-1.917 1.223,-2.855 2.657,-2.855c0.864,0 1.465,0.341 1.793,0.712c0.623,0.7 0.601,1.72 0.591,2.174l-0.077,0.062c-1.706,-0.011 -2,-0.011 -3.796,0c0.012,0.36 0.046,0.865 0.418,1.288c0.446,0.505 1.071,0.557 1.408,0.557c0.32,0 0.648,-0.052 0.951,-0.155c0.406,-0.155 0.648,-0.339 0.79,-0.454l0.087,0.052Z" style="fill:#aca39b;fill-rule:nonzero;"/><path d="M142.631,107.558c-0.111,-0.041 -0.254,-0.093 -0.44,-0.093c-0.207,0 -0.359,0.072 -0.458,0.134c-0.449,0.299 -0.449,0.753 -0.449,1.825c0,1.164 0.034,1.771 0.077,2.35l-0.055,0.071c-0.514,0 -0.632,0.011 -1.158,0.031l-0.056,-0.061c0.012,-0.784 0.025,-1.495 0.025,-2.453c0,-1.649 -0.034,-2.072 -0.099,-2.669l0.065,-0.072c0.415,-0.073 0.678,-0.124 1.136,-0.207l0.065,0.062l-0.053,0.876c0.13,-0.329 0.403,-0.989 1.335,-0.989c0.14,0 0.217,0.01 0.304,0.031l0.046,0.062c-0.111,0.494 -0.133,0.597 -0.21,1.05l-0.075,0.052Z" style="fill:#aca39b;fill-rule:nonzero;"/><path d="M149.075,111.835c-0.523,0.01 -0.588,0.01 -1.093,0.041l-0.078,-0.072c0,-0.113 0.013,-0.227 0.013,-0.34c0.009,-0.505 0.009,-1.01 0.009,-1.516c0,-1.587 -0.009,-1.689 -0.065,-1.905c-0.207,-0.784 -0.83,-0.784 -0.985,-0.784c-0.653,0 -1.158,0.361 -1.452,0.577c-0.012,1.794 0.01,2.732 0.087,3.938l-0.065,0.061c-0.536,0.01 -0.623,0.01 -1.149,0.041l-0.056,-0.072c0.013,-0.577 0.034,-1.134 0.034,-1.897c0,-1.648 -0.077,-2.524 -0.129,-3.214l0.064,-0.072c0.545,-0.093 0.644,-0.114 1.159,-0.207l0.077,0.073l-0.012,0.536c0.284,-0.186 0.962,-0.64 1.925,-0.64c0.273,0 0.614,0.042 0.908,0.196c0.285,0.155 0.514,0.392 0.634,0.67c0.143,0.309 0.152,0.618 0.165,1.257l0,1.206c0.031,1.206 0.043,1.67 0.074,2.062l-0.065,0.061Z" style="fill:#aca39b;fill-rule:nonzero;"/><path d="M157.681,107.723c0.795,0.33 1.857,0.762 1.857,2.082c0,1.154 -0.907,2.195 -2.811,2.195c-1.159,0 -1.902,-0.33 -2.165,-0.453l-0.043,-0.072c0.043,-0.362 0.055,-0.557 0.086,-0.948l0.112,-0.042c0.272,0.175 0.907,0.608 1.923,0.608c1.127,0 1.597,-0.546 1.597,-1.164c0,-0.722 -0.634,-1 -1.346,-1.257l-0.545,-0.228c-0.778,-0.339 -1.815,-0.783 -1.815,-2.04c0,-0.382 0.109,-0.773 0.337,-1.082c0.505,-0.68 1.412,-0.907 2.298,-0.907c0.864,0 1.388,0.154 1.967,0.33l0.055,0.082c-0.043,0.392 -0.055,0.536 -0.086,0.908l-0.09,0.041c-0.468,-0.228 -0.982,-0.475 -1.802,-0.475c-0.908,0 -1.478,0.402 -1.478,1.01c0,0.464 0.329,0.68 0.558,0.815c0.143,0.082 0.186,0.103 0.842,0.37l0.549,0.227Z" style="fill:#aca39b;fill-rule:nonzero;"/><path d="M167.509,111.835c-0.732,0.01 -0.821,0.01 -1.487,0.041l-0.078,-0.072c-0.13,-0.628 -0.337,-1.464 -0.522,-2.195l-0.635,-2.474l-0.644,2.536c-0.329,1.247 -0.44,1.648 -0.537,2.103l-0.067,0.061c-0.765,0.01 -0.817,0.01 -1.509,0.041l-0.064,-0.072c-0.481,-1.845 -1.301,-4.545 -1.529,-5.225l0.042,-0.072c0.524,-0.031 0.667,-0.031 1.193,-0.082l0.064,0.062c0.066,0.34 0.143,0.66 0.614,2.565l0.523,2.124l0.712,-2.773c0.328,-1.371 0.351,-1.504 0.415,-1.834l0.074,-0.072c0.648,0 0.833,0 1.555,-0.031l0.065,0.072c0.155,0.711 0.414,1.7 0.613,2.483l0.579,2.186l0.613,-2.402c0.087,-0.361 0.174,-0.721 0.264,-1.082c0.185,-0.7 0.207,-0.783 0.272,-1.175l0.077,-0.061c0.174,0 0.36,0.01 0.536,0.01c0.165,0 0.326,-0.01 0.49,-0.01l0.067,0.061c-0.207,0.587 -1.17,3.463 -1.619,5.226l-0.077,0.061Z" style="fill:#aca39b;fill-rule:nonzero;"/><path d="M171.64,104.982c-0.558,0.02 -0.679,0.031 -1.214,0.082l-0.066,-0.062c0.011,-0.134 0.011,-0.278 0.011,-0.412c0,-0.186 -0.011,-0.351 -0.021,-0.557l0.076,-0.061c0.569,-0.041 0.667,-0.051 1.214,-0.103l0.066,0.062c-0.011,0.422 -0.011,0.525 0,0.979l-0.066,0.072Zm-0.012,6.853c-0.567,0.01 -0.656,0.01 -1.191,0.041l-0.055,-0.072c0.033,-0.546 0.066,-1.02 0.066,-2.164c0,-1.969 -0.033,-2.34 -0.109,-2.947l0.054,-0.072c0.47,-0.073 0.634,-0.093 1.181,-0.207l0.111,0.062c-0.035,0.536 -0.068,1.092 -0.068,2.422c0,1.917 0.023,2.174 0.068,2.876l-0.057,0.061Z" style="fill:#aca39b;fill-rule:nonzero;"/><path d="M176.166,111.031c-0.03,0.34 -0.03,0.412 -0.043,0.711l-0.056,0.062c-0.229,0.052 -0.415,0.094 -0.82,0.094c-0.261,0 -0.951,0 -1.288,-0.538c-0.198,-0.298 -0.198,-0.545 -0.198,-1.761l0.021,-2.268c-0.381,0 -0.393,0.01 -0.787,0.021l-0.043,-0.062c0.022,-0.329 0.022,-0.412 0.022,-0.742l0.065,-0.061c0.241,0 0.384,0.01 0.743,0c-0.01,-0.217 -0.01,-0.444 -0.01,-0.66c-0.011,-0.196 -0.021,-0.391 -0.034,-0.587l0.056,-0.072c0.493,-0.114 0.613,-0.145 1.115,-0.289l0.077,0.051c-0.034,0.68 -0.043,0.814 -0.043,1.567c0.458,-0.01 0.588,-0.01 1.214,-0.031l0.053,0.062c-0.022,0.268 -0.031,0.381 -0.031,0.731l-0.056,0.062c-0.548,-0.01 -0.613,-0.021 -1.192,-0.021l-0.022,1.917c0.013,0.124 0.013,0.712 0.013,0.855c0,0.753 0.096,0.99 0.643,0.99c0.23,0 0.407,-0.051 0.524,-0.093l0.077,0.062Z" style="fill:#aca39b;fill-rule:nonzero;"/><path d="M181.241,111.845c-0.303,0 -1.802,0.011 -2.142,0.011c-1.279,0 -1.421,0 -2.087,0.02l-0.043,-0.093c0.829,-1.298 2.151,-3.504 2.709,-4.493c-1.444,0.01 -1.703,0.01 -2.404,0.041l-0.055,-0.061c0.044,-0.34 0.055,-0.423 0.078,-0.711l0.064,-0.062c1.837,0 2.044,0 3.949,-0.031l0.052,0.082c-0.972,1.505 -2.362,3.957 -2.657,4.483c0.941,-0.01 1.883,-0.031 2.626,-0.062l0.053,0.062c-0.043,0.32 -0.053,0.454 -0.074,0.762l-0.069,0.052Z" style="fill:#aca39b;fill-rule:nonzero;"/><path d="M186.398,107.898c-0.217,-0.567 -0.699,-0.804 -1.19,-0.804c-0.613,0 -1.334,0.392 -1.444,1.423c1.323,0.01 1.738,0 2.745,-0.011c-0.011,-0.145 -0.022,-0.37 -0.111,-0.608Zm1.018,2.69c-0.055,0.412 -0.065,0.516 -0.087,0.917l-0.066,0.072c-0.186,0.093 -0.776,0.392 -1.75,0.392c-1.792,0 -2.918,-0.969 -2.918,-2.762c0,-1.917 1.224,-2.855 2.656,-2.855c0.864,0 1.465,0.341 1.793,0.712c0.624,0.7 0.602,1.72 0.592,2.174l-0.077,0.062c-1.706,-0.011 -2.001,-0.011 -3.795,0c0.012,0.36 0.045,0.865 0.416,1.288c0.448,0.505 1.071,0.557 1.411,0.557c0.317,0 0.645,-0.052 0.95,-0.155c0.406,-0.155 0.646,-0.339 0.788,-0.454l0.087,0.052Z" style="fill:#aca39b;fill-rule:nonzero;"/><path d="M191.862,107.558c-0.111,-0.041 -0.251,-0.093 -0.439,-0.093c-0.207,0 -0.36,0.072 -0.458,0.134c-0.449,0.299 -0.449,0.753 -0.449,1.825c0,1.164 0.034,1.771 0.077,2.35l-0.056,0.071c-0.514,0 -0.632,0.011 -1.158,0.031l-0.056,-0.061c0.013,-0.784 0.026,-1.495 0.026,-2.453c0,-1.649 -0.035,-2.072 -0.1,-2.669l0.065,-0.072c0.415,-0.073 0.678,-0.124 1.136,-0.207l0.066,0.062l-0.053,0.876c0.13,-0.329 0.402,-0.989 1.335,-0.989c0.139,0 0.217,0.01 0.303,0.031l0.046,0.062c-0.111,0.494 -0.132,0.597 -0.21,1.05l-0.075,0.052Z" style="fill:#aca39b;fill-rule:nonzero;"/><path d="M194.637,111.835c-0.524,0.01 -0.632,0.021 -1.146,0.041l-0.055,-0.072c0.021,-0.732 0.055,-1.659 0.055,-3.638c0,-1.422 0,-2.947 -0.111,-4.266l0.056,-0.062c0.536,-0.082 0.644,-0.103 1.192,-0.216l0.064,0.071c-0.077,1.351 -0.077,2.711 -0.077,4.061c0,2.257 0.034,3.04 0.09,4.02l-0.068,0.061Z" style="fill:#aca39b;fill-rule:nonzero;"/><path d="M199.648,108.97c-1.103,0.155 -2.131,0.299 -2.131,1.217c0,0.05 0,0.937 1.039,0.937c0.677,0 1.071,-0.35 1.192,-0.454l0,-1.721l-0.1,0.021Zm1.225,0.753c0,1.277 0.011,1.39 0.067,2.06l-0.056,0.052c-0.514,0.01 -0.601,0.021 -1.104,0.041l-0.043,-0.061l0.011,-0.372c-0.208,0.155 -0.7,0.526 -1.531,0.526c-1.094,0 -1.86,-0.701 -1.86,-1.721c0,-1.381 1.225,-1.825 3.194,-2.04l0.186,-0.021c0,-0.278 0,-0.474 -0.099,-0.639c-0.109,-0.186 -0.361,-0.381 -0.908,-0.381c-0.71,0 -1.203,0.205 -1.661,0.391l-0.088,-0.052c0.022,-0.474 0.022,-0.535 0.033,-0.751l0.066,-0.062c0.611,-0.206 1.246,-0.341 1.891,-0.341c0.809,0 1.597,0.258 1.827,1.062c0.075,0.288 0.075,0.856 0.075,1.288l0,1.021Z" style="fill:#aca39b;fill-rule:nonzero;"/><path d="M207.751,111.835c-0.525,0.01 -0.59,0.01 -1.094,0.041l-0.077,-0.072c0,-0.113 0.011,-0.227 0.011,-0.34c0.013,-0.505 0.013,-1.01 0.013,-1.516c0,-1.587 -0.013,-1.689 -0.067,-1.905c-0.208,-0.784 -0.832,-0.784 -0.983,-0.784c-0.657,0 -1.159,0.361 -1.455,0.577c-0.011,1.794 0.01,2.732 0.088,3.938l-0.067,0.061c-0.536,0.01 -0.622,0.01 -1.147,0.041l-0.056,-0.072c0.011,-0.577 0.034,-1.134 0.034,-1.897c0,-1.648 -0.077,-2.524 -0.132,-3.214l0.066,-0.072c0.546,-0.093 0.645,-0.114 1.159,-0.207l0.076,0.073l-0.011,0.536c0.286,-0.186 0.963,-0.64 1.925,-0.64c0.274,0 0.612,0.042 0.907,0.196c0.285,0.155 0.514,0.392 0.635,0.67c0.142,0.309 0.153,0.618 0.164,1.257l0,1.206c0.032,1.206 0.043,1.67 0.075,2.062l-0.064,0.061Z" style="fill:#aca39b;fill-rule:nonzero;"/><path d="M213.467,107.229c-0.186,-0.011 -0.316,-0.032 -0.548,-0.032c-0.338,0 -1.06,0.021 -1.586,0.485c-0.238,0.216 -0.631,0.7 -0.631,1.618c0,0.588 0.173,1.01 0.402,1.268c0.199,0.216 0.557,0.463 1.127,0.463c0.666,0 1.072,-0.33 1.223,-0.453c0.023,-1.35 0.023,-1.66 0.013,-3.349Zm-0.013,-3.391c0.561,-0.093 0.669,-0.113 1.161,-0.216l0.075,0.061c-0.075,1.433 -0.086,3.988 -0.086,5.019c0,1.597 0.042,2.36 0.086,3.072l-0.052,0.071c-0.484,0 -0.614,0.011 -1.116,0.031l-0.077,-0.061l0.022,-0.381c-0.263,0.184 -0.712,0.514 -1.508,0.514c-1.455,0 -2.462,-1.082 -2.462,-2.648c0,-1.123 0.505,-1.835 0.963,-2.215c0.799,-0.681 1.836,-0.712 2.406,-0.712c0.23,0 0.338,0 0.635,0.021c0.01,-1.278 -0.047,-1.897 -0.1,-2.494l0.053,-0.062Z" style="fill:#aca39b;fill-rule:nonzero;"/></g></svg>