<?xml version="1.0" encoding="UTF-8" standalone="no"?>
<!-- Created with Inkscape (http://www.inkscape.org/) -->

<svg
   xmlns:dc="http://purl.org/dc/elements/1.1/"
   xmlns:cc="http://creativecommons.org/ns#"
   xmlns:rdf="http://www.w3.org/1999/02/22-rdf-syntax-ns#"
   xmlns:svg="http://www.w3.org/2000/svg"
   xmlns="http://www.w3.org/2000/svg"
   xmlns:sodipodi="http://sodipodi.sourceforge.net/DTD/sodipodi-0.dtd"
   xmlns:inkscape="http://www.inkscape.org/namespaces/inkscape"
   id="svg2"
   version="1.1"
   inkscape:version="0.48.2 r9819"
   width="250"
   height="89"
   xml:space="preserve"
   sodipodi:docname="logo_rero_200x72.svg"><metadata
     id="metadata8"><rdf:RDF><cc:Work
         rdf:about=""><dc:format>image/svg+xml</dc:format><dc:type
           rdf:resource="http://purl.org/dc/dcmitype/StillImage" /><dc:title></dc:title></cc:Work></rdf:RDF></metadata><defs
     id="defs6"><clipPath
       clipPathUnits="userSpaceOnUse"
       id="clipPath16"><path
         d="m 0,841.89 595.276,0 L 595.276,0 0,0 0,841.89 z"
         id="path18"
         inkscape:connector-curvature="0" /></clipPath></defs><sodipodi:namedview
     pagecolor="#ffffff"
     bordercolor="#666666"
     borderopacity="1"
     objecttolerance="10"
     gridtolerance="10"
     guidetolerance="10"
     inkscape:pageopacity="0"
     inkscape:pageshadow="2"
     inkscape:window-width="2201"
     inkscape:window-height="1399"
     id="namedview4"
     showgrid="false"
     inkscape:zoom="6.1001385"
     inkscape:cx="112.20147"
     inkscape:cy="53.241903"
     inkscape:window-x="0"
     inkscape:window-y="0"
     inkscape:window-maximized="0"
     inkscape:current-layer="g10" /><g
     id="g10"
     inkscape:groupmode="layer"
     inkscape:label="logo_rero_vectorise"
     transform="matrix(1.25,0,0,-1.25,0,88.999951)"><g
       id="g20"
       transform="matrix(0.71847354,0,0,0.71847354,1.9703756,28.881314)"><path
         d="m 0,0 0.234,0 c 0.855,0 1.72,0.162 1.72,1.215 0,1.116 -0.82,1.224 -1.729,1.224 L 0,2.439 0,0 z m 0,-3.646 -0.756,0 0,6.788 0.981,0 c 1.287,0 2.484,-0.342 2.484,-1.873 0,-1.044 -0.657,-1.783 -1.701,-1.873 l 2.161,-3.042 -0.927,0 -2.053,2.979 -0.189,0 0,-2.979 z"
         style="fill:#1c649c;fill-opacity:1;fill-rule:nonzero;stroke:none"
         id="path22"
         inkscape:connector-curvature="0" /></g><g
       id="g24"
       transform="matrix(0.71847354,0,0,0.71847354,6.7829269,30.827587)"><path
         d="M 0,0 -1.377,-1.386 -1.828,-1.134 -0.756,0.343 0,0 z m 0.351,-3.78 c -0.099,0.611 -0.612,1.106 -1.243,1.106 -0.621,0 -1.197,-0.495 -1.287,-1.106 l 2.53,0 z m -2.566,-0.613 c 0.009,-0.783 0.568,-1.414 1.386,-1.414 0.613,0 1.009,0.369 1.288,0.874 l 0.612,-0.351 c -0.405,-0.756 -1.089,-1.189 -1.953,-1.189 -1.261,0 -2.071,0.964 -2.071,2.179 0,1.252 0.729,2.287 2.053,2.287 1.359,0 2.079,-1.126 2.007,-2.386 l -3.322,0 z"
         style="fill:#1c649c;fill-opacity:1;fill-rule:nonzero;stroke:none"
         id="path26"
         inkscape:connector-curvature="0" /></g><g
       id="g28"
       transform="matrix(0.71847354,0,0,0.71847354,9.518946,28.596439)"><path
         d="m 0,0 c -0.099,0.225 -0.315,0.432 -0.576,0.432 -0.252,0 -0.522,-0.198 -0.522,-0.468 0,-0.387 0.486,-0.531 0.981,-0.738 0.495,-0.207 0.981,-0.504 0.981,-1.215 0,-0.802 -0.648,-1.378 -1.431,-1.378 -0.711,0 -1.269,0.405 -1.495,1.071 l 0.64,0.271 c 0.18,-0.397 0.387,-0.676 0.864,-0.676 0.387,0 0.684,0.262 0.684,0.648 0,0.946 -1.908,0.621 -1.908,1.954 0,0.711 0.576,1.198 1.26,1.198 0.486,0 0.936,-0.343 1.125,-0.784 L 0,0 z"
         style="fill:#1c649c;fill-opacity:1;fill-rule:nonzero;stroke:none"
         id="path30"
         inkscape:connector-curvature="0" /></g><g
       id="g32"
       transform="matrix(0.71847354,0,0,0.71847354,12.973079,28.111613)"><path
         d="M 0,0 C -0.099,0.611 -0.612,1.106 -1.242,1.106 -1.864,1.106 -2.44,0.611 -2.53,0 L 0,0 z m -2.566,-0.612 c 0.009,-0.784 0.567,-1.414 1.387,-1.414 0.612,0 1.008,0.369 1.287,0.874 L 0.72,-1.504 c -0.405,-0.756 -1.089,-1.188 -1.953,-1.188 -1.261,0 -2.071,0.963 -2.071,2.178 0,1.252 0.729,2.287 2.053,2.287 1.359,0 2.079,-1.126 2.007,-2.385 l -3.322,0 z"
         style="fill:#1c649c;fill-opacity:1;fill-rule:nonzero;stroke:none"
         id="path34"
         inkscape:connector-curvature="0" /></g><g
       id="g36"
       transform="matrix(0.71847354,0,0,0.71847354,14.499836,27.814093)"><path
         d="M 0,0 C 0,-0.829 0.486,-1.612 1.386,-1.612 2.313,-1.612 2.8,-0.865 2.8,-0.01 2.8,0.837 2.269,1.521 1.377,1.521 0.54,1.521 0,0.792 0,0 m 3.484,-2.161 -0.72,0 0,0.585 -0.018,0 c -0.37,-0.468 -0.865,-0.702 -1.459,-0.702 -1.242,0 -2.025,1.053 -2.025,2.223 0,1.207 0.765,2.243 2.034,2.243 0.577,0 1.099,-0.271 1.45,-0.721 l 0.018,0 0,0.603 0.72,0 0,-4.231 z"
         style="fill:#1c649c;fill-opacity:1;fill-rule:nonzero;stroke:none"
         id="path38"
         inkscape:connector-curvature="0" /></g><g
       id="g40"
       transform="matrix(0.71847354,0,0,0.71847354,18.439154,27.606382)"><path
         d="m 0,0 c 0,-0.711 0.081,-1.323 0.954,-1.323 0.873,0 0.954,0.612 0.954,1.323 l 0,2.359 0.72,0 0,-2.439 c 0,-1.126 -0.422,-1.909 -1.674,-1.909 -1.251,0 -1.674,0.783 -1.674,1.909 l 0,2.439 0.72,0 L 0,0 z"
         style="fill:#1c649c;fill-opacity:1;fill-rule:nonzero;stroke:none"
         id="path42"
         inkscape:connector-curvature="0" /></g><g
       id="g44"
       transform="matrix(0.71847354,0,0,0.71847354,23.536149,27.814093)"><path
         d="M 0,0 C 0,-0.829 0.486,-1.612 1.386,-1.612 2.314,-1.612 2.8,-0.865 2.8,-0.01 2.8,0.837 2.269,1.521 1.377,1.521 0.54,1.521 0,0.792 0,0 m 2.764,-1.576 -0.018,0 C 2.395,-2.035 1.864,-2.278 1.288,-2.278 c -1.243,0 -2.026,1.053 -2.026,2.223 0,1.207 0.765,2.243 2.034,2.243 0.568,0 1.108,-0.271 1.45,-0.721 l 0.018,0 0,3.799 0.72,0 0,-7.427 -0.72,0 0,0.585 z"
         style="fill:#1c649c;fill-opacity:1;fill-rule:nonzero;stroke:none"
         id="path46"
         inkscape:connector-curvature="0" /></g><g
       id="g48"
       transform="matrix(0.71847354,0,0,0.71847354,29.099074,28.111613)"><path
         d="M 0,0 C -0.099,0.611 -0.612,1.106 -1.243,1.106 -1.864,1.106 -2.44,0.611 -2.53,0 L 0,0 z m -2.566,-0.612 c 0.009,-0.784 0.567,-1.414 1.387,-1.414 0.612,0 1.008,0.369 1.287,0.874 L 0.72,-1.504 c -0.405,-0.756 -1.089,-1.188 -1.953,-1.188 -1.261,0 -2.071,0.963 -2.071,2.178 0,1.252 0.729,2.287 2.053,2.287 1.359,0 2.079,-1.126 2.007,-2.385 l -3.322,0 z"
         style="fill:#1c649c;fill-opacity:1;fill-rule:nonzero;stroke:none"
         id="path50"
         inkscape:connector-curvature="0" /></g><g
       id="g52"
       transform="matrix(0.71847354,0,0,0.71847354,31.582837,28.596439)"><path
         d="m 0,0 c -0.099,0.225 -0.315,0.432 -0.576,0.432 -0.252,0 -0.522,-0.198 -0.522,-0.468 0,-0.387 0.486,-0.531 0.981,-0.738 0.495,-0.207 0.981,-0.504 0.981,-1.215 0,-0.802 -0.648,-1.378 -1.431,-1.378 -0.711,0 -1.269,0.405 -1.495,1.071 l 0.64,0.271 c 0.18,-0.397 0.387,-0.676 0.864,-0.676 0.387,0 0.684,0.262 0.684,0.648 0,0.946 -1.908,0.621 -1.908,1.954 0,0.711 0.576,1.198 1.26,1.198 0.486,0 0.936,-0.343 1.126,-0.784 L 0,0 z"
         style="fill:#1c649c;fill-opacity:1;fill-rule:nonzero;stroke:none"
         id="path54"
         inkscape:connector-curvature="0" /></g><g
       id="g56"
       transform="matrix(0.71847354,0,0,0.71847354,35.392759,27.814093)"><path
         d="M 0,0 C 0,-0.829 0.486,-1.612 1.387,-1.612 2.314,-1.612 2.8,-0.865 2.8,-0.01 2.8,0.837 2.269,1.521 1.377,1.521 0.541,1.521 0,0.792 0,0 m -0.684,5.266 0.72,0 0,-3.799 0.018,0 c 0.342,0.45 0.874,0.721 1.45,0.721 1.26,0 2.034,-1.036 2.034,-2.234 0,-1.179 -0.783,-2.232 -2.025,-2.232 -0.585,0 -1.117,0.243 -1.459,0.702 l -0.018,0 0,-0.585 -0.72,0 0,7.427 z"
         style="fill:#1c649c;fill-opacity:1;fill-rule:nonzero;stroke:none"
         id="path58"
         inkscape:connector-curvature="0" /></g><path
       d="m 39.273881,26.261544 -0.517301,0 0,3.039861 0.517301,0 0,-3.039861 z m 0.109926,4.185108 c 0,-0.20692 -0.168122,-0.369295 -0.368576,-0.369295 -0.200455,0 -0.368577,0.162375 -0.368577,0.369295 0,0.199736 0.168122,0.368577 0.368577,0.368577 0.200454,0 0.368576,-0.168841 0.368576,-0.368577"
       style="fill:#1c649c;fill-opacity:1;fill-rule:nonzero;stroke:none"
       id="path60"
       inkscape:connector-curvature="0" /><g
       id="g62"
       transform="matrix(0.71847354,0,0,0.71847354,40.819892,27.814093)"><path
         d="M 0,0 C 0,-0.829 0.486,-1.612 1.387,-1.612 2.314,-1.612 2.8,-0.865 2.8,-0.01 2.8,0.837 2.269,1.521 1.377,1.521 0.54,1.521 0,0.792 0,0 m -0.684,5.266 0.72,0 0,-3.799 0.018,0 c 0.342,0.45 0.873,0.721 1.449,0.721 1.261,0 2.035,-1.036 2.035,-2.234 0,-1.179 -0.783,-2.232 -2.025,-2.232 -0.586,0 -1.117,0.243 -1.459,0.702 l -0.018,0 0,-0.585 -0.72,0 0,7.427 z"
         style="fill:#1c649c;fill-opacity:1;fill-rule:nonzero;stroke:none"
         id="path64"
         inkscape:connector-curvature="0" /></g><path
       d="m 44.591304,26.261544 -0.517301,0 0,5.336103 0.517301,0 0,-5.336103 z"
       style="fill:#1c649c;fill-opacity:1;fill-rule:nonzero;stroke:none"
       id="path66"
       inkscape:connector-curvature="0" /><path
       d="m 46.16979,26.261544 -0.517301,0 0,3.039861 0.517301,0 0,-3.039861 z m 0.109208,4.185108 c 0,-0.20692 -0.167404,-0.369295 -0.368577,-0.369295 -0.200454,0 -0.368577,0.162375 -0.368577,0.369295 0,0.199736 0.168123,0.368577 0.368577,0.368577 0.201173,0 0.368577,-0.168841 0.368577,-0.368577"
       style="fill:#1c649c;fill-opacity:1;fill-rule:nonzero;stroke:none"
       id="path68"
       inkscape:connector-curvature="0" /><g
       id="g70"
       transform="matrix(0.71847354,0,0,0.71847354,47.49523,27.781115)"><path
         d="m 0,0 c 0,-0.864 0.612,-1.566 1.503,-1.566 0.892,0 1.504,0.702 1.504,1.566 0,0.855 -0.612,1.566 -1.504,1.566 C 0.612,1.566 0,0.855 0,0 m -0.72,-0.009 c 0,1.242 0.981,2.242 2.223,2.242 1.243,0 2.225,-1 2.225,-2.242 0,-1.242 -0.991,-2.223 -2.225,-2.223 -1.232,0 -2.223,0.981 -2.223,2.223"
         style="fill:#1c649c;fill-opacity:1;fill-rule:nonzero;stroke:none"
         id="path72"
         inkscape:connector-curvature="0" /></g><g
       id="g74"
       transform="matrix(0.71847354,0,0,0.71847354,51.428226,26.2614)"><path
         d="m 0,0 -0.72,0 0,3.565 -0.442,0 0,0.666 0.442,0 0,1.522 0.72,0 0,-1.522 0.756,0 0,-0.666 L 0,3.565 0,0 z"
         style="fill:#1c649c;fill-opacity:1;fill-rule:nonzero;stroke:none"
         id="path76"
         inkscape:connector-curvature="0" /></g><g
       id="g78"
       transform="matrix(0.71847354,0,0,0.71847354,52.954623,31.597287)"><path
         d="m 0,0 0,-3.69 0.018,-0.019 c 0.297,0.405 0.684,0.631 1.207,0.631 1.17,0 1.44,-0.847 1.44,-1.837 l 0,-2.512 -0.72,0 0,2.386 c 0,0.685 -0.054,1.296 -0.892,1.296 C 0.063,-3.745 0,-4.663 0,-5.419 l 0,-2.008 -0.72,0 L -0.72,0 0,0 z"
         style="fill:#1c649c;fill-opacity:1;fill-rule:nonzero;stroke:none"
         id="path80"
         inkscape:connector-curvature="0" /></g><g
       id="g82"
       transform="matrix(0.71847354,0,0,0.71847354,56.932883,31.073879)"><path
         d="M 0,0 1.071,-1.477 0.621,-1.729 -0.756,-0.343 0,0 z m 1.422,-4.123 c -0.099,0.611 -0.612,1.106 -1.242,1.106 -0.621,0 -1.198,-0.495 -1.287,-1.106 l 2.529,0 z m -2.566,-0.612 c 0.01,-0.784 0.568,-1.414 1.387,-1.414 0.612,0 1.008,0.369 1.287,0.874 l 0.613,-0.352 c -0.406,-0.756 -1.09,-1.188 -1.954,-1.188 -1.26,0 -2.071,0.963 -2.071,2.178 0,1.252 0.73,2.287 2.053,2.287 1.359,0 2.079,-1.126 2.008,-2.385 l -3.323,0 z"
         style="fill:#1c649c;fill-opacity:1;fill-rule:nonzero;stroke:none"
         id="path84"
         inkscape:connector-curvature="0" /></g><g
       id="g86"
       transform="matrix(0.71847354,0,0,0.71847354,59.481596,27.814093)"><path
         d="M 0,0 C 0,-0.829 0.486,-1.612 1.386,-1.612 2.313,-1.612 2.8,-0.865 2.8,-0.01 2.8,0.837 2.269,1.521 1.377,1.521 0.54,1.521 0,0.792 0,0 m 3.484,-4.538 -0.72,0 0,2.971 -0.018,0 c -0.342,-0.459 -0.883,-0.711 -1.45,-0.711 -1.269,0 -2.034,1.017 -2.034,2.215 0,1.179 0.774,2.251 2.025,2.251 0.576,0 1.108,-0.252 1.459,-0.721 l 0.018,0 0,0.603 0.72,0 0,-6.608 z"
         style="fill:#1c649c;fill-opacity:1;fill-rule:nonzero;stroke:none"
         id="path88"
         inkscape:connector-curvature="0" /></g><g
       id="g90"
       transform="matrix(0.71847354,0,0,0.71847354,63.420915,27.606382)"><path
         d="m 0,0 c 0,-0.711 0.081,-1.323 0.954,-1.323 0.873,0 0.954,0.612 0.954,1.323 l 0,2.359 0.72,0 0,-2.439 c 0,-1.126 -0.422,-1.909 -1.674,-1.909 -1.251,0 -1.674,0.783 -1.674,1.909 l 0,2.439 0.72,0 L 0,0 z"
         style="fill:#1c649c;fill-opacity:1;fill-rule:nonzero;stroke:none"
         id="path92"
         inkscape:connector-curvature="0" /></g><g
       id="g94"
       transform="matrix(0.71847354,0,0,0.71847354,68.356253,28.111613)"><path
         d="M 0,0 C -0.099,0.611 -0.612,1.106 -1.242,1.106 -1.864,1.106 -2.44,0.611 -2.53,0 L 0,0 z m -2.566,-0.612 c 0.009,-0.784 0.567,-1.414 1.387,-1.414 0.612,0 1.008,0.369 1.287,0.874 L 0.72,-1.504 c -0.405,-0.756 -1.089,-1.188 -1.953,-1.188 -1.261,0 -2.071,0.963 -2.071,2.178 0,1.252 0.729,2.287 2.053,2.287 1.359,0 2.079,-1.126 2.007,-2.385 l -3.322,0 z"
         style="fill:#1c649c;fill-opacity:1;fill-rule:nonzero;stroke:none"
         id="path96"
         inkscape:connector-curvature="0" /></g><g
       id="g98"
       transform="matrix(0.71847354,0,0,0.71847354,70.840016,28.596439)"><path
         d="m 0,0 c -0.099,0.225 -0.315,0.432 -0.576,0.432 -0.252,0 -0.522,-0.198 -0.522,-0.468 0,-0.387 0.486,-0.531 0.981,-0.738 0.495,-0.207 0.981,-0.504 0.981,-1.215 0,-0.802 -0.648,-1.378 -1.431,-1.378 -0.711,0 -1.269,0.405 -1.495,1.071 l 0.64,0.271 c 0.18,-0.397 0.387,-0.676 0.864,-0.676 0.387,0 0.684,0.262 0.684,0.648 0,0.946 -1.908,0.621 -1.908,1.954 0,0.711 0.576,1.198 1.26,1.198 0.486,0 0.936,-0.343 1.126,-0.784 L 0,0 z"
         style="fill:#1c649c;fill-opacity:1;fill-rule:nonzero;stroke:none"
         id="path100"
         inkscape:connector-curvature="0" /></g><g
       id="g102"
       transform="matrix(0.71847354,0,0,0.71847354,74.455878,27.814093)"><path
         d="M 0,0 C 0,-0.829 0.486,-1.612 1.387,-1.612 2.314,-1.612 2.8,-0.865 2.8,-0.01 2.8,0.837 2.269,1.521 1.377,1.521 0.541,1.521 0,0.792 0,0 m 2.764,-1.576 -0.018,0 C 2.395,-2.035 1.864,-2.278 1.288,-2.278 c -1.243,0 -2.026,1.053 -2.026,2.223 0,1.207 0.765,2.243 2.034,2.243 0.568,0 1.108,-0.271 1.45,-0.721 l 0.018,0 0,3.799 0.72,0 0,-7.427 -0.72,0 0,0.585 z"
         style="fill:#1c649c;fill-opacity:1;fill-rule:nonzero;stroke:none"
         id="path104"
         inkscape:connector-curvature="0" /></g><g
       id="g106"
       transform="matrix(0.71847354,0,0,0.71847354,80.018803,28.111613)"><path
         d="M 0,0 C -0.099,0.611 -0.612,1.106 -1.242,1.106 -1.863,1.106 -2.439,0.611 -2.53,0 L 0,0 z m -2.566,-0.612 c 0.009,-0.784 0.567,-1.414 1.387,-1.414 0.612,0 1.008,0.369 1.287,0.874 L 0.72,-1.504 c -0.405,-0.756 -1.089,-1.188 -1.953,-1.188 -1.261,0 -2.071,0.963 -2.071,2.178 0,1.252 0.729,2.287 2.053,2.287 1.359,0 2.079,-1.126 2.007,-2.385 l -3.322,0 z"
         style="fill:#1c649c;fill-opacity:1;fill-rule:nonzero;stroke:none"
         id="path108"
         inkscape:connector-curvature="0" /></g><g
       id="g110"
       transform="matrix(0.71847354,0,0,0.71847354,85.478196,30.187714)"><path
         d="m 0,0 c -0.27,0.468 -0.594,0.738 -1.17,0.738 -0.603,0 -1.125,-0.432 -1.125,-1.053 0,-0.585 0.603,-0.856 1.062,-1.063 l 0.45,-0.197 c 0.882,-0.388 1.629,-0.829 1.629,-1.909 0,-1.189 -0.954,-2.098 -2.133,-2.098 -1.089,0 -1.9,0.702 -2.116,1.756 l 0.738,0.207 c 0.099,-0.694 0.63,-1.261 1.36,-1.261 0.729,0 1.395,0.559 1.395,1.323 0,0.793 -0.621,1.063 -1.251,1.351 l -0.414,0.181 c -0.793,0.359 -1.477,0.764 -1.477,1.737 0,1.053 0.891,1.728 1.9,1.728 0.756,0 1.395,-0.387 1.755,-1.053 L 0,0 z"
         style="fill:#1c649c;fill-opacity:1;fill-rule:nonzero;stroke:none"
         id="path112"
         inkscape:connector-curvature="0" /></g><g
       id="g114"
       transform="matrix(0.71847354,0,0,0.71847354,87.360668,27.606382)"><path
         d="m 0,0 c 0,-0.711 0.081,-1.323 0.954,-1.323 0.874,0 0.955,0.612 0.955,1.323 l 0,2.359 0.72,0 0,-2.439 c 0,-1.126 -0.423,-1.909 -1.675,-1.909 -1.251,0 -1.674,0.783 -1.674,1.909 l 0,2.439 0.72,0 L 0,0 z"
         style="fill:#1c649c;fill-opacity:1;fill-rule:nonzero;stroke:none"
         id="path116"
         inkscape:connector-curvature="0" /></g><path
       d="m 90.807833,26.261544 -0.517301,0 0,3.039861 0.517301,0 0,-3.039861 z m 0.110645,4.185108 c 0,-0.20692 -0.168123,-0.369295 -0.368577,-0.369295 -0.201173,0 -0.369296,0.162375 -0.369296,0.369295 0,0.199736 0.168123,0.368577 0.369296,0.368577 0.200454,0 0.368577,-0.168841 0.368577,-0.368577"
       style="fill:#1c649c;fill-opacity:1;fill-rule:nonzero;stroke:none"
       id="path118"
       inkscape:connector-curvature="0" /><g
       id="g120"
       transform="matrix(0.71847354,0,0,0.71847354,93.117581,28.596439)"><path
         d="m 0,0 c -0.099,0.225 -0.315,0.432 -0.576,0.432 -0.252,0 -0.523,-0.198 -0.523,-0.468 0,-0.387 0.487,-0.531 0.982,-0.738 0.495,-0.207 0.981,-0.504 0.981,-1.215 0,-0.802 -0.648,-1.378 -1.431,-1.378 -0.711,0 -1.269,0.405 -1.495,1.071 l 0.64,0.271 c 0.179,-0.397 0.386,-0.676 0.864,-0.676 0.387,0 0.684,0.262 0.684,0.648 0,0.946 -1.909,0.621 -1.909,1.954 0,0.711 0.576,1.198 1.261,1.198 0.486,0 0.936,-0.343 1.125,-0.784 L 0,0 z"
         style="fill:#1c649c;fill-opacity:1;fill-rule:nonzero;stroke:none"
         id="path122"
         inkscape:connector-curvature="0" /></g><g
       id="g124"
       transform="matrix(0.71847354,0,0,0.71847354,95.698195,28.596439)"><path
         d="m 0,0 c -0.099,0.225 -0.315,0.432 -0.576,0.432 -0.252,0 -0.522,-0.198 -0.522,-0.468 0,-0.387 0.486,-0.531 0.981,-0.738 0.495,-0.207 0.981,-0.504 0.981,-1.215 0,-0.802 -0.648,-1.378 -1.431,-1.378 -0.711,0 -1.269,0.405 -1.495,1.071 l 0.64,0.271 c 0.18,-0.397 0.387,-0.676 0.864,-0.676 0.387,0 0.684,0.262 0.684,0.648 0,0.946 -1.908,0.621 -1.908,1.954 0,0.711 0.576,1.198 1.26,1.198 0.486,0 0.937,-0.343 1.126,-0.784 L 0,0 z"
         style="fill:#1c649c;fill-opacity:1;fill-rule:nonzero;stroke:none"
         id="path126"
         inkscape:connector-curvature="0" /></g><g
       id="g128"
       transform="matrix(0.71847354,0,0,0.71847354,99.152328,28.111613)"><path
         d="M 0,0 C -0.099,0.611 -0.612,1.106 -1.242,1.106 -1.863,1.106 -2.439,0.611 -2.53,0 L 0,0 z m -2.565,-0.612 c 0.008,-0.784 0.566,-1.414 1.386,-1.414 0.612,0 1.008,0.369 1.287,0.874 L 0.72,-1.504 c -0.405,-0.756 -1.089,-1.188 -1.953,-1.188 -1.261,0 -2.071,0.963 -2.071,2.178 0,1.252 0.729,2.287 2.053,2.287 1.359,0 2.08,-1.126 2.007,-2.385 l -3.321,0 z"
         style="fill:#1c649c;fill-opacity:1;fill-rule:nonzero;stroke:none"
         id="path130"
         inkscape:connector-curvature="0" /></g><g
       id="g132"
       transform="matrix(0.71847354,0,0,0.71847354,102.64547,27.781115)"><path
         d="m 0,0 c 0,-0.864 0.612,-1.566 1.503,-1.566 0.892,0 1.504,0.702 1.504,1.566 0,0.855 -0.612,1.566 -1.504,1.566 C 0.612,1.566 0,0.855 0,0 m -0.72,-0.009 c 0,1.242 0.981,2.242 2.223,2.242 1.243,0 2.224,-1 2.224,-2.242 0,-1.242 -0.99,-2.223 -2.224,-2.223 -1.233,0 -2.223,0.981 -2.223,2.223"
         style="fill:#1c649c;fill-opacity:1;fill-rule:nonzero;stroke:none"
         id="path134"
         inkscape:connector-curvature="0" /></g><g
       id="g136"
       transform="matrix(0.71847354,0,0,0.71847354,108.29253,28.395769)"><path
         d="m 0,0 -0.018,0 c -0.333,0.423 -0.747,0.711 -1.315,0.711 -0.873,0 -1.494,-0.72 -1.494,-1.566 0,-0.837 0.576,-1.567 1.458,-1.567 0.604,0 1.027,0.271 1.378,0.73 l 0.018,0 0,-0.963 c -0.414,-0.28 -0.838,-0.433 -1.341,-0.433 -1.279,0 -2.251,0.954 -2.251,2.233 0,1.26 1.017,2.233 2.259,2.233 0.46,0 0.928,-0.153 1.306,-0.424 L 0,0 z"
         style="fill:#1c649c;fill-opacity:1;fill-rule:nonzero;stroke:none"
         id="path138"
         inkscape:connector-curvature="0" /></g><g
       id="g140"
       transform="matrix(0.71847354,0,0,0.71847354,111.37134,28.395769)"><path
         d="m 0,0 -0.018,0 c -0.333,0.423 -0.747,0.711 -1.314,0.711 -0.874,0 -1.495,-0.72 -1.495,-1.566 0,-0.837 0.577,-1.567 1.459,-1.567 0.603,0 1.026,0.271 1.377,0.73 l 0.018,0 0,-0.963 c -0.414,-0.28 -0.837,-0.433 -1.341,-0.433 -1.279,0 -2.251,0.954 -2.251,2.233 0,1.26 1.018,2.233 2.26,2.233 0.459,0 0.927,-0.153 1.305,-0.424 L 0,0 z"
         style="fill:#1c649c;fill-opacity:1;fill-rule:nonzero;stroke:none"
         id="path142"
         inkscape:connector-curvature="0" /></g><path
       d="m 112.80749,26.261544 -0.5173,0 0,3.039861 0.5173,0 0,-3.039861 z m 0.10993,4.185108 c 0,-0.20692 -0.16812,-0.369295 -0.36858,-0.369295 -0.20045,0 -0.36857,0.162375 -0.36857,0.369295 0,0.199736 0.16812,0.368577 0.36857,0.368577 0.20046,0 0.36858,-0.168841 0.36858,-0.368577"
       style="fill:#1c649c;fill-opacity:1;fill-rule:nonzero;stroke:none"
       id="path144"
       inkscape:connector-curvature="0" /><g
       id="g146"
       transform="matrix(0.71847354,0,0,0.71847354,114.15959,27.814093)"><path
         d="M 0,0 C 0,-0.829 0.486,-1.612 1.386,-1.612 2.313,-1.612 2.8,-0.865 2.8,-0.01 2.8,0.837 2.269,1.521 1.377,1.521 0.54,1.521 0,0.792 0,0 m 2.764,-1.576 -0.018,0 C 2.395,-2.035 1.863,-2.278 1.287,-2.278 c -1.242,0 -2.025,1.053 -2.025,2.223 0,1.207 0.765,2.243 2.034,2.243 0.567,0 1.107,-0.271 1.45,-0.721 l 0.018,0 0,3.799 0.72,0 0,-7.427 -0.72,0 0,0.585 z"
         style="fill:#1c649c;fill-opacity:1;fill-rule:nonzero;stroke:none"
         id="path148"
         inkscape:connector-curvature="0" /></g><g
       id="g150"
       transform="matrix(0.71847354,0,0,0.71847354,119.72215,28.111613)"><path
         d="M 0,0 C -0.099,0.611 -0.612,1.106 -1.242,1.106 -1.863,1.106 -2.439,0.611 -2.529,0 L 0,0 z m -2.565,-0.612 c 0.008,-0.784 0.567,-1.414 1.386,-1.414 0.612,0 1.008,0.369 1.287,0.874 l 0.613,-0.352 c -0.406,-0.756 -1.09,-1.188 -1.954,-1.188 -1.26,0 -2.071,0.963 -2.071,2.178 0,1.252 0.73,2.287 2.053,2.287 1.359,0 2.079,-1.126 2.008,-2.385 l -3.322,0 z"
         style="fill:#1c649c;fill-opacity:1;fill-rule:nonzero;stroke:none"
         id="path152"
         inkscape:connector-curvature="0" /></g><g
       id="g154"
       transform="matrix(0.71847354,0,0,0.71847354,121.49448,28.932469)"><path
         d="m 0,0 0.019,0 c 0.296,0.405 0.683,0.631 1.206,0.631 1.171,0 1.44,-0.847 1.44,-1.837 l 0,-2.512 -0.72,0 0,2.386 c 0,0.685 -0.054,1.296 -0.891,1.296 C 0.063,-0.036 0,-0.954 0,-1.71 l 0,-2.008 -0.72,0 0,4.232 0.72,0 L 0,0 z"
         style="fill:#1c649c;fill-opacity:1;fill-rule:nonzero;stroke:none"
         id="path156"
         inkscape:connector-curvature="0" /></g><g
       id="g158"
       transform="matrix(0.71847354,0,0,0.71847354,124.93604,26.2614)"><path
         d="m 0,0 -0.72,0 0,3.565 -0.441,0 0,0.666 0.441,0 0,1.522 0.72,0 0,-1.522 0.756,0 0,-0.666 L 0,3.565 0,0 z"
         style="fill:#1c649c;fill-opacity:1;fill-rule:nonzero;stroke:none"
         id="path160"
         inkscape:connector-curvature="0" /></g><g
       id="g162"
       transform="matrix(0.71847354,0,0,0.71847354,126.21651,27.814093)"><path
         d="M 0,0 C 0,-0.829 0.486,-1.612 1.387,-1.612 2.314,-1.612 2.8,-0.865 2.8,-0.01 2.8,0.837 2.269,1.521 1.378,1.521 0.54,1.521 0,0.792 0,0 m 3.484,-2.161 -0.72,0 0,0.585 -0.018,0 C 2.377,-2.044 1.882,-2.278 1.288,-2.278 c -1.243,0 -2.026,1.053 -2.026,2.223 0,1.207 0.765,2.243 2.035,2.243 0.576,0 1.099,-0.271 1.449,-0.721 l 0.018,0 0,0.603 0.72,0 0,-4.231 z"
         style="fill:#1c649c;fill-opacity:1;fill-rule:nonzero;stroke:none"
         id="path164"
         inkscape:connector-curvature="0" /></g><path
       d="m 130.18234,26.261544 -0.51802,0 0,5.336103 0.51802,0 0,-5.336103 z"
       style="fill:#1c649c;fill-opacity:1;fill-rule:nonzero;stroke:none"
       id="path166"
       inkscape:connector-curvature="0" /><g
       id="g168"
       transform="matrix(0.71847354,0,0,0.71847354,133.24756,28.111613)"><path
         d="M 0,0 C -0.099,0.611 -0.611,1.106 -1.242,1.106 -1.863,1.106 -2.439,0.611 -2.529,0 L 0,0 z m -2.565,-0.612 c 0.008,-0.784 0.567,-1.414 1.386,-1.414 0.613,0 1.008,0.369 1.287,0.874 l 0.613,-0.352 c -0.406,-0.756 -1.09,-1.188 -1.954,-1.188 -1.26,0 -2.071,0.963 -2.071,2.178 0,1.252 0.73,2.287 2.053,2.287 1.359,0 2.08,-1.126 2.008,-2.385 l -3.322,0 z"
         style="fill:#1c649c;fill-opacity:1;fill-rule:nonzero;stroke:none"
         id="path170"
         inkscape:connector-curvature="0" /></g><g
       id="g172"
       transform="matrix(0.71847354,0,0,0.71847354,39.589938,19.721423)"><path
         d="M 0,0 2.197,5.438 4.394,0 6.176,5.087 6.995,5.087 4.394,-2.053 2.197,3.412 0,-2.053 l -2.602,7.14 0.82,0 L 0,0 z"
         style="fill:#1c649c;fill-opacity:1;fill-rule:nonzero;stroke:none"
         id="path174"
         inkscape:connector-curvature="0" /></g><g
       id="g176"
       transform="matrix(0.71847354,0,0,0.71847354,46.641683,20.348722)"><path
         d="M 0,0 C -0.099,0.612 -0.612,1.107 -1.243,1.107 -1.864,1.107 -2.44,0.612 -2.53,0 L 0,0 z m -2.566,-0.611 c 0.009,-0.784 0.567,-1.414 1.386,-1.414 0.613,0 1.009,0.369 1.288,0.873 L 0.72,-1.503 c -0.405,-0.756 -1.089,-1.188 -1.953,-1.188 -1.261,0 -2.071,0.962 -2.071,2.178 0,1.251 0.729,2.287 2.053,2.287 1.359,0 2.079,-1.126 2.007,-2.385 l -3.322,0 z"
         style="fill:#1c649c;fill-opacity:1;fill-rule:nonzero;stroke:none"
         id="path178"
         inkscape:connector-curvature="0" /></g><g
       id="g180"
       transform="matrix(0.71847354,0,0,0.71847354,49.125447,20.834266)"><path
         d="m 0,0 c -0.099,0.225 -0.315,0.432 -0.576,0.432 -0.252,0 -0.522,-0.198 -0.522,-0.468 0,-0.387 0.486,-0.531 0.981,-0.738 0.495,-0.207 0.981,-0.504 0.981,-1.216 0,-0.801 -0.648,-1.377 -1.431,-1.377 -0.711,0 -1.269,0.405 -1.495,1.071 l 0.64,0.271 c 0.18,-0.397 0.387,-0.676 0.864,-0.676 0.387,0 0.684,0.262 0.684,0.648 0,0.946 -1.909,0.621 -1.909,1.953 0,0.712 0.576,1.199 1.261,1.199 0.486,0 0.936,-0.343 1.125,-0.785 L 0,0 z"
         style="fill:#1c649c;fill-opacity:1;fill-rule:nonzero;stroke:none"
         id="path182"
         inkscape:connector-curvature="0" /></g><g
       id="g184"
       transform="matrix(0.71847354,0,0,0.71847354,51.020564,18.499227)"><path
         d="m 0,0 -0.72,0 0,3.564 -0.441,0 0,0.667 0.441,0 0,1.522 0.72,0 0,-1.522 0.756,0 0,-0.667 L 0,3.564 0,0 z"
         style="fill:#1c649c;fill-opacity:1;fill-rule:nonzero;stroke:none"
         id="path186"
         inkscape:connector-curvature="0" /></g><g
       id="g188"
       transform="matrix(0.71847354,0,0,0.71847354,53.258825,20.834266)"><path
         d="m 0,0 c -0.099,0.225 -0.315,0.432 -0.576,0.432 -0.252,0 -0.522,-0.198 -0.522,-0.468 0,-0.387 0.486,-0.531 0.981,-0.738 0.495,-0.207 0.981,-0.504 0.981,-1.216 0,-0.801 -0.648,-1.377 -1.431,-1.377 -0.711,0 -1.269,0.405 -1.495,1.071 l 0.64,0.271 c 0.18,-0.397 0.387,-0.676 0.864,-0.676 0.387,0 0.684,0.262 0.684,0.648 0,0.946 -1.909,0.621 -1.909,1.953 0,0.712 0.576,1.199 1.261,1.199 0.486,0 0.936,-0.343 1.125,-0.785 L 0,0 z"
         style="fill:#1c649c;fill-opacity:1;fill-rule:nonzero;stroke:none"
         id="path190"
         inkscape:connector-curvature="0" /></g><g
       id="g192"
       transform="matrix(0.71847354,0,0,0.71847354,56.868005,20.633597)"><path
         d="m 0,0 -0.018,0 c -0.333,0.423 -0.747,0.711 -1.315,0.711 -0.873,0 -1.494,-0.72 -1.494,-1.566 0,-0.837 0.577,-1.567 1.459,-1.567 0.603,0 1.026,0.271 1.377,0.73 l 0.018,0 0,-0.963 c -0.414,-0.28 -0.837,-0.433 -1.341,-0.433 -1.279,0 -2.251,0.954 -2.251,2.233 0,1.26 1.017,2.233 2.26,2.233 0.459,0 0.927,-0.153 1.305,-0.424 L 0,0 z"
         style="fill:#1c649c;fill-opacity:1;fill-rule:nonzero;stroke:none"
         id="path194"
         inkscape:connector-curvature="0" /></g><g
       id="g196"
       transform="matrix(0.71847354,0,0,0.71847354,58.207096,23.835115)"><path
         d="m 0,0 0,-3.69 0.018,-0.019 c 0.297,0.405 0.684,0.631 1.207,0.631 1.17,0 1.44,-0.847 1.44,-1.837 l 0,-2.512 -0.72,0 0,2.386 c 0,0.684 -0.054,1.296 -0.892,1.296 C 0.063,-3.745 0,-4.663 0,-5.419 l 0,-2.008 -0.72,0 L -0.72,0 0,0 z"
         style="fill:#1c649c;fill-opacity:1;fill-rule:nonzero;stroke:none"
         id="path198"
         inkscape:connector-curvature="0" /></g><g
       id="g200"
       transform="matrix(0.71847354,0,0,0.71847354,62.120477,19.482171)"><path
         d="M 0,0 1.314,3.188 2.638,0 l 1.26,2.863 0.82,0 -2.098,-4.528 -1.306,3.15 -1.305,-3.15 -2.079,4.528 0.819,0 L 0,0 z"
         style="fill:#1c649c;fill-opacity:1;fill-rule:nonzero;stroke:none"
         id="path202"
         inkscape:connector-curvature="0" /></g><g
       id="g204"
       transform="matrix(0.71847354,0,0,0.71847354,68.123252,20.348722)"><path
         d="M 0,0 C -0.099,0.612 -0.612,1.107 -1.242,1.107 -1.863,1.107 -2.439,0.612 -2.53,0 L 0,0 z m -2.566,-0.611 c 0.009,-0.784 0.567,-1.414 1.387,-1.414 0.612,0 1.008,0.369 1.287,0.873 L 0.72,-1.503 c -0.405,-0.756 -1.089,-1.188 -1.953,-1.188 -1.261,0 -2.071,0.962 -2.071,2.178 0,1.251 0.729,2.287 2.053,2.287 1.359,0 2.079,-1.126 2.007,-2.385 l -3.322,0 z"
         style="fill:#1c649c;fill-opacity:1;fill-rule:nonzero;stroke:none"
         id="path206"
         inkscape:connector-curvature="0" /></g><path
       d="m 69.992936,18.499156 -0.517301,0 0,3.039861 0.517301,0 0,-3.039861 z m 0.109926,4.184389 c 0,-0.20692 -0.168123,-0.367858 -0.368577,-0.367858 -0.200454,0 -0.368577,0.160938 -0.368577,0.367858 0,0.201173 0.168123,0.369296 0.368577,0.369296 0.200454,0 0.368577,-0.168123 0.368577,-0.369296"
       style="fill:#1c649c;fill-opacity:1;fill-rule:nonzero;stroke:none"
       id="path208"
       inkscape:connector-curvature="0" /><g
       id="g210"
       transform="matrix(0.71847354,0,0,0.71847354,73.789709,18.977731)"><path
         d="m 0,0 0,-0.666 -4.375,0 3.052,3.564 -2.485,0 0,0.667 3.934,0 L -2.917,0 0,0 z"
         style="fill:#1c649c;fill-opacity:1;fill-rule:nonzero;stroke:none"
         id="path212"
         inkscape:connector-curvature="0" /></g><g
       id="g214"
       transform="matrix(0.71847354,0,0,0.71847354,76.532338,20.348722)"><path
         d="M 0,0 C -0.099,0.612 -0.612,1.107 -1.242,1.107 -1.864,1.107 -2.44,0.612 -2.53,0 L 0,0 z m -2.566,-0.611 c 0.009,-0.784 0.567,-1.414 1.387,-1.414 0.612,0 1.008,0.369 1.287,0.873 L 0.72,-1.503 c -0.405,-0.756 -1.089,-1.188 -1.953,-1.188 -1.261,0 -2.071,0.962 -2.071,2.178 0,1.251 0.729,2.287 2.053,2.287 1.359,0 2.079,-1.126 2.007,-2.385 l -3.322,0 z"
         style="fill:#1c649c;fill-opacity:1;fill-rule:nonzero;stroke:none"
         id="path216"
         inkscape:connector-curvature="0" /></g><g
       id="g218"
       transform="matrix(0.71847354,0,0,0.71847354,78.279091,21.209597)"><path
         d="m 0,0 0.018,0 c 0.252,0.333 0.468,0.576 0.936,0.576 0.243,0 0.441,-0.081 0.648,-0.198 L 1.26,-0.279 C 1.116,-0.181 1.017,-0.091 0.828,-0.091 0.036,-0.091 0,-1.107 0,-1.657 l 0,-2.115 -0.72,0 0,4.231 0.72,0 L 0,0 z"
         style="fill:#1c649c;fill-opacity:1;fill-rule:nonzero;stroke:none"
         id="path220"
         inkscape:connector-curvature="0" /></g><g
       id="g222"
       transform="matrix(0.71847354,0,0,0.71847354,82.489921,19.003668)"><path
         d="m 0,0 0.756,0 c 0.847,0 1.738,0.207 1.738,1.242 0,1.054 -1.009,1.206 -1.837,1.206 L 0,2.448 0,0 z m 0,3.097 0.288,0 c 0.855,0 1.585,0.099 1.585,1.152 0,1.026 -0.649,1.135 -1.576,1.135 L 0,5.384 0,3.097 z m -0.756,2.989 1.116,0 c 1.233,0 2.269,-0.45 2.269,-1.837 C 2.629,3.7 2.422,3.231 1.962,2.926 2.773,2.728 3.25,1.998 3.25,1.188 c 0,-1.35 -1.089,-1.89 -2.431,-1.89 l -1.575,0 0,6.788 z"
         style="fill:#1c649c;fill-opacity:1;fill-rule:nonzero;stroke:none"
         id="path224"
         inkscape:connector-curvature="0" /></g><path
       d="m 86.235467,18.499156 -0.517301,0 0,3.039861 0.517301,0 0,-3.039861 z m 0.109926,4.184389 c 0,-0.20692 -0.168122,-0.367858 -0.369295,-0.367858 -0.199736,0 -0.368577,0.160938 -0.368577,0.367858 0,0.201173 0.168841,0.369296 0.368577,0.369296 0.201173,0 0.369295,-0.168123 0.369295,-0.369296"
       style="fill:#1c649c;fill-opacity:1;fill-rule:nonzero;stroke:none"
       id="path226"
       inkscape:connector-curvature="0" /><g
       id="g228"
       transform="matrix(0.71847354,0,0,0.71847354,87.780975,20.051202)"><path
         d="m 0,0 c 0,-0.828 0.486,-1.611 1.387,-1.611 0.927,0 1.413,0.747 1.413,1.602 0,0.847 -0.531,1.53 -1.423,1.53 C 0.541,1.521 0,0.793 0,0 m -0.684,5.267 0.72,0 0,-3.799 0.018,0 c 0.342,0.45 0.873,0.72 1.449,0.72 1.261,0 2.035,-1.036 2.035,-2.233 0,-1.179 -0.783,-2.232 -2.025,-2.232 -0.586,0 -1.117,0.243 -1.459,0.702 l -0.018,0 0,-0.585 -0.72,0 0,7.427 z"
         style="fill:#1c649c;fill-opacity:1;fill-rule:nonzero;stroke:none"
         id="path230"
         inkscape:connector-curvature="0" /></g><path
       d="m 91.552171,18.499156 -0.517301,0 0,5.336103 0.517301,0 0,-5.336103 z"
       style="fill:#1c649c;fill-opacity:1;fill-rule:nonzero;stroke:none"
       id="path232"
       inkscape:connector-curvature="0" /><path
       d="m 93.130658,18.499156 -0.517301,0 0,3.039861 0.517301,0 0,-3.039861 z m 0.109926,4.184389 c 0,-0.20692 -0.168123,-0.367858 -0.368577,-0.367858 -0.200454,0 -0.369295,0.160938 -0.369295,0.367858 0,0.201173 0.168841,0.369296 0.369295,0.369296 0.200454,0 0.368577,-0.168123 0.368577,-0.369296"
       style="fill:#1c649c;fill-opacity:1;fill-rule:nonzero;stroke:none"
       id="path234"
       inkscape:connector-curvature="0" /><g
       id="g236"
       transform="matrix(0.71847354,0,0,0.71847354,94.456672,20.018943)"><path
         d="m 0,0 c 0,-0.864 0.612,-1.566 1.503,-1.566 0.892,0 1.504,0.702 1.504,1.566 0,0.855 -0.612,1.566 -1.504,1.566 C 0.612,1.566 0,0.855 0,0 m -0.72,-0.009 c 0,1.242 0.981,2.242 2.223,2.242 1.243,0 2.224,-1 2.224,-2.242 0,-1.242 -0.99,-2.223 -2.224,-2.223 -1.233,0 -2.223,0.981 -2.223,2.223"
         style="fill:#1c649c;fill-opacity:1;fill-rule:nonzero;stroke:none"
         id="path238"
         inkscape:connector-curvature="0" /></g><g
       id="g240"
       transform="matrix(0.71847354,0,0,0.71847354,98.389309,18.499227)"><path
         d="m 0,0 -0.72,0 0,3.564 -0.441,0 0,0.667 0.441,0 0,1.522 0.72,0 0,-1.522 0.756,0 0,-0.667 L 0,3.564 0,0 z"
         style="fill:#1c649c;fill-opacity:1;fill-rule:nonzero;stroke:none"
         id="path242"
         inkscape:connector-curvature="0" /></g><g
       id="g244"
       transform="matrix(0.71847354,0,0,0.71847354,99.915706,23.835115)"><path
         d="m 0,0 0,-3.69 0.018,-0.019 c 0.297,0.405 0.684,0.631 1.207,0.631 1.17,0 1.44,-0.847 1.44,-1.837 l 0,-2.512 -0.72,0 0,2.386 c 0,0.684 -0.054,1.296 -0.891,1.296 C 0.063,-3.745 0,-4.663 0,-5.419 l 0,-2.008 -0.72,0 L -0.72,0 0,0 z"
         style="fill:#1c649c;fill-opacity:1;fill-rule:nonzero;stroke:none"
         id="path246"
         inkscape:connector-curvature="0" /></g><g
       id="g248"
       transform="matrix(0.71847354,0,0,0.71847354,104.91592,20.348722)"><path
         d="M 0,0 C -0.099,0.612 -0.612,1.107 -1.242,1.107 -1.863,1.107 -2.439,0.612 -2.53,0 L 0,0 z m -2.566,-0.611 c 0.009,-0.784 0.567,-1.414 1.387,-1.414 0.612,0 1.008,0.369 1.287,0.873 L 0.72,-1.503 c -0.405,-0.756 -1.089,-1.188 -1.953,-1.188 -1.261,0 -2.071,0.962 -2.071,2.178 0,1.251 0.729,2.287 2.053,2.287 1.359,0 2.079,-1.126 2.007,-2.385 l -3.322,0 z"
         style="fill:#1c649c;fill-opacity:1;fill-rule:nonzero;stroke:none"
         id="path250"
         inkscape:connector-curvature="0" /></g><g
       id="g252"
       transform="matrix(0.71847354,0,0,0.71847354,106.66268,20.413959)"><path
         d="m 0,0 1.539,1.566 0.963,0 -1.809,-1.8 2.152,-2.431 -0.954,0 -1.702,1.927 -0.189,-0.19 0,-1.737 -0.72,0 0,7.427 0.72,0 L 0,0 z"
         style="fill:#1c649c;fill-opacity:1;fill-rule:nonzero;stroke:none"
         id="path254"
         inkscape:connector-curvature="0" /></g><g
       id="g256"
       transform="matrix(0.71847354,0,0,0.71847354,110.43991,20.834266)"><path
         d="m 0,0 c -0.099,0.225 -0.315,0.432 -0.576,0.432 -0.252,0 -0.522,-0.198 -0.522,-0.468 0,-0.387 0.486,-0.531 0.981,-0.738 0.495,-0.207 0.981,-0.504 0.981,-1.216 0,-0.801 -0.648,-1.377 -1.431,-1.377 -0.711,0 -1.269,0.405 -1.495,1.071 l 0.64,0.271 c 0.18,-0.397 0.387,-0.676 0.864,-0.676 0.387,0 0.684,0.262 0.684,0.648 0,0.946 -1.908,0.621 -1.908,1.953 0,0.712 0.576,1.199 1.26,1.199 0.486,0 0.937,-0.343 1.126,-0.785 L 0,0 z"
         style="fill:#1c649c;fill-opacity:1;fill-rule:nonzero;stroke:none"
         id="path258"
         inkscape:connector-curvature="0" /></g><g
       id="g260"
       transform="matrix(0.71847354,0,0,0.71847354,112.80088,19.495535)"><path
         d="m 0,0 1.26,2.845 0.811,0 L 0,-1.666 l -2.08,4.511 0.82,0 L 0,0 z"
         style="fill:#1c649c;fill-opacity:1;fill-rule:nonzero;stroke:none"
         id="path262"
         inkscape:connector-curvature="0" /></g><g
       id="g264"
       transform="matrix(0.71847354,0,0,0.71847354,116.889,20.348722)"><path
         d="M 0,0 C -0.099,0.612 -0.612,1.107 -1.242,1.107 -1.863,1.107 -2.439,0.612 -2.53,0 L 0,0 z m -2.565,-0.611 c 0.008,-0.784 0.566,-1.414 1.386,-1.414 0.612,0 1.008,0.369 1.287,0.873 l 0.613,-0.351 c -0.406,-0.756 -1.09,-1.188 -1.954,-1.188 -1.261,0 -2.071,0.962 -2.071,2.178 0,1.251 0.729,2.287 2.053,2.287 1.359,0 2.079,-1.126 2.007,-2.385 l -3.321,0 z"
         style="fill:#1c649c;fill-opacity:1;fill-rule:nonzero;stroke:none"
         id="path266"
         inkscape:connector-curvature="0" /></g><g
       id="g268"
       transform="matrix(0.71847354,0,0,0.71847354,118.63532,21.209597)"><path
         d="m 0,0 0.019,0 c 0.252,0.333 0.467,0.576 0.936,0.576 0.242,0 0.441,-0.081 0.648,-0.198 L 1.261,-0.279 C 1.117,-0.181 1.018,-0.091 0.829,-0.091 0.036,-0.091 0,-1.107 0,-1.657 l 0,-2.115 -0.72,0 0,4.231 0.72,0 L 0,0 z"
         style="fill:#1c649c;fill-opacity:1;fill-rule:nonzero;stroke:none"
         id="path270"
         inkscape:connector-curvature="0" /></g><g
       id="g272"
       transform="matrix(0.71847354,0,0,0.71847354,120.77673,20.051202)"><path
         d="m 0,0 c 0,-0.828 0.486,-1.611 1.387,-1.611 0.926,0 1.413,0.747 1.413,1.602 0,0.847 -0.531,1.53 -1.423,1.53 C 0.54,1.521 0,0.793 0,0 m -0.685,5.267 0.721,0 0,-3.799 0.018,0 c 0.342,0.45 0.873,0.72 1.449,0.72 1.261,0 2.035,-1.036 2.035,-2.233 0,-1.179 -0.783,-2.232 -2.025,-2.232 -0.586,0 -1.117,0.243 -1.459,0.702 l -0.018,0 0,-0.585 -0.721,0 0,7.427 z"
         style="fill:#1c649c;fill-opacity:1;fill-rule:nonzero;stroke:none"
         id="path274"
         inkscape:connector-curvature="0" /></g><g
       id="g276"
       transform="matrix(0.71847354,0,0,0.71847354,124.52206,19.84421)"><path
         d="m 0,0 c 0,-0.711 0.081,-1.323 0.954,-1.323 0.873,0 0.954,0.612 0.954,1.323 l 0,2.359 0.721,0 0,-2.44 c 0,-1.125 -0.424,-1.908 -1.675,-1.908 -1.251,0 -1.675,0.783 -1.675,1.908 l 0,2.44 L 0,2.359 0,0 z"
         style="fill:#1c649c;fill-opacity:1;fill-rule:nonzero;stroke:none"
         id="path278"
         inkscape:connector-curvature="0" /></g><g
       id="g280"
       transform="matrix(0.71847354,0,0,0.71847354,127.87237,21.170297)"><path
         d="m 0,0 0.019,0 c 0.296,0.405 0.683,0.631 1.206,0.631 1.171,0 1.44,-0.847 1.44,-1.837 l 0,-2.512 -0.72,0 0,2.386 c 0,0.684 -0.054,1.296 -0.891,1.296 C 0.063,-0.036 0,-0.954 0,-1.71 l 0,-2.008 -0.72,0 0,4.232 0.72,0 L 0,0 z"
         style="fill:#1c649c;fill-opacity:1;fill-rule:nonzero;stroke:none"
         id="path282"
         inkscape:connector-curvature="0" /></g><g
       id="g284"
       transform="matrix(0.71847354,0,0,0.71847354,131.04235,20.051202)"><path
         d="m 0,0 c 0,-0.828 0.486,-1.611 1.386,-1.611 0.927,0 1.414,0.747 1.414,1.602 0,0.847 -0.531,1.53 -1.423,1.53 C 0.54,1.521 0,0.793 0,0 m 2.764,-1.575 -0.018,0 C 2.395,-2.034 1.863,-2.277 1.287,-2.277 c -1.242,0 -2.025,1.053 -2.025,2.223 0,1.206 0.764,2.242 2.034,2.242 0.567,0 1.107,-0.27 1.45,-0.72 l 0.018,0 0,3.799 0.719,0 0,-7.427 -0.719,0 0,0.585 z"
         style="fill:#1c649c;fill-opacity:1;fill-rule:nonzero;stroke:none"
         id="path286"
         inkscape:connector-curvature="0" /></g><g
       id="g288"
       transform="matrix(0.71847354,0,0,0.71847354,43.15177,13.35625)"><path
         d="m 0,0 0.234,0 c 0.855,0 1.72,0.162 1.72,1.216 0,1.116 -0.82,1.224 -1.729,1.224 L 0,2.44 0,0 z m 0,-3.646 -0.756,0 0,6.789 0.981,0 c 1.287,0 2.484,-0.343 2.484,-1.873 0,-1.044 -0.657,-1.783 -1.701,-1.873 l 2.161,-3.043 -0.927,0 -2.053,2.98 -0.189,0 0,-2.98 z"
         style="fill:#1c649c;fill-opacity:1;fill-rule:nonzero;stroke:none"
         id="path290"
         inkscape:connector-curvature="0" /></g><g
       id="g292"
       transform="matrix(0.71847354,0,0,0.71847354,48.216506,12.586549)"><path
         d="M 0,0 C -0.099,0.612 -0.612,1.107 -1.243,1.107 -1.864,1.107 -2.44,0.612 -2.53,0 L 0,0 z m -2.566,-0.612 c 0.009,-0.784 0.567,-1.413 1.386,-1.413 0.613,0 1.009,0.369 1.288,0.873 L 0.72,-1.503 c -0.405,-0.757 -1.089,-1.188 -1.953,-1.188 -1.261,0 -2.071,0.962 -2.071,2.178 0,1.251 0.729,2.286 2.053,2.286 1.359,0 2.079,-1.125 2.007,-2.385 l -3.322,0 z"
         style="fill:#1c649c;fill-opacity:1;fill-rule:nonzero;stroke:none"
         id="path294"
         inkscape:connector-curvature="0" /></g><g
       id="g296"
       transform="matrix(0.71847354,0,0,0.71847354,50.014773,10.736983)"><path
         d="m 0,0 -0.72,0 0,3.564 -0.442,0 0,0.667 0.442,0 0,1.522 0.72,0 0,-1.522 0.756,0 0,-0.667 L 0,3.564 0,0 z"
         style="fill:#1c649c;fill-opacity:1;fill-rule:nonzero;stroke:none"
         id="path298"
         inkscape:connector-curvature="0" /></g><g
       id="g300"
       transform="matrix(0.71847354,0,0,0.71847354,53.125835,12.586549)"><path
         d="M 0,0 C -0.099,0.612 -0.612,1.107 -1.242,1.107 -1.863,1.107 -2.439,0.612 -2.53,0 L 0,0 z m -2.565,-0.612 c 0.008,-0.784 0.566,-1.413 1.386,-1.413 0.612,0 1.008,0.369 1.287,0.873 L 0.72,-1.503 c -0.405,-0.757 -1.089,-1.188 -1.953,-1.188 -1.261,0 -2.071,0.962 -2.071,2.178 0,1.251 0.729,2.286 2.053,2.286 1.359,0 2.079,-1.125 2.007,-2.385 l -3.321,0 z"
         style="fill:#1c649c;fill-opacity:1;fill-rule:nonzero;stroke:none"
         id="path302"
         inkscape:connector-curvature="0" /></g><g
       id="g304"
       transform="matrix(0.71847354,0,0,0.71847354,56.644919,12.28903)"><path
         d="m 0,0 c 0,-0.828 0.486,-1.611 1.386,-1.611 0.927,0 1.414,0.747 1.414,1.602 0,0.847 -0.531,1.53 -1.423,1.53 C 0.54,1.521 0,0.792 0,0 m 2.764,-1.575 -0.018,0 C 2.395,-2.034 1.864,-2.277 1.288,-2.277 c -1.243,0 -2.026,1.052 -2.026,2.223 0,1.206 0.765,2.242 2.034,2.242 0.568,0 1.108,-0.27 1.45,-0.72 l 0.018,0 0,3.799 0.72,0 0,-7.427 -0.72,0 0,0.585 z"
         style="fill:#1c649c;fill-opacity:1;fill-rule:nonzero;stroke:none"
         id="path306"
         inkscape:connector-curvature="0" /></g><g
       id="g308"
       transform="matrix(0.71847354,0,0,0.71847354,62.207772,12.586549)"><path
         d="M 0,0 C -0.099,0.612 -0.612,1.107 -1.243,1.107 -1.864,1.107 -2.44,0.612 -2.53,0 L 0,0 z m -2.566,-0.612 c 0.009,-0.784 0.567,-1.413 1.386,-1.413 0.613,0 1.009,0.369 1.288,0.873 L 0.72,-1.503 c -0.405,-0.757 -1.089,-1.188 -1.953,-1.188 -1.261,0 -2.071,0.962 -2.071,2.178 0,1.251 0.729,2.286 2.053,2.286 1.359,0 2.079,-1.125 2.007,-2.385 l -3.322,0 z"
         style="fill:#1c649c;fill-opacity:1;fill-rule:nonzero;stroke:none"
         id="path310"
         inkscape:connector-curvature="0" /></g><path
       d="m 63.967098,10.736767 -0.517301,0 0,5.336103 0.517301,0 0,-5.336103 z"
       style="fill:#1c649c;fill-opacity:1;fill-rule:nonzero;stroke:none"
       id="path312"
       inkscape:connector-curvature="0" /><path
       d="m 65.435658,10.736767 -0.517301,0 0,5.336103 0.517301,0 0,-5.336103 z"
       style="fill:#1c649c;fill-opacity:1;fill-rule:nonzero;stroke:none"
       id="path314"
       inkscape:connector-curvature="0" /><g
       id="g316"
       transform="matrix(0.71847354,0,0,0.71847354,68.501456,12.586549)"><path
         d="M 0,0 C -0.099,0.612 -0.612,1.107 -1.242,1.107 -1.864,1.107 -2.44,0.612 -2.53,0 L 0,0 z m -2.566,-0.612 c 0.009,-0.784 0.567,-1.413 1.387,-1.413 0.612,0 1.008,0.369 1.287,0.873 L 0.72,-1.503 c -0.405,-0.757 -1.089,-1.188 -1.953,-1.188 -1.261,0 -2.071,0.962 -2.071,2.178 0,1.251 0.729,2.286 2.053,2.286 1.359,0 2.079,-1.125 2.007,-2.385 l -3.322,0 z"
         style="fill:#1c649c;fill-opacity:1;fill-rule:nonzero;stroke:none"
         id="path318"
         inkscape:connector-curvature="0" /></g><g
       id="g320"
       transform="matrix(0.71847354,0,0,0.71847354,72.214528,12.28903)"><path
         d="m 0,0 c 0,-0.828 0.486,-1.611 1.386,-1.611 0.927,0 1.414,0.747 1.414,1.602 0,0.847 -0.531,1.53 -1.423,1.53 C 0.54,1.521 0,0.792 0,0 m -0.684,5.267 0.72,0 0,-3.799 0.018,0 c 0.342,0.45 0.873,0.72 1.449,0.72 1.261,0 2.035,-1.036 2.035,-2.233 0,-1.18 -0.783,-2.232 -2.026,-2.232 -0.585,0 -1.116,0.243 -1.458,0.702 l -0.018,0 0,-0.585 -0.72,0 0,7.427 z"
         style="fill:#1c649c;fill-opacity:1;fill-rule:nonzero;stroke:none"
         id="path322"
         inkscape:connector-curvature="0" /></g><path
       d="m 76.09565,10.736767 -0.517301,0 0,3.039862 0.517301,0 0,-3.039862 z m 0.109926,4.185109 c 0,-0.207639 -0.168122,-0.368577 -0.368577,-0.368577 -0.200454,0 -0.369295,0.160938 -0.369295,0.368577 0,0.200454 0.168841,0.368577 0.369295,0.368577 0.200455,0 0.368577,-0.168123 0.368577,-0.368577"
       style="fill:#1c649c;fill-opacity:1;fill-rule:nonzero;stroke:none"
       id="path324"
       inkscape:connector-curvature="0" /><g
       id="g326"
       transform="matrix(0.71847354,0,0,0.71847354,77.641661,12.28903)"><path
         d="m 0,0 c 0,-0.828 0.486,-1.611 1.386,-1.611 0.927,0 1.414,0.747 1.414,1.602 0,0.847 -0.531,1.53 -1.423,1.53 C 0.54,1.521 0,0.792 0,0 m -0.685,5.267 0.721,0 0,-3.799 0.018,0 c 0.342,0.45 0.873,0.72 1.449,0.72 1.261,0 2.035,-1.036 2.035,-2.233 0,-1.18 -0.783,-2.232 -2.026,-2.232 -0.585,0 -1.116,0.243 -1.458,0.702 l -0.018,0 0,-0.585 -0.721,0 0,7.427 z"
         style="fill:#1c649c;fill-opacity:1;fill-rule:nonzero;stroke:none"
         id="path328"
         inkscape:connector-curvature="0" /></g><path
       d="m 81.412354,10.736767 -0.517301,0 0,5.336103 0.517301,0 0,-5.336103 z"
       style="fill:#1c649c;fill-opacity:1;fill-rule:nonzero;stroke:none"
       id="path330"
       inkscape:connector-curvature="0" /><path
       d="m 82.990841,10.736767 -0.517301,0 0,3.039862 0.517301,0 0,-3.039862 z m 0.109926,4.185109 c 0,-0.207639 -0.168123,-0.368577 -0.368577,-0.368577 -0.200454,0 -0.368577,0.160938 -0.368577,0.368577 0,0.200454 0.168123,0.368577 0.368577,0.368577 0.200454,0 0.368577,-0.168123 0.368577,-0.368577"
       style="fill:#1c649c;fill-opacity:1;fill-rule:nonzero;stroke:none"
       id="path332"
       inkscape:connector-curvature="0" /><g
       id="g334"
       transform="matrix(0.71847354,0,0,0.71847354,84.316999,12.25677)"><path
         d="m 0,0 c 0,-0.864 0.612,-1.566 1.503,-1.566 0.892,0 1.504,0.702 1.504,1.566 0,0.855 -0.612,1.566 -1.504,1.566 C 0.612,1.566 0,0.855 0,0 m -0.72,-0.009 c 0,1.242 0.981,2.241 2.223,2.241 1.243,0 2.224,-0.999 2.224,-2.241 0,-1.242 -0.99,-2.223 -2.224,-2.223 -1.233,0 -2.223,0.981 -2.223,2.223"
         style="fill:#1c649c;fill-opacity:1;fill-rule:nonzero;stroke:none"
         id="path336"
         inkscape:connector-curvature="0" /></g><g
       id="g338"
       transform="matrix(0.71847354,0,0,0.71847354,88.249636,10.736983)"><path
         d="m 0,0 -0.72,0 0,3.564 -0.441,0 0,0.667 0.441,0 0,1.522 0.72,0 0,-1.522 0.756,0 0,-0.667 L 0,3.564 0,0 z"
         style="fill:#1c649c;fill-opacity:1;fill-rule:nonzero;stroke:none"
         id="path340"
         inkscape:connector-curvature="0" /></g><g
       id="g342"
       transform="matrix(0.71847354,0,0,0.71847354,91.361057,12.586549)"><path
         d="M 0,0 C -0.099,0.612 -0.612,1.107 -1.243,1.107 -1.864,1.107 -2.44,0.612 -2.53,0 L 0,0 z m -2.566,-0.612 c 0.009,-0.784 0.567,-1.413 1.387,-1.413 0.612,0 1.008,0.369 1.287,0.873 L 0.72,-1.503 c -0.405,-0.757 -1.089,-1.188 -1.953,-1.188 -1.261,0 -2.071,0.962 -2.071,2.178 0,1.251 0.729,2.286 2.053,2.286 1.359,0 2.079,-1.125 2.007,-2.385 l -3.322,0 z"
         style="fill:#1c649c;fill-opacity:1;fill-rule:nonzero;stroke:none"
         id="path344"
         inkscape:connector-curvature="0" /></g><g
       id="g346"
       transform="matrix(0.71847354,0,0,0.71847354,94.873459,12.871352)"><path
         d="m 0,0 -0.018,0 c -0.333,0.423 -0.747,0.711 -1.315,0.711 -0.873,0 -1.494,-0.72 -1.494,-1.566 0,-0.837 0.577,-1.567 1.458,-1.567 0.604,0 1.027,0.271 1.378,0.73 l 0.018,0 0,-0.964 c -0.414,-0.279 -0.837,-0.432 -1.341,-0.432 -1.279,0 -2.251,0.954 -2.251,2.233 0,1.26 1.017,2.232 2.259,2.232 0.46,0 0.928,-0.152 1.306,-0.423 L 0,0 z"
         style="fill:#1c649c;fill-opacity:1;fill-rule:nonzero;stroke:none"
         id="path348"
         inkscape:connector-curvature="0" /></g><g
       id="g350"
       transform="matrix(0.71847354,0,0,0.71847354,96.212478,16.072942)"><path
         d="m 0,0 0,-3.69 0.018,-0.019 c 0.297,0.405 0.684,0.63 1.206,0.63 1.171,0 1.441,-0.846 1.441,-1.836 l 0,-2.512 -0.721,0 0,2.386 c 0,0.684 -0.053,1.296 -0.891,1.296 C 0.063,-3.745 0,-4.663 0,-5.419 l 0,-2.008 -0.72,0 L -0.72,0 0,0 z"
         style="fill:#1c649c;fill-opacity:1;fill-rule:nonzero;stroke:none"
         id="path352"
         inkscape:connector-curvature="0" /></g><g
       id="g354"
       transform="matrix(0.71847354,0,0,0.71847354,101.21269,12.586549)"><path
         d="M 0,0 C -0.099,0.612 -0.612,1.107 -1.243,1.107 -1.864,1.107 -2.44,0.612 -2.53,0 L 0,0 z m -2.566,-0.612 c 0.009,-0.784 0.567,-1.413 1.386,-1.413 0.613,0 1.009,0.369 1.288,0.873 L 0.72,-1.503 c -0.405,-0.757 -1.089,-1.188 -1.953,-1.188 -1.261,0 -2.071,0.962 -2.071,2.178 0,1.251 0.729,2.286 2.053,2.286 1.359,0 2.079,-1.125 2.007,-2.385 l -3.322,0 z"
         style="fill:#1c649c;fill-opacity:1;fill-rule:nonzero;stroke:none"
         id="path356"
         inkscape:connector-curvature="0" /></g><g
       id="g358"
       transform="matrix(0.71847354,0,0,0.71847354,104.73142,12.28903)"><path
         d="m 0,0 c 0,-0.828 0.486,-1.611 1.387,-1.611 0.927,0 1.413,0.747 1.413,1.602 0,0.847 -0.531,1.53 -1.423,1.53 C 0.541,1.521 0,0.792 0,0 m 2.764,-1.575 -0.018,0 C 2.395,-2.034 1.864,-2.277 1.288,-2.277 c -1.243,0 -2.026,1.052 -2.026,2.223 0,1.206 0.765,2.242 2.034,2.242 0.568,0 1.108,-0.27 1.45,-0.72 l 0.018,0 0,3.799 0.72,0 0,-7.427 -0.72,0 0,0.585 z"
         style="fill:#1c649c;fill-opacity:1;fill-rule:nonzero;stroke:none"
         id="path360"
         inkscape:connector-curvature="0" /></g><g
       id="g362"
       transform="matrix(0.71847354,0,0,0.71847354,110.29434,12.586549)"><path
         d="M 0,0 C -0.099,0.612 -0.612,1.107 -1.242,1.107 -1.863,1.107 -2.439,0.612 -2.53,0 L 0,0 z m -2.566,-0.612 c 0.009,-0.784 0.567,-1.413 1.387,-1.413 0.612,0 1.008,0.369 1.287,0.873 L 0.72,-1.503 c -0.405,-0.757 -1.089,-1.188 -1.953,-1.188 -1.261,0 -2.071,0.962 -2.071,2.178 0,1.251 0.729,2.286 2.053,2.286 1.359,0 2.079,-1.125 2.007,-2.385 l -3.322,0 z"
         style="fill:#1c649c;fill-opacity:1;fill-rule:nonzero;stroke:none"
         id="path364"
         inkscape:connector-curvature="0" /></g><path
       d="m 112.05381,10.736767 -0.5173,0 0,5.336103 0.5173,0 0,-5.336103 z"
       style="fill:#1c649c;fill-opacity:1;fill-rule:nonzero;stroke:none"
       id="path366"
       inkscape:connector-curvature="0" /><path
       d="m 113.52237,10.736767 -0.5173,0 0,5.336103 0.5173,0 0,-5.336103 z"
       style="fill:#1c649c;fill-opacity:1;fill-rule:nonzero;stroke:none"
       id="path368"
       inkscape:connector-curvature="0" /><g
       id="g370"
       transform="matrix(0.71847354,0,0,0.71847354,114.75779,12.28903)"><path
         d="m 0,0 c 0,-0.828 0.486,-1.611 1.386,-1.611 0.927,0 1.414,0.747 1.414,1.602 0,0.847 -0.531,1.53 -1.423,1.53 C 0.54,1.521 0,0.792 0,0 m 3.484,-2.16 -0.72,0 0,0.585 -0.018,0 c -0.37,-0.468 -0.865,-0.702 -1.459,-0.702 -1.242,0 -2.025,1.052 -2.025,2.223 0,1.206 0.765,2.242 2.034,2.242 0.577,0 1.099,-0.27 1.45,-0.72 l 0.018,0 0,0.603 0.72,0 0,-4.231 z"
         style="fill:#1c649c;fill-opacity:1;fill-rule:nonzero;stroke:none"
         id="path372"
         inkscape:connector-curvature="0" /></g><g
       id="g374"
       transform="matrix(0.71847354,0,0,0.71847354,122.42275,14.663369)"><path
         d="m 0,0 c -0.271,0.468 -0.595,0.737 -1.171,0.737 -0.602,0 -1.125,-0.431 -1.125,-1.052 0,-0.585 0.604,-0.856 1.063,-1.063 l 0.45,-0.198 c 0.882,-0.387 1.629,-0.828 1.629,-1.908 0,-1.189 -0.954,-2.098 -2.133,-2.098 -1.09,0 -1.901,0.702 -2.116,1.756 l 0.738,0.207 c 0.1,-0.694 0.63,-1.261 1.359,-1.261 0.73,0 1.396,0.559 1.396,1.323 0,0.792 -0.621,1.063 -1.251,1.351 l -0.414,0.18 c -0.793,0.36 -1.477,0.765 -1.477,1.738 0,1.053 0.891,1.728 1.9,1.728 0.756,0 1.395,-0.387 1.756,-1.053 L 0,0 z"
         style="fill:#1c649c;fill-opacity:1;fill-rule:nonzero;stroke:none"
         id="path376"
         inkscape:connector-curvature="0" /></g><g
       id="g378"
       transform="matrix(0.71847354,0,0,0.71847354,124.83567,11.732644)"><path
         d="m 0,0 1.26,2.846 0.81,0 -2.07,-4.511 -2.08,4.511 0.819,0 L 0,0 z"
         style="fill:#1c649c;fill-opacity:1;fill-rule:nonzero;stroke:none"
         id="path380"
         inkscape:connector-curvature="0" /></g><path
       d="m 127.43561,10.736767 -0.51802,0 0,3.039862 0.51802,0 0,-3.039862 z m 0.11065,4.185109 c 0,-0.207639 -0.16884,-0.368577 -0.3693,-0.368577 -0.20045,0 -0.36857,0.160938 -0.36857,0.368577 0,0.200454 0.16812,0.368577 0.36857,0.368577 0.20046,0 0.3693,-0.168123 0.3693,-0.368577"
       style="fill:#1c649c;fill-opacity:1;fill-rule:nonzero;stroke:none"
       id="path382"
       inkscape:connector-curvature="0" /><g
       id="g384"
       transform="matrix(0.71847354,0,0,0.71847354,131.23246,11.215558)"><path
         d="m 0,0 0,-0.666 -4.375,0 3.052,3.564 -2.485,0 0,0.667 3.934,0 L -2.917,0 0,0 z"
         style="fill:#1c649c;fill-opacity:1;fill-rule:nonzero;stroke:none"
         id="path386"
         inkscape:connector-curvature="0" /></g><g
       id="g388"
       transform="matrix(0.71847354,0,0,0.71847354,134.58981,11.215558)"><path
         d="m 0,0 0,-0.666 -4.375,0 3.052,3.564 -2.485,0 0,0.667 3.934,0 L -2.917,0 0,0 z"
         style="fill:#1c649c;fill-opacity:1;fill-rule:nonzero;stroke:none"
         id="path390"
         inkscape:connector-curvature="0" /></g><g
       id="g392"
       transform="matrix(0.71847354,0,0,0.71847354,137.33251,12.586549)"><path
         d="M 0,0 C -0.099,0.612 -0.612,1.107 -1.242,1.107 -1.863,1.107 -2.439,0.612 -2.529,0 L 0,0 z m -2.565,-0.612 c 0.008,-0.784 0.567,-1.413 1.385,-1.413 0.613,0 1.009,0.369 1.288,0.873 l 0.613,-0.351 c -0.406,-0.757 -1.09,-1.188 -1.954,-1.188 -1.26,0 -2.071,0.962 -2.071,2.178 0,1.251 0.73,2.286 2.053,2.286 1.359,0 2.079,-1.125 2.007,-2.385 l -3.321,0 z"
         style="fill:#1c649c;fill-opacity:1;fill-rule:nonzero;stroke:none"
         id="path394"
         inkscape:connector-curvature="0" /></g><g
       id="g396"
       transform="matrix(0.71847354,0,0,0.71847354,139.07884,13.446706)"><path
         d="m 0,0 0.019,0 c 0.252,0.333 0.467,0.576 0.936,0.576 0.242,0 0.441,-0.081 0.648,-0.197 L 1.261,-0.278 C 1.117,-0.18 1.018,-0.09 0.829,-0.09 0.036,-0.09 0,-1.107 0,-1.656 l 0,-2.115 -0.72,0 0,4.231 L 0,0.46 0,0 z"
         style="fill:#1c649c;fill-opacity:1;fill-rule:nonzero;stroke:none"
         id="path398"
         inkscape:connector-curvature="0" /></g><g
       id="g400"
       transform="matrix(0.71847354,0,0,0.71847354,141.0259,12.28903)"><path
         d="m 0,0 c 0,-0.828 0.486,-1.611 1.387,-1.611 0.927,0 1.413,0.747 1.413,1.602 0,0.847 -0.531,1.53 -1.422,1.53 C 0.54,1.521 0,0.792 0,0 m 3.484,-2.16 -0.72,0 0,0.585 -0.018,0 C 2.377,-2.043 1.882,-2.277 1.288,-2.277 c -1.243,0 -2.026,1.052 -2.026,2.223 0,1.206 0.765,2.242 2.035,2.242 0.576,0 1.099,-0.27 1.449,-0.72 l 0.018,0 0,0.603 0.72,0 0,-4.231 z"
         style="fill:#1c649c;fill-opacity:1;fill-rule:nonzero;stroke:none"
         id="path402"
         inkscape:connector-curvature="0" /></g><g
       id="g404"
       transform="matrix(0.71847354,0,0,0.71847354,146.72454,12.25677)"><path
         d="m 0,0 c 0,-0.864 0.612,-1.566 1.504,-1.566 0.892,0 1.504,0.702 1.504,1.566 0,0.855 -0.612,1.566 -1.504,1.566 C 0.612,1.566 0,0.855 0,0 m -0.72,-0.009 c 0,1.242 0.982,2.241 2.224,2.241 1.242,0 2.224,-0.999 2.224,-2.241 0,-1.242 -0.991,-2.223 -2.224,-2.223 -1.233,0 -2.224,0.981 -2.224,2.223"
         style="fill:#1c649c;fill-opacity:1;fill-rule:nonzero;stroke:none"
         id="path406"
         inkscape:connector-curvature="0" /></g><g
       id="g408"
       transform="matrix(0.71847354,0,0,0.71847354,152.37203,12.871352)"><path
         d="m 0,0 -0.019,0 c -0.333,0.423 -0.747,0.711 -1.314,0.711 -0.873,0 -1.494,-0.72 -1.494,-1.566 0,-0.837 0.576,-1.567 1.458,-1.567 0.603,0 1.026,0.271 1.378,0.73 l 0.017,0 0,-0.964 c -0.414,-0.279 -0.837,-0.432 -1.34,-0.432 -1.279,0 -2.251,0.954 -2.251,2.233 0,1.26 1.017,2.232 2.259,2.232 0.459,0 0.927,-0.152 1.306,-0.423 L 0,0 z"
         style="fill:#1c649c;fill-opacity:1;fill-rule:nonzero;stroke:none"
         id="path410"
         inkscape:connector-curvature="0" /></g><g
       id="g412"
       transform="matrix(0.71847354,0,0,0.71847354,155.45077,12.871352)"><path
         d="m 0,0 -0.018,0 c -0.334,0.423 -0.748,0.711 -1.314,0.711 -0.874,0 -1.495,-0.72 -1.495,-1.566 0,-0.837 0.576,-1.567 1.459,-1.567 0.602,0 1.026,0.271 1.377,0.73 l 0.018,0 0,-0.964 c -0.414,-0.279 -0.838,-0.432 -1.341,-0.432 -1.279,0 -2.251,0.954 -2.251,2.233 0,1.26 1.017,2.232 2.259,2.232 0.459,0 0.928,-0.152 1.306,-0.423 L 0,0 z"
         style="fill:#1c649c;fill-opacity:1;fill-rule:nonzero;stroke:none"
         id="path414"
         inkscape:connector-curvature="0" /></g><path
       d="m 156.88728,10.736767 -0.51802,0 0,3.039862 0.51802,0 0,-3.039862 z m 0.10993,4.185109 c 0,-0.207639 -0.16813,-0.368577 -0.3693,-0.368577 -0.20045,0 -0.36786,0.160938 -0.36786,0.368577 0,0.200454 0.16741,0.368577 0.36786,0.368577 0.20117,0 0.3693,-0.168123 0.3693,-0.368577"
       style="fill:#1c649c;fill-opacity:1;fill-rule:nonzero;stroke:none"
       id="path416"
       inkscape:connector-curvature="0" /><g
       id="g418"
       transform="matrix(0.71847354,0,0,0.71847354,158.23909,12.28903)"><path
         d="m 0,0 c 0,-0.828 0.485,-1.611 1.386,-1.611 0.927,0 1.414,0.747 1.414,1.602 0,0.847 -0.531,1.53 -1.423,1.53 C 0.54,1.521 0,0.792 0,0 m 2.764,-1.575 -0.019,0 c -0.35,-0.459 -0.882,-0.702 -1.458,-0.702 -1.242,0 -2.025,1.052 -2.025,2.223 0,1.206 0.764,2.242 2.034,2.242 0.567,0 1.107,-0.27 1.449,-0.72 l 0.019,0 0,3.799 0.719,0 0,-7.427 -0.719,0 0,0.585 z"
         style="fill:#1c649c;fill-opacity:1;fill-rule:nonzero;stroke:none"
         id="path420"
         inkscape:connector-curvature="0" /></g><g
       id="g422"
       transform="matrix(0.71847354,0,0,0.71847354,163.80165,12.586549)"><path
         d="M 0,0 C -0.099,0.612 -0.612,1.107 -1.242,1.107 -1.863,1.107 -2.439,0.612 -2.529,0 L 0,0 z m -2.565,-0.612 c 0.008,-0.784 0.566,-1.413 1.385,-1.413 0.613,0 1.009,0.369 1.288,0.873 l 0.613,-0.351 c -0.406,-0.757 -1.09,-1.188 -1.954,-1.188 -1.261,0 -2.071,0.962 -2.071,2.178 0,1.251 0.729,2.286 2.053,2.286 1.359,0 2.079,-1.125 2.007,-2.385 l -3.321,0 z"
         style="fill:#1c649c;fill-opacity:1;fill-rule:nonzero;stroke:none"
         id="path424"
         inkscape:connector-curvature="0" /></g><g
       id="g426"
       transform="matrix(0.71847354,0,0,0.71847354,165.57399,13.408124)"><path
         d="m 0,0 0.019,0 c 0.296,0.405 0.683,0.63 1.206,0.63 1.17,0 1.44,-0.846 1.44,-1.836 l 0,-2.512 -0.721,0 0,2.386 c 0,0.684 -0.053,1.296 -0.89,1.296 C 0.063,-0.036 0,-0.954 0,-1.71 l 0,-2.008 -0.72,0 0,4.232 0.72,0 L 0,0 z"
         style="fill:#1c649c;fill-opacity:1;fill-rule:nonzero;stroke:none"
         id="path428"
         inkscape:connector-curvature="0" /></g><g
       id="g430"
       transform="matrix(0.71847354,0,0,0.71847354,169.01547,10.736983)"><path
         d="m 0,0 -0.721,0 0,3.564 -0.44,0 0,0.667 0.44,0 0,1.522 0.721,0 0,-1.522 0.756,0 0,-0.667 L 0,3.564 0,0 z"
         style="fill:#1c649c;fill-opacity:1;fill-rule:nonzero;stroke:none"
         id="path432"
         inkscape:connector-curvature="0" /></g><g
       id="g434"
       transform="matrix(0.71847354,0,0,0.71847354,170.29601,12.28903)"><path
         d="m 0,0 c 0,-0.828 0.486,-1.611 1.387,-1.611 0.926,0 1.413,0.747 1.413,1.602 0,0.847 -0.531,1.53 -1.422,1.53 C 0.54,1.521 0,0.792 0,0 m 3.484,-2.16 -0.72,0 0,0.585 -0.018,0 C 2.377,-2.043 1.882,-2.277 1.287,-2.277 c -1.242,0 -2.025,1.052 -2.025,2.223 0,1.206 0.765,2.242 2.035,2.242 0.576,0 1.098,-0.27 1.449,-0.72 l 0.018,0 0,0.603 0.72,0 0,-4.231 z"
         style="fill:#1c649c;fill-opacity:1;fill-rule:nonzero;stroke:none"
         id="path436"
         inkscape:connector-curvature="0" /></g><path
       d="m 174.26141,10.736767 -0.51802,0 0,5.336103 0.51802,0 0,-5.336103 z"
       style="fill:#1c649c;fill-opacity:1;fill-rule:nonzero;stroke:none"
       id="path438"
       inkscape:connector-curvature="0" /><g
       id="g440"
       transform="matrix(0.71847354,0,0,0.71847354,177.32706,12.586549)"><path
         d="M 0,0 C -0.099,0.612 -0.612,1.107 -1.242,1.107 -1.863,1.107 -2.439,0.612 -2.529,0 L 0,0 z m -2.565,-0.612 c 0.008,-0.784 0.567,-1.413 1.386,-1.413 0.612,0 1.008,0.369 1.287,0.873 l 0.613,-0.351 c -0.406,-0.757 -1.09,-1.188 -1.954,-1.188 -1.26,0 -2.071,0.962 -2.071,2.178 0,1.251 0.73,2.286 2.053,2.286 1.359,0 2.079,-1.125 2.008,-2.385 l -3.322,0 z"
         style="fill:#1c649c;fill-opacity:1;fill-rule:nonzero;stroke:none"
         id="path442"
         inkscape:connector-curvature="0" /></g><g
       id="g444"
       transform="matrix(0.71847354,0,0,0.71847354,66.723881,3.4793225)"><path
         d="m 0,0 1.873,0 0,-0.702 -2.629,0 0,6.788 L 0,6.086 0,0 z"
         style="fill:#1c649c;fill-opacity:1;fill-rule:nonzero;stroke:none"
         id="path446"
         inkscape:connector-curvature="0" /></g><path
       d="m 69.220577,2.9750978 -0.517301,0 0,3.0391431 0.517301,0 0,-3.0391431 z m 0.109926,4.1843899 c 0,-0.2069204 -0.168123,-0.3685769 -0.368577,-0.3685769 -0.200454,0 -0.368577,0.1616565 -0.368577,0.3685769 0,0.2004541 0.168123,0.3692954 0.368577,0.3692954 0.200454,0 0.368577,-0.1688413 0.368577,-0.3692954"
       style="fill:#1c649c;fill-opacity:1;fill-rule:nonzero;stroke:none"
       id="path448"
       inkscape:connector-curvature="0" /><g
       id="g450"
       transform="matrix(0.71847354,0,0,0.71847354,70.766372,4.526857)"><path
         d="m 0,0 c 0,-0.828 0.486,-1.611 1.387,-1.611 0.927,0 1.413,0.747 1.413,1.602 0,0.846 -0.531,1.53 -1.423,1.53 C 0.541,1.521 0,0.792 0,0 m -0.684,5.267 0.72,0 0,-3.799 0.018,0 c 0.342,0.45 0.874,0.72 1.45,0.72 1.26,0 2.034,-1.036 2.034,-2.233 0,-1.18 -0.783,-2.232 -2.025,-2.232 -0.585,0 -1.117,0.243 -1.459,0.702 l -0.018,0 0,-0.585 -0.72,0 0,7.427 z"
         style="fill:#1c649c;fill-opacity:1;fill-rule:nonzero;stroke:none"
         id="path452"
         inkscape:connector-curvature="0" /></g><g
       id="g454"
       transform="matrix(0.71847354,0,0,0.71847354,74.524636,5.6845334)"><path
         d="m 0,0 0.018,0 c 0.252,0.333 0.468,0.576 0.937,0.576 0.242,0 0.441,-0.081 0.648,-0.198 L 1.26,-0.279 C 1.116,-0.18 1.018,-0.09 0.828,-0.09 0.036,-0.09 0,-1.107 0,-1.656 l 0,-2.115 -0.72,0 0,4.23 0.72,0 L 0,0 z"
         style="fill:#1c649c;fill-opacity:1;fill-rule:nonzero;stroke:none"
         id="path456"
         inkscape:connector-curvature="0" /></g><g
       id="g458"
       transform="matrix(0.71847354,0,0,0.71847354,76.471699,4.526857)"><path
         d="m 0,0 c 0,-0.828 0.486,-1.611 1.386,-1.611 0.928,0 1.414,0.747 1.414,1.602 0,0.846 -0.531,1.53 -1.423,1.53 C 0.54,1.521 0,0.792 0,0 m 3.484,-2.16 -0.72,0 0,0.585 -0.018,0 C 2.377,-2.044 1.882,-2.277 1.288,-2.277 c -1.243,0 -2.026,1.052 -2.026,2.223 0,1.206 0.765,2.242 2.034,2.242 0.577,0 1.099,-0.27 1.45,-0.72 l 0.018,0 0,0.602 0.72,0 0,-4.23 z"
         style="fill:#1c649c;fill-opacity:1;fill-rule:nonzero;stroke:none"
         id="path460"
         inkscape:connector-curvature="0" /></g><g
       id="g462"
       transform="matrix(0.71847354,0,0,0.71847354,80.42395,5.6845334)"><path
         d="m 0,0 0.018,0 c 0.252,0.333 0.468,0.576 0.936,0.576 0.243,0 0.442,-0.081 0.649,-0.198 L 1.26,-0.279 C 1.116,-0.18 1.017,-0.09 0.828,-0.09 0.036,-0.09 0,-1.107 0,-1.656 l 0,-2.115 -0.72,0 0,4.23 0.72,0 L 0,0 z"
         style="fill:#1c649c;fill-opacity:1;fill-rule:nonzero;stroke:none"
         id="path464"
         inkscape:connector-curvature="0" /></g><g
       id="g466"
       transform="matrix(0.71847354,0,0,0.71847354,81.852132,6.0143127)"><path
         d="M 0,0 0.837,0 2.332,-3.033 3.7,0 4.52,0 1.396,-6.607 l -0.82,0 1.369,2.772 L 0,0 z"
         style="fill:#1c649c;fill-opacity:1;fill-rule:nonzero;stroke:none"
         id="path468"
         inkscape:connector-curvature="0" /></g><g
       id="g470"
       transform="matrix(0.71847354,0,0,0.71847354,87.602722,8.0588729)"><path
         d="m 0,0 5.293,-5.546 0,5.258 0.757,0 0,-7.095 -5.294,5.537 0,-5.23 L 0,-7.076 0,0 z"
         style="fill:#1c649c;fill-opacity:1;fill-rule:nonzero;stroke:none"
         id="path472"
         inkscape:connector-curvature="0" /></g><g
       id="g474"
       transform="matrix(0.71847354,0,0,0.71847354,95.067087,4.8243769)"><path
         d="M 0,0 C -0.099,0.612 -0.612,1.107 -1.242,1.107 -1.863,1.107 -2.439,0.612 -2.53,0 L 0,0 z m -2.565,-0.612 c 0.008,-0.784 0.566,-1.413 1.386,-1.413 0.612,0 1.008,0.369 1.287,0.873 L 0.72,-1.503 c -0.405,-0.757 -1.089,-1.188 -1.953,-1.188 -1.261,0 -2.071,0.962 -2.071,2.178 0,1.251 0.729,2.286 2.053,2.286 1.359,0 2.08,-1.125 2.007,-2.385 l -3.321,0 z"
         style="fill:#1c649c;fill-opacity:1;fill-rule:nonzero;stroke:none"
         id="path476"
         inkscape:connector-curvature="0" /></g><g
       id="g478"
       transform="matrix(0.71847354,0,0,0.71847354,96.865355,2.9748104)"><path
         d="m 0,0 -0.72,0 0,3.564 -0.441,0 0,0.666 0.441,0 0,1.522 0.72,0 0,-1.522 0.756,0 0,-0.666 L 0,3.564 0,0 z"
         style="fill:#1c649c;fill-opacity:1;fill-rule:nonzero;stroke:none"
         id="path480"
         inkscape:connector-curvature="0" /></g><g
       id="g482"
       transform="matrix(0.71847354,0,0,0.71847354,98.889941,3.9578259)"><path
         d="M 0,0 1.314,3.187 2.638,0 l 1.26,2.862 0.82,0 L 2.62,-1.666 1.314,1.485 0.009,-1.666 -2.07,2.862 l 0.819,0 L 0,0 z"
         style="fill:#1c649c;fill-opacity:1;fill-rule:nonzero;stroke:none"
         id="path484"
         inkscape:connector-curvature="0" /></g><g
       id="g486"
       transform="matrix(0.71847354,0,0,0.71847354,103.03661,4.4945975)"><path
         d="m 0,0 c 0,-0.864 0.612,-1.566 1.503,-1.566 0.892,0 1.504,0.702 1.504,1.566 0,0.855 -0.612,1.566 -1.504,1.566 C 0.612,1.566 0,0.855 0,0 m -0.721,-0.009 c 0,1.242 0.982,2.241 2.224,2.241 1.243,0 2.224,-0.999 2.224,-2.241 0,-1.242 -0.991,-2.223 -2.224,-2.223 -1.233,0 -2.224,0.981 -2.224,2.223"
         style="fill:#1c649c;fill-opacity:1;fill-rule:nonzero;stroke:none"
         id="path488"
         inkscape:connector-curvature="0" /></g><g
       id="g490"
       transform="matrix(0.71847354,0,0,0.71847354,106.91766,5.6845334)"><path
         d="m 0,0 0.018,0 c 0.252,0.333 0.468,0.576 0.936,0.576 0.243,0 0.441,-0.081 0.648,-0.198 L 1.26,-0.279 C 1.116,-0.18 1.017,-0.09 0.828,-0.09 0.036,-0.09 0,-1.107 0,-1.656 l 0,-2.115 -0.72,0 0,4.23 0.72,0 L 0,0 z"
         style="fill:#1c649c;fill-opacity:1;fill-rule:nonzero;stroke:none"
         id="path492"
         inkscape:connector-curvature="0" /></g><g
       id="g494"
       transform="matrix(0.71847354,0,0,0.71847354,109.08436,4.8888958)"><path
         d="m 0,0 1.54,1.566 0.963,0 -1.81,-1.799 2.152,-2.431 -0.954,0 L 0.189,-0.738 0,-0.927 l 0,-1.737 -0.72,0 0,7.427 0.72,0 L 0,0 z"
         style="fill:#1c649c;fill-opacity:1;fill-rule:nonzero;stroke:none"
         id="path496"
         inkscape:connector-curvature="0" /></g><g
       id="g498"
       transform="matrix(0.71847354,0,0,0.71847354,113.87126,4.4945975)"><path
         d="m 0,0 c 0,-0.864 0.612,-1.566 1.503,-1.566 0.892,0 1.504,0.702 1.504,1.566 0,0.855 -0.612,1.566 -1.504,1.566 C 0.612,1.566 0,0.855 0,0 m -0.72,-0.009 c 0,1.242 0.981,2.241 2.223,2.241 1.243,0 2.224,-0.999 2.224,-2.241 0,-1.242 -0.99,-2.223 -2.224,-2.223 -1.233,0 -2.223,0.981 -2.223,2.223"
         style="fill:#1c649c;fill-opacity:1;fill-rule:nonzero;stroke:none"
         id="path500"
         inkscape:connector-curvature="0" /></g><g
       id="g502"
       transform="matrix(0.71847354,0,0,0.71847354,117.82352,2.9748104)"><path
         d="m 0,0 -0.721,0 0,3.564 -0.396,0 0,0.666 0.396,0 0,1.684 c 0,0.352 0,0.793 0.19,1.099 0.233,0.378 0.657,0.531 1.089,0.531 0.171,0 0.342,-0.036 0.513,-0.09 l 0,-0.729 C 0.909,6.778 0.765,6.823 0.585,6.823 0,6.823 0,6.409 0,5.662 l 0,-1.432 1.071,0 0,-0.666 L 0,3.564 0,0 z"
         style="fill:#1c649c;fill-opacity:1;fill-rule:nonzero;stroke:none"
         id="path504"
         inkscape:connector-curvature="0" /></g><g
       id="g506"
       transform="matrix(0.71847354,0,0,0.71847354,122.48734,4.1970776)"><path
         d="M 0,0 2.196,5.438 4.393,0 6.176,5.087 6.995,5.087 4.393,-2.053 2.196,3.412 0,-2.053 l -2.603,7.14 0.82,0 L 0,0 z"
         style="fill:#1c649c;fill-opacity:1;fill-rule:nonzero;stroke:none"
         id="path508"
         inkscape:connector-curvature="0" /></g><g
       id="g510"
       transform="matrix(0.71847354,0,0,0.71847354,129.53873,4.8243769)"><path
         d="M 0,0 C -0.1,0.612 -0.612,1.107 -1.242,1.107 -1.864,1.107 -2.44,0.612 -2.53,0 L 0,0 z m -2.566,-0.612 c 0.009,-0.784 0.567,-1.413 1.386,-1.413 0.613,0 1.009,0.369 1.287,0.873 L 0.72,-1.503 c -0.406,-0.757 -1.089,-1.188 -1.953,-1.188 -1.261,0 -2.072,0.962 -2.072,2.178 0,1.251 0.73,2.286 2.053,2.286 1.359,0 2.08,-1.125 2.008,-2.385 l -3.322,0 z"
         style="fill:#1c649c;fill-opacity:1;fill-rule:nonzero;stroke:none"
         id="path512"
         inkscape:connector-curvature="0" /></g><g
       id="g514"
       transform="matrix(0.71847354,0,0,0.71847354,132.02249,5.3098494)"><path
         d="m 0,0 c -0.099,0.225 -0.315,0.432 -0.576,0.432 -0.252,0 -0.523,-0.199 -0.523,-0.468 0,-0.388 0.487,-0.531 0.982,-0.738 0.495,-0.207 0.981,-0.504 0.981,-1.216 0,-0.801 -0.648,-1.377 -1.431,-1.377 -0.711,0 -1.27,0.405 -1.495,1.071 l 0.639,0.27 c 0.181,-0.396 0.388,-0.675 0.864,-0.675 0.388,0 0.685,0.261 0.685,0.648 0,0.946 -1.908,0.621 -1.908,1.953 0,0.711 0.576,1.198 1.26,1.198 0.486,0 0.936,-0.342 1.126,-0.784 L 0,0 z"
         style="fill:#1c649c;fill-opacity:1;fill-rule:nonzero;stroke:none"
         id="path516"
         inkscape:connector-curvature="0" /></g><g
       id="g518"
       transform="matrix(0.71847354,0,0,0.71847354,133.91761,2.9748104)"><path
         d="m 0,0 -0.72,0 0,3.564 -0.441,0 0,0.666 0.441,0 0,1.522 0.72,0 0,-1.522 0.757,0 0,-0.666 L 0,3.564 0,0 z"
         style="fill:#1c649c;fill-opacity:1;fill-rule:nonzero;stroke:none"
         id="path520"
         inkscape:connector-curvature="0" /></g><g
       id="g522"
       transform="matrix(0.71847354,0,0,0.71847354,137.02867,4.8243769)"><path
         d="M 0,0 C -0.099,0.612 -0.611,1.107 -1.242,1.107 -1.863,1.107 -2.439,0.612 -2.529,0 L 0,0 z m -2.565,-0.612 c 0.008,-0.784 0.567,-1.413 1.386,-1.413 0.613,0 1.008,0.369 1.287,0.873 l 0.613,-0.351 c -0.406,-0.757 -1.09,-1.188 -1.954,-1.188 -1.26,0 -2.071,0.962 -2.071,2.178 0,1.251 0.73,2.286 2.053,2.286 1.359,0 2.08,-1.125 2.008,-2.385 l -3.322,0 z"
         style="fill:#1c649c;fill-opacity:1;fill-rule:nonzero;stroke:none"
         id="path524"
         inkscape:connector-curvature="0" /></g><g
       id="g526"
       transform="matrix(0.71847354,0,0,0.71847354,138.77578,5.6845334)"><path
         d="m 0,0 0.018,0 c 0.252,0.333 0.468,0.576 0.936,0.576 0.243,0 0.442,-0.081 0.649,-0.198 L 1.26,-0.279 C 1.116,-0.18 1.017,-0.09 0.828,-0.09 0.036,-0.09 0,-1.107 0,-1.656 l 0,-2.115 -0.721,0 0,4.23 L 0,0.459 0,0 z"
         style="fill:#1c649c;fill-opacity:1;fill-rule:nonzero;stroke:none"
         id="path528"
         inkscape:connector-curvature="0" /></g><g
       id="g530"
       transform="matrix(0.71847354,0,0,0.71847354,141.01886,5.6459514)"><path
         d="m 0,0 0.018,0 c 0.297,0.405 0.684,0.63 1.207,0.63 1.17,0 1.44,-0.846 1.44,-1.836 l 0,-2.512 -0.721,0 0,2.386 c 0,0.684 -0.053,1.296 -0.89,1.296 C 0.063,-0.036 0,-0.954 0,-1.711 l 0,-2.007 -0.721,0 0,4.231 L 0,0.513 0,0 z"
         style="fill:#1c649c;fill-opacity:1;fill-rule:nonzero;stroke:none"
         id="path532"
         inkscape:connector-curvature="0" /></g><g
       id="g534"
       transform="matrix(0.71847354,0,0,0.71847354,148.12154,6.900478)"><path
         d="m 0,0 c -0.271,0.469 -0.595,0.738 -1.171,0.738 -0.603,0 -1.125,-0.431 -1.125,-1.052 0,-0.585 0.603,-0.856 1.063,-1.063 l 0.45,-0.198 c 0.882,-0.387 1.629,-0.828 1.629,-1.908 0,-1.189 -0.954,-2.098 -2.134,-2.098 -1.089,0 -1.9,0.702 -2.115,1.755 l 0.738,0.207 c 0.099,-0.693 0.63,-1.26 1.359,-1.26 0.73,0 1.396,0.558 1.396,1.323 0,0.792 -0.621,1.063 -1.252,1.351 l -0.414,0.18 c -0.792,0.36 -1.477,0.765 -1.477,1.737 0,1.054 0.892,1.728 1.901,1.728 0.756,0 1.394,-0.386 1.755,-1.052 L 0,0 z"
         style="fill:#1c649c;fill-opacity:1;fill-rule:nonzero;stroke:none"
         id="path536"
         inkscape:connector-curvature="0" /></g><g
       id="g538"
       transform="matrix(0.71847354,0,0,0.71847354,150.54079,3.9578259)"><path
         d="M 0,0 1.314,3.187 2.638,0 l 1.259,2.862 0.82,0 -2.098,-4.528 -1.305,3.151 -1.305,-3.151 -2.08,4.528 0.819,0 L 0,0 z"
         style="fill:#1c649c;fill-opacity:1;fill-rule:nonzero;stroke:none"
         id="path540"
         inkscape:connector-curvature="0" /></g><path
       d="m 155.05589,2.9750978 -0.51802,0 0,3.0391431 0.51802,0 0,-3.0391431 z m 0.10921,4.1843899 c 0,-0.2069204 -0.1674,-0.3685769 -0.36858,-0.3685769 -0.20045,0 -0.36857,0.1616565 -0.36857,0.3685769 0,0.2004541 0.16812,0.3692954 0.36857,0.3692954 0.20118,0 0.36858,-0.1688413 0.36858,-0.3692954"
       style="fill:#1c649c;fill-opacity:1;fill-rule:nonzero;stroke:none"
       id="path542"
       inkscape:connector-curvature="0" /><g
       id="g544"
       transform="matrix(0.71847354,0,0,0.71847354,156.67935,2.9748104)"><path
         d="m 0,0 -0.721,0 0,3.564 -0.441,0 0,0.666 0.441,0 0,1.522 0.721,0 0,-1.522 0.756,0 0,-0.666 L 0,3.564 0,0 z"
         style="fill:#1c649c;fill-opacity:1;fill-rule:nonzero;stroke:none"
         id="path546"
         inkscape:connector-curvature="0" /></g><g
       id="g548"
       transform="matrix(0.71847354,0,0,0.71847354,160.405,3.4533138)"><path
         d="m 0,0 0,-0.666 -4.376,0 3.052,3.564 -2.485,0 0,0.666 3.935,0 L -2.917,0 0,0 z"
         style="fill:#1c649c;fill-opacity:1;fill-rule:nonzero;stroke:none"
         id="path550"
         inkscape:connector-curvature="0" /></g><g
       id="g552"
       transform="matrix(0.71847354,0,0,0.71847354,163.1477,4.8243769)"><path
         d="M 0,0 C -0.1,0.612 -0.612,1.107 -1.243,1.107 -1.864,1.107 -2.44,0.612 -2.53,0 L 0,0 z m -2.566,-0.612 c 0.009,-0.784 0.567,-1.413 1.386,-1.413 0.613,0 1.008,0.369 1.287,0.873 L 0.72,-1.503 c -0.406,-0.757 -1.089,-1.188 -1.953,-1.188 -1.261,0 -2.072,0.962 -2.072,2.178 0,1.251 0.73,2.286 2.053,2.286 1.359,0 2.08,-1.125 2.008,-2.385 l -3.322,0 z"
         style="fill:#1c649c;fill-opacity:1;fill-rule:nonzero;stroke:none"
         id="path554"
         inkscape:connector-curvature="0" /></g><g
       id="g556"
       transform="matrix(0.71847354,0,0,0.71847354,164.89409,5.6845334)"><path
         d="m 0,0 0.018,0 c 0.252,0.333 0.468,0.576 0.936,0.576 0.243,0 0.442,-0.081 0.649,-0.198 L 1.261,-0.279 C 1.116,-0.18 1.018,-0.09 0.828,-0.09 0.036,-0.09 0,-1.107 0,-1.656 l 0,-2.115 -0.721,0 0,4.23 L 0,0.459 0,0 z"
         style="fill:#1c649c;fill-opacity:1;fill-rule:nonzero;stroke:none"
         id="path558"
         inkscape:connector-curvature="0" /></g><path
       d="m 167.0738,2.9750978 -0.51802,0 0,5.336103 0.51802,0 0,-5.336103 z"
       style="fill:#1c649c;fill-opacity:1;fill-rule:nonzero;stroke:none"
       id="path560"
       inkscape:connector-curvature="0" /><g
       id="g562"
       transform="matrix(0.71847354,0,0,0.71847354,168.30965,4.526857)"><path
         d="m 0,0 c 0,-0.828 0.485,-1.611 1.386,-1.611 0.927,0 1.414,0.747 1.414,1.602 0,0.846 -0.531,1.53 -1.423,1.53 C 0.54,1.521 0,0.792 0,0 m 3.483,-2.16 -0.719,0 0,0.585 -0.019,0 C 2.376,-2.044 1.881,-2.277 1.287,-2.277 c -1.242,0 -2.025,1.052 -2.025,2.223 0,1.206 0.764,2.242 2.034,2.242 0.576,0 1.099,-0.27 1.449,-0.72 l 0.019,0 0,0.602 0.719,0 0,-4.23 z"
         style="fill:#1c649c;fill-opacity:1;fill-rule:nonzero;stroke:none"
         id="path564"
         inkscape:connector-curvature="0" /></g><g
       id="g566"
       transform="matrix(0.71847354,0,0,0.71847354,172.28719,5.6459514)"><path
         d="m 0,0 0.019,0 c 0.296,0.405 0.683,0.63 1.206,0.63 1.171,0 1.44,-0.846 1.44,-1.836 l 0,-2.512 -0.72,0 0,2.386 c 0,0.684 -0.054,1.296 -0.891,1.296 C 0.063,-0.036 0,-0.954 0,-1.711 l 0,-2.007 -0.72,0 0,4.231 0.72,0 L 0,0 z"
         style="fill:#1c649c;fill-opacity:1;fill-rule:nonzero;stroke:none"
         id="path568"
         inkscape:connector-curvature="0" /></g><g
       id="g570"
       transform="matrix(0.71847354,0,0,0.71847354,175.45716,4.526857)"><path
         d="m 0,0 c 0,-0.828 0.486,-1.611 1.386,-1.611 0.927,0 1.414,0.747 1.414,1.602 0,0.846 -0.531,1.53 -1.423,1.53 C 0.54,1.521 0,0.792 0,0 m 2.764,-1.575 -0.018,0 C 2.395,-2.034 1.863,-2.277 1.287,-2.277 c -1.242,0 -2.025,1.052 -2.025,2.223 0,1.206 0.764,2.242 2.034,2.242 0.567,0 1.107,-0.27 1.45,-0.72 l 0.018,0 0,3.799 0.719,0 0,-7.427 -0.719,0 0,0.585 z"
         style="fill:#1c649c;fill-opacity:1;fill-rule:nonzero;stroke:none"
         id="path572"
         inkscape:connector-curvature="0" /></g><g
       id="g574"
       transform="matrix(0.71847354,0,0,0.71847354,102.05043,61.63214)"><path
         d="m 0,0 9.02,0 0,-5.697 0.142,0 c 1.96,4.121 5.938,6.597 10.667,6.597 1.129,0 2.175,-0.216 3.226,-0.521 l 0,-8.709 c -1.494,0.377 -2.926,0.674 -4.351,0.674 -8.487,0 -9.684,-7.133 -9.684,-9.088 l 0,-19.299 -9.02,0 L 0,0 z"
         style="fill:#1c649c;fill-opacity:1;fill-rule:nonzero;stroke:none"
         id="path576"
         inkscape:connector-curvature="0" /></g><g
       id="g582"
       transform="matrix(0.71847354,0,0,0.71847354,158.55198,49.601947)"><path
         d="m 0,0 c 0,1.955 1.203,9.088 9.688,9.088 1.423,0 2.851,-0.297 4.353,-0.674 l 0,8.709 c -1.053,0.305 -2.102,0.522 -3.227,0.522 -4.736,0 -8.712,-2.477 -10.668,-6.598 l -0.146,0 0,5.697 -9.014,0 0,-28.373 9.014,0 L 0,0 z"
         style="fill:#37a1cd;fill-opacity:1;fill-rule:nonzero;stroke:none"
         id="path584"
         inkscape:connector-curvature="0" /></g><g
       id="g586"
       transform="matrix(0.71847354,0,0,0.71847354,184.89,40.917111)"><path
         d="m 0,0 c -6.602,0 -10.586,5.182 -10.586,10.822 0,5.627 3.984,10.805 10.586,10.805 6.613,0 10.59,-5.178 10.59,-10.805 C 10.59,5.182 6.613,0 0,0 m 0,29.732 c -10.887,0 -19.596,-7.578 -19.596,-18.91 0,-3.976 1.086,-7.478 2.942,-10.359 l 6.332,0 0,-5.942 C -7.33,-7.168 -3.801,-8.111 0,-8.111 c 10.893,0 19.604,7.586 19.604,18.933 0,11.332 -8.711,18.91 -19.604,18.91"
         style="fill:#37a1cd;fill-opacity:1;fill-rule:nonzero;stroke:none"
         id="path588"
         inkscape:connector-curvature="0" /></g><g
       id="g594"
       transform="matrix(0.71847354,0,0,0.71847354,133.95274,57.427992)"><path
         d="m 0,0 c 5.629,0 9.084,-3.301 9.16,-8.564 l -18.473,0 C -8.635,-3.387 -5.334,0 0,0 m 0.367,-23.883 c -5.021,0 -9.078,3.229 -9.68,8.559 l 27.483,0 0,2.482 c 0,12.535 -6.836,19.594 -16.897,19.594 -10.886,0 -19.603,-7.578 -19.603,-18.91 0,-11.043 8.258,-18.504 18.734,-18.897 l 0,7.174 c -0.011,0 -0.021,-0.002 -0.037,-0.002"
         style="fill:#1c649c;fill-opacity:1;fill-rule:nonzero;stroke:none"
         id="path596"
         inkscape:connector-curvature="0" /></g><g
       id="g598"
       transform="matrix(0.71847354,0,0,0.71847354,138.69575,69.894586)"><path
         d="m 0,0 c -1.602,-2.467 -3.771,-4.484 -6.342,-5.922 l 0,5.959 L 0,0.033 0,0 z"
         style="fill:#1c649c;fill-opacity:1;fill-rule:nonzero;stroke:none"
         id="path600"
         inkscape:connector-curvature="0" /></g></g></svg>