<?xml version="1.0" encoding="UTF-8" standalone="no"?><!DOCTYPE svg PUBLIC "-//W3C//DTD SVG 1.1//EN" "http://www.w3.org/Graphics/SVG/1.1/DTD/svg11.dtd"><svg width="100%" height="100%" viewBox="0 0 88 97" version="1.1" xmlns="http://www.w3.org/2000/svg" xmlns:xlink="http://www.w3.org/1999/xlink" xml:space="preserve" xmlns:serif="http://www.serif.com/" style="fill-rule:evenodd;clip-rule:evenodd;stroke-linejoin:round;stroke-miterlimit:1.41421;"><path d="M57.737,42.5l-2.4,1c-1,-1.4 -2,-2.4 -3.5,-3.4l1.2,-2.9c0.1,-0.2 0.1,-0.5 0,-0.6c-0.1,-0.3 -0.3,-0.3 -0.5,-0.4l-3.8,-1.6c-0.4,-0.2 -0.9,0.1 -1.2,0.5l-1.2,2.9c-1.5,-0.3 -3,-0.3 -4.4,-0.1l-1.1,-2.7c-0.2,-0.4 -0.7,-0.6 -1.1,-0.5l-3.6,1.6c-0.4,0.2 -0.6,0.7 -0.5,1.1l1,2.6c-1.3,0.8 -2.3,2 -3.2,3.1l-3.1,-1.3c-0.4,-0.2 -0.9,0.1 -1.2,0.5l-1.6,3.8c-0.1,0.2 -0.1,0.5 0,0.6c0.1,0.1 0.3,0.3 0.5,0.4l3.1,1.3c-0.2,1.6 -0.3,3.3 -0.1,4.9l-2.4,1c-0.4,0.2 -0.6,0.7 -0.5,1.1l1.6,3.8c0.2,0.4 0.7,0.6 1.1,0.5l2.4,-1c0.8,1.3 2,2.3 3.1,3.2l-1.1,2.7c-0.1,0.2 -0.1,0.5 0,0.6c0.1,0.1 0.3,0.3 0.5,0.4l3.8,1.6c0.2,0.1 0.5,0.1 0.6,0c0.3,-0.1 0.3,-0.3 0.4,-0.5l1.1,-2.7c1.6,0.4 3.3,0.3 4.9,0.1l0.9,2.2c0.2,0.4 0.7,0.6 1.1,0.5l3.8,-1.6c0.4,-0.2 0.6,-0.7 0.5,-1.1l-0.9,-2.3c1.4,-1 2.4,-2 3.4,-3.5l2.3,1c0.2,0.1 0.5,0.1 0.6,0c0.1,-0.1 0.3,-0.3 0.4,-0.5l1.6,-3.8c0.1,-0.2 0.1,-0.5 0,-0.6c-0.1,-0.3 -0.3,-0.3 -0.5,-0.4l-2.3,-1c0.3,-1.5 0.3,-3 0,-4.5l2.4,-1c0.4,-0.2 0.6,-0.7 0.5,-1.1l-1.6,-3.8c-0.1,0 -0.5,-0.3 -1,-0.1Zm-10.3,16.3c-4.2,1.7 -9.1,-0.3 -10.8,-4.5c-1.7,-4.2 0.3,-9.1 4.5,-10.8c4.2,-1.7 9.1,0.3 10.8,4.5c1.8,4.3 -0.3,9.1 -4.5,10.8Z" style="fill:#f68212;fill-rule:nonzero;"/><path d="M9.537,71.9c2.8,0 5.1,-2.3 5.1,-5.1c0,-2.8 -2.3,-5.1 -5.1,-5.1c-2.8,0 -5.1,2.3 -5.1,5.1c0,2.8 2.2,5.1 5.1,5.1Z" style="fill:#f68212;fill-rule:nonzero;"/><path d="M14.137,74l-9.4,0c-2.5,0 -4.6,2.1 -4.6,4.8l0,4.5l18.5,0l0,-4.5c0.1,-2.7 -1.9,-4.8 -4.5,-4.8Z" style="fill:#f68212;fill-rule:nonzero;"/><circle cx="43.637" cy="94.6" r="2.2" style="fill:#f68212;"/><path d="M1.837,49.5c0.2,0 0.3,0.1 0.5,0.1c1.1,0 2.1,-0.8 2.3,-1.9c0.1,-0.6 0,-1.2 -0.3,-1.8c-0.3,-0.6 -0.9,-0.9 -1.5,-1c-0.6,-0.1 -1.2,0 -1.8,0.3c-0.5,0.3 -0.9,0.9 -1,1.5c-0.1,0.6 0,1.2 0.3,1.8c0.3,0.5 0.9,0.9 1.5,1Z" style="fill:#f68212;fill-rule:nonzero;"/><path d="M16.037,20.6c0.2,0 0.3,0.1 0.5,0.1c0.4,0 0.9,-0.1 1.3,-0.4c0.5,-0.3 0.9,-0.9 1,-1.5c0.1,-0.6 0,-1.2 -0.3,-1.8c-0.3,-0.5 -0.9,-0.9 -1.5,-1c-0.6,-0.1 -1.2,0 -1.8,0.3c-0.5,0.3 -0.9,0.9 -1,1.5c-0.3,1.3 0.5,2.5 1.8,2.8Z" style="fill:#f68212;fill-rule:nonzero;"/><path d="M4.537,33c0.2,0 0.3,0.1 0.5,0.1c0.4,0 0.9,-0.1 1.3,-0.4c0.5,-0.3 0.9,-0.9 1,-1.5c0.1,-0.6 0,-1.2 -0.3,-1.8c-0.3,-0.5 -0.9,-0.9 -1.5,-1c-0.6,-0.1 -1.2,0 -1.8,0.3c-0.5,0.3 -0.9,0.9 -1,1.5c-0.3,1.3 0.6,2.5 1.8,2.8Z" style="fill:#f68212;fill-rule:nonzero;"/><path d="M82.337,47.5c-0.3,0.5 -0.5,1.2 -0.3,1.8c0.1,0.6 0.5,1.1 1,1.5c0.4,0.2 0.8,0.4 1.3,0.4c0.2,0 0.3,0 0.5,-0.1c0.6,-0.1 1.1,-0.5 1.5,-1c0.3,-0.5 0.5,-1.2 0.3,-1.8c-0.1,-0.6 -0.5,-1.1 -1,-1.5c-0.5,-0.3 -1.2,-0.5 -1.8,-0.3c-0.6,0.1 -1.2,0.4 -1.5,1Z" style="fill:#f68212;fill-rule:nonzero;"/><path d="M68.837,21.8c0.4,0.2 0.8,0.4 1.3,0.4c0.2,0 0.3,0 0.5,-0.1c0.6,-0.1 1.1,-0.5 1.5,-1c0.4,-0.5 0.5,-1.2 0.3,-1.8c-0.1,-0.6 -0.5,-1.1 -1,-1.5c-0.5,-0.3 -1.2,-0.5 -1.8,-0.3c-0.6,0.1 -1.1,0.5 -1.5,1c-0.3,0.5 -0.5,1.2 -0.3,1.8c0.1,0.6 0.5,1.2 1,1.5Z" style="fill:#f68212;fill-rule:nonzero;"/><path d="M80.337,34.2c0.4,0.2 0.8,0.4 1.3,0.4c0.2,0 0.3,0 0.5,-0.1c0.6,-0.1 1.1,-0.5 1.5,-1c0.4,-0.5 0.5,-1.2 0.3,-1.8c-0.1,-0.6 -0.5,-1.1 -1,-1.5c-0.5,-0.3 -1.2,-0.5 -1.8,-0.3c-0.6,0.1 -1.1,0.5 -1.5,1c-0.3,0.5 -0.5,1.2 -0.3,1.8c0.1,0.6 0.4,1.2 1,1.5Z" style="fill:#f68212;fill-rule:nonzero;"/><circle cx="57.637" cy="91.5" r="2.2" style="fill:#f68212;"/><circle cx="29.737" cy="91.5" r="2.2" style="fill:#f68212;"/><path d="M78.437,71.9c2.8,0 5.1,-2.3 5.1,-5.1c0,-2.8 -2.3,-5.1 -5.1,-5.1c-2.8,0 -5.1,2.3 -5.1,5.1c0,2.8 2.3,5.1 5.1,5.1Z" style="fill:#f68212;fill-rule:nonzero;"/><path d="M83.137,74l-9.4,0c-2.5,0 -4.6,2.1 -4.6,4.8l0,4.5l18.5,0l0,-4.5c0.1,-2.7 -2,-4.8 -4.5,-4.8Z" style="fill:#f68212;fill-rule:nonzero;"/><path d="M43.637,10.3c2.8,0 5.1,-2.3 5.1,-5.1c0,-2.8 -2.3,-5.2 -5.1,-5.2c-2.8,0 -5.1,2.3 -5.1,5.1c0,2.8 2.3,5.2 5.1,5.2Z" style="fill:#f68212;fill-rule:nonzero;"/><path d="M52.937,17.2c0,-2.6 -2.1,-4.8 -4.6,-4.8l-9.4,0c-2.5,0 -4.6,2.1 -4.6,4.8l0,4.5l18.5,0l0,-4.5l0.1,0Z" style="fill:#f68212;fill-rule:nonzero;"/></svg>