<?xml version="1.0" encoding="UTF-8" standalone="no"?><!DOCTYPE svg PUBLIC "-//W3C//DTD SVG 1.1//EN" "http://www.w3.org/Graphics/SVG/1.1/DTD/svg11.dtd"><svg width="100%" height="100%" viewBox="0 0 89 90" version="1.1" xmlns="http://www.w3.org/2000/svg" xmlns:xlink="http://www.w3.org/1999/xlink" xml:space="preserve" xmlns:serif="http://www.serif.com/" style="fill-rule:evenodd;clip-rule:evenodd;stroke-linejoin:round;stroke-miterlimit:1.41421;"><path d="M44.4,15c-16.4,0 -29.8,13.4 -29.8,29.8c0,16.5 13.4,29.8 29.8,29.8c16.4,0 29.8,-13.4 29.8,-29.8c0,-16.4 -13.3,-29.8 -29.8,-29.8Zm24.1,18l-7.6,0c-1.4,-5.4 -3.6,-9.9 -6.5,-13.1c6.1,2.5 11.2,7.2 14.1,13.1Zm-9.2,11.8c0,3 -0.3,5.9 -0.8,8.6l-12.6,0l0,-17.4l12.5,0c0.6,2.8 0.9,5.7 0.9,8.8Zm-29.7,0c0,-3.1 0.3,-6.1 0.8,-8.8l12.5,0l0,17.5l-12.5,0c-0.5,-2.8 -0.8,-5.7 -0.8,-8.7Zm13.3,-26.7l0,14.9l-11.8,0c2.2,-8.1 6.6,-13.9 11.8,-14.9Zm0,38.3l0,15.1c-5.2,-1 -9.7,-6.8 -11.9,-15.1l11.9,0Zm3,15.1l0,-15.1l11.9,0c-2.2,8.3 -6.6,14.1 -11.9,15.1Zm0,-38.5l0,-14.9c5.2,0.9 9.6,6.8 11.8,14.9l-11.8,0Zm-11.4,-13.1c-2.9,3.2 -5.2,7.7 -6.5,13.1l-7.6,0c2.9,-5.9 7.9,-10.6 14.1,-13.1Zm-15.4,16.1l8.3,0c-0.5,2.8 -0.8,5.7 -0.8,8.8c0,3 0.3,5.9 0.7,8.6l-8.3,0c-0.9,-2.7 -1.4,-5.6 -1.4,-8.6c0,-3.1 0.5,-6 1.5,-8.8Zm1.2,20.4l7.7,0c1.4,5.5 3.6,10.1 6.5,13.3c-6.2,-2.5 -11.3,-7.2 -14.2,-13.3Zm34,13.3c2.9,-3.2 5.2,-7.8 6.6,-13.3l7.7,0c-2.9,6.1 -8,10.8 -14.3,13.3Zm15.5,-16.3l-8.3,0c0.5,-2.7 0.7,-5.6 0.7,-8.6c0,-3.1 -0.3,-6 -0.8,-8.8l8.3,0c1,2.8 1.5,5.7 1.5,8.8c0,3 -0.5,5.9 -1.4,8.6Zm-17.8,-48.6c0,-2.7 2.2,-4.8 4.8,-4.8c2.6,0 4.8,2.2 4.8,4.8c0,2.7 -2.2,4.8 -4.8,4.8c-2.6,0 -4.8,-2.1 -4.8,-4.8Zm10.5,4.6c0,-2.4 1.9,-4.3 4.3,-4.3c2.4,0 4.3,1.9 4.3,4.3c0,2.4 -1.9,4.3 -4.3,4.3c-2.4,0 -4.3,-1.9 -4.3,-4.3Zm16.4,7c0,2.1 -1.7,3.9 -3.9,3.9c-2.2,0 -3.9,-1.7 -3.9,-3.9c0,-2.1 1.7,-3.9 3.9,-3.9c2.2,0 3.9,1.7 3.9,3.9Zm2.6,12.2c-1.9,0 -3.4,-1.5 -3.4,-3.4c0,-1.9 1.5,-3.4 3.4,-3.4c1.9,0 3.4,1.5 3.4,3.4c0,1.9 -1.5,3.4 -3.4,3.4Zm0.9,6.9c0,-1.6 1.3,-2.9 2.9,-2.9c1.6,0 2.9,1.3 2.9,2.9c0,1.6 -1.3,2.9 -2.9,2.9c-1.6,0 -2.9,-1.3 -2.9,-2.9Zm6.4,10.9c0,1.3 -1.1,2.4 -2.4,2.4c-1.3,0 -2.4,-1.1 -2.4,-2.4c0,-1.3 1.1,-2.4 2.4,-2.4c1.3,0 2.4,1 2.4,2.4Zm-2.4,10.8c0,1.1 -0.9,2 -2,2c-1.1,0 -2,-0.9 -2,-2c0,-1.1 0.9,-2 2,-2c1.1,0 2,0.9 2,2Zm-48.6,27.8c0.1,2.7 -2.1,4.9 -4.7,4.9c-2.6,0 -4.9,-2.1 -4.9,-4.7c0,-2.6 2.1,-4.9 4.7,-4.9c2.6,-0.1 4.8,2.1 4.9,4.7Zm-10.7,-4.3c0.1,2.4 -1.9,4.4 -4.3,4.4c-2.4,0.1 -4.4,-1.9 -4.4,-4.3c-0.1,-2.4 1.9,-4.4 4.3,-4.4c2.4,0 4.4,1.9 4.4,4.3Zm-8.8,-6.8c0,2.1 -1.6,3.9 -3.8,4c-2.1,0 -3.9,-1.6 -4,-3.8c-0.1,-2.2 1.6,-3.9 3.8,-4c2.2,-0.1 3.9,1.6 4,3.8Zm-7.2,-8.7c0,1.9 -1.4,3.4 -3.3,3.5c-1.9,0 -3.4,-1.4 -3.5,-3.3c0,-1.9 1.4,-3.4 3.3,-3.5c1.9,-0.1 3.5,1.4 3.5,3.3Zm-7.3,-7.2c-1.6,0 -2.9,-1.2 -3,-2.9c0,-1.6 1.2,-2.9 2.9,-3c1.6,0 2.9,1.2 3,2.9c0,1.6 -1.3,3 -2.9,3Zm-1.3,-11.4c-1.3,0 -2.5,-1 -2.5,-2.4c0,-1.3 1,-2.5 2.4,-2.5c1.3,0 2.5,1 2.5,2.4c0,1.4 -1.1,2.5 -2.4,2.5Zm-0.3,-13.2c0,-1.1 0.8,-2 1.9,-2c1.1,0 2,0.8 2,1.9c0,1.1 -0.8,2 -1.9,2c-1.1,0 -2,-0.8 -2,-1.9Z" style="fill:#f68212;fill-rule:nonzero;"/></svg>