<?xml version="1.0" encoding="UTF-8" standalone="no"?><!DOCTYPE svg PUBLIC "-//W3C//DTD SVG 1.1//EN" "http://www.w3.org/Graphics/SVG/1.1/DTD/svg11.dtd"><svg width="100%" height="100%" viewBox="0 0 92 80" version="1.1" xmlns="http://www.w3.org/2000/svg" xmlns:xlink="http://www.w3.org/1999/xlink" xml:space="preserve" xmlns:serif="http://www.serif.com/" style="fill-rule:evenodd;clip-rule:evenodd;stroke-linejoin:round;stroke-miterlimit:1.41421;"><path d="M41.583,57.351l-18.617,-20.223c-0.261,-0.281 -0.656,-0.378 -1.009,-0.247c-0.359,0.126 -0.604,0.454 -0.625,0.832l-1.106,19.106c-0.024,0.448 0.267,0.841 0.68,0.959c0.066,0.02 0.137,0.032 0.207,0.033l19.723,1.12c0.382,0.022 0.74,-0.189 0.905,-0.536c0.164,-0.349 0.101,-0.76 -0.158,-1.044Zm-8.269,-0.49c-0.144,0.501 -0.666,0.788 -1.166,0.647c-0.499,-0.144 -0.789,-0.664 -0.644,-1.165l0.546,-1.9l-4.271,-1.222l-0.546,1.901c-0.145,0.5 -0.665,0.79 -1.163,0.646c-0.5,-0.142 -0.789,-0.663 -0.645,-1.162l0.543,-1.903l-3.044,-0.87c-0.5,-0.143 -0.789,-0.664 -0.645,-1.164c0.142,-0.5 0.663,-0.789 1.163,-0.646l3.046,0.87l1.198,-4.18c0.144,-0.499 0.666,-0.788 1.164,-0.646c0.499,0.144 0.789,0.665 0.646,1.166l-1.2,4.179l4.272,1.222l0.199,-0.692c0.143,-0.498 0.663,-0.79 1.164,-0.646c0.5,0.142 0.788,0.663 0.646,1.164l-1.263,4.401Z" style="fill:#f68212;fill-rule:nonzero;"/><path d="M52.64,28.54l-4.274,-1.222l-1.264,4.412l4.271,1.221l1.267,-4.411Z" style="fill:#f68212;fill-rule:nonzero;"/><path d="M54.424,22.314l-4.273,-1.223l-1.263,4.416l4.272,1.222l1.264,-4.415Z" style="fill:#f68212;"/><path d="M50.855,34.763l-4.272,-1.221l-1.267,4.411l4.273,1.221l1.266,-4.411Z" style="fill:#f68212;fill-rule:nonzero;"/><path d="M50.125,14.355l-4.271,-1.223l-1.263,4.412l4.272,1.222l1.262,-4.411Z" style="fill:#f68212;"/><path d="M48.338,20.575l-4.268,-1.221l-1.263,4.415l4.267,1.221l1.264,-4.415Z" style="fill:#f68212;"/><path d="M56.21,16.091l-4.272,-1.221l-1.267,4.411l4.275,1.223l1.264,-4.413Z" style="fill:#f68212;fill-rule:nonzero;"/><path d="M62.292,17.83l-4.272,-1.222l-1.267,4.413l4.272,1.222l1.267,-4.413Z" style="fill:#f68212;fill-rule:nonzero;"/><path d="M60.506,24.052l-4.273,-1.221l-1.262,4.415l4.273,1.221l1.262,-4.415Z" style="fill:#f68212;"/><path d="M58.721,30.277l-4.273,-1.221l-1.26,4.412l4.273,1.221l1.26,-4.412Z" style="fill:#f68212;"/><path d="M56.937,36.501l-4.271,-1.221l-1.267,4.412l4.271,1.221l1.267,-4.412Z" style="fill:#f68212;fill-rule:nonzero;"/><path d="M42.262,18.836l-4.272,-1.221l-1.267,4.414l4.272,1.222l1.267,-4.415Z" style="fill:#f68212;fill-rule:nonzero;"/><path d="M31.882,9.134l-4.27,-1.222l-1.262,4.413l4.27,1.222l1.262,-4.413Z" style="fill:#f68212;"/><path d="M25.803,7.398l-4.274,-1.222l-1.262,4.415l4.274,1.221l1.262,-4.414Z" style="fill:#f68212;"/><path d="M83.101,3.158c-6.757,-1.932 -10.802,-0.773 -10.974,-0.723c-0.307,0.093 -0.546,0.334 -0.635,0.645l-3.241,11.291l-50.131,-14.335c-0.499,-0.143 -1.019,0.147 -1.163,0.647l-2.574,8.976l-2.756,-2.993c-0.258,-0.279 -0.657,-0.379 -1.01,-0.246c-0.357,0.125 -0.601,0.454 -0.623,0.832l-1.286,22.187l-8.672,30.234c-0.142,0.5 0.147,1.021 0.646,1.165l6.108,1.746l-0.342,5.921c-0.026,0.448 0.266,0.841 0.676,0.96c0.067,0.019 0.138,0.03 0.209,0.033l29.489,1.673l24.74,7.075c10.755,3.074 12.336,-2.44 13.185,-5.405l14.749,-51.414l2.173,-7.577c1.074,-3.744 -1.838,-8.766 -8.568,-10.692Zm-63.119,1.593c0.143,-0.499 0.664,-0.789 1.164,-0.646l42.57,12.172c0.498,0.145 0.789,0.666 0.645,1.165l-9.497,33.116c-0.145,0.501 -0.666,0.791 -1.167,0.648c-0.498,-0.145 -0.787,-0.666 -0.645,-1.165l2.099,-7.317l-4.271,-1.221l-1.062,3.7c-0.145,0.5 -0.664,0.791 -1.163,0.647c-0.5,-0.143 -0.789,-0.664 -0.647,-1.164l1.062,-3.701l-5.177,-1.48c-0.5,-0.143 -0.789,-0.663 -0.645,-1.164l1.525,-5.318l-4.272,-1.221l-0.743,2.59c-0.144,0.5 -0.666,0.79 -1.166,0.647c-0.499,-0.143 -0.787,-0.663 -0.644,-1.163l0.742,-2.592l-5.174,-1.48c-0.5,-0.143 -0.789,-0.665 -0.646,-1.163l1.525,-5.318l-4.273,-1.223l-0.48,1.675c-0.143,0.5 -0.664,0.791 -1.164,0.648c-0.501,-0.143 -0.789,-0.665 -0.645,-1.165l2.265,-7.901l-4.269,-1.221l-1.232,4.294c-0.143,0.5 -0.664,0.791 -1.165,0.648c-0.5,-0.145 -0.789,-0.666 -0.645,-1.165l1.23,-4.295l-4.993,-1.428c-0.067,-0.004 -0.129,0.003 -0.193,-0.015c-0.5,-0.143 -0.79,-0.665 -0.647,-1.165l1.798,-6.259Zm-13.204,52.856c-0.141,0.499 -0.663,0.788 -1.163,0.646c-0.5,-0.144 -0.789,-0.665 -0.646,-1.166l1.026,-3.574c0.143,-0.498 0.665,-0.789 1.163,-0.646c0.501,0.142 0.789,0.663 0.646,1.164l-1.026,3.576Zm1.604,10.063l3.364,-58.092l7.124,7.741l-2.105,1.879c-0.39,0.347 -0.423,0.942 -0.077,1.33c0.123,0.14 0.276,0.232 0.442,0.278c0.301,0.086 0.638,0.021 0.887,-0.202l2.129,-1.9l2.411,2.618l-2.118,1.89c-0.39,0.347 -0.423,0.942 -0.077,1.329c0.124,0.14 0.277,0.232 0.442,0.279c0.299,0.086 0.639,0.02 0.887,-0.202l2.141,-1.911l2.412,2.621l-2.129,1.898c-0.389,0.347 -0.422,0.943 -0.077,1.331c0.125,0.138 0.278,0.23 0.442,0.278c0.3,0.086 0.638,0.021 0.888,-0.203l2.149,-1.919l2.412,2.619l-2.139,1.909c-0.39,0.345 -0.423,0.942 -0.076,1.329c0.122,0.14 0.276,0.231 0.441,0.279c0.301,0.086 0.636,0.021 0.887,-0.203l2.161,-1.93l2.412,2.621l-2.151,1.917c-0.387,0.345 -0.422,0.942 -0.077,1.33c0.123,0.138 0.278,0.23 0.442,0.276c0.301,0.085 0.638,0.021 0.888,-0.201l2.171,-1.939l2.412,2.621l-2.161,1.927c-0.389,0.347 -0.421,0.942 -0.076,1.331c0.124,0.138 0.277,0.229 0.441,0.277c0.301,0.086 0.639,0.021 0.887,-0.202l2.182,-1.948l2.412,2.618l-2.17,1.938c-0.388,0.346 -0.422,0.941 -0.077,1.329c0.123,0.14 0.278,0.23 0.442,0.278c0.301,0.085 0.638,0.021 0.887,-0.202l2.194,-1.957l2.411,2.62l-2.179,1.944c-0.39,0.347 -0.422,0.942 -0.077,1.329c0.123,0.138 0.278,0.231 0.44,0.279c0.301,0.085 0.639,0.02 0.888,-0.204l2.202,-1.963l2.41,2.618l-2.191,1.954c-0.388,0.347 -0.424,0.942 -0.077,1.33c0.123,0.141 0.276,0.232 0.441,0.278c0.301,0.085 0.637,0.021 0.888,-0.202l2.214,-1.977l2.41,2.62l-2.2,1.965c-0.391,0.347 -0.422,0.941 -0.076,1.328c0.122,0.139 0.277,0.23 0.441,0.279c0.301,0.087 0.639,0.021 0.887,-0.204l2.224,-1.983l2.558,2.779l-1.304,4.55c-0.096,0.33 -0.004,0.685 0.239,0.925c0.242,0.243 0.597,0.333 0.929,0.237c0.025,-0.006 1.931,-0.511 5.23,-0.178l7.383,8.018l-59.97,-3.402Zm65.78,0.394c-1.243,-2.459 -3.916,-4.753 -7.981,-5.915c-4.363,-1.247 -7.597,-1.207 -9.385,-1.008l16.35,-57.005c1.194,-0.211 4.538,-0.567 9.436,0.832c6.168,1.765 7.971,5.954 7.277,8.364l-15.697,54.732Z" style="fill:#f68212;fill-rule:nonzero;"/><path d="M36.177,17.098l-4.272,-1.222l-1.262,4.417l4.272,1.221l1.262,-4.416Z" style="fill:#f68212;"/><path d="M37.966,10.875l-4.273,-1.222l-1.266,4.411l4.275,1.222l1.264,-4.411Z" style="fill:#f68212;fill-rule:nonzero;"/><path d="M44.047,12.613l-4.272,-1.221l-1.266,4.412l4.272,1.222l1.266,-4.413Z" style="fill:#f68212;fill-rule:nonzero;"/><path d="M46.557,26.8l-4.27,-1.221l-1.267,4.412l4.271,1.221l1.266,-4.412Z" style="fill:#f68212;fill-rule:nonzero;"/><path d="M40.474,25.064l-4.272,-1.221l-1.261,4.412l4.272,1.221l1.261,-4.412Z" style="fill:#f68212;"/></svg>