<?xml version="1.0" encoding="UTF-8" standalone="no"?><!DOCTYPE svg PUBLIC "-//W3C//DTD SVG 1.1//EN" "http://www.w3.org/Graphics/SVG/1.1/DTD/svg11.dtd"><svg width="100%" height="100%" viewBox="0 0 100 97" version="1.1" xmlns="http://www.w3.org/2000/svg" xmlns:xlink="http://www.w3.org/1999/xlink" xml:space="preserve" xmlns:serif="http://www.serif.com/" style="fill-rule:evenodd;clip-rule:evenodd;stroke-linejoin:round;stroke-miterlimit:1.41421;"><path d="M27.5,20c3.037,0 5.5,-2.463 5.5,-5.5l0,-9c0,-3.037 -2.463,-5.5 -5.5,-5.5c-3.037,0 -5.5,2.463 -5.5,5.5l0,9c0,3.037 2.463,5.5 5.5,5.5Zm45,0c3.037,0 5.5,-2.463 5.5,-5.5l0,-9c0,-3.037 -2.463,-5.5 -5.5,-5.5c-3.037,0 -5.5,2.463 -5.5,5.5l0,9c0,3.037 2.463,5.5 5.5,5.5Zm22.5,-11l-14,0l0,6.5c0,4.694 -3.806,8.5 -8.5,8.5c-4.694,0 -8.5,-3.806 -8.5,-8.5l0,-6.5l-28,0l0,6.5c0,4.694 -3.806,8.5 -8.5,8.5c-4.694,0 -8.5,-3.806 -8.5,-8.5l0,-6.5l-14,0c-2.762,0 -5,2.238 -5,5l0,78c0,2.762 2.238,5 5,5l90,0c2.762,0 5,-2.238 5,-5l0,-78c0,-2.762 -2.238,-5 -5,-5Zm-65,72l-10,0l0,-10l10,0l0,10Zm0,-17l-10,0l0,-10l10,0l0,10Zm0,-18l-10,0l0,-10l10,0l0,10Zm17,35l-10,0l0,-10l10,0l0,10Zm0,-17l-10,0l0,-10l10,0l0,10Zm0,-18l-10,0l0,-10l10,0l0,10Zm17,35l-10,0l0,-10l10,0l0,10Zm0,-17l-10,0l0,-10l10,0l0,10Zm0,-18l-10,0l0,-10l10,0l0,10Zm17,18l-10,0l0,-10l10,0l0,10Zm0,-18l-10,0l0,-10l10,0l0,10Z" style="fill:#f68212;fill-rule:nonzero;"/></svg>