<?xml version="1.0" encoding="UTF-8" standalone="no"?><!DOCTYPE svg PUBLIC "-//W3C//DTD SVG 1.1//EN" "http://www.w3.org/Graphics/SVG/1.1/DTD/svg11.dtd"><svg width="100%" height="100%" viewBox="0 0 48 48" version="1.1" xmlns="http://www.w3.org/2000/svg" xmlns:xlink="http://www.w3.org/1999/xlink" xml:space="preserve" xmlns:serif="http://www.serif.com/" style="fill-rule:evenodd;clip-rule:evenodd;stroke-linejoin:round;stroke-miterlimit:1.41421;"><path d="M37.787,25.53c0.345,0 0.683,0.024 1.021,0.052l0,-25.582l-38.808,0l0,42.893l26.661,0c-0.717,-1.557 -1.129,-3.283 -1.129,-5.108c0,-6.757 5.497,-12.255 12.255,-12.255Zm-20.425,-20.424l11.234,0l0,2.043l-11.234,0l0,-2.043Zm0,5.106l17.361,0l0,2.043l-17.361,0l0,-2.043Zm0,7.149l11.234,0l0,2.043l-11.234,0l0,-2.043Zm0,5.107l17.361,0l0,2.042l-17.361,0l0,-2.042Zm0,7.148l9.191,0l0,2.043l-9.191,0l0,-2.043Zm-3.064,9.192l-10.213,0l0,-10.213l10.213,0l0,10.213Zm0,-12.255l-10.213,0l0,-10.213l10.213,0l0,10.213Zm0,-12.255l-10.213,0l0,-10.213l10.213,0l0,10.213Zm10.213,22.467l-7.149,0l0,-2.042l7.149,0l0,2.042Z" style="fill:#f68212;fill-rule:nonzero;"/><path d="M37.787,27.573c-5.64,0 -10.212,4.573 -10.212,10.213c0,5.64 4.572,10.213 10.212,10.213c5.641,0 10.213,-4.573 10.213,-10.213c0,-5.64 -4.572,-10.213 -10.213,-10.213Zm-1.532,15.232l-4.807,-4.807l1.444,-1.444l3.363,3.363l6.427,-6.427l1.444,1.444l-7.871,7.871Z" style="fill:#f68212;fill-rule:nonzero;"/></svg>