<?xml version="1.0" encoding="UTF-8" standalone="no"?><!DOCTYPE svg PUBLIC "-//W3C//DTD SVG 1.1//EN" "http://www.w3.org/Graphics/SVG/1.1/DTD/svg11.dtd"><svg width="100%" height="100%" viewBox="0 0 75 86" version="1.1" xmlns="http://www.w3.org/2000/svg" xmlns:xlink="http://www.w3.org/1999/xlink" xml:space="preserve" xmlns:serif="http://www.serif.com/" style="fill-rule:evenodd;clip-rule:evenodd;stroke-linejoin:round;stroke-miterlimit:1.41421;"><path d="M40.558,0l18.094,17.006l1.348,1.441l0,39.366l15,0.976l0,-56.03l-34.442,-2.759Z" style="fill:#f68212;fill-rule:nonzero;"/><path d="M34.999,1.511l0,10.744l16.018,4.036l-16.018,-14.78Z" style="fill:#f68212;fill-rule:nonzero;"/><path d="M24.999,70.986l30.001,7.471l0,-56.046l-30.001,-7.468l0,56.043Zm4.287,-32.413l21.428,5.405l0,3.406l-21.428,-5.403l0,-3.408Zm0,6.806l21.428,5.413l0,3.408l-21.428,-5.41l0,-3.411Zm0,6.819l21.428,5.4l0,3.407l-21.428,-5.399l0,-3.408Zm0,6.816l21.428,5.4l0,3.408l-21.428,-5.4l0,-3.408Z" style="fill:#f68212;fill-rule:nonzero;"/><path d="M0,85.918l19.999,-14.404l0,-0.528l0,-55.515l-19.999,14.416l0,56.031Z" style="fill:#f68212;fill-rule:nonzero;"/></svg>