<?xml version="1.0" encoding="UTF-8" standalone="no"?><!DOCTYPE svg PUBLIC "-//W3C//DTD SVG 1.1//EN" "http://www.w3.org/Graphics/SVG/1.1/DTD/svg11.dtd"><svg width="100%" height="100%" viewBox="0 0 42 51" version="1.1" xmlns="http://www.w3.org/2000/svg" xmlns:xlink="http://www.w3.org/1999/xlink" xml:space="preserve" xmlns:serif="http://www.serif.com/" style="fill-rule:evenodd;clip-rule:evenodd;stroke-linejoin:round;stroke-miterlimit:1.41421;"><path d="M30.11,4.81l0,15.99c0,0.55 -0.45,1 -1,1l-17.58,0l0,21.32l2.86,0c1.47,0 2.67,1.2 2.67,2.68l0,3.31c0,0.55 -0.45,1 -1,1l-15.06,0c-0.55,0 -1,-0.45 -1,-1l0,-3.31c0,-1.48 1.2,-2.68 2.68,-2.68l2.85,0l0,-42.12c0,-0.55 0.45,-1 1,-1l4,0c0.55,0 1,0.45 1,1l0,2.81l17.58,0c0.55,0 1,0.45 1,1Z" style="fill:#f68212;fill-rule:nonzero;"/><path d="M35.5,17.35l6.14,-7.72c0.24,-0.3 0.29,-0.71 0.12,-1.05c-0.17,-0.35 -0.52,-0.57 -0.9,-0.57l-8.75,0l0,12.79c0,1.655 -1.346,3 -3,3l-10.29,0l0,1.2c0,0.55 0.45,1 1,1l21.04,0c0.39,0 0.75,-0.23 0.91,-0.59c0.16,-0.35 0.1,-0.77 -0.16,-1.07l-6.11,-6.99Z" style="fill:#f68212;fill-rule:nonzero;"/></svg>