<?xml version="1.0" encoding="UTF-8" standalone="no"?><!DOCTYPE svg PUBLIC "-//W3C//DTD SVG 1.1//EN" "http://www.w3.org/Graphics/SVG/1.1/DTD/svg11.dtd"><svg width="100%" height="100%" viewBox="0 0 92 100" version="1.1" xmlns="http://www.w3.org/2000/svg" xmlns:xlink="http://www.w3.org/1999/xlink" xml:space="preserve" xmlns:serif="http://www.serif.com/" style="fill-rule:evenodd;clip-rule:evenodd;stroke-linejoin:round;stroke-miterlimit:1.41421;"><path d="M0,53.572c-0.016,-12.872 5.321,-22.61 10.48,-28.792c5.187,-6.233 10.224,-9.236 10.676,-9.516c3.368,-1.993 7.697,-0.849 9.667,2.555c1.966,3.392 0.851,7.747 -2.489,9.75l0.001,0.001c0,0 -0.004,0.001 -0.015,0.008c-0.009,0.004 -0.023,0.014 -0.042,0.026c-0.068,0.042 -0.194,0.125 -0.367,0.244c-0.351,0.234 -0.897,0.625 -1.572,1.162c-1.349,1.073 -3.203,2.74 -5.029,4.945c-3.669,4.467 -7.166,10.798 -7.181,19.616c0.003,8.889 3.547,16.882 9.314,22.722c5.78,5.83 13.687,9.416 22.48,9.418c8.793,-0.002 16.699,-3.588 22.478,-9.418c5.769,-5.84 9.313,-13.833 9.316,-22.722c-0.016,-8.548 -3.294,-14.743 -6.837,-19.195c-3.373,-4.221 -6.982,-6.572 -7.341,-6.791c-0.004,-0.003 -0.009,-0.004 -0.012,-0.006c-0.005,-0.003 -0.008,-0.005 -0.011,-0.006c-0.003,-0.003 -0.007,-0.003 -0.007,-0.003c-3.336,-2.005 -4.452,-6.36 -2.488,-9.752c1.972,-3.404 6.3,-4.548 9.667,-2.555c0.454,0.279 5.491,3.282 10.678,9.516c5.162,6.183 10.496,15.92 10.481,28.792c-0.004,25.637 -20.564,46.42 -45.923,46.429c-25.359,-0.009 -45.918,-20.792 -45.924,-46.428Z" style="fill:#f68212;fill-rule:nonzero;"/><path d="M38.859,50.001l0,-21.43l0,-21.428c0,-3.944 3.163,-7.143 7.066,-7.143c3.899,0 7.062,3.199 7.062,7.143l0,42.858l0.002,0c0,3.941 -3.165,7.141 -7.064,7.141c-3.903,0 -7.066,-3.2 -7.066,-7.141Z" style="fill:#f68212;fill-rule:nonzero;"/></svg>