<?xml version="1.0" encoding="UTF-8"?>
<!DOCTYPE svg PUBLIC "-//W3C//DTD SVG 1.1//EN" "http://www.w3.org/Graphics/SVG/1.1/DTD/svg11.dtd">
<svg version="1.2" width="35.27mm" height="48.15mm" viewBox="404 0 3527 4815" preserveAspectRatio="xMidYMid" fill-rule="evenodd" stroke-width="28.222" stroke-linejoin="round" xmlns="http://www.w3.org/2000/svg" xmlns:ooo="http://xml.openoffice.org/svg/export" xmlns:xlink="http://www.w3.org/1999/xlink" xmlns:presentation="http://sun.com/xmlns/staroffice/presentation" xmlns:smil="http://www.w3.org/2001/SMIL20/" xmlns:anim="urn:oasis:names:tc:opendocument:xmlns:animation:1.0" xml:space="preserve">
 <defs class="ClipPathGroup">
  <clipPath id="presentation_clip_path" clipPathUnits="userSpaceOnUse">
   <rect x="404" y="0" width="3527" height="4815"/>
  </clipPath>
  <clipPath id="presentation_clip_path_shrink" clipPathUnits="userSpaceOnUse">
   <rect x="407" y="4" width="3520" height="4806"/>
  </clipPath>
 </defs>
 <defs class="TextShapeIndex">
  <g ooo:slide="id1" ooo:id-list="id3 id4 id5 id6 id7 id8 id9 id10 id11 id12 id13 id14 id15 id16 id17 id18 id19 id20 id21 id22 id23 id24 id25 id26 id27 id28 id29 id30 id31 id32 id33 id34 id35 id36 id37 id38 id39 id40 id41 id42 id43 id44 id45 id46 id47 id48 id49 id50 id51 id52 id53 id54 id55 id56 id57 id58 id59 id60 id61"/>
 </defs>
 <defs class="EmbeddedBulletChars">
  <g id="bullet-char-template-57356" transform="scale(0.00048828125,-0.00048828125)">
   <path d="M 580,1141 L 1163,571 580,0 -4,571 580,1141 Z"/>
  </g>
  <g id="bullet-char-template-57354" transform="scale(0.00048828125,-0.00048828125)">
   <path d="M 8,1128 L 1137,1128 1137,0 8,0 8,1128 Z"/>
  </g>
  <g id="bullet-char-template-10146" transform="scale(0.00048828125,-0.00048828125)">
   <path d="M 174,0 L 602,739 174,1481 1456,739 174,0 Z M 1358,739 L 309,1346 659,739 1358,739 Z"/>
  </g>
  <g id="bullet-char-template-10132" transform="scale(0.00048828125,-0.00048828125)">
   <path d="M 2015,739 L 1276,0 717,0 1260,543 174,543 174,936 1260,936 717,1481 1274,1481 2015,739 Z"/>
  </g>
  <g id="bullet-char-template-10007" transform="scale(0.00048828125,-0.00048828125)">
   <path d="M 0,-2 C -7,14 -16,27 -25,37 L 356,567 C 262,823 215,952 215,954 215,979 228,992 255,992 264,992 276,990 289,987 310,991 331,999 354,1012 L 381,999 492,748 772,1049 836,1024 860,1049 C 881,1039 901,1025 922,1006 886,937 835,863 770,784 769,783 710,716 594,584 L 774,223 C 774,196 753,168 711,139 L 727,119 C 717,90 699,76 672,76 641,76 570,178 457,381 L 164,-76 C 142,-110 111,-127 72,-127 30,-127 9,-110 8,-76 1,-67 -2,-52 -2,-32 -2,-23 -1,-13 0,-2 Z"/>
  </g>
  <g id="bullet-char-template-10004" transform="scale(0.00048828125,-0.00048828125)">
   <path d="M 285,-33 C 182,-33 111,30 74,156 52,228 41,333 41,471 41,549 55,616 82,672 116,743 169,778 240,778 293,778 328,747 346,684 L 369,508 C 377,444 397,411 428,410 L 1163,1116 C 1174,1127 1196,1133 1229,1133 1271,1133 1292,1118 1292,1087 L 1292,965 C 1292,929 1282,901 1262,881 L 442,47 C 390,-6 338,-33 285,-33 Z"/>
  </g>
  <g id="bullet-char-template-9679" transform="scale(0.00048828125,-0.00048828125)">
   <path d="M 813,0 C 632,0 489,54 383,161 276,268 223,411 223,592 223,773 276,916 383,1023 489,1130 632,1184 813,1184 992,1184 1136,1130 1245,1023 1353,916 1407,772 1407,592 1407,412 1353,268 1245,161 1136,54 992,0 813,0 Z"/>
  </g>
  <g id="bullet-char-template-8226" transform="scale(0.00048828125,-0.00048828125)">
   <path d="M 346,457 C 273,457 209,483 155,535 101,586 74,649 74,723 74,796 101,859 155,911 209,963 273,989 346,989 419,989 480,963 531,910 582,859 608,796 608,723 608,648 583,586 532,535 482,483 420,457 346,457 Z"/>
  </g>
  <g id="bullet-char-template-8211" transform="scale(0.00048828125,-0.00048828125)">
   <path d="M -4,459 L 1135,459 1135,606 -4,606 -4,459 Z"/>
  </g>
  <g id="bullet-char-template-61548" transform="scale(0.00048828125,-0.00048828125)">
   <path d="M 173,740 C 173,903 231,1043 346,1159 462,1274 601,1332 765,1332 928,1332 1067,1274 1183,1159 1299,1043 1357,903 1357,740 1357,577 1299,437 1183,322 1067,206 928,148 765,148 601,148 462,206 346,322 231,437 173,577 173,740 Z"/>
  </g>
 </defs>
 <defs class="TextEmbeddedBitmaps"/>
 <g class="SlideGroup">
  <g>
   <g id="container-id1">
    <g id="id1" class="Slide" clip-path="url(#presentation_clip_path)">
     <g class="Page">
      <g class="Group">
       <g class="Group">
        <g class="Group">
         <g class="com.sun.star.drawing.PolyPolygonShape">
          <g id="id3">
           <rect class="BoundingBox" stroke="none" fill="none" x="1618" y="4053" width="137" height="176"/>
           <path fill="rgb(91,91,95)" fill-opacity="0.4" stroke="rgb(255,255,255)" stroke-opacity="0.4" d="M 1722,4157 L 1690,4228 1618,4196 1683,4054 1754,4087 1722,4157 Z"/>
          </g>
         </g>
         <g class="com.sun.star.drawing.PolyPolygonShape">
          <g id="id4">
           <rect class="BoundingBox" stroke="none" fill="none" x="1699" y="4107" width="146" height="162"/>
           <path fill="rgb(89,89,90)" stroke="none" d="M 1808,4110 L 1798,4131 1745,4107 1699,4207 1753,4231 1743,4252 1779,4268 1844,4127 1808,4110 Z"/>
          </g>
         </g>
         <g class="com.sun.star.drawing.PolyPolygonShape">
          <g id="id5">
           <rect class="BoundingBox" stroke="none" fill="none" x="1617" y="4054" width="86" height="151"/>
           <path fill="rgb(91,91,95)" fill-opacity="0.4" stroke="rgb(255,255,255)" stroke-opacity="0.4" d="M 1669,4133 L 1637,4204 1618,4196 1683,4054 1702,4063 1669,4133 Z"/>
          </g>
         </g>
         <g class="com.sun.star.drawing.ClosedBezierShape">
          <g id="id6">
           <rect class="BoundingBox" stroke="none" fill="none" x="404" y="3456" width="166" height="298"/>
           <path fill="rgb(95,149,221)" stroke="none" d="M 569,3456 C 506,3467 450,3507 422,3569 394,3630 400,3699 433,3753 L 569,3456 Z"/>
          </g>
         </g>
         <g class="com.sun.star.drawing.PolyPolygonShape">
          <g id="id7">
           <rect class="BoundingBox" stroke="none" fill="none" x="424" y="3446" width="1331" height="784"/>
           <path fill="rgb(91,91,95)" fill-opacity="0.4" stroke="rgb(255,255,255)" stroke-opacity="0.4" d="M 1754,4087 L 1683,4054 1696,4026 568,3446 425,3759 1605,4223 1618,4196 1690,4228 1754,4087 Z"/>
          </g>
         </g>
         <g class="com.sun.star.drawing.PolyPolygonShape">
          <g id="id8">
           <rect class="BoundingBox" stroke="none" fill="none" x="1617" y="4054" width="86" height="151"/>
           <path fill="rgb(91,91,95)" fill-opacity="0.4" stroke="rgb(255,255,255)" stroke-opacity="0.4" d="M 1669,4133 L 1637,4204 1618,4196 1683,4054 1702,4063 1669,4133 Z"/>
          </g>
         </g>
         <g class="com.sun.star.drawing.PolyPolygonShape">
          <g id="id9">
           <rect class="BoundingBox" stroke="none" fill="none" x="540" y="3503" width="161" height="312"/>
           <path fill="rgb(89,89,90)" stroke="none" d="M 540,3804 L 563,3814 700,3514 678,3503 540,3804 Z"/>
          </g>
         </g>
         <g class="com.sun.star.drawing.PolyPolygonShape">
          <g id="id10">
           <rect class="BoundingBox" stroke="none" fill="none" x="425" y="3446" width="203" height="338"/>
           <path fill="rgb(89,89,90)" stroke="none" d="M 425,3759 L 487,3783 627,3477 568,3446 448,3709 425,3759 Z"/>
          </g>
         </g>
         <g class="com.sun.star.drawing.PolyPolygonShape">
          <g id="id11">
           <rect class="BoundingBox" stroke="none" fill="none" x="1618" y="4053" width="137" height="176"/>
           <path fill="rgb(91,91,95)" fill-opacity="0.4" stroke="rgb(255,255,255)" stroke-opacity="0.4" d="M 1722,4157 L 1690,4228 1618,4196 1683,4054 1754,4087 1722,4157 Z"/>
          </g>
         </g>
         <g class="com.sun.star.drawing.PolyPolygonShape">
          <g id="id12">
           <rect class="BoundingBox" stroke="none" fill="none" x="1685" y="4101" width="160" height="169"/>
           <path fill="rgb(89,89,90)" stroke="none" d="M 1808,4111 L 1798,4132 1731,4101 1685,4201 1753,4231 1743,4252 1779,4269 1844,4127 1808,4111 Z"/>
          </g>
         </g>
         <g class="com.sun.star.drawing.PolyPolygonShape">
          <g id="id13">
           <rect class="BoundingBox" stroke="none" fill="none" x="1617" y="4054" width="86" height="151"/>
           <path fill="rgb(91,91,95)" fill-opacity="0.4" stroke="rgb(255,255,255)" stroke-opacity="0.4" d="M 1669,4133 L 1637,4204 1618,4196 1683,4054 1702,4063 1669,4133 Z"/>
          </g>
         </g>
         <g class="com.sun.star.drawing.ClosedBezierShape">
          <g id="id14">
           <rect class="BoundingBox" stroke="none" fill="none" x="404" y="3456" width="166" height="298"/>
           <path fill="rgb(144,197,255)" stroke="none" d="M 569,3456 C 506,3467 450,3507 422,3569 394,3630 400,3699 433,3753 L 569,3456 Z"/>
          </g>
         </g>
         <g class="com.sun.star.drawing.PolyPolygonShape">
          <g id="id15">
           <rect class="BoundingBox" stroke="none" fill="none" x="424" y="3446" width="1331" height="784"/>
           <path fill="rgb(216,217,221)" stroke="none" d="M 1754,4087 L 1683,4054 1696,4026 568,3446 425,3759 1605,4223 1618,4196 1690,4228 1754,4087 Z"/>
          </g>
         </g>
         <g class="com.sun.star.drawing.PolyPolygonShape">
          <g id="id16">
           <rect class="BoundingBox" stroke="none" fill="none" x="1617" y="4054" width="86" height="151"/>
           <path fill="rgb(91,91,95)" fill-opacity="0.4" stroke="rgb(255,255,255)" stroke-opacity="0.4" d="M 1669,4133 L 1637,4204 1618,4196 1683,4054 1702,4063 1669,4133 Z"/>
          </g>
         </g>
         <g class="com.sun.star.drawing.PolyPolygonShape">
          <g id="id17">
           <rect class="BoundingBox" stroke="none" fill="none" x="540" y="3503" width="161" height="312"/>
           <path fill="rgb(89,89,90)" stroke="none" d="M 540,3804 L 563,3814 700,3514 678,3503 540,3804 Z"/>
          </g>
         </g>
         <g class="com.sun.star.drawing.PolyPolygonShape">
          <g id="id18">
           <rect class="BoundingBox" stroke="none" fill="none" x="425" y="3446" width="203" height="338"/>
           <path fill="rgb(89,89,90)" stroke="none" d="M 425,3759 L 487,3783 627,3477 568,3446 448,3709 425,3759 Z"/>
          </g>
         </g>
         <g class="com.sun.star.drawing.ClosedBezierShape">
          <g id="id19">
           <rect class="BoundingBox" stroke="none" fill="none" x="403" y="3569" width="1411" height="701"/>
           <path fill="rgb(91,91,95)" fill-opacity="0.298" stroke="rgb(255,255,255)" stroke-opacity="0.298" d="M 422,3569 C 394,3629 400,3695 430,3748 L 425,3759 540,3804 557,3811 1605,4224 1618,4196 1690,4228 1699,4208 1753,4232 1743,4253 1779,4269 1812,4198 422,3569 Z"/>
          </g>
         </g>
         <g class="com.sun.star.drawing.PolyPolygonShape">
          <g id="id20">
           <rect class="BoundingBox" stroke="none" fill="none" x="737" y="4046" width="845" height="602"/>
           <path fill="rgb(89,89,90)" stroke="none" d="M 1521,4646 L 1581,4631 1159,4046 737,4631 797,4646 944,4443 1127,4443 1127,4638 1191,4638 1191,4443 1374,4443 1521,4646 Z M 972,4403 L 1127,4189 1127,4403 972,4403 Z M 1191,4403 L 1191,4189 1346,4403 1191,4403 Z"/>
          </g>
         </g>
         <g class="com.sun.star.drawing.ClosedBezierShape">
          <g id="id21">
           <rect class="BoundingBox" stroke="none" fill="none" x="1069" y="3944" width="182" height="181"/>
           <path fill="rgb(229,196,0)" stroke="none" d="M 1250,4034 C 1250,4050 1246,4064 1237,4079 1229,4093 1219,4103 1204,4112 1190,4120 1176,4124 1159,4124 1143,4124 1128,4120 1114,4112 1100,4103 1089,4093 1081,4079 1073,4064 1069,4050 1069,4034 1069,4017 1073,4003 1081,3989 1089,3975 1100,3964 1114,3956 1128,3948 1143,3944 1159,3944 1176,3944 1190,3948 1204,3956 1219,3964 1229,3975 1237,3989 1246,4003 1250,4017 1250,4034 Z"/>
          </g>
         </g>
         <g class="com.sun.star.drawing.ClosedBezierShape">
          <g id="id22">
           <rect class="BoundingBox" stroke="none" fill="none" x="1108" y="3983" width="103" height="103"/>
           <path fill="rgb(91,91,95)" fill-opacity="0.4" stroke="rgb(255,255,255)" stroke-opacity="0.4" d="M 1210,4034 C 1210,4043 1208,4051 1203,4059 1198,4067 1192,4073 1184,4077 1176,4082 1168,4084 1159,4084 1150,4084 1142,4082 1133,4077 1125,4073 1119,4067 1115,4059 1110,4051 1108,4043 1108,4034 1108,4024 1110,4016 1115,4008 1119,4000 1125,3994 1133,3990 1142,3985 1150,3983 1159,3983 1168,3983 1176,3985 1184,3990 1192,3994 1198,4000 1203,4008 1208,4016 1210,4024 1210,4034 Z"/>
          </g>
         </g>
        </g>
       </g>
       <g class="com.sun.star.drawing.ClosedBezierShape">
        <g id="id23">
         <rect class="BoundingBox" stroke="none" fill="none" x="3439" y="2318" width="204" height="406"/>
         <path fill="rgb(252,208,163)" stroke="none" d="M 3439,2723 C 3545,2723 3642,2632 3642,2520 3642,2408 3545,2318 3439,2318 L 3439,2723 Z"/>
        </g>
       </g>
       <g class="com.sun.star.drawing.ClosedBezierShape">
        <g id="id24">
         <rect class="BoundingBox" stroke="none" fill="none" x="3439" y="2318" width="204" height="406"/>
         <path fill="rgb(252,208,163)" fill-opacity="0.161" stroke="rgb(255,255,255)" stroke-opacity="0.161" d="M 3439,2723 C 3545,2723 3642,2632 3642,2520 3642,2408 3545,2318 3439,2318 L 3439,2723 Z"/>
        </g>
       </g>
       <g class="com.sun.star.drawing.ClosedBezierShape">
        <g id="id25">
         <rect class="BoundingBox" stroke="none" fill="none" x="1174" y="2318" width="204" height="406"/>
         <path fill="rgb(252,208,163)" stroke="none" d="M 1377,2723 C 1271,2723 1174,2632 1174,2520 1174,2408 1271,2318 1377,2318 L 1377,2723 Z"/>
        </g>
       </g>
       <g class="com.sun.star.drawing.ClosedBezierShape">
        <g id="id26">
         <rect class="BoundingBox" stroke="none" fill="none" x="1174" y="2318" width="204" height="406"/>
         <path fill="rgb(252,208,163)" fill-opacity="0.161" stroke="rgb(255,255,255)" stroke-opacity="0.161" d="M 1377,2723 C 1271,2723 1174,2632 1174,2520 1174,2408 1271,2318 1377,2318 L 1377,2723 Z"/>
        </g>
       </g>
       <g class="com.sun.star.drawing.ClosedBezierShape">
        <g id="id27">
         <rect class="BoundingBox" stroke="none" fill="none" x="2317" y="3608" width="187" height="556"/>
         <path fill="rgb(252,208,163)" stroke="none" d="M 2409,4163 C 2358,4163 2317,4121 2317,4070 L 2317,3701 C 2317,3649 2358,3608 2409,3608 2460,3608 2502,3649 2502,3701 L 2502,4070 C 2502,4121 2460,4163 2409,4163 Z"/>
        </g>
       </g>
       <g class="com.sun.star.drawing.ClosedBezierShape">
        <g id="id28">
         <rect class="BoundingBox" stroke="none" fill="none" x="1359" y="807" width="2101" height="2998"/>
         <path fill="rgb(252,208,163)" stroke="none" d="M 2409,3804 C 1830,3804 1360,3334 1360,2756 L 1360,1856 C 1360,1277 1830,807 2409,807 2989,807 3459,1277 3459,1856 L 3459,2756 C 3459,3334 2989,3804 2409,3804 Z"/>
        </g>
       </g>
       <g class="com.sun.star.drawing.ClosedBezierShape">
        <g id="id29">
         <rect class="BoundingBox" stroke="none" fill="none" x="1357" y="807" width="1201" height="2955"/>
         <path fill="rgb(252,208,163)" fill-opacity="0.161" stroke="rgb(255,255,255)" stroke-opacity="0.161" d="M 1836,3527 C 1680,3333 1634,3103 1628,2859 1623,2616 1621,2396 1636,2153 1651,1917 1698,1687 1816,1492 1980,1224 2275,971 2557,818 2508,811 2458,807 2407,807 1827,807 1357,1277 1357,1856 L 1357,2756 C 1357,3231 1675,3634 2111,3761 2007,3701 1913,3623 1836,3527 Z"/>
        </g>
       </g>
       <g class="com.sun.star.drawing.ClosedBezierShape">
        <g id="id30">
         <rect class="BoundingBox" stroke="none" fill="none" x="884" y="1944" width="475" height="1390"/>
         <path fill="rgb(98,37,2)" stroke="none" d="M 1273,2298 C 1332,2227 1354,2154 1355,2074 1359,2037 1356,1997 1346,1955 1345,1950 1342,1948 1339,1946 1331,1940 1315,1947 1317,1960 1324,1995 1329,2030 1330,2064 1312,2318 980,2471 901,2705 860,2826 893,2940 980,3030 1078,3129 1212,3183 1301,3291 1309,3301 1318,3311 1327,3320 L 1340,3332 C 1338,3305 1330,3279 1317,3255 1277,3185 1213,3132 1152,3077 1032,2968 968,2842 1013,2677 1056,2522 1173,2417 1273,2298 Z"/>
        </g>
       </g>
       <g class="com.sun.star.drawing.ClosedBezierShape">
        <g id="id31">
         <rect class="BoundingBox" stroke="none" fill="none" x="3458" y="2134" width="475" height="1390"/>
         <path fill="rgb(98,37,2)" stroke="none" d="M 3542,2489 C 3483,2418 3461,2346 3460,2266 3456,2228 3459,2188 3469,2146 3470,2142 3473,2139 3476,2138 3484,2131 3500,2138 3498,2152 3491,2187 3486,2222 3485,2256 3503,2509 3835,2662 3914,2897 3955,3017 3922,3132 3835,3221 3737,3320 3603,3373 3514,3481 3506,3491 3497,3501 3488,3510 L 3475,3523 C 3477,3496 3485,3469 3498,3446 3538,3375 3602,3322 3663,3268 3783,3160 3847,3033 3802,2869 3759,2713 3642,2609 3542,2489 Z"/>
        </g>
       </g>
       <g class="com.sun.star.drawing.ClosedBezierShape">
        <g id="id32">
         <rect class="BoundingBox" stroke="none" fill="none" x="1761" y="0" width="1494" height="919"/>
         <path fill="rgb(98,37,2)" stroke="none" d="M 3198,287 C 3159,163 3081,6 2932,0 L 2912,0 C 2829,3 2744,38 2666,59 L 2363,143 C 2360,144 2358,146 2357,148 2251,102 2139,60 2022,76 1909,90 1817,157 1782,267 1764,324 1761,386 1761,445 1761,507 1762,575 1799,628 1859,716 1987,723 2039,818 2043,827 2054,824 2058,818 2308,762 2594,736 2803,914 2804,915 2805,915 2805,915 2812,920 2820,915 2823,909 2853,833 2981,835 3049,814 3106,796 3165,768 3204,720 3296,607 3238,411 3198,287 Z"/>
        </g>
       </g>
       <g class="com.sun.star.drawing.ClosedBezierShape">
        <g id="id33">
         <rect class="BoundingBox" stroke="none" fill="none" x="1305" y="754" width="2206" height="1450"/>
         <path fill="rgb(98,37,2)" stroke="none" d="M 3510,2202 L 3510,1876 C 3510,1259 3006,744 2389,754 1790,765 1306,1255 1306,1856 L 1306,2024 C 1306,2024 1698,1931 2661,2006 2878,2023 3510,2202 3510,2202 Z"/>
        </g>
       </g>
       <g class="com.sun.star.drawing.ClosedBezierShape">
        <g id="id34">
         <rect class="BoundingBox" stroke="none" fill="none" x="1957" y="755" width="997" height="142"/>
         <path fill="rgb(245,162,81)" stroke="none" d="M 2953,851 C 2950,814 2893,812 2866,811 2754,810 2646,790 2535,778 2415,766 2302,783 2181,764 2153,760 1918,728 1963,811 1979,841 2028,840 2058,840 2102,839 2147,838 2192,837 2263,836 2335,833 2406,845 2564,873 2730,850 2884,893 2913,901 2956,888 2953,851 Z"/>
        </g>
       </g>
       <g class="com.sun.star.drawing.ClosedBezierShape">
        <g id="id35">
         <rect class="BoundingBox" stroke="none" fill="none" x="1466" y="4080" width="1886" height="736"/>
         <path fill="rgb(230,225,205)" stroke="none" d="M 3344,4677 C 3337,4631 3324,4586 3305,4543 3297,4524 3288,4505 3277,4486 3250,4438 3217,4393 3177,4351 3158,4331 3137,4311 3115,4292 3045,4234 2963,4185 2871,4149 2786,4116 2693,4094 2595,4085 2563,4082 2530,4080 2497,4080 L 2319,4080 C 2286,4080 2253,4082 2221,4085 2123,4094 2030,4116 1945,4149 1854,4185 1771,4234 1702,4292 1679,4311 1658,4331 1639,4351 1599,4393 1566,4438 1539,4486 1529,4505 1519,4524 1511,4543 1493,4586 1479,4631 1472,4677 1469,4696 1467,4716 1466,4736 1496,4741 1527,4746 1558,4750 1663,4766 1768,4779 1873,4789 1878,4790 1882,4790 1887,4790 2344,4834 2803,4819 3259,4750 3290,4746 3320,4741 3351,4736 3350,4716 3348,4696 3344,4677 Z"/>
        </g>
       </g>
       <g class="com.sun.star.drawing.ClosedBezierShape">
        <g id="id36">
         <rect class="BoundingBox" stroke="none" fill="none" x="1466" y="4079" width="892" height="736"/>
         <path fill="rgb(21,42,53)" stroke="none" d="M 2357,4118 C 2357,4097 2340,4080 2319,4080 2286,4080 2253,4082 2221,4085 2123,4094 2030,4116 1945,4149 1854,4185 1771,4234 1702,4292 1679,4311 1658,4331 1639,4351 1599,4393 1566,4438 1539,4486 1529,4505 1519,4524 1511,4543 1493,4586 1479,4631 1472,4677 1469,4696 1467,4716 1466,4735 1496,4741 1527,4745 1558,4750 1663,4766 1768,4779 1873,4789 1878,4790 1882,4790 1887,4790 2043,4805 2200,4813 2357,4814 L 2357,4118 Z"/>
        </g>
       </g>
       <g class="com.sun.star.drawing.ClosedBezierShape">
        <g id="id37">
         <rect class="BoundingBox" stroke="none" fill="none" x="2458" y="4079" width="893" height="736"/>
         <path fill="rgb(21,42,53)" stroke="none" d="M 2496,4080 C 2529,4080 2562,4082 2594,4085 2692,4094 2785,4116 2870,4149 2962,4185 3044,4234 3114,4292 3136,4311 3157,4331 3176,4351 3216,4393 3249,4438 3276,4486 3287,4505 3296,4524 3304,4543 3323,4586 3336,4631 3343,4677 3347,4696 3349,4716 3350,4735 3319,4741 3288,4745 3258,4750 3153,4766 3047,4779 2942,4789 2937,4790 2933,4790 2928,4790 2772,4805 2615,4813 2458,4814 L 2458,4118 C 2458,4097 2475,4080 2496,4080 Z"/>
        </g>
       </g>
       <g class="com.sun.star.drawing.ClosedBezierShape">
        <g id="id38">
         <rect class="BoundingBox" stroke="none" fill="none" x="2538" y="4081" width="813" height="733"/>
         <path fill="rgb(3,105,163)" stroke="none" d="M 3343,4677 C 3336,4631 3323,4586 3304,4543 3296,4524 3287,4505 3276,4486 3249,4438 3216,4393 3176,4351 3157,4331 3136,4311 3114,4292 3044,4234 2962,4185 2870,4149 2785,4116 2692,4094 2594,4085 2575,4083 2557,4082 2538,4081 L 2538,4813 C 2778,4807 3019,4786 3258,4750 3289,4745 3319,4741 3350,4736 3349,4716 3347,4696 3343,4677 Z"/>
        </g>
       </g>
       <g class="com.sun.star.drawing.ClosedBezierShape">
        <g id="id39">
         <rect class="BoundingBox" stroke="none" fill="none" x="1466" y="4081" width="816" height="733"/>
         <path fill="rgb(3,105,163)" stroke="none" d="M 2281,4081 C 2261,4082 2241,4083 2221,4085 2123,4094 2030,4116 1945,4149 1854,4185 1771,4234 1702,4292 1679,4311 1658,4331 1639,4351 1599,4393 1566,4438 1539,4486 1529,4505 1519,4524 1511,4543 1493,4586 1479,4631 1472,4677 1469,4696 1467,4716 1466,4735 1496,4741 1527,4745 1558,4750 1663,4766 1768,4779 1873,4789 1878,4790 1882,4790 1887,4790 2018,4803 2150,4810 2281,4813 L 2281,4081 Z"/>
        </g>
       </g>
       <g class="com.sun.star.drawing.OpenBezierShape">
        <g id="id40">
         <rect class="BoundingBox" stroke="none" fill="none" x="1842" y="3165" width="1136" height="226"/>
         <path fill="none" stroke="rgb(111,111,110)" stroke-width="3" stroke-linejoin="round" stroke-linecap="round" d="M 1844,3167 C 1992,3304 2190,3388 2409,3388 2627,3388 2826,3304 2975,3167"/>
        </g>
       </g>
       <g class="com.sun.star.drawing.ClosedBezierShape">
        <g id="id41">
         <rect class="BoundingBox" stroke="none" fill="none" x="2272" y="3376" width="276" height="82"/>
         <path fill="rgb(220,42,44)" stroke="none" d="M 2311,3425 C 2327,3445 2352,3457 2378,3457 L 2444,3457 C 2470,3457 2495,3445 2510,3424 L 2547,3376 2272,3376 2311,3425 Z"/>
        </g>
       </g>
       <g class="com.sun.star.drawing.ClosedBezierShape">
        <g id="id42">
         <rect class="BoundingBox" stroke="none" fill="none" x="2272" y="3307" width="275" height="82"/>
         <path fill="rgb(233,73,65)" stroke="none" d="M 2424,3321 L 2416,3329 C 2412,3333 2406,3333 2402,3329 L 2395,3322 C 2375,3302 2344,3302 2325,3322 L 2272,3376 2343,3376 C 2361,3376 2378,3378 2395,3384 L 2403,3386 C 2408,3388 2415,3388 2420,3386 L 2428,3383 C 2442,3378 2457,3376 2472,3376 L 2546,3376 2491,3320 C 2472,3302 2442,3302 2424,3321 Z"/>
        </g>
       </g>
       <g class="com.sun.star.drawing.ClosedBezierShape">
        <g id="id43">
         <rect class="BoundingBox" stroke="none" fill="none" x="1464" y="2536" width="623" height="411"/>
         <path fill="rgb(242,150,164)" fill-opacity="0.251" stroke="rgb(255,255,255)" stroke-opacity="0.251" d="M 2081,2820 C 2072,2855 2052,2882 2015,2904 1979,2927 1939,2939 1885,2943 1832,2948 1782,2944 1725,2929 1669,2915 1623,2894 1579,2863 1535,2833 1506,2803 1485,2765 1465,2728 1459,2695 1468,2660 1477,2626 1498,2600 1534,2577 1570,2555 1611,2542 1664,2537 1717,2533 1767,2537 1824,2552 1880,2567 1926,2587 1970,2617 2015,2647 2044,2678 2065,2715 2085,2753 2090,2786 2081,2820 Z"/>
        </g>
       </g>
       <g class="com.sun.star.drawing.ClosedBezierShape">
        <g id="id44">
         <rect class="BoundingBox" stroke="none" fill="none" x="2730" y="2536" width="623" height="411"/>
         <path fill="rgb(242,150,164)" fill-opacity="0.251" stroke="rgb(255,255,255)" stroke-opacity="0.251" d="M 2734,2821 C 2725,2786 2731,2753 2751,2716 2772,2678 2801,2648 2845,2618 2889,2588 2936,2567 2992,2553 3049,2538 3098,2533 3151,2538 3205,2543 3246,2555 3282,2578 3319,2600 3338,2626 3347,2661 3356,2696 3352,2729 3331,2766 3311,2803 3282,2834 3237,2864 3193,2894 3147,2915 3090,2930 3034,2944 2983,2949 2930,2944 2877,2940 2836,2927 2800,2905 2764,2882 2743,2856 2734,2821 Z"/>
        </g>
       </g>
       <g class="com.sun.star.drawing.ClosedBezierShape">
        <g id="id45">
         <rect class="BoundingBox" stroke="none" fill="none" x="2953" y="2353" width="89" height="55"/>
         <path fill="rgb(21,42,53)" stroke="none" d="M 2955,2404 C 2991,2413 3029,2392 3040,2357 3041,2352 3034,2351 3033,2355 3023,2387 2989,2406 2957,2398 2953,2397 2951,2403 2955,2404 Z"/>
        </g>
       </g>
       <g class="com.sun.star.drawing.ClosedBezierShape">
        <g id="id46">
         <rect class="BoundingBox" stroke="none" fill="none" x="2948" y="2336" width="63" height="61"/>
         <path fill="rgb(21,42,53)" stroke="none" d="M 2951,2396 C 2982,2396 3009,2370 3010,2339 3010,2335 3004,2335 3004,2339 3002,2367 2979,2389 2951,2389 2947,2389 2947,2396 2951,2396 Z"/>
        </g>
       </g>
       <g class="com.sun.star.drawing.ClosedBezierShape">
        <g id="id47">
         <rect class="BoundingBox" stroke="none" fill="none" x="2957" y="2407" width="86" height="24"/>
         <path fill="rgb(21,42,53)" stroke="none" d="M 2959,2413 C 2983,2429 3012,2434 3040,2425 3044,2424 3042,2418 3038,2419 3012,2427 2985,2423 2962,2407 2959,2405 2955,2410 2959,2413 Z"/>
        </g>
       </g>
       <g class="com.sun.star.drawing.ClosedBezierShape">
        <g id="id48">
         <rect class="BoundingBox" stroke="none" fill="none" x="2789" y="2351" width="178" height="177"/>
         <path fill="rgb(21,42,53)" stroke="none" d="M 2965,2439 C 2965,2455 2962,2469 2954,2483 2946,2497 2935,2507 2921,2515 2907,2523 2893,2527 2877,2527 2860,2527 2847,2523 2833,2515 2819,2507 2809,2497 2801,2483 2793,2469 2789,2455 2789,2439 2789,2423 2793,2409 2801,2395 2809,2381 2819,2370 2833,2362 2847,2353 2861,2351 2877,2351 2894,2351 2907,2353 2921,2362 2935,2370 2946,2381 2954,2395 2962,2409 2965,2423 2965,2439 Z"/>
        </g>
       </g>
       <g class="com.sun.star.drawing.ClosedBezierShape">
        <g id="id49">
         <rect class="BoundingBox" stroke="none" fill="none" x="2795" y="2357" width="165" height="166"/>
         <path fill="rgb(142,141,156)" stroke="none" d="M 2959,2439 C 2959,2454 2955,2467 2948,2480 2940,2493 2931,2502 2918,2510 2905,2517 2892,2521 2877,2521 2862,2521 2849,2517 2836,2510 2823,2502 2813,2493 2806,2480 2798,2467 2795,2454 2795,2439 2795,2424 2798,2411 2806,2398 2813,2385 2823,2375 2836,2368 2849,2360 2862,2357 2877,2357 2892,2357 2905,2360 2918,2368 2931,2375 2940,2385 2948,2398 2955,2411 2959,2424 2959,2439 Z"/>
        </g>
       </g>
       <g class="com.sun.star.drawing.PolyPolygonShape">
        <g id="id50">
         <rect class="BoundingBox" stroke="none" fill="none" x="2799" y="2360" width="159" height="159"/>
         <path fill="rgb(95,93,115)" stroke="none" d="M 2808,2401 L 2844,2418 2813,2394 2846,2414 2818,2387 2849,2411 2824,2381 2852,2408 2831,2375 2856,2406 2838,2371 2859,2404 2845,2367 2863,2402 2853,2364 2867,2401 2862,2362 2872,2400 2870,2360 2876,2399 2879,2360 2880,2400 2887,2361 2884,2400 2896,2362 2888,2401 2904,2365 2892,2402 2912,2368 2896,2404 2919,2372 2900,2407 2926,2377 2903,2409 2932,2383 2906,2412 2938,2389 2909,2416 2943,2396 2911,2419 2947,2403 2913,2423 2951,2411 2915,2427 2953,2419 2916,2431 2955,2427 2916,2435 2956,2436 2917,2439 2956,2444 2916,2444 2955,2453 2916,2448 2953,2461 2914,2452 2950,2469 2913,2456 2946,2477 2911,2460 2942,2484 2908,2463 2936,2491 2905,2466 2930,2497 2902,2469 2924,2502 2899,2472 2917,2507 2895,2474 2909,2511 2891,2476 2901,2514 2887,2477 2893,2516 2883,2478 2884,2517 2879,2478 2876,2517 2875,2478 2867,2517 2870,2477 2859,2515 2866,2477 2851,2513 2862,2475 2843,2510 2858,2473 2836,2506 2855,2471 2829,2501 2851,2468 2822,2495 2848,2465 2816,2489 2846,2462 2811,2482 2843,2459 2807,2474 2841,2455 2804,2467 2840,2451 2801,2459 2839,2447 2799,2450 2838,2442 2799,2442 2838,2438 2799,2433 2838,2434 2800,2425 2839,2430 2802,2416 2840,2426 2805,2408 2842,2422 2808,2401 Z"/>
        </g>
       </g>
       <g class="com.sun.star.drawing.ClosedBezierShape">
        <g id="id51">
         <rect class="BoundingBox" stroke="none" fill="none" x="2836" y="2397" width="85" height="85"/>
         <path fill="rgb(29,26,58)" fill-opacity="0.349" stroke="rgb(255,255,255)" stroke-opacity="0.349" d="M 2920,2439 C 2920,2447 2918,2453 2914,2460 2910,2466 2905,2471 2899,2475 2892,2479 2885,2481 2878,2481 2870,2481 2863,2479 2857,2475 2850,2471 2845,2466 2841,2460 2837,2453 2836,2447 2836,2439 2836,2431 2837,2424 2841,2418 2845,2411 2850,2405 2857,2402 2863,2398 2870,2397 2878,2397 2885,2397 2892,2398 2899,2402 2906,2406 2910,2411 2914,2418 2918,2424 2920,2431 2920,2439 Z"/>
        </g>
       </g>
       <g class="com.sun.star.drawing.ClosedBezierShape">
        <g id="id52">
         <rect class="BoundingBox" stroke="none" fill="none" x="2877" y="2406" width="29" height="28"/>
         <path fill="rgb(255,255,255)" stroke="none" d="M 2903,2420 L 2904,2419 C 2904,2412 2898,2406 2891,2406 2883,2406 2878,2412 2878,2419 2878,2426 2883,2432 2891,2432 2892,2432 2893,2432 2894,2432 2895,2432 2896,2432 2897,2432 2901,2432 2905,2429 2905,2424 2905,2423 2904,2421 2903,2420 Z"/>
        </g>
       </g>
       <g class="com.sun.star.drawing.ClosedBezierShape">
        <g id="id53">
         <rect class="BoundingBox" stroke="none" fill="none" x="1797" y="2353" width="88" height="55"/>
         <path fill="rgb(21,42,53)" stroke="none" d="M 1879,2398 C 1847,2406 1813,2387 1803,2355 1802,2351 1795,2352 1797,2357 1808,2392 1845,2413 1881,2404 1885,2403 1884,2397 1879,2398 Z"/>
        </g>
       </g>
       <g class="com.sun.star.drawing.ClosedBezierShape">
        <g id="id54">
         <rect class="BoundingBox" stroke="none" fill="none" x="1827" y="2336" width="64" height="61"/>
         <path fill="rgb(21,42,53)" stroke="none" d="M 1886,2389 C 1859,2389 1835,2367 1834,2339 1833,2335 1827,2335 1827,2339 1829,2370 1855,2396 1886,2396 1891,2396 1891,2389 1886,2389 Z"/>
        </g>
       </g>
       <g class="com.sun.star.drawing.ClosedBezierShape">
        <g id="id55">
         <rect class="BoundingBox" stroke="none" fill="none" x="1795" y="2407" width="87" height="24"/>
         <path fill="rgb(21,42,53)" stroke="none" d="M 1875,2407 C 1852,2423 1826,2427 1799,2419 1795,2418 1793,2424 1797,2425 1825,2434 1854,2429 1878,2413 1882,2410 1879,2405 1875,2407 Z"/>
        </g>
       </g>
       <g class="com.sun.star.drawing.ClosedBezierShape">
        <g id="id56">
         <rect class="BoundingBox" stroke="none" fill="none" x="1869" y="2351" width="177" height="177"/>
         <path fill="rgb(21,42,53)" stroke="none" d="M 2045,2439 C 2045,2455 2041,2469 2033,2483 2024,2497 2015,2507 2001,2515 1987,2523 1973,2527 1957,2527 1941,2527 1927,2523 1913,2515 1899,2507 1889,2497 1881,2483 1873,2469 1869,2455 1869,2439 1869,2423 1873,2409 1881,2395 1889,2381 1899,2370 1913,2362 1927,2353 1941,2351 1957,2351 1973,2351 1987,2353 2001,2362 2015,2370 2024,2381 2033,2395 2041,2409 2045,2423 2045,2439 Z"/>
        </g>
       </g>
       <g class="com.sun.star.drawing.ClosedBezierShape">
        <g id="id57">
         <rect class="BoundingBox" stroke="none" fill="none" x="1875" y="2357" width="165" height="166"/>
         <path fill="rgb(142,141,156)" stroke="none" d="M 2039,2439 C 2039,2454 2035,2467 2028,2480 2020,2493 2011,2502 1998,2510 1985,2517 1972,2521 1957,2521 1942,2521 1929,2517 1916,2510 1903,2502 1894,2493 1886,2480 1878,2467 1875,2454 1875,2439 1875,2424 1878,2411 1886,2398 1894,2385 1903,2375 1916,2368 1929,2360 1942,2357 1957,2357 1972,2357 1985,2360 1998,2368 2011,2375 2020,2385 2028,2398 2035,2411 2039,2424 2039,2439 Z"/>
        </g>
       </g>
       <g class="com.sun.star.drawing.PolyPolygonShape">
        <g id="id58">
         <rect class="BoundingBox" stroke="none" fill="none" x="1878" y="2360" width="159" height="159"/>
         <path fill="rgb(95,93,115)" stroke="none" d="M 1888,2401 L 1924,2418 1893,2394 1926,2414 1898,2387 1929,2411 1904,2381 1932,2408 1911,2375 1936,2406 1918,2371 1939,2404 1925,2367 1943,2402 1933,2364 1947,2401 1942,2362 1951,2400 1950,2360 1956,2399 1958,2360 1960,2400 1967,2361 1964,2400 1975,2362 1968,2401 1984,2365 1972,2402 1991,2368 1976,2404 1999,2372 1980,2407 2006,2377 1983,2409 2012,2383 1986,2412 2018,2389 1989,2416 2023,2396 1991,2419 2027,2403 1993,2423 2031,2411 1995,2427 2033,2419 1996,2431 2035,2427 1996,2435 2036,2436 1996,2439 2036,2444 1996,2444 2035,2453 1995,2448 2033,2461 1994,2452 2030,2469 1993,2456 2026,2477 1990,2460 2021,2484 1988,2463 2016,2491 1985,2466 2010,2497 1982,2469 2004,2502 1979,2472 1997,2507 1975,2474 1989,2511 1971,2476 1981,2514 1967,2477 1973,2516 1963,2478 1964,2517 1959,2478 1956,2517 1954,2478 1947,2517 1950,2477 1939,2515 1946,2477 1931,2513 1942,2475 1923,2510 1938,2473 1915,2506 1934,2471 1908,2501 1931,2468 1902,2495 1928,2465 1896,2489 1925,2462 1891,2482 1923,2459 1887,2474 1921,2455 1884,2467 1920,2451 1881,2459 1919,2447 1879,2450 1918,2442 1878,2442 1918,2438 1879,2433 1918,2434 1880,2425 1919,2430 1882,2416 1920,2426 1885,2408 1922,2422 1888,2401 Z"/>
        </g>
       </g>
       <g class="com.sun.star.drawing.ClosedBezierShape">
        <g id="id59">
         <rect class="BoundingBox" stroke="none" fill="none" x="1915" y="2397" width="85" height="85"/>
         <path fill="rgb(29,26,58)" fill-opacity="0.349" stroke="rgb(255,255,255)" stroke-opacity="0.349" d="M 1999,2439 C 1999,2447 1998,2453 1994,2460 1990,2466 1984,2471 1978,2475 1971,2479 1964,2481 1957,2481 1949,2481 1942,2479 1936,2475 1929,2471 1925,2466 1921,2460 1917,2453 1915,2447 1915,2439 1915,2431 1917,2424 1921,2418 1925,2411 1929,2406 1936,2402 1943,2398 1950,2397 1957,2397 1965,2397 1971,2398 1978,2402 1984,2405 1990,2411 1994,2418 1998,2424 1999,2431 1999,2439 Z"/>
        </g>
       </g>
       <g class="com.sun.star.drawing.ClosedBezierShape">
        <g id="id60">
         <rect class="BoundingBox" stroke="none" fill="none" x="1957" y="2406" width="29" height="28"/>
         <path fill="rgb(255,255,255)" stroke="none" d="M 1983,2420 L 1983,2419 C 1983,2412 1977,2406 1970,2406 1962,2406 1957,2412 1957,2419 1957,2426 1963,2432 1970,2432 1971,2432 1972,2432 1973,2432 1974,2432 1975,2432 1976,2432 1981,2432 1985,2429 1985,2424 1985,2423 1984,2421 1983,2420 Z"/>
        </g>
       </g>
       <g class="com.sun.star.drawing.ClosedBezierShape">
        <g id="id61">
         <rect class="BoundingBox" stroke="none" fill="none" x="1461" y="2180" width="1863" height="508"/>
         <path fill="rgb(3,105,163)" stroke="none" d="M 3297,2181 L 2578,2181 C 2510,2181 2456,2235 2456,2302 2456,2305 2456,2307 2456,2309 L 2327,2309 C 2327,2307 2327,2305 2327,2302 2327,2235 2272,2181 2205,2181 L 1486,2181 C 1472,2181 1461,2192 1461,2206 1461,2471 1677,2687 1942,2687 2136,2687 2295,2544 2323,2358 L 2460,2358 C 2487,2544 2647,2687 2840,2687 3106,2687 3322,2471 3322,2206 3322,2192 3311,2181 3297,2181 Z M 1942,2637 C 1713,2637 1525,2457 1512,2231 L 2205,2231 C 2245,2231 2277,2263 2277,2302 2277,2487 2127,2637 1942,2637 Z M 2840,2637 C 2656,2637 2506,2487 2506,2302 2506,2263 2538,2231 2578,2231 L 3271,2231 C 3258,2457 3070,2637 2840,2637 Z"/>
        </g>
       </g>
      </g>
     </g>
    </g>
   </g>
  </g>
 </g>
</svg>