<?xml version="1.0" encoding="UTF-8"?>
<!DOCTYPE svg PUBLIC "-//W3C//DTD SVG 1.1//EN" "http://www.w3.org/Graphics/SVG/1.1/DTD/svg11.dtd">
<svg version="1.2" width="30.42mm" height="41.99mm" viewBox="314 13 3042 4199" preserveAspectRatio="xMidYMid" fill-rule="evenodd" stroke-width="28.222" stroke-linejoin="round" xmlns="http://www.w3.org/2000/svg" xmlns:ooo="http://xml.openoffice.org/svg/export" xmlns:xlink="http://www.w3.org/1999/xlink" xmlns:presentation="http://sun.com/xmlns/staroffice/presentation" xmlns:smil="http://www.w3.org/2001/SMIL20/" xmlns:anim="urn:oasis:names:tc:opendocument:xmlns:animation:1.0" xml:space="preserve">
 <defs class="ClipPathGroup">
  <clipPath id="presentation_clip_path" clipPathUnits="userSpaceOnUse">
   <rect x="314" y="13" width="3042" height="4199"/>
  </clipPath>
  <clipPath id="presentation_clip_path_shrink" clipPathUnits="userSpaceOnUse">
   <rect x="317" y="17" width="3036" height="4191"/>
  </clipPath>
 </defs>
 <defs class="TextShapeIndex">
  <g ooo:slide="id1" ooo:id-list="id3 id4 id5 id6 id7 id8 id9 id10 id11 id12 id13 id14 id15 id16 id17 id18 id19 id20 id21 id22 id23 id24 id25 id26 id27 id28 id29 id30 id31 id32 id33 id34 id35 id36 id37 id38 id39 id40 id41 id42 id43 id44"/>
 </defs>
 <defs class="EmbeddedBulletChars">
  <g id="bullet-char-template-57356" transform="scale(0.00048828125,-0.00048828125)">
   <path d="M 580,1141 L 1163,571 580,0 -4,571 580,1141 Z"/>
  </g>
  <g id="bullet-char-template-57354" transform="scale(0.00048828125,-0.00048828125)">
   <path d="M 8,1128 L 1137,1128 1137,0 8,0 8,1128 Z"/>
  </g>
  <g id="bullet-char-template-10146" transform="scale(0.00048828125,-0.00048828125)">
   <path d="M 174,0 L 602,739 174,1481 1456,739 174,0 Z M 1358,739 L 309,1346 659,739 1358,739 Z"/>
  </g>
  <g id="bullet-char-template-10132" transform="scale(0.00048828125,-0.00048828125)">
   <path d="M 2015,739 L 1276,0 717,0 1260,543 174,543 174,936 1260,936 717,1481 1274,1481 2015,739 Z"/>
  </g>
  <g id="bullet-char-template-10007" transform="scale(0.00048828125,-0.00048828125)">
   <path d="M 0,-2 C -7,14 -16,27 -25,37 L 356,567 C 262,823 215,952 215,954 215,979 228,992 255,992 264,992 276,990 289,987 310,991 331,999 354,1012 L 381,999 492,748 772,1049 836,1024 860,1049 C 881,1039 901,1025 922,1006 886,937 835,863 770,784 769,783 710,716 594,584 L 774,223 C 774,196 753,168 711,139 L 727,119 C 717,90 699,76 672,76 641,76 570,178 457,381 L 164,-76 C 142,-110 111,-127 72,-127 30,-127 9,-110 8,-76 1,-67 -2,-52 -2,-32 -2,-23 -1,-13 0,-2 Z"/>
  </g>
  <g id="bullet-char-template-10004" transform="scale(0.00048828125,-0.00048828125)">
   <path d="M 285,-33 C 182,-33 111,30 74,156 52,228 41,333 41,471 41,549 55,616 82,672 116,743 169,778 240,778 293,778 328,747 346,684 L 369,508 C 377,444 397,411 428,410 L 1163,1116 C 1174,1127 1196,1133 1229,1133 1271,1133 1292,1118 1292,1087 L 1292,965 C 1292,929 1282,901 1262,881 L 442,47 C 390,-6 338,-33 285,-33 Z"/>
  </g>
  <g id="bullet-char-template-9679" transform="scale(0.00048828125,-0.00048828125)">
   <path d="M 813,0 C 632,0 489,54 383,161 276,268 223,411 223,592 223,773 276,916 383,1023 489,1130 632,1184 813,1184 992,1184 1136,1130 1245,1023 1353,916 1407,772 1407,592 1407,412 1353,268 1245,161 1136,54 992,0 813,0 Z"/>
  </g>
  <g id="bullet-char-template-8226" transform="scale(0.00048828125,-0.00048828125)">
   <path d="M 346,457 C 273,457 209,483 155,535 101,586 74,649 74,723 74,796 101,859 155,911 209,963 273,989 346,989 419,989 480,963 531,910 582,859 608,796 608,723 608,648 583,586 532,535 482,483 420,457 346,457 Z"/>
  </g>
  <g id="bullet-char-template-8211" transform="scale(0.00048828125,-0.00048828125)">
   <path d="M -4,459 L 1135,459 1135,606 -4,606 -4,459 Z"/>
  </g>
  <g id="bullet-char-template-61548" transform="scale(0.00048828125,-0.00048828125)">
   <path d="M 173,740 C 173,903 231,1043 346,1159 462,1274 601,1332 765,1332 928,1332 1067,1274 1183,1159 1299,1043 1357,903 1357,740 1357,577 1299,437 1183,322 1067,206 928,148 765,148 601,148 462,206 346,322 231,437 173,577 173,740 Z"/>
  </g>
 </defs>
 <defs class="TextEmbeddedBitmaps"/>
 <g class="SlideGroup">
  <g>
   <g id="container-id1">
    <g id="id1" class="Slide" clip-path="url(#presentation_clip_path)">
     <g class="Page">
      <g class="Group">
       <g class="Group">
        <g class="com.sun.star.drawing.ClosedBezierShape">
         <g id="id3">
          <rect class="BoundingBox" stroke="none" fill="none" x="314" y="3269" width="1086" height="805"/>
          <path fill="rgb(100,180,216)" stroke="none" d="M 1399,4073 L 352,4073 C 331,4073 314,4056 314,4035 L 314,3269 1399,3269 1399,4073 Z"/>
         </g>
        </g>
        <g class="com.sun.star.drawing.ClosedBezierShape">
         <g id="id4">
          <rect class="BoundingBox" stroke="none" fill="none" x="314" y="3224" width="1086" height="805"/>
          <path fill="rgb(113,197,244)" stroke="none" d="M 1399,4028 L 352,4028 C 331,4028 314,4011 314,3990 L 314,3224 1399,3224 1399,4028 Z"/>
         </g>
        </g>
        <g class="com.sun.star.drawing.PolyPolygonShape">
         <g id="id5">
          <rect class="BoundingBox" stroke="none" fill="none" x="362" y="3637" width="1070" height="339"/>
          <path fill="rgb(224,200,162)" stroke="none" d="M 897,3975 L 362,3975 362,3637 1431,3637 1431,3975 897,3975 Z"/>
         </g>
        </g>
        <g class="com.sun.star.drawing.ClosedBezierShape">
         <g id="id6">
          <rect class="BoundingBox" stroke="none" fill="none" x="362" y="3073" width="1353" height="904"/>
          <path fill="rgb(252,232,202)" stroke="none" d="M 1179,3073 C 1101,3073 1038,3136 1038,3214 1038,3159 1005,3110 958,3087 939,3078 918,3073 896,3073 L 362,3073 362,3788 851,3788 C 891,3788 928,3801 958,3822 1006,3855 1038,3911 1038,3975 1038,3872 1121,3788 1224,3788 L 1714,3788 1714,3718 1714,3073 1179,3073 Z"/>
         </g>
        </g>
        <g class="com.sun.star.drawing.PolyPolygonShape">
         <g id="id7">
          <rect class="BoundingBox" stroke="none" fill="none" x="1244" y="3224" width="359" height="80"/>
          <path fill="rgb(153,153,153)" stroke="none" d="M 1423,3303 L 1244,3303 1244,3224 1602,3224 1602,3303 1423,3303 Z"/>
         </g>
        </g>
        <g class="com.sun.star.drawing.PolyPolygonShape">
         <g id="id8">
          <rect class="BoundingBox" stroke="none" fill="none" x="1244" y="3573" width="359" height="81"/>
          <path fill="rgb(153,153,153)" stroke="none" d="M 1423,3653 L 1244,3653 1244,3574 1602,3574 1602,3653 1423,3653 Z"/>
         </g>
        </g>
        <g class="com.sun.star.drawing.PolyPolygonShape">
         <g id="id9">
          <rect class="BoundingBox" stroke="none" fill="none" x="1244" y="3399" width="359" height="80"/>
          <path fill="rgb(153,153,153)" stroke="none" d="M 1423,3478 L 1244,3478 1244,3399 1602,3399 1602,3478 1423,3478 Z"/>
         </g>
        </g>
        <g class="com.sun.star.drawing.PolyPolygonShape">
         <g id="id10">
          <rect class="BoundingBox" stroke="none" fill="none" x="502" y="3224" width="359" height="80"/>
          <path fill="rgb(153,153,153)" stroke="none" d="M 681,3303 L 502,3303 502,3224 860,3224 860,3303 681,3303 Z"/>
         </g>
        </g>
        <g class="com.sun.star.drawing.PolyPolygonShape">
         <g id="id11">
          <rect class="BoundingBox" stroke="none" fill="none" x="502" y="3573" width="359" height="81"/>
          <path fill="rgb(153,153,153)" stroke="none" d="M 681,3653 L 502,3653 502,3574 860,3574 860,3653 681,3653 Z"/>
         </g>
        </g>
        <g class="com.sun.star.drawing.PolyPolygonShape">
         <g id="id12">
          <rect class="BoundingBox" stroke="none" fill="none" x="502" y="3399" width="359" height="80"/>
          <path fill="rgb(153,153,153)" stroke="none" d="M 681,3478 L 502,3478 502,3399 860,3399 860,3478 681,3478 Z"/>
         </g>
        </g>
        <g class="com.sun.star.drawing.ClosedBezierShape">
         <g id="id13">
          <rect class="BoundingBox" stroke="none" fill="none" x="958" y="3087" width="82" height="889"/>
          <path fill="rgb(237,217,190)" stroke="none" d="M 1038,3214 L 1038,3975 C 1038,3911 1006,3855 958,3822 L 958,3087 C 1005,3110 1038,3158 1038,3214 Z"/>
         </g>
        </g>
        <g class="com.sun.star.drawing.ClosedBezierShape">
         <g id="id14">
          <rect class="BoundingBox" stroke="none" fill="none" x="1038" y="3087" width="82" height="889"/>
          <path fill="rgb(237,217,190)" stroke="none" d="M 1038,3214 L 1038,3975 C 1038,3911 1070,3855 1118,3822 L 1118,3087 C 1071,3110 1038,3158 1038,3214 Z"/>
         </g>
        </g>
       </g>
       <g class="com.sun.star.drawing.ClosedBezierShape">
        <g id="id15">
         <rect class="BoundingBox" stroke="none" fill="none" x="888" y="1856" width="204" height="407"/>
         <path fill="rgb(252,208,163)" stroke="none" d="M 1091,2262 C 985,2262 888,2171 888,2059 888,1947 985,1856 1091,1856 L 1091,2262 Z"/>
        </g>
       </g>
       <g class="com.sun.star.drawing.ClosedBezierShape">
        <g id="id16">
         <rect class="BoundingBox" stroke="none" fill="none" x="3153" y="1856" width="204" height="407"/>
         <path fill="rgb(252,208,163)" stroke="none" d="M 3153,2262 C 3259,2262 3356,2171 3356,2059 3356,1947 3259,1856 3153,1856 L 3153,2262 Z"/>
        </g>
       </g>
       <g class="com.sun.star.drawing.PolyPolygonShape">
        <g id="id17">
         <rect class="BoundingBox" stroke="none" fill="none" x="2044" y="3007" width="186" height="556"/>
         <path fill="rgb(252,208,163)" stroke="none" d="M 2137,3562 L 2044,3562 2044,3007 2229,3007 2229,3562 2137,3562 Z"/>
        </g>
       </g>
       <g class="com.sun.star.drawing.ClosedBezierShape">
        <g id="id18">
         <rect class="BoundingBox" stroke="none" fill="none" x="1088" y="206" width="2099" height="2998"/>
         <path fill="rgb(252,208,163)" stroke="none" d="M 2137,3203 C 1557,3203 1088,2733 1088,2155 L 1088,1256 C 1088,676 1557,206 2137,206 2716,206 3186,676 3186,1256 L 3186,2155 C 3186,2733 2716,3203 2137,3203 Z"/>
        </g>
       </g>
       <g class="com.sun.star.drawing.ClosedBezierShape">
        <g id="id19">
         <rect class="BoundingBox" stroke="none" fill="none" x="1087" y="206" width="1201" height="2956"/>
         <path fill="rgb(252,208,163)" fill-opacity="0.161" stroke="rgb(255,255,255)" stroke-opacity="0.161" d="M 1566,2927 C 1410,2732 1364,2501 1358,2258 1353,2016 1351,1795 1366,1553 1381,1317 1428,1086 1546,891 1710,623 2005,371 2287,217 2238,210 2188,206 2137,206 1557,206 1088,676 1088,1256 L 1088,2155 C 1088,2631 1406,3033 1841,3161 1737,3100 1643,3023 1566,2927 Z"/>
        </g>
       </g>
       <g class="com.sun.star.drawing.ClosedBezierShape">
        <g id="id20">
         <rect class="BoundingBox" stroke="none" fill="none" x="927" y="13" width="2303" height="1761"/>
         <path fill="rgb(245,162,81)" stroke="none" d="M 2908,479 C 2858,429 2803,383 2745,343 2737,337 2729,331 2722,325 2719,284 2736,241 2725,195 2721,175 2695,169 2681,183 2673,191 2664,199 2655,206 2648,164 2652,119 2671,78 2676,67 2680,57 2684,46 2693,22 2664,7 2645,16 2538,67 2428,107 2315,136 2262,150 2207,155 2153,154 2141,153 2129,153 2117,154 1519,164 1035,653 1035,1255 L 1035,1466 C 1034,1468 1033,1468 1033,1471 1031,1535 1003,1594 945,1621 911,1637 935,1678 962,1671 979,1666 995,1661 1010,1654 998,1680 983,1705 964,1728 944,1752 968,1782 996,1770 1007,1765 1019,1760 1031,1755 1115,1719 1204,1699 1295,1690 1952,1620 2720,968 2720,968 2787,940 2865,968 2899,1032 L 3185,1683 3219,1423 C 3263,1077 3154,725 2908,479 Z"/>
        </g>
       </g>
       <g class="com.sun.star.drawing.ClosedBezierShape">
        <g id="id21">
         <rect class="BoundingBox" stroke="none" fill="none" x="2722" y="814" width="464" height="870"/>
         <path fill="rgb(245,162,81)" fill-opacity="0.251" stroke="rgb(255,255,255)" stroke-opacity="0.251" d="M 3058,1200 C 3038,1069 3079,853 2954,820 2852,793 2838,866 2722,969 2789,941 2865,969 2899,1034 L 3185,1683 3185,1680 C 3148,1502 3086,1382 3058,1200 Z"/>
        </g>
       </g>
       <g class="com.sun.star.drawing.ClosedBezierShape">
        <g id="id22">
         <rect class="BoundingBox" stroke="none" fill="none" x="1121" y="2233" width="2039" height="1116"/>
         <path fill="rgb(245,162,81)" stroke="none" d="M 3153,2342 C 3149,2337 2984,2233 2750,2233 2582,2233 2378,2412 2172,2380 1943,2345 1706,2233 1522,2233 1298,2234 1121,2334 1121,2398 1121,2662 1246,2907 1479,3052 1489,3058 1502,3054 1511,3046 1629,3166 1763,3264 1913,3344 1931,3354 1947,3342 1951,3326 2017,3337 2082,3341 2146,3337 2210,3341 2275,3337 2341,3326 2344,3342 2361,3354 2379,3344 2529,3264 2662,3166 2780,3046 2789,3054 2803,3058 2813,3052 3046,2907 3127,2661 3158,2399 3159,2389 3159,2346 3153,2342 Z"/>
        </g>
       </g>
       <g class="com.sun.star.drawing.ClosedBezierShape">
        <g id="id23">
         <rect class="BoundingBox" stroke="none" fill="none" x="1713" y="2691" width="896" height="285"/>
         <path fill="rgb(252,208,163)" stroke="none" d="M 1714,2691 L 2608,2691 C 2608,2691 2566,2975 2139,2974 1752,2973 1714,2691 1714,2691 Z"/>
        </g>
       </g>
       <g class="com.sun.star.drawing.ClosedBezierShape">
        <g id="id24">
         <rect class="BoundingBox" stroke="none" fill="none" x="1854" y="2816" width="619" height="160"/>
         <path fill="rgb(247,182,175)" stroke="none" d="M 2085,2822 C 2032,2828 1905,2871 1854,2899 1917,2942 2008,2975 2139,2975 2297,2976 2402,2937 2472,2888 2460,2878 2334,2797 2085,2822 Z"/>
        </g>
       </g>
       <g class="com.sun.star.drawing.ClosedBezierShape">
        <g id="id25">
         <rect class="BoundingBox" stroke="none" fill="none" x="2339" y="1975" width="592" height="158"/>
         <path fill="rgb(252,208,163)" fill-opacity="0.29" stroke="rgb(255,255,255)" stroke-opacity="0.29" d="M 2789,1990 C 2768,1986 2751,1984 2744,1983 2617,1970 2461,1960 2358,2051 2326,2080 2338,2119 2380,2129 2397,2132 2413,2131 2430,2129 2576,2115 2722,2099 2869,2089 2907,2086 2950,2065 2918,2028 2893,2000 2823,1995 2789,1990 Z"/>
        </g>
       </g>
       <g class="com.sun.star.drawing.ClosedBezierShape">
        <g id="id26">
         <rect class="BoundingBox" stroke="none" fill="none" x="1316" y="1975" width="591" height="158"/>
         <path fill="rgb(252,208,163)" fill-opacity="0.29" stroke="rgb(255,255,255)" stroke-opacity="0.29" d="M 1457,1990 C 1479,1986 1496,1984 1502,1983 1629,1970 1786,1960 1888,2051 1920,2080 1908,2119 1866,2129 1850,2132 1833,2131 1816,2129 1670,2115 1524,2099 1378,2089 1339,2086 1296,2065 1329,2028 1353,2000 1423,1995 1457,1990 Z"/>
        </g>
       </g>
       <g class="com.sun.star.drawing.ClosedBezierShape">
        <g id="id27">
         <rect class="BoundingBox" stroke="none" fill="none" x="2519" y="1749" width="177" height="178"/>
         <path fill="rgb(103,101,123)" stroke="none" d="M 2695,1838 C 2695,1854 2692,1868 2684,1882 2676,1896 2665,1906 2651,1914 2637,1922 2623,1926 2607,1926 2591,1926 2577,1922 2563,1914 2549,1906 2539,1896 2531,1882 2523,1868 2519,1854 2519,1838 2519,1821 2523,1808 2531,1794 2539,1780 2549,1769 2563,1761 2577,1753 2591,1749 2607,1749 2623,1749 2637,1753 2651,1761 2665,1769 2676,1780 2684,1794 2692,1808 2695,1821 2695,1838 Z"/>
        </g>
       </g>
       <g class="com.sun.star.drawing.ClosedBezierShape">
        <g id="id28">
         <rect class="BoundingBox" stroke="none" fill="none" x="2525" y="1756" width="166" height="165"/>
         <path fill="rgb(142,141,156)" stroke="none" d="M 2689,1838 C 2689,1853 2685,1866 2678,1879 2670,1892 2661,1901 2648,1909 2635,1916 2622,1920 2607,1920 2592,1920 2579,1916 2566,1909 2553,1901 2543,1892 2536,1879 2528,1866 2525,1853 2525,1838 2525,1823 2528,1810 2536,1797 2543,1784 2553,1774 2566,1767 2579,1759 2592,1756 2607,1756 2622,1756 2635,1759 2648,1767 2661,1774 2670,1784 2678,1797 2685,1810 2689,1823 2689,1838 Z"/>
        </g>
       </g>
       <g class="com.sun.star.drawing.PolyPolygonShape">
        <g id="id29">
         <rect class="BoundingBox" stroke="none" fill="none" x="2529" y="1759" width="158" height="158"/>
         <path fill="rgb(95,93,115)" stroke="none" d="M 2538,1800 L 2574,1817 2543,1792 2576,1813 2548,1786 2579,1810 2554,1780 2582,1807 2561,1774 2586,1805 2568,1770 2589,1803 2575,1766 2593,1801 2583,1763 2597,1800 2592,1761 2602,1799 2600,1759 2606,1798 2609,1759 2610,1798 2617,1760 2614,1799 2625,1761 2618,1800 2634,1764 2622,1801 2641,1767 2626,1803 2649,1771 2630,1805 2656,1776 2633,1808 2662,1781 2636,1811 2668,1788 2639,1814 2673,1795 2641,1818 2677,1802 2643,1822 2681,1810 2645,1826 2683,1818 2646,1830 2685,1826 2646,1834 2686,1835 2647,1838 2686,1843 2646,1843 2685,1852 2646,1847 2683,1860 2644,1851 2680,1868 2643,1855 2676,1876 2641,1859 2672,1883 2638,1862 2666,1890 2635,1865 2660,1896 2632,1868 2654,1901 2629,1871 2647,1906 2625,1873 2639,1910 2621,1874 2631,1913 2617,1876 2623,1915 2613,1877 2614,1916 2609,1877 2606,1916 2604,1877 2597,1916 2600,1876 2589,1914 2596,1875 2581,1912 2592,1874 2573,1909 2588,1872 2566,1904 2585,1870 2559,1900 2581,1867 2552,1894 2578,1864 2546,1888 2576,1861 2541,1881 2573,1857 2537,1873 2571,1854 2534,1866 2570,1850 2531,1857 2569,1845 2529,1849 2568,1841 2529,1841 2568,1837 2529,1832 2568,1833 2530,1824 2569,1829 2532,1815 2570,1824 2535,1807 2572,1821 2538,1800 Z"/>
        </g>
       </g>
       <g class="com.sun.star.drawing.ClosedBezierShape">
        <g id="id30">
         <rect class="BoundingBox" stroke="none" fill="none" x="2566" y="1796" width="85" height="85"/>
         <path fill="rgb(29,26,58)" fill-opacity="0.349" stroke="rgb(255,255,255)" stroke-opacity="0.349" d="M 2650,1838 C 2650,1845 2648,1852 2644,1859 2640,1865 2635,1870 2629,1874 2622,1878 2615,1880 2608,1880 2600,1880 2593,1878 2587,1874 2580,1870 2575,1865 2571,1859 2567,1852 2566,1845 2566,1838 2566,1830 2567,1823 2571,1817 2575,1810 2580,1805 2587,1801 2593,1797 2600,1796 2608,1796 2615,1796 2622,1797 2629,1801 2635,1805 2640,1810 2644,1817 2648,1823 2650,1830 2650,1838 Z"/>
        </g>
       </g>
       <g class="com.sun.star.drawing.ClosedBezierShape">
        <g id="id31">
         <rect class="BoundingBox" stroke="none" fill="none" x="2607" y="1805" width="29" height="28"/>
         <path fill="rgb(255,255,255)" stroke="none" d="M 2633,1819 L 2633,1818 C 2633,1811 2628,1805 2621,1805 2613,1805 2608,1811 2608,1818 2608,1825 2613,1831 2621,1831 2622,1831 2623,1831 2624,1830 2625,1831 2626,1831 2627,1831 2631,1831 2635,1827 2635,1823 2635,1821 2634,1820 2633,1819 Z"/>
        </g>
       </g>
       <g class="com.sun.star.drawing.ClosedBezierShape">
        <g id="id32">
         <rect class="BoundingBox" stroke="none" fill="none" x="1612" y="1749" width="178" height="178"/>
         <path fill="rgb(103,101,123)" stroke="none" d="M 1788,1838 C 1788,1854 1784,1868 1776,1882 1768,1896 1758,1906 1744,1914 1730,1922 1716,1926 1700,1926 1684,1926 1670,1922 1656,1914 1642,1906 1632,1896 1624,1882 1615,1868 1612,1854 1612,1838 1612,1821 1615,1808 1624,1794 1632,1780 1642,1769 1656,1761 1670,1753 1684,1749 1700,1749 1716,1749 1730,1753 1744,1761 1758,1769 1768,1780 1776,1794 1784,1808 1788,1821 1788,1838 Z"/>
        </g>
       </g>
       <g class="com.sun.star.drawing.ClosedBezierShape">
        <g id="id33">
         <rect class="BoundingBox" stroke="none" fill="none" x="1618" y="1756" width="166" height="165"/>
         <path fill="rgb(142,141,156)" stroke="none" d="M 1782,1838 C 1782,1853 1779,1866 1771,1879 1763,1892 1754,1901 1741,1909 1728,1916 1715,1920 1700,1920 1685,1920 1672,1916 1659,1909 1646,1901 1636,1892 1629,1879 1621,1866 1618,1853 1618,1838 1618,1823 1621,1810 1629,1797 1636,1784 1646,1774 1659,1767 1672,1759 1685,1756 1700,1756 1715,1756 1728,1759 1741,1767 1754,1774 1763,1784 1771,1797 1779,1810 1782,1823 1782,1838 Z"/>
        </g>
       </g>
       <g class="com.sun.star.drawing.PolyPolygonShape">
        <g id="id34">
         <rect class="BoundingBox" stroke="none" fill="none" x="1621" y="1759" width="159" height="158"/>
         <path fill="rgb(95,93,115)" stroke="none" d="M 1631,1800 L 1667,1817 1636,1792 1669,1813 1641,1786 1672,1810 1647,1780 1675,1807 1653,1774 1678,1805 1660,1770 1682,1803 1668,1766 1686,1801 1676,1763 1690,1800 1684,1761 1694,1799 1693,1759 1698,1798 1701,1759 1703,1798 1710,1760 1707,1799 1718,1761 1711,1800 1726,1764 1715,1801 1734,1767 1719,1803 1742,1771 1723,1805 1749,1776 1726,1808 1755,1781 1729,1811 1761,1788 1732,1814 1766,1795 1734,1818 1770,1802 1736,1822 1773,1810 1737,1826 1776,1818 1738,1830 1778,1826 1739,1834 1779,1835 1739,1838 1778,1843 1739,1843 1777,1852 1738,1847 1775,1860 1737,1851 1773,1868 1735,1855 1769,1876 1733,1859 1764,1883 1731,1862 1759,1890 1728,1865 1753,1896 1725,1868 1746,1901 1721,1871 1739,1906 1718,1873 1732,1910 1714,1874 1724,1913 1710,1876 1716,1915 1706,1877 1707,1916 1701,1877 1699,1916 1697,1877 1690,1916 1693,1876 1682,1914 1689,1875 1674,1912 1685,1874 1666,1909 1681,1872 1658,1904 1677,1870 1651,1900 1674,1867 1645,1894 1671,1864 1639,1888 1668,1861 1634,1881 1666,1857 1630,1873 1664,1854 1626,1866 1662,1850 1624,1857 1661,1845 1622,1849 1661,1841 1621,1841 1661,1837 1621,1832 1661,1833 1623,1824 1662,1829 1624,1815 1663,1824 1627,1807 1665,1821 1631,1800 Z"/>
        </g>
       </g>
       <g class="com.sun.star.drawing.ClosedBezierShape">
        <g id="id35">
         <rect class="BoundingBox" stroke="none" fill="none" x="1658" y="1796" width="85" height="85"/>
         <path fill="rgb(29,26,58)" fill-opacity="0.349" stroke="rgb(255,255,255)" stroke-opacity="0.349" d="M 1742,1838 C 1742,1845 1740,1852 1737,1859 1733,1866 1728,1870 1721,1874 1714,1878 1708,1880 1700,1880 1692,1880 1685,1878 1679,1874 1672,1870 1668,1865 1664,1859 1660,1852 1658,1845 1658,1838 1658,1830 1660,1823 1664,1817 1668,1810 1672,1805 1679,1801 1685,1797 1692,1796 1700,1796 1708,1796 1714,1797 1721,1801 1728,1805 1733,1810 1737,1817 1740,1823 1742,1830 1742,1838 Z"/>
        </g>
       </g>
       <g class="com.sun.star.drawing.ClosedBezierShape">
        <g id="id36">
         <rect class="BoundingBox" stroke="none" fill="none" x="1700" y="1805" width="28" height="28"/>
         <path fill="rgb(255,255,255)" stroke="none" d="M 1726,1819 L 1726,1818 C 1726,1811 1720,1805 1713,1805 1706,1805 1700,1811 1700,1818 1700,1825 1706,1831 1713,1831 1714,1831 1715,1831 1716,1830 1717,1831 1718,1831 1719,1831 1724,1831 1727,1827 1727,1823 1727,1821 1727,1820 1726,1819 Z"/>
        </g>
       </g>
       <g class="com.sun.star.drawing.ClosedBezierShape">
        <g id="id37">
         <rect class="BoundingBox" stroke="none" fill="none" x="1198" y="3477" width="1886" height="736"/>
         <path fill="rgb(238,238,238)" stroke="none" d="M 3077,4074 C 3069,4028 3056,3983 3037,3940 3029,3921 3020,3902 3009,3883 2983,3835 2949,3790 2910,3748 2890,3728 2869,3708 2847,3689 2777,3631 2695,3582 2603,3546 2518,3513 2425,3491 2327,3482 2295,3479 2263,3477 2230,3477 L 2051,3477 C 2018,3477 1985,3479 1953,3482 1855,3491 1762,3513 1677,3546 1586,3582 1503,3631 1434,3689 1411,3708 1390,3728 1371,3748 1332,3790 1298,3835 1271,3883 1261,3902 1251,3921 1243,3940 1225,3983 1211,4028 1204,4074 1201,4093 1199,4113 1198,4132 1228,4138 1259,4142 1290,4147 1395,4163 1500,4176 1605,4186 1610,4187 1614,4187 1619,4187 2076,4231 2536,4216 2991,4147 3022,4143 3052,4138 3083,4133 3082,4113 3080,4093 3077,4074 Z"/>
        </g>
       </g>
       <g class="com.sun.star.drawing.ClosedBezierShape">
        <g id="id38">
         <rect class="BoundingBox" stroke="none" fill="none" x="1198" y="3478" width="847" height="734"/>
         <path fill="rgb(35,56,66)" stroke="none" d="M 2043,3478 C 2013,3478 1983,3480 1953,3482 1855,3491 1762,3514 1677,3547 1586,3583 1503,3631 1434,3690 1411,3709 1390,3728 1371,3749 1332,3790 1298,3836 1271,3884 1261,3902 1251,3922 1243,3941 1225,3984 1211,4029 1204,4075 1201,4094 1199,4114 1198,4133 1228,4138 1259,4143 1290,4148 1395,4164 1500,4177 1605,4187 1610,4187 1614,4188 1619,4188 1760,4202 1901,4209 2043,4211 L 2043,3478 Z"/>
        </g>
       </g>
       <g class="com.sun.star.drawing.ClosedBezierShape">
        <g id="id39">
         <rect class="BoundingBox" stroke="none" fill="none" x="2234" y="3478" width="849" height="734"/>
         <path fill="rgb(35,56,66)" stroke="none" d="M 3076,4075 C 3068,4029 3055,3984 3036,3941 3028,3922 3019,3902 3008,3884 2982,3836 2948,3791 2909,3749 2889,3728 2868,3709 2846,3690 2776,3631 2694,3583 2602,3547 2517,3514 2424,3491 2326,3482 2296,3480 2265,3478 2234,3478 L 2234,4211 C 2486,4207 2739,4186 2990,4148 3021,4143 3051,4138 3082,4133 3081,4114 3079,4094 3076,4075 Z"/>
        </g>
       </g>
       <g class="com.sun.star.drawing.PolyPolygonShape">
        <g id="id40">
         <rect class="BoundingBox" stroke="none" fill="none" x="1818" y="3368" width="231" height="845"/>
         <path fill="rgb(61,85,97)" stroke="none" d="M 2048,3368 L 2048,4212 1910,3691 1928,3633 1818,3478 2048,3368 Z"/>
        </g>
       </g>
       <g class="com.sun.star.drawing.PolyPolygonShape">
        <g id="id41">
         <rect class="BoundingBox" stroke="none" fill="none" x="2232" y="3368" width="231" height="845"/>
         <path fill="rgb(61,85,97)" stroke="none" d="M 2232,3368 L 2232,4212 2370,3691 2351,3633 2462,3478 2232,3368 Z"/>
        </g>
       </g>
       <g class="com.sun.star.drawing.ClosedBezierShape">
        <g id="id42">
         <rect class="BoundingBox" stroke="none" fill="none" x="1942" y="3426" width="396" height="202"/>
         <path fill="rgb(0,98,196)" stroke="none" d="M 2270,3431 L 2140,3497 2010,3431 C 1980,3415 1943,3437 1943,3472 L 1943,3583 C 1943,3615 1978,3636 2006,3621 L 2140,3554 2274,3621 C 2303,3636 2337,3615 2337,3583 L 2337,3472 C 2337,3437 2301,3415 2270,3431 Z"/>
        </g>
       </g>
       <g class="com.sun.star.drawing.ClosedBezierShape">
        <g id="id43">
         <rect class="BoundingBox" stroke="none" fill="none" x="1942" y="3461" width="396" height="166"/>
         <path fill="rgb(255,255,255)" fill-opacity="0.2" stroke="rgb(255,255,255)" stroke-opacity="0.2" d="M 2332,3531 C 2340,3450 2270,3451 2214,3477 2193,3487 2172,3500 2149,3506 2126,3512 2104,3513 2081,3508 2048,3500 2003,3456 1967,3485 1951,3498 1946,3531 1943,3551 L 1943,3583 C 1943,3615 1978,3636 2006,3621 L 2140,3553 2274,3621 C 2303,3636 2337,3615 2337,3583 L 2337,3554 C 2333,3548 2331,3541 2332,3531 Z"/>
        </g>
       </g>
       <g class="com.sun.star.drawing.ClosedBezierShape">
        <g id="id44">
         <rect class="BoundingBox" stroke="none" fill="none" x="2079" y="3448" width="124" height="155"/>
         <path fill="rgb(0,98,196)" stroke="none" d="M 2164,3602 L 2117,3602 C 2096,3602 2079,3585 2079,3565 L 2079,3486 C 2079,3465 2096,3448 2117,3448 L 2164,3448 C 2184,3448 2201,3465 2201,3486 L 2201,3565 C 2201,3585 2184,3602 2164,3602 Z"/>
        </g>
       </g>
      </g>
     </g>
    </g>
   </g>
  </g>
 </g>
</svg>