<?xml version="1.0" encoding="UTF-8" standalone="no"?>
<!-- Created with Inkscape (http://www.inkscape.org/) -->

<svg
   xmlns:dc="http://purl.org/dc/elements/1.1/"
   xmlns:cc="http://creativecommons.org/ns#"
   xmlns:rdf="http://www.w3.org/1999/02/22-rdf-syntax-ns#"
   xmlns:svg="http://www.w3.org/2000/svg"
   xmlns="http://www.w3.org/2000/svg"
   xmlns:sodipodi="http://sodipodi.sourceforge.net/DTD/sodipodi-0.dtd"
   xmlns:inkscape="http://www.inkscape.org/namespaces/inkscape"
   version="1.1"
   id="svg2"
   xml:space="preserve"
   width="1000"
   height="220"
   viewBox="0 0 1000 220"
   sodipodi:docname="HTW Chur Logo.svg"
   inkscape:version="0.92.2 (5c3e80d, 2017-08-06)"><metadata
     id="metadata8"><rdf:RDF><cc:Work
         rdf:about=""><dc:format>image/svg+xml</dc:format><dc:type
           rdf:resource="http://purl.org/dc/dcmitype/StillImage" /><dc:title></dc:title></cc:Work></rdf:RDF></metadata><defs
     id="defs6"><clipPath
       clipPathUnits="userSpaceOnUse"
       id="clipPath20"><path
         d="M 0,143.718 H 419.528 V 595.275 H 0 Z"
         id="path18"
         inkscape:connector-curvature="0" /></clipPath><clipPath
       clipPathUnits="userSpaceOnUse"
       id="clipPath36"><path
         d="M 0,0 H 419.528 V 595.276 H 0 Z"
         id="path34"
         inkscape:connector-curvature="0" /></clipPath><clipPath
       clipPathUnits="userSpaceOnUse"
       id="clipPath44"><path
         d="M -1,604.779 H 420.528 V 45.7559 H -1 Z"
         id="path42"
         inkscape:connector-curvature="0" /></clipPath><clipPath
       clipPathUnits="userSpaceOnUse"
       id="clipPath48"><path
         d="M 0,99.61 H 419.528 V 603.779 H 0 Z"
         id="path46"
         inkscape:connector-curvature="0" /></clipPath><clipPath
       clipPathUnits="userSpaceOnUse"
       id="clipPath52"><path
         d="M 0,99.61 H 419.528 V 603.779 H 0 Z"
         id="path50"
         inkscape:connector-curvature="0" /></clipPath><clipPath
       clipPathUnits="userSpaceOnUse"
       id="clipPath56"><path
         d="M 0,99.61 H 419.528 V 603.779 H 0 Z"
         id="path54"
         inkscape:connector-curvature="0" /></clipPath><clipPath
       clipPathUnits="userSpaceOnUse"
       id="clipPath60"><path
         d="M 0,99.61 H 419.528 V 603.779 H 0 Z"
         id="path58"
         inkscape:connector-curvature="0" /></clipPath><clipPath
       clipPathUnits="userSpaceOnUse"
       id="clipPath64"><path
         d="M 0,99.61 H 419.528 V 603.779 H 0 Z"
         id="path62"
         inkscape:connector-curvature="0" /></clipPath><clipPath
       clipPathUnits="userSpaceOnUse"
       id="clipPath68"><path
         d="M 0,99.61 H 419.528 V 603.779 H 0 Z"
         id="path66"
         inkscape:connector-curvature="0" /></clipPath><clipPath
       clipPathUnits="userSpaceOnUse"
       id="clipPath72"><path
         d="M 0,99.61 H 419.528 V 603.779 H 0 Z"
         id="path70"
         inkscape:connector-curvature="0" /></clipPath><clipPath
       clipPathUnits="userSpaceOnUse"
       id="clipPath76"><path
         d="M 0,99.61 H 419.528 V 603.779 H 0 Z"
         id="path74"
         inkscape:connector-curvature="0" /></clipPath><clipPath
       clipPathUnits="userSpaceOnUse"
       id="clipPath80"><path
         d="M 0,99.61 H 419.528 V 603.779 H 0 Z"
         id="path78"
         inkscape:connector-curvature="0" /></clipPath><clipPath
       clipPathUnits="userSpaceOnUse"
       id="clipPath84"><path
         d="M 0,99.61 H 419.528 V 603.779 H 0 Z"
         id="path82"
         inkscape:connector-curvature="0" /></clipPath><clipPath
       clipPathUnits="userSpaceOnUse"
       id="clipPath88"><path
         d="M 0,99.61 H 419.528 V 603.779 H 0 Z"
         id="path86"
         inkscape:connector-curvature="0" /></clipPath><clipPath
       clipPathUnits="userSpaceOnUse"
       id="clipPath92"><path
         d="M 0,99.61 H 419.528 V 603.779 H 0 Z"
         id="path90"
         inkscape:connector-curvature="0" /></clipPath><clipPath
       clipPathUnits="userSpaceOnUse"
       id="clipPath96"><path
         d="M 0,99.61 H 419.528 V 603.779 H 0 Z"
         id="path94"
         inkscape:connector-curvature="0" /></clipPath><clipPath
       clipPathUnits="userSpaceOnUse"
       id="clipPath100"><path
         d="M 0,99.61 H 419.528 V 603.779 H 0 Z"
         id="path98"
         inkscape:connector-curvature="0" /></clipPath><clipPath
       clipPathUnits="userSpaceOnUse"
       id="clipPath104"><path
         d="M 0,99.61 H 419.528 V 603.779 H 0 Z"
         id="path102"
         inkscape:connector-curvature="0" /></clipPath><clipPath
       clipPathUnits="userSpaceOnUse"
       id="clipPath108"><path
         d="M 0,99.61 H 419.528 V 603.779 H 0 Z"
         id="path106"
         inkscape:connector-curvature="0" /></clipPath><clipPath
       clipPathUnits="userSpaceOnUse"
       id="clipPath112"><path
         d="M 0,99.61 H 419.528 V 603.779 H 0 Z"
         id="path110"
         inkscape:connector-curvature="0" /></clipPath><clipPath
       clipPathUnits="userSpaceOnUse"
       id="clipPath116"><path
         d="M 0,99.61 H 419.528 V 603.779 H 0 Z"
         id="path114"
         inkscape:connector-curvature="0" /></clipPath><clipPath
       clipPathUnits="userSpaceOnUse"
       id="clipPath880"><path
         d="M 20.3465,36.2613 H 173.338 V 20.3169 H 20.3465 Z"
         id="path878"
         inkscape:connector-curvature="0" /></clipPath><clipPath
       clipPathUnits="userSpaceOnUse"
       id="clipPath896"><path
         d="M 225.701,35.3768 H 392.89 V 21.182 H 225.701 Z"
         id="path894"
         inkscape:connector-curvature="0" /></clipPath><clipPath
       clipPathUnits="userSpaceOnUse"
       id="clipPath900"><path
         d="M 226.701,22.182 H 391.89 V 34.377 H 226.701 Z"
         id="path898"
         inkscape:connector-curvature="0" /></clipPath><clipPath
       clipPathUnits="userSpaceOnUse"
       id="clipPath904"><path
         d="M 226.701,22.182 H 391.89 V 34.376 H 226.701 Z"
         id="path902"
         inkscape:connector-curvature="0" /></clipPath><clipPath
       clipPathUnits="userSpaceOnUse"
       id="clipPath908"><path
         d="M 226.701,22.182 H 391.89 V 34.377 H 226.701 Z"
         id="path906"
         inkscape:connector-curvature="0" /></clipPath><clipPath
       clipPathUnits="userSpaceOnUse"
       id="clipPath1072"><path
         d="m 0,512.555 h 187.709 v 54.374 H 0 Z"
         id="path1070"
         inkscape:connector-curvature="0" /></clipPath><clipPath
       clipPathUnits="userSpaceOnUse"
       id="clipPath1326"><path
         d="M 0,0 H 419.528 V 595.276 H 0 Z"
         id="path1324"
         inkscape:connector-curvature="0" /></clipPath><clipPath
       clipPathUnits="userSpaceOnUse"
       id="clipPath1334"><path
         d="M -162.575,604.779 H 1 V 45.7559 h -163.575 z"
         id="path1332"
         inkscape:connector-curvature="0" /></clipPath><clipPath
       clipPathUnits="userSpaceOnUse"
       id="clipPath1072-7"><path
         d="m 0,512.555 h 187.709 v 54.374 H 0 Z"
         id="path1070-3"
         inkscape:connector-curvature="0" /></clipPath></defs><sodipodi:namedview
     pagecolor="#ffffff"
     bordercolor="#666666"
     borderopacity="1"
     objecttolerance="10"
     gridtolerance="10"
     guidetolerance="10"
     inkscape:pageopacity="0"
     inkscape:pageshadow="2"
     inkscape:window-width="3840"
     inkscape:window-height="2093"
     id="namedview4"
     showgrid="false"
     inkscape:zoom="0.42050376"
     inkscape:cx="2429.7516"
     inkscape:cy="-909.84387"
     inkscape:window-x="4791"
     inkscape:window-y="-9"
     inkscape:window-maximized="1"
     inkscape:current-layer="svg2" /><g
     style="display:inline"
     id="g2725"
     transform="matrix(6.3227312,0,0,-6.3227312,-86.684645,3522.6183)"><path
       inkscape:connector-curvature="0"
       id="path1052"
       style="fill:#006ead;fill-opacity:1;fill-rule:nonzero;stroke:none"
       d="M 24.869,556.054 H 13.71 v -11.159 h 11.159 z" /><path
       inkscape:connector-curvature="0"
       id="path1054"
       style="fill:#006ead;fill-opacity:1;fill-rule:nonzero;stroke:none"
       d="M 44.061,535.29 H 32.902 v -11.159 h 11.159 z" /><g
       transform="translate(45.0989,546.1778)"
       id="g1056"><path
         inkscape:connector-curvature="0"
         id="path1058"
         style="fill:#bebdbc;fill-opacity:1;fill-rule:nonzero;stroke:none"
         d="m 0,0 -2.32,10.914 -10.914,-2.32 2.32,-10.914 z" /></g><path
       inkscape:connector-curvature="0"
       id="path1060"
       style="fill:#006ead;fill-opacity:1;fill-rule:nonzero;stroke:none"
       d="M 24.869,535.29 H 13.71 v -11.159 h 11.159 z" /><g
       transform="translate(62.0291,531.8038)"
       id="g1062"><path
         inkscape:connector-curvature="0"
         id="path1064"
         style="fill:#000000;fill-opacity:1;fill-rule:nonzero;stroke:none"
         d="M 0,0 V 2.286 H -2.997 V 0 h -0.456 v 4.875 h 0.456 V 2.7 H 0 V 4.875 H 0.463 V 0 Z" /></g><g
       id="g1066"><g
         clip-path="url(#clipPath1072-7)"
         id="g1068"><g
           transform="translate(64.9503,534.8356)"
           id="g1074"><path
             inkscape:connector-curvature="0"
             id="path1076"
             style="fill:#000000;fill-opacity:1;fill-rule:nonzero;stroke:none"
             d="m 0,0 c -0.594,0 -1.064,-0.435 -1.064,-1.423 0,-1.015 0.532,-1.333 1.05,-1.333 0.511,0 1.07,0.332 1.07,1.388 C 1.056,-0.332 0.518,0 0,0 m -0.021,-3.115 c -0.849,0 -1.478,0.629 -1.478,1.692 0,1.022 0.56,1.768 1.506,1.768 1.029,0 1.471,-0.877 1.484,-1.713 0,-1.229 -0.794,-1.747 -1.512,-1.747" /></g><g
           transform="translate(69.9773,532.5359)"
           id="g1078"><path
             inkscape:connector-curvature="0"
             id="path1080"
             style="fill:#000000;fill-opacity:1;fill-rule:nonzero;stroke:none"
             d="m 0,0 c -0.2,-0.421 -0.573,-0.815 -1.319,-0.815 -0.932,0 -1.512,0.691 -1.512,1.706 0,1.077 0.656,1.754 1.581,1.754 0.705,0 1.077,-0.373 1.25,-0.829 l -0.38,-0.09 c -0.145,0.366 -0.504,0.553 -0.89,0.553 -0.76,0 -1.119,-0.649 -1.119,-1.367 0,-0.739 0.331,-1.368 1.084,-1.368 0.414,0 0.697,0.193 0.891,0.553 z" /></g><g
           transform="translate(72.7812,531.8038)"
           id="g1082"><path
             inkscape:connector-curvature="0"
             id="path1084"
             style="fill:#000000;fill-opacity:1;fill-rule:nonzero;stroke:none"
             d="M 0,0 V 2.086 C 0,2.5 -0.103,2.99 -0.773,2.99 -1.27,2.99 -1.505,2.707 -1.602,2.527 -1.733,2.272 -1.74,1.996 -1.74,1.423 V 0 H -2.155 V 4.875 H -1.74 V 2.769 c 0.104,0.214 0.38,0.594 1.022,0.594 0.145,0 0.621,-0.027 0.905,-0.407 C 0.373,2.707 0.401,2.438 0.401,1.858 V 0 Z" /></g><g
           transform="translate(74.4387,532.7431)"
           id="g1086"><path
             inkscape:connector-curvature="0"
             id="path1088"
             style="fill:#000000;fill-opacity:1;fill-rule:nonzero;stroke:none"
             d="m 0,0 c 0.055,-0.228 0.304,-0.649 0.918,-0.649 0.636,0 0.843,0.352 0.843,0.642 0,0.283 -0.166,0.476 -0.712,0.594 L 0.663,0.67 c -0.511,0.11 -0.856,0.338 -0.856,0.821 0,0.118 0.02,0.435 0.283,0.67 0.228,0.208 0.607,0.277 0.898,0.277 0.096,0 0.503,0 0.807,-0.214 0.256,-0.18 0.332,-0.422 0.36,-0.532 L 1.768,1.588 c -0.076,0.38 -0.47,0.491 -0.801,0.491 -0.67,0 -0.76,-0.353 -0.76,-0.553 0,-0.387 0.407,-0.477 0.691,-0.532 L 1.243,0.925 c 0.58,-0.117 0.912,-0.448 0.912,-0.959 0,-0.38 -0.304,-0.988 -1.23,-0.988 -0.276,0 -0.973,0.041 -1.326,0.884 z" /></g><g
           transform="translate(80.1982,532.5359)"
           id="g1090"><path
             inkscape:connector-curvature="0"
             id="path1092"
             style="fill:#000000;fill-opacity:1;fill-rule:nonzero;stroke:none"
             d="m 0,0 c -0.2,-0.421 -0.573,-0.815 -1.319,-0.815 -0.933,0 -1.513,0.691 -1.513,1.706 0,1.077 0.656,1.754 1.582,1.754 0.704,0 1.077,-0.373 1.25,-0.829 l -0.38,-0.09 c -0.145,0.366 -0.504,0.553 -0.891,0.553 -0.759,0 -1.118,-0.649 -1.118,-1.367 0,-0.739 0.331,-1.368 1.083,-1.368 0.415,0 0.698,0.193 0.892,0.553 z" /></g><g
           transform="translate(83.0011,531.8038)"
           id="g1094"><path
             inkscape:connector-curvature="0"
             id="path1096"
             style="fill:#000000;fill-opacity:1;fill-rule:nonzero;stroke:none"
             d="M 0,0 V 2.086 C 0,2.5 -0.103,2.99 -0.773,2.99 -1.27,2.99 -1.505,2.707 -1.601,2.527 -1.733,2.272 -1.74,1.996 -1.74,1.423 V 0 H -2.155 V 4.875 H -1.74 V 2.769 c 0.104,0.214 0.38,0.594 1.022,0.594 0.145,0 0.621,-0.027 0.905,-0.407 C 0.374,2.707 0.401,2.438 0.401,1.858 V 0 Z" /></g><g
           transform="translate(86.6956,531.8038)"
           id="g1098"><path
             inkscape:connector-curvature="0"
             id="path1100"
             style="fill:#000000;fill-opacity:1;fill-rule:nonzero;stroke:none"
             d="m 0,0 v 0.594 c -0.179,-0.407 -0.49,-0.67 -1.049,-0.67 -0.456,0 -0.871,0.242 -1.016,0.698 -0.068,0.227 -0.09,0.538 -0.09,1.056 V 3.294 H -1.74 V 1.588 c 0,-0.4 0.007,-0.614 0.056,-0.801 0.054,-0.2 0.199,-0.483 0.683,-0.483 0.166,0 0.518,0.007 0.78,0.366 C -0.02,0.946 0,1.291 0,1.63 V 3.294 H 0.408 V 0 Z" /></g><path
           inkscape:connector-curvature="0"
           id="path1102"
           style="fill:#000000;fill-opacity:1;fill-rule:nonzero;stroke:none"
           d="m 88.229,536.679 h 0.414 v -4.875 h -0.414 z" /><g
           transform="translate(92.0896,533.7858)"
           id="g1104"><path
             inkscape:connector-curvature="0"
             id="path1106"
             style="fill:#000000;fill-opacity:1;fill-rule:nonzero;stroke:none"
             d="M 0,0 C -0.097,0.849 -0.664,1.029 -1.022,1.029 -1.72,1.029 -2.03,0.463 -2.079,0 Z m -2.086,-0.435 c 0,-0.49 0.207,-1.257 1.105,-1.257 0.297,0 0.752,0.062 1.07,0.691 L 0.47,-1.112 c -0.153,-0.338 -0.498,-0.953 -1.43,-0.953 -1.34,0 -1.575,1.188 -1.575,1.761 0,1.126 0.753,1.699 1.519,1.699 0.932,0 1.486,-0.815 1.486,-1.671 v -0.062 h -2.556 z" /></g><g
           transform="translate(96.1156,534.7527)"
           id="g1108"><path
             inkscape:connector-curvature="0"
             id="path1110"
             style="fill:#000000;fill-opacity:1;fill-rule:nonzero;stroke:none"
             d="M 0,0 V -2.949 H -0.407 V 0 h -0.726 v 0.345 h 0.726 v 0.912 c 0,0.297 0.033,0.766 0.732,0.766 0.158,0 0.269,-0.02 0.42,-0.048 V 1.574 C 0.67,1.602 0.546,1.664 0.352,1.664 0.055,1.664 0,1.443 0,1.208 V 0.345 H 0.745 V 0 Z" /></g><path
           inkscape:connector-curvature="0"
           id="path1112"
           style="fill:#000000;fill-opacity:1;fill-rule:nonzero;stroke:none"
           d="m 99.265,536.458 h 0.421 v -0.635 h -0.421 z m -1.189,0 h 0.422 v -0.635 h -0.422 z m 1.678,-4.654 v 0.594 c -0.179,-0.408 -0.489,-0.67 -1.049,-0.67 -0.456,0 -0.87,0.241 -1.015,0.697 -0.069,0.228 -0.09,0.539 -0.09,1.057 v 1.616 h 0.414 v -1.706 c 0,-0.401 0.008,-0.614 0.056,-0.801 0.054,-0.2 0.199,-0.483 0.684,-0.483 0.165,0 0.517,0.006 0.779,0.366 0.201,0.276 0.221,0.621 0.221,0.96 v 1.664 h 0.408 v -3.294 z" /><g
           transform="translate(101.7022,535.0977)"
           id="g1114"><path
             inkscape:connector-curvature="0"
             id="path1116"
             style="fill:#000000;fill-opacity:1;fill-rule:nonzero;stroke:none"
             d="m 0,0 v -0.525 c 0.173,0.387 0.496,0.573 0.905,0.573 0.055,0 0.165,0 0.282,-0.013 V -0.332 C 1.104,-0.318 1.022,-0.31 0.925,-0.31 0.221,-0.31 0,-0.829 0,-1.491 V -3.294 H -0.408 V 0 Z" /></g><g
           transform="translate(107.0119,536.2719)"
           id="g1118"><path
             inkscape:connector-curvature="0"
             id="path1120"
             style="fill:#000000;fill-opacity:1;fill-rule:nonzero;stroke:none"
             d="M 0,0 V -4.468 H -0.463 V 0 H -1.996 V 0.407 H 1.54 V 0 Z" /></g><g
           transform="translate(110.7348,533.7858)"
           id="g1122"><path
             inkscape:connector-curvature="0"
             id="path1124"
             style="fill:#000000;fill-opacity:1;fill-rule:nonzero;stroke:none"
             d="M 0,0 C -0.097,0.849 -0.664,1.029 -1.023,1.029 -1.72,1.029 -2.03,0.463 -2.079,0 Z m -2.086,-0.435 c 0,-0.49 0.207,-1.257 1.105,-1.257 0.297,0 0.752,0.062 1.07,0.691 l 0.38,-0.111 C 0.317,-1.45 -0.028,-2.065 -0.96,-2.065 c -1.34,0 -1.575,1.188 -1.575,1.761 0,1.126 0.753,1.699 1.519,1.699 0.932,0 1.485,-0.815 1.485,-1.671 v -0.062 h -2.555 z" /></g><g
           transform="translate(114.7254,532.5359)"
           id="g1126"><path
             inkscape:connector-curvature="0"
             id="path1128"
             style="fill:#000000;fill-opacity:1;fill-rule:nonzero;stroke:none"
             d="m 0,0 c -0.2,-0.421 -0.573,-0.815 -1.319,-0.815 -0.932,0 -1.512,0.691 -1.512,1.706 0,1.077 0.656,1.754 1.581,1.754 0.704,0 1.077,-0.373 1.25,-0.829 l -0.38,-0.09 c -0.145,0.366 -0.504,0.553 -0.891,0.553 -0.759,0 -1.118,-0.649 -1.118,-1.367 0,-0.739 0.331,-1.368 1.084,-1.368 0.414,0 0.697,0.193 0.891,0.553 z" /></g><g
           transform="translate(117.5291,531.8038)"
           id="g1130"><path
             inkscape:connector-curvature="0"
             id="path1132"
             style="fill:#000000;fill-opacity:1;fill-rule:nonzero;stroke:none"
             d="M 0,0 V 2.086 C 0,2.5 -0.104,2.99 -0.773,2.99 -1.271,2.99 -1.505,2.707 -1.602,2.527 -1.733,2.272 -1.74,1.996 -1.74,1.423 V 0 H -2.155 V 4.875 H -1.74 V 2.769 c 0.103,0.214 0.38,0.594 1.022,0.594 0.145,0 0.621,-0.027 0.904,-0.407 C 0.373,2.707 0.401,2.438 0.401,1.858 V 0 Z" /></g><g
           transform="translate(121.2236,531.8038)"
           id="g1134"><path
             inkscape:connector-curvature="0"
             id="path1136"
             style="fill:#000000;fill-opacity:1;fill-rule:nonzero;stroke:none"
             d="M 0,0 V 1.713 C 0,2.155 0,2.417 -0.076,2.61 -0.2,2.928 -0.539,2.997 -0.76,2.997 -1.443,2.997 -1.747,2.486 -1.747,1.885 V 0 h -0.408 v 3.294 h 0.408 V 2.707 c 0.028,0.09 0.235,0.656 1.036,0.656 0.614,0 0.897,-0.338 1.001,-0.566 C 0.401,2.562 0.407,2.327 0.407,1.871 V 0 Z" /></g><path
           inkscape:connector-curvature="0"
           id="path1138"
           style="fill:#000000;fill-opacity:1;fill-rule:nonzero;stroke:none"
           d="m 122.764,535.098 h 0.401 v -3.294 h -0.401 z m 0,1.402 h 0.401 v -0.628 h -0.401 z" /><g
           transform="translate(126.6583,531.8038)"
           id="g1140"><path
             inkscape:connector-curvature="0"
             id="path1142"
             style="fill:#000000;fill-opacity:1;fill-rule:nonzero;stroke:none"
             d="M 0,0 -1.257,1.706 -1.961,1.036 V 0 h -0.401 v 4.875 h 0.401 V 1.561 l 1.85,1.733 H 0.401 L -0.974,1.982 0.497,0 Z" /></g><g
           transform="translate(131.879,531.8038)"
           id="g1144"><path
             inkscape:connector-curvature="0"
             id="path1146"
             style="fill:#000000;fill-opacity:1;fill-rule:nonzero;stroke:none"
             d="m 0,0 v 0.594 c -0.18,-0.407 -0.49,-0.67 -1.05,-0.67 -0.455,0 -0.87,0.242 -1.015,0.698 -0.069,0.227 -0.09,0.538 -0.09,1.056 V 3.294 H -1.74 V 1.588 c 0,-0.4 0.007,-0.614 0.055,-0.801 0.055,-0.2 0.2,-0.483 0.684,-0.483 0.165,0 0.518,0.007 0.78,0.366 C -0.021,0.946 0,1.291 0,1.63 V 3.294 H 0.407 V 0 Z" /></g><g
           transform="translate(135.5735,531.8038)"
           id="g1148"><path
             inkscape:connector-curvature="0"
             id="path1150"
             style="fill:#000000;fill-opacity:1;fill-rule:nonzero;stroke:none"
             d="M 0,0 V 1.713 C 0,2.155 0,2.417 -0.077,2.61 -0.2,2.928 -0.539,2.997 -0.76,2.997 -1.443,2.997 -1.747,2.486 -1.747,1.885 V 0 h -0.408 v 3.294 h 0.408 V 2.707 c 0.027,0.09 0.235,0.656 1.036,0.656 0.614,0 0.897,-0.338 1.001,-0.566 C 0.401,2.562 0.407,2.327 0.407,1.871 V 0 Z" /></g><g
           transform="translate(138.3219,532.1144)"
           id="g1152"><path
             inkscape:connector-curvature="0"
             id="path1154"
             style="fill:#000000;fill-opacity:1;fill-rule:nonzero;stroke:none"
             d="M 0,0 C 0.531,0 0.96,0.373 0.96,1.278 V 1.457 C 0.96,2.548 0.345,2.68 0.02,2.68 -0.602,2.68 -0.981,2.155 -0.981,1.34 -0.981,0.366 -0.511,0 0,0 m 0.953,-0.311 v 0.594 c -0.152,-0.435 -0.573,-0.67 -1.015,-0.67 -0.822,0 -1.361,0.746 -1.361,1.727 0,0.981 0.553,1.712 1.423,1.712 0.428,0 0.829,-0.22 0.953,-0.594 v 2.107 h 0.401 v -4.876 z" /></g><g
           transform="translate(146.7459,531.8038)"
           id="g1156"><path
             inkscape:connector-curvature="0"
             id="path1158"
             style="fill:#000000;fill-opacity:1;fill-rule:nonzero;stroke:none"
             d="M 0,0 H -0.373 L -1.54,3.943 -2.699,0 h -0.366 l -1.444,4.875 h 0.497 l 1.146,-4.046 1.16,4.046 h 0.319 l 1.201,-4.046 1.111,4.046 h 0.463 z" /></g><path
           inkscape:connector-curvature="0"
           id="path1160"
           style="fill:#000000;fill-opacity:1;fill-rule:nonzero;stroke:none"
           d="m 148.541,535.098 h 0.401 v -3.294 h -0.401 z m 0,1.402 h 0.401 v -0.628 h -0.401 z" /><g
           transform="translate(150.4826,535.0977)"
           id="g1162"><path
             inkscape:connector-curvature="0"
             id="path1164"
             style="fill:#000000;fill-opacity:1;fill-rule:nonzero;stroke:none"
             d="m 0,0 v -0.525 c 0.173,0.387 0.497,0.573 0.905,0.573 0.055,0 0.165,0 0.283,-0.013 V -0.332 C 1.105,-0.318 1.022,-0.31 0.925,-0.31 0.221,-0.31 0,-0.829 0,-1.491 V -3.294 H -0.408 V 0 Z" /></g><g
           transform="translate(153.0024,532.5015)"
           id="g1166"><path
             inkscape:connector-curvature="0"
             id="path1168"
             style="fill:#000000;fill-opacity:1;fill-rule:nonzero;stroke:none"
             d="m 0,0 c 0,-0.187 0.028,-0.401 0.269,-0.401 0.167,0 0.333,0.118 0.457,0.208 V -0.608 C 0.636,-0.677 0.463,-0.76 0.18,-0.76 c -0.118,0 -0.422,0.007 -0.525,0.297 -0.042,0.118 -0.048,0.359 -0.048,0.539 v 2.175 h -0.691 v 0.345 h 0.691 V 3.998 H 0 V 2.596 H 0.726 V 2.251 H 0 Z" /></g><g
           transform="translate(154.5638,532.7431)"
           id="g1170"><path
             inkscape:connector-curvature="0"
             id="path1172"
             style="fill:#000000;fill-opacity:1;fill-rule:nonzero;stroke:none"
             d="m 0,0 c 0.055,-0.228 0.304,-0.649 0.918,-0.649 0.635,0 0.843,0.352 0.843,0.642 0,0.283 -0.166,0.476 -0.712,0.594 L 0.662,0.67 c -0.511,0.11 -0.855,0.338 -0.855,0.821 0,0.118 0.02,0.435 0.282,0.67 0.229,0.208 0.608,0.277 0.899,0.277 0.096,0 0.503,0 0.807,-0.214 C 2.05,2.044 2.127,1.802 2.155,1.692 L 1.767,1.588 C 1.692,1.968 1.298,2.079 0.966,2.079 0.296,2.079 0.207,1.726 0.207,1.526 0.207,1.139 0.614,1.049 0.898,0.994 L 1.243,0.925 c 0.58,-0.117 0.912,-0.448 0.912,-0.959 0,-0.38 -0.304,-0.988 -1.23,-0.988 -0.277,0 -0.973,0.041 -1.326,0.884 z" /></g><g
           transform="translate(160.3232,532.5359)"
           id="g1174"><path
             inkscape:connector-curvature="0"
             id="path1176"
             style="fill:#000000;fill-opacity:1;fill-rule:nonzero;stroke:none"
             d="m 0,0 c -0.2,-0.421 -0.573,-0.815 -1.319,-0.815 -0.932,0 -1.512,0.691 -1.512,1.706 0,1.077 0.656,1.754 1.581,1.754 0.704,0 1.077,-0.373 1.25,-0.829 l -0.38,-0.09 c -0.145,0.366 -0.504,0.553 -0.891,0.553 -0.759,0 -1.118,-0.649 -1.118,-1.367 0,-0.739 0.331,-1.368 1.084,-1.368 0.414,0 0.697,0.193 0.891,0.553 z" /></g><g
           transform="translate(163.1268,531.8038)"
           id="g1178"><path
             inkscape:connector-curvature="0"
             id="path1180"
             style="fill:#000000;fill-opacity:1;fill-rule:nonzero;stroke:none"
             d="M 0,0 V 2.086 C 0,2.5 -0.104,2.99 -0.773,2.99 -1.271,2.99 -1.505,2.707 -1.602,2.527 -1.733,2.272 -1.74,1.996 -1.74,1.423 V 0 H -2.155 V 4.875 H -1.74 V 2.769 c 0.103,0.214 0.38,0.594 1.022,0.594 0.145,0 0.621,-0.027 0.904,-0.407 C 0.373,2.707 0.401,2.438 0.401,1.858 V 0 Z" /></g><g
           transform="translate(166.6625,533.5441)"
           id="g1182"><path
             inkscape:connector-curvature="0"
             id="path1184"
             style="fill:#000000;fill-opacity:1;fill-rule:nonzero;stroke:none"
             d="m 0,0 -0.207,-0.055 c -1.119,-0.297 -1.602,-0.366 -1.602,-0.85 0,-0.228 0.179,-0.545 0.663,-0.545 0.4,0 0.891,0.241 1.056,0.621 C -0.028,-0.69 0,-0.553 0,-0.249 Z M 0.801,-1.74 C 0.256,-1.74 0,-1.602 0,-1.139 c -0.076,-0.249 -0.449,-0.67 -1.167,-0.67 -0.698,0 -1.036,0.428 -1.036,0.898 0,0.656 0.559,0.89 1.651,1.139 L 0,0.352 v 0.256 c 0,0.317 -0.159,0.67 -0.767,0.67 -0.676,0 -0.89,-0.263 -0.89,-0.795 l -0.449,0.076 c 0.083,0.67 0.532,1.078 1.291,1.078 0.573,0 1.209,-0.173 1.209,-0.995 v -1.443 c 0,-0.442 0.013,-0.615 0.421,-0.615 H 0.884 V -1.74 Z" /></g><g
           transform="translate(168.9889,534.7527)"
           id="g1186"><path
             inkscape:connector-curvature="0"
             id="path1188"
             style="fill:#000000;fill-opacity:1;fill-rule:nonzero;stroke:none"
             d="M 0,0 V -2.949 H -0.407 V 0 h -0.725 v 0.345 h 0.725 v 0.912 c 0,0.297 0.035,0.766 0.732,0.766 0.159,0 0.27,-0.02 0.422,-0.048 V 1.574 C 0.67,1.602 0.546,1.664 0.352,1.664 0.055,1.664 0,1.443 0,1.208 V 0.345 H 0.747 V 0 Z" /></g><g
           transform="translate(171.1435,532.5015)"
           id="g1190"><path
             inkscape:connector-curvature="0"
             id="path1192"
             style="fill:#000000;fill-opacity:1;fill-rule:nonzero;stroke:none"
             d="m 0,0 c 0,-0.187 0.028,-0.401 0.27,-0.401 0.165,0 0.332,0.118 0.456,0.208 V -0.608 C 0.636,-0.677 0.463,-0.76 0.18,-0.76 c -0.118,0 -0.421,0.007 -0.526,0.297 -0.04,0.118 -0.048,0.359 -0.048,0.539 v 2.175 h -0.691 v 0.345 h 0.691 V 3.998 H 0 V 2.596 H 0.726 V 2.251 H 0 Z" /></g><g
           transform="translate(62.2156,525.9473)"
           id="g1194"><path
             inkscape:connector-curvature="0"
             id="path1196"
             style="fill:#000000;fill-opacity:1;fill-rule:nonzero;stroke:none"
             d="m 0,0 c 0,-1.077 -0.4,-1.941 -1.823,-1.941 -0.477,0 -1.823,0.111 -1.823,1.844 v 3.156 h 0.455 v -3.28 c 0,-1.091 0.809,-1.291 1.375,-1.291 0.87,0 1.353,0.4 1.353,1.408 V 3.059 H 0 Z" /></g><g
           transform="translate(65.5369,524.1309)"
           id="g1198"><path
             inkscape:connector-curvature="0"
             id="path1200"
             style="fill:#000000;fill-opacity:1;fill-rule:nonzero;stroke:none"
             d="M 0,0 V 1.713 C 0,2.155 0,2.417 -0.076,2.61 -0.2,2.928 -0.539,2.997 -0.759,2.997 -1.443,2.997 -1.747,2.486 -1.747,1.885 V 0 h -0.408 v 3.294 h 0.408 V 2.707 c 0.028,0.09 0.235,0.656 1.036,0.656 0.614,0 0.898,-0.338 1.001,-0.566 C 0.401,2.562 0.408,2.327 0.408,1.871 V 0 Z" /></g><path
           inkscape:connector-curvature="0"
           id="path1202"
           style="fill:#000000;fill-opacity:1;fill-rule:nonzero;stroke:none"
           d="m 67.077,527.425 h 0.4 v -3.294 h -0.4 z m 0,1.402 h 0.4 v -0.628 h -0.4 z" /><g
           transform="translate(70.8956,527.4249)"
           id="g1204"><path
             inkscape:connector-curvature="0"
             id="path1206"
             style="fill:#000000;fill-opacity:1;fill-rule:nonzero;stroke:none"
             d="M 0,0 -1.264,-3.294 H -1.595 L -2.735,0 h 0.408 L -1.415,-2.679 -0.4,0 Z" /></g><g
           transform="translate(73.9067,526.1129)"
           id="g1208"><path
             inkscape:connector-curvature="0"
             id="path1210"
             style="fill:#000000;fill-opacity:1;fill-rule:nonzero;stroke:none"
             d="M 0,0 C -0.097,0.849 -0.663,1.029 -1.022,1.029 -1.72,1.029 -2.03,0.463 -2.079,0 Z m -2.086,-0.435 c 0,-0.49 0.208,-1.257 1.105,-1.257 0.297,0 0.753,0.062 1.071,0.691 L 0.469,-1.112 C 0.317,-1.45 -0.028,-2.065 -0.96,-2.065 c -1.34,0 -1.575,1.188 -1.575,1.761 0,1.126 0.753,1.699 1.52,1.699 0.932,0 1.484,-0.815 1.484,-1.671 v -0.062 h -2.555 z" /></g><g
           transform="translate(75.6882,527.4249)"
           id="g1212"><path
             inkscape:connector-curvature="0"
             id="path1214"
             style="fill:#000000;fill-opacity:1;fill-rule:nonzero;stroke:none"
             d="m 0,0 v -0.525 c 0.173,0.387 0.497,0.573 0.905,0.573 0.055,0 0.165,0 0.283,-0.013 V -0.332 C 1.105,-0.318 1.022,-0.311 0.925,-0.311 0.221,-0.311 0,-0.829 0,-1.492 V -3.294 H -0.408 V 0 Z" /></g><g
           transform="translate(77.6563,525.0702)"
           id="g1216"><path
             inkscape:connector-curvature="0"
             id="path1218"
             style="fill:#000000;fill-opacity:1;fill-rule:nonzero;stroke:none"
             d="m 0,0 c 0.055,-0.228 0.304,-0.649 0.918,-0.649 0.636,0 0.843,0.352 0.843,0.642 0,0.283 -0.166,0.476 -0.712,0.594 L 0.663,0.67 c -0.511,0.11 -0.856,0.338 -0.856,0.821 0,0.118 0.02,0.435 0.283,0.67 0.228,0.208 0.607,0.277 0.898,0.277 0.096,0 0.503,0 0.807,-0.214 C 2.051,2.044 2.127,1.802 2.154,1.692 L 1.768,1.588 c -0.076,0.38 -0.47,0.491 -0.801,0.491 -0.67,0 -0.76,-0.353 -0.76,-0.553 0,-0.387 0.407,-0.477 0.691,-0.532 L 1.243,0.925 c 0.58,-0.117 0.911,-0.448 0.911,-0.959 0,-0.38 -0.303,-0.988 -1.229,-0.988 -0.276,0 -0.973,0.041 -1.326,0.884 z" /></g><path
           inkscape:connector-curvature="0"
           id="path1220"
           style="fill:#000000;fill-opacity:1;fill-rule:nonzero;stroke:none"
           d="m 80.798,527.425 h 0.401 v -3.294 h -0.401 z m 0,1.402 h 0.401 v -0.628 h -0.401 z" /><g
           transform="translate(83.0011,524.8286)"
           id="g1222"><path
             inkscape:connector-curvature="0"
             id="path1224"
             style="fill:#000000;fill-opacity:1;fill-rule:nonzero;stroke:none"
             d="m 0,0 c 0,-0.187 0.028,-0.401 0.269,-0.401 0.166,0 0.332,0.118 0.456,0.208 V -0.608 C 0.635,-0.677 0.463,-0.76 0.18,-0.76 c -0.118,0 -0.422,0.007 -0.525,0.297 -0.042,0.118 -0.049,0.359 -0.049,0.539 v 2.175 h -0.69 v 0.345 h 0.69 V 3.998 H 0 V 2.596 H 0.725 V 2.251 H 0 Z" /></g><g
           transform="translate(86.8751,527.4249)"
           id="g1226"><path
             inkscape:connector-curvature="0"
             id="path1228"
             style="fill:#000000;fill-opacity:1;fill-rule:nonzero;stroke:none"
             d="m 0,0 -1.554,-3.936 c -0.262,-0.677 -0.393,-1.029 -0.884,-1.029 -0.228,0 -0.366,0.083 -0.435,0.131 v 0.415 c 0.187,-0.132 0.318,-0.159 0.428,-0.159 0.235,0 0.304,0.145 0.442,0.497 L -1.699,-3.294 -2.838,0 h 0.393 L -1.485,-2.804 -0.414,0 Z" /></g><g
           transform="translate(90.7215,527.1627)"
           id="g1230"><path
             inkscape:connector-curvature="0"
             id="path1232"
             style="fill:#000000;fill-opacity:1;fill-rule:nonzero;stroke:none"
             d="m 0,0 c -0.593,0 -1.063,-0.435 -1.063,-1.423 0,-1.015 0.531,-1.333 1.049,-1.333 0.511,0 1.071,0.332 1.071,1.388 C 1.057,-0.332 0.518,0 0,0 m -0.021,-3.115 c -0.849,0 -1.478,0.629 -1.478,1.692 0,1.022 0.56,1.768 1.506,1.768 1.03,0 1.471,-0.877 1.485,-1.713 0,-1.229 -0.795,-1.747 -1.513,-1.747" /></g><g
           transform="translate(93.905,527.0798)"
           id="g1234"><path
             inkscape:connector-curvature="0"
             id="path1236"
             style="fill:#000000;fill-opacity:1;fill-rule:nonzero;stroke:none"
             d="M 0,0 V -2.949 H -0.407 V 0 h -0.726 v 0.345 h 0.726 v 0.912 c 0,0.297 0.034,0.766 0.732,0.766 0.158,0 0.269,-0.02 0.421,-0.048 V 1.574 C 0.67,1.602 0.546,1.664 0.352,1.664 0.055,1.664 0,1.443 0,1.208 V 0.345 H 0.746 V 0 Z" /></g><g
           transform="translate(98.9944,528.4675)"
           id="g1238"><path
             inkscape:connector-curvature="0"
             id="path1240"
             style="fill:#000000;fill-opacity:1;fill-rule:nonzero;stroke:none"
             d="m 0,0 -0.953,-2.493 h 1.892 z m 1.637,-4.337 -0.56,1.471 h -2.182 l -0.559,-1.471 h -0.511 l 1.989,4.876 H 0.2 l 1.941,-4.876 z" /></g><g
           transform="translate(102.2263,525.6572)"
           id="g1242"><path
             inkscape:connector-curvature="0"
             id="path1244"
             style="fill:#000000;fill-opacity:1;fill-rule:nonzero;stroke:none"
             d="m 0,0 c 0,-0.449 0.083,-0.787 0.359,-1.015 0.221,-0.187 0.463,-0.194 0.573,-0.194 0.76,0 1.022,0.739 1.022,1.375 0,0.607 -0.262,1.298 -1.029,1.298 C 0.131,1.464 0,0.67 0,0.166 Z M 0,1.768 V 1.229 c 0.104,0.249 0.38,0.608 0.994,0.608 1.202,0 1.382,-1.25 1.382,-1.727 0,-0.497 -0.242,-1.712 -1.382,-1.712 -0.573,0 -0.884,0.345 -0.994,0.628 v -2.299 h -0.401 v 5.041 z" /></g><g
           transform="translate(105.9208,525.6572)"
           id="g1246"><path
             inkscape:connector-curvature="0"
             id="path1248"
             style="fill:#000000;fill-opacity:1;fill-rule:nonzero;stroke:none"
             d="m 0,0 c 0,-0.449 0.083,-0.787 0.359,-1.015 0.221,-0.187 0.463,-0.194 0.573,-0.194 0.76,0 1.022,0.739 1.022,1.375 0,0.607 -0.262,1.298 -1.029,1.298 C 0.131,1.464 0,0.67 0,0.166 Z M 0,1.768 V 1.229 c 0.104,0.249 0.38,0.608 0.994,0.608 1.202,0 1.382,-1.25 1.382,-1.727 0,-0.497 -0.242,-1.712 -1.382,-1.712 -0.573,0 -0.884,0.345 -0.994,0.628 v -2.299 h -0.401 v 5.041 z" /></g><path
           inkscape:connector-curvature="0"
           id="path1250"
           style="fill:#000000;fill-opacity:1;fill-rule:nonzero;stroke:none"
           d="m 109.208,529.006 h 0.414 v -4.875 h -0.414 z" /><path
           inkscape:connector-curvature="0"
           id="path1252"
           style="fill:#000000;fill-opacity:1;fill-rule:nonzero;stroke:none"
           d="m 110.748,527.425 h 0.401 v -3.294 h -0.401 z m 0,1.402 h 0.401 v -0.628 h -0.401 z" /><g
           transform="translate(114.6011,526.1129)"
           id="g1254"><path
             inkscape:connector-curvature="0"
             id="path1256"
             style="fill:#000000;fill-opacity:1;fill-rule:nonzero;stroke:none"
             d="M 0,0 C -0.097,0.849 -0.663,1.029 -1.022,1.029 -1.719,1.029 -2.03,0.463 -2.079,0 Z m -2.085,-0.435 c 0,-0.49 0.207,-1.257 1.104,-1.257 0.297,0 0.753,0.062 1.071,0.691 l 0.38,-0.111 c -0.152,-0.338 -0.498,-0.953 -1.43,-0.953 -1.34,0 -1.574,1.188 -1.574,1.761 0,1.126 0.752,1.699 1.519,1.699 0.932,0 1.485,-0.815 1.485,-1.671 v -0.062 h -2.555 z" /></g><g
           transform="translate(117.1838,524.4415)"
           id="g1258"><path
             inkscape:connector-curvature="0"
             id="path1260"
             style="fill:#000000;fill-opacity:1;fill-rule:nonzero;stroke:none"
             d="M 0,0 C 0.532,0 0.96,0.373 0.96,1.278 V 1.457 C 0.96,2.548 0.345,2.68 0.021,2.68 -0.601,2.68 -0.981,2.155 -0.981,1.34 -0.981,0.366 -0.511,0 0,0 m 0.953,-0.311 v 0.594 c -0.152,-0.435 -0.573,-0.67 -1.015,-0.67 -0.822,0 -1.361,0.746 -1.361,1.727 0,0.981 0.553,1.712 1.423,1.712 0.428,0 0.829,-0.22 0.953,-0.594 v 2.107 h 0.401 v -4.876 z" /></g><g
           transform="translate(124.4761,527.8325)"
           id="g1262"><path
             inkscape:connector-curvature="0"
             id="path1264"
             style="fill:#000000;fill-opacity:1;fill-rule:nonzero;stroke:none"
             d="m 0,0 c -0.048,0.152 -0.104,0.29 -0.201,0.421 -0.138,0.201 -0.469,0.497 -1.063,0.497 -0.842,0 -1.146,-0.462 -1.146,-0.87 0,-0.628 0.565,-0.787 1.036,-0.911 l 0.469,-0.125 c 0.877,-0.235 1.429,-0.614 1.429,-1.381 0,-0.255 -0.075,-0.732 -0.6,-1.112 -0.228,-0.158 -0.58,-0.345 -1.215,-0.345 -0.933,0 -1.616,0.401 -1.817,1.354 l 0.462,0.241 c 0.014,-0.29 0.049,-0.414 0.111,-0.545 0.139,-0.304 0.505,-0.642 1.244,-0.642 0.897,0 1.345,0.483 1.345,1.036 0,0.538 -0.345,0.793 -1.035,0.973 l -0.56,0.145 c -0.551,0.145 -1.318,0.401 -1.318,1.298 0,0.677 0.497,1.264 1.608,1.264 0.67,0 1.368,-0.228 1.678,-1.07 z" /></g><g
           transform="translate(128.4323,524.863)"
           id="g1266"><path
             inkscape:connector-curvature="0"
             id="path1268"
             style="fill:#000000;fill-opacity:1;fill-rule:nonzero;stroke:none"
             d="m 0,0 c -0.2,-0.422 -0.573,-0.815 -1.318,-0.815 -0.933,0 -1.513,0.691 -1.513,1.706 0,1.077 0.656,1.754 1.582,1.754 0.703,0 1.076,-0.373 1.249,-0.829 l -0.38,-0.09 c -0.145,0.366 -0.503,0.553 -0.89,0.553 -0.76,0 -1.119,-0.649 -1.119,-1.367 0,-0.739 0.331,-1.368 1.085,-1.368 0.413,0 0.696,0.193 0.89,0.553 z" /></g><path
           inkscape:connector-curvature="0"
           id="path1270"
           style="fill:#000000;fill-opacity:1;fill-rule:nonzero;stroke:none"
           d="m 129.22,527.425 h 0.401 v -3.294 h -0.401 z m 0,1.402 h 0.401 v -0.628 h -0.401 z" /><g
           transform="translate(133.0736,526.1129)"
           id="g1272"><path
             inkscape:connector-curvature="0"
             id="path1274"
             style="fill:#000000;fill-opacity:1;fill-rule:nonzero;stroke:none"
             d="M 0,0 C -0.097,0.849 -0.663,1.029 -1.022,1.029 -1.719,1.029 -2.03,0.463 -2.079,0 Z m -2.085,-0.435 c 0,-0.49 0.207,-1.257 1.104,-1.257 0.297,0 0.752,0.062 1.07,0.691 L 0.47,-1.112 c -0.153,-0.338 -0.498,-0.953 -1.43,-0.953 -1.34,0 -1.574,1.188 -1.574,1.761 0,1.126 0.752,1.699 1.519,1.699 0.931,0 1.485,-0.815 1.485,-1.671 v -0.062 h -2.555 z" /></g><g
           transform="translate(136.6016,524.1309)"
           id="g1276"><path
             inkscape:connector-curvature="0"
             id="path1278"
             style="fill:#000000;fill-opacity:1;fill-rule:nonzero;stroke:none"
             d="M 0,0 V 1.713 C 0,2.155 0,2.417 -0.076,2.61 -0.2,2.928 -0.539,2.997 -0.759,2.997 -1.443,2.997 -1.746,2.486 -1.746,1.885 V 0 h -0.409 v 3.294 h 0.409 V 2.707 c 0.027,0.09 0.234,0.656 1.035,0.656 0.614,0 0.898,-0.338 1.001,-0.566 C 0.401,2.562 0.408,2.327 0.408,1.871 V 0 Z" /></g><g
           transform="translate(140.7588,524.863)"
           id="g1280"><path
             inkscape:connector-curvature="0"
             id="path1282"
             style="fill:#000000;fill-opacity:1;fill-rule:nonzero;stroke:none"
             d="m 0,0 c -0.199,-0.422 -0.573,-0.815 -1.318,-0.815 -0.933,0 -1.513,0.691 -1.513,1.706 0,1.077 0.656,1.754 1.581,1.754 0.704,0 1.077,-0.373 1.25,-0.829 l -0.38,-0.09 c -0.145,0.366 -0.503,0.553 -0.89,0.553 -0.76,0 -1.119,-0.649 -1.119,-1.367 0,-0.739 0.331,-1.368 1.084,-1.368 0.414,0 0.697,0.193 0.891,0.553 z" /></g><g
           transform="translate(143.8671,526.1129)"
           id="g1284"><path
             inkscape:connector-curvature="0"
             id="path1286"
             style="fill:#000000;fill-opacity:1;fill-rule:nonzero;stroke:none"
             d="M 0,0 C -0.097,0.849 -0.664,1.029 -1.022,1.029 -1.72,1.029 -2.03,0.463 -2.079,0 Z m -2.086,-0.435 c 0,-0.49 0.207,-1.257 1.105,-1.257 0.297,0 0.752,0.062 1.07,0.691 l 0.38,-0.111 C 0.317,-1.45 -0.028,-2.065 -0.96,-2.065 c -1.34,0 -1.575,1.188 -1.575,1.761 0,1.126 0.753,1.699 1.519,1.699 0.932,0 1.485,-0.815 1.485,-1.671 v -0.062 h -2.555 z" /></g><g
           transform="translate(145.3587,525.0702)"
           id="g1288"><path
             inkscape:connector-curvature="0"
             id="path1290"
             style="fill:#000000;fill-opacity:1;fill-rule:nonzero;stroke:none"
             d="m 0,0 c 0.054,-0.228 0.304,-0.649 0.918,-0.649 0.635,0 0.842,0.352 0.842,0.642 0,0.283 -0.165,0.476 -0.711,0.594 L 0.662,0.67 c -0.511,0.11 -0.855,0.338 -0.855,0.821 0,0.118 0.02,0.435 0.282,0.67 0.229,0.208 0.608,0.277 0.898,0.277 0.097,0 0.504,0 0.808,-0.214 C 2.05,2.044 2.126,1.802 2.155,1.692 L 1.767,1.588 c -0.075,0.38 -0.47,0.491 -0.801,0.491 -0.67,0 -0.759,-0.353 -0.759,-0.553 0,-0.387 0.407,-0.477 0.69,-0.532 L 1.243,0.925 c 0.579,-0.117 0.912,-0.448 0.912,-0.959 0,-0.38 -0.304,-0.988 -1.23,-0.988 -0.277,0 -0.973,0.041 -1.326,0.884 z" /></g><g
           transform="translate(57.5924,547.0271)"
           id="g1292"><path
             inkscape:connector-curvature="0"
             id="path1294"
             style="fill:#000000;fill-opacity:1;fill-rule:nonzero;stroke:none"
             d="M 0,0 H 1.21 V 6.79 H 0 V 8.529 H 4.929 V 6.79 H 3.887 V 4.536 H 6.683 V 6.79 H 5.64 v 1.739 h 4.929 V 6.79 H 9.36 V 0 h 1.209 V -1.74 H 5.64 V 0 H 6.683 V 2.798 H 3.887 V 0 H 4.929 V -1.74 H 0 Z" /></g><g
           transform="translate(79.2317,551.4274)"
           id="g1296"><path
             inkscape:connector-curvature="0"
             id="path1298"
             style="fill:#000000;fill-opacity:1;fill-rule:nonzero;stroke:none"
             d="M 0,0 H -1.785 V 2.39 H -3.327 V -4.4 h 1.542 v -1.74 h -5.761 v 1.74 h 1.541 V 2.39 H -7.546 V 0 H -9.33 V 4.128 H 0 Z" /></g><g
           transform="translate(81.0905,553.817)"
           id="g1300"><path
             inkscape:connector-curvature="0"
             id="path1302"
             style="fill:#000000;fill-opacity:1;fill-rule:nonzero;stroke:none"
             d="M 0,0 H -1.089 V 1.739 H 3.523 V 0 H 2.479 l 1.649,-4.93 h 0.03 L 5.716,0 H 4.777 V 1.739 H 8.468 V 0 H 7.515 l 1.664,-4.93 h 0.03 L 10.827,0 H 9.768 v 1.739 h 4.143 V 0 H 12.793 L 9.92,-8.604 H 8.06 L 6.427,-3.918 H 6.395 L 4.853,-8.604 h -1.89 z" /></g><g
           transform="translate(107.8705,553.0305)"
           id="g1304"><path
             inkscape:connector-curvature="0"
             id="path1306"
             style="fill:#000000;fill-opacity:1;fill-rule:nonzero;stroke:none"
             d="m 0,0 c -0.453,1.497 -1.21,2.359 -3.146,2.359 -2.404,0 -3.598,-1.89 -3.598,-4.718 0,-3.433 1.587,-4.717 3.765,-4.717 1.693,0 2.54,0.876 3.024,2.282 l 0.983,-0.529 c -0.755,-1.935 -2.208,-2.692 -4.204,-2.692 -2.556,0 -4.596,1.603 -4.596,5.656 0,4.082 2.178,5.655 4.52,5.655 2.133,0 3.433,-0.757 4.28,-2.782 z" /></g><g
           transform="translate(110.2982,556.0547)"
           id="g1308"><path
             inkscape:connector-curvature="0"
             id="path1310"
             style="fill:#000000;fill-opacity:1;fill-rule:nonzero;stroke:none"
             d="m 0,0 h 0.908 v -4.582 h 0.029 c 0.453,0.923 1.317,1.254 2.164,1.254 1.783,0 2.555,-1.027 2.555,-2.524 v -4.915 H 4.749 v 4.643 c 0,1.467 -0.62,1.95 -1.77,1.95 -1.088,0 -2.071,-0.726 -2.071,-2.359 v -4.234 H 0 Z" /></g><g
           transform="translate(122.94,546.3472)"
           id="g1312"><path
             inkscape:connector-curvature="0"
             id="path1314"
             style="fill:#000000;fill-opacity:1;fill-rule:nonzero;stroke:none"
             d="m 0,0 h -0.031 c -0.452,-0.908 -1.316,-1.24 -2.162,-1.24 -1.785,0 -2.555,1.027 -2.555,2.524 V 6.199 H -3.84 V 1.557 c 0,-1.468 0.619,-1.95 1.769,-1.95 C -0.983,-0.393 0,0.332 0,1.965 V 6.199 H 0.907 V -1.06 H 0 Z" /></g><g
           transform="translate(126.4389,552.5461)"
           id="g1316"><path
             inkscape:connector-curvature="0"
             id="path1318"
             style="fill:#000000;fill-opacity:1;fill-rule:nonzero;stroke:none"
             d="m 0,0 h 0.906 v -1.014 h 0.031 c 0.499,0.757 1.029,1.195 1.966,1.195 0.241,0 0.423,-0.014 0.65,-0.03 v -0.786 c -0.211,0.045 -0.409,0.06 -0.604,0.06 -1.407,0 -2.043,-1.028 -2.043,-2.51 V -7.259 H 0 Z" /></g></g></g></g></svg>