<?xml version="1.0" encoding="UTF-8" standalone="no"?><!DOCTYPE svg PUBLIC "-//W3C//DTD SVG 1.1//EN" "http://www.w3.org/Graphics/SVG/1.1/DTD/svg11.dtd"><svg width="100%" height="100%" viewBox="0 0 74 9" version="1.1" xmlns="http://www.w3.org/2000/svg" xmlns:xlink="http://www.w3.org/1999/xlink" xml:space="preserve" xmlns:serif="http://www.serif.com/" style="fill-rule:evenodd;clip-rule:evenodd;stroke-linejoin:round;stroke-miterlimit:1.41421;"><path d="M3.722,4.72c0,0.961 -0.838,1.418 -1.842,1.418c-0.99,0 -1.88,-0.585 -1.88,-1.682l1.043,0c0,0.609 0.38,0.819 0.895,0.819c0.425,0 0.755,-0.127 0.755,-0.533c0,-0.434 -0.469,-0.464 -1.435,-0.839c-0.647,-0.247 -1.104,-0.488 -1.104,-1.288c0,-0.869 0.795,-1.333 1.735,-1.333c0.982,0 1.758,0.66 1.758,1.562l-1.043,0c0,-0.432 -0.22,-0.711 -0.749,-0.711c-0.365,0 -0.66,0.178 -0.66,0.506c0,0.395 0.425,0.446 1.269,0.769c0.642,0.248 1.258,0.477 1.258,1.312Z" style="fill:#e41a24;fill-rule:nonzero;"/><path d="M7.873,2.565l-1.219,3.446l-0.724,0l-1.789,-4.614l1.154,0l1.003,2.919l1.038,-2.919l1.057,0l1.041,2.919l1.001,-2.919l1.157,0l-1.79,4.614l-0.723,0l-1.206,-3.446Z" style="fill:#e41a24;fill-rule:nonzero;"/><path d="M12.532,1.397l1.079,0l0,4.614l-1.079,0l0,-4.614Zm0.535,5.554c0.446,0 0.803,0.355 0.803,0.795c0,0.441 -0.357,0.798 -0.803,0.798c-0.434,0 -0.789,-0.357 -0.789,-0.798c0,-0.44 0.355,-0.795 0.789,-0.795Z" style="fill:#e41a24;fill-rule:nonzero;"/><path d="M18.521,4.72c0,0.961 -0.835,1.418 -1.841,1.418c-0.989,0 -1.885,-0.585 -1.885,-1.682l1.05,0c0,0.609 0.38,0.819 0.889,0.819c0.432,0 0.754,-0.127 0.754,-0.533c0,-0.434 -0.462,-0.464 -1.434,-0.839c-0.64,-0.247 -1.097,-0.488 -1.097,-1.288c0,-0.869 0.787,-1.333 1.728,-1.333c0.983,0 1.762,0.66 1.762,1.562l-1.047,0c0,-0.432 -0.22,-0.711 -0.742,-0.711c-0.368,0 -0.66,0.178 -0.66,0.506c0,0.395 0.419,0.446 1.265,0.769c0.638,0.248 1.258,0.477 1.258,1.312Z" style="fill:#e41a24;fill-rule:nonzero;"/><path d="M23.043,4.72c0,0.961 -0.833,1.418 -1.84,1.418c-0.991,0 -1.879,-0.585 -1.879,-1.682l1.046,0c0,0.609 0.376,0.819 0.894,0.819c0.421,0 0.751,-0.127 0.751,-0.533c0,-0.434 -0.47,-0.464 -1.434,-0.839c-0.648,-0.247 -1.105,-0.488 -1.105,-1.288c0,-0.869 0.8,-1.333 1.739,-1.333c0.978,0 1.759,0.66 1.759,1.562l-1.048,0c0,-0.432 -0.216,-0.711 -0.744,-0.711c-0.365,0 -0.665,0.178 -0.665,0.506c0,0.395 0.43,0.446 1.27,0.769c0.645,0.248 1.256,0.477 1.256,1.312Z" style="fill:#e41a24;fill-rule:nonzero;"/><path d="M28.374,1.397l0,4.614l-1.08,0l0,-0.636c-0.29,0.484 -0.823,0.763 -1.508,0.763c-0.66,0 -1.13,-0.251 -1.384,-0.635c-0.229,-0.343 -0.295,-0.736 -0.295,-1.364l0,-2.742l1.078,0l0,2.386c0,0.793 0.228,1.39 0.996,1.39c0.757,0 1.113,-0.597 1.113,-1.39l0,-2.386l1.08,0Z" style="fill:#e41a24;fill-rule:nonzero;"/><path d="M29.823,1.397l1.078,0l0,0.647c0.28,-0.495 0.817,-0.762 1.498,-0.762c0.665,0 1.131,0.237 1.386,0.622c0.227,0.343 0.302,0.735 0.302,1.367l0,2.74l-1.078,0l0,-2.383c0,-0.797 -0.229,-1.394 -1.003,-1.394c-0.749,0 -1.105,0.597 -1.105,1.394l0,2.383l-1.078,0l0,-4.614Z" style="fill:#e41a24;fill-rule:nonzero;"/><path d="M35.409,1.397l1.079,0l0,4.614l-1.079,0l0,-4.614Zm0.536,5.554c0.448,0 0.806,0.355 0.806,0.795c0,0.441 -0.358,0.798 -0.806,0.798c-0.435,0 -0.79,-0.357 -0.79,-0.798c0,-0.44 0.355,-0.795 0.79,-0.795Z" style="fill:#e41a24;fill-rule:nonzero;"/><path d="M38.513,1.397l1.27,3.072l1.292,-3.072l1.146,0l-2.083,4.614l-0.717,0l-2.061,-4.614l1.153,0Z" style="fill:#e41a24;fill-rule:nonzero;"/><path d="M43.49,3.23l2.26,0c0,-0.64 -0.457,-1.046 -1.118,-1.046c-0.634,0 -1.142,0.366 -1.142,1.046Zm0,0.803c0,0.658 0.33,1.191 1.205,1.191c0.618,0 0.844,-0.278 0.978,-0.601l1.092,0c-0.152,0.798 -0.888,1.515 -2.07,1.515c-1.561,0 -2.3,-1.169 -2.3,-2.431c0,-1.384 0.815,-2.425 2.264,-2.425c1.204,0 2.143,0.902 2.143,2.078c0,0.157 0,0.372 -0.044,0.673l-3.268,0Z" style="fill:#e41a24;fill-rule:nonzero;"/><path d="M50.903,2.399c-0.172,-0.038 -0.254,-0.05 -0.432,-0.05c-0.913,0 -1.421,0.523 -1.421,1.675l0,1.987l-1.073,0l0,-4.614l1.073,0l0,0.748c0.203,-0.431 0.812,-0.804 1.421,-0.804c0.178,0 0.307,0.017 0.432,0.068l0,0.99Z" style="fill:#e41a24;fill-rule:nonzero;"/><path d="M55.065,4.72c0,0.961 -0.836,1.418 -1.852,1.418c-0.99,0 -1.878,-0.585 -1.878,-1.682l1.046,0c0,0.609 0.375,0.819 0.896,0.819c0.419,0 0.749,-0.127 0.749,-0.533c0,-0.434 -0.457,-0.464 -1.428,-0.839c-0.654,-0.247 -1.108,-0.488 -1.108,-1.288c0,-0.869 0.8,-1.333 1.738,-1.333c0.976,0 1.763,0.66 1.763,1.562l-1.047,0c0,-0.432 -0.223,-0.711 -0.748,-0.711c-0.363,0 -0.668,0.178 -0.668,0.506c0,0.395 0.432,0.446 1.269,0.769c0.647,0.248 1.268,0.477 1.268,1.312Z" style="fill:#e41a24;fill-rule:nonzero;"/><path d="M56.184,1.397l1.087,0l0,4.614l-1.087,0l0,-4.614Zm0.533,5.554c0.457,0 0.813,0.355 0.813,0.795c0,0.441 -0.356,0.798 -0.813,0.798c-0.431,0 -0.787,-0.357 -0.787,-0.798c0,-0.44 0.356,-0.795 0.787,-0.795Z" style="fill:#e41a24;fill-rule:nonzero;"/><path d="M61.338,6.011c-0.166,0.026 -0.482,0.055 -0.797,0.055c-0.523,0 -1.49,-0.06 -1.49,-1.621l0,-2.147l-0.785,0l0,-0.901l0.785,0l0,-1.397l1.069,0l0,1.397l1.066,0l0,0.901l-1.066,0l0,1.904c0,0.794 0.254,0.895 0.682,0.895c0.156,0 0.435,-0.02 0.536,-0.032l0,0.946Z" style="fill:#e41a24;fill-rule:nonzero;"/><path d="M62.506,1.397l1.086,0l0,4.614l-1.086,0l0,-4.614Zm0.534,5.554c0.457,0 0.812,0.355 0.812,0.795c0,0.441 -0.355,0.798 -0.812,0.798c-0.432,0 -0.788,-0.357 -0.788,-0.798c0,-0.44 0.356,-0.795 0.788,-0.795Z" style="fill:#e41a24;fill-rule:nonzero;"/><path d="M65.858,3.23l2.261,0c0,-0.64 -0.457,-1.046 -1.117,-1.046c-0.636,0 -1.144,0.366 -1.144,1.046Zm0,0.803c0,0.658 0.33,1.191 1.199,1.191c0.616,0 0.844,-0.278 0.986,-0.601l1.091,0c-0.152,0.798 -0.888,1.515 -2.077,1.515c-1.555,0 -2.302,-1.169 -2.302,-2.431c0,-1.384 0.824,-2.425 2.272,-2.425c1.196,0 2.138,0.902 2.138,2.078c0,0.157 0,0.372 -0.046,0.673l-3.261,0Z" style="fill:#e41a24;fill-rule:nonzero;"/><path d="M73.701,4.72c0,0.961 -0.834,1.418 -1.85,1.418c-0.99,0 -1.879,-0.585 -1.879,-1.682l1.048,0c0,0.609 0.374,0.819 0.89,0.819c0.424,0 0.754,-0.127 0.754,-0.533c0,-0.434 -0.457,-0.464 -1.429,-0.839c-0.653,-0.247 -1.11,-0.488 -1.11,-1.288c0,-0.869 0.797,-1.333 1.742,-1.333c0.974,0 1.761,0.66 1.761,1.562l-1.047,0c0,-0.432 -0.222,-0.711 -0.752,-0.711c-0.359,0 -0.663,0.178 -0.663,0.506c0,0.395 0.431,0.446 1.269,0.769c0.646,0.248 1.266,0.477 1.266,1.312Z" style="fill:#e41a24;fill-rule:nonzero;"/></svg>